<svg xmlns="http://www.w3.org/2000/svg" width="800" height="600">
  <path fill="white" stroke="#000" d="M338 266s.169-.22-5-4c-5.82-4.256-9-7-12-10l-7-7c-3-3-3.297-4.614-6-7-1.676-1.48-2.693-2.459-4-3-.924-.383-1-1-1-1-1 0-1 0-1 1v1c1 4 2.987 6.757 4 13 .16.987 1 2 1 3 0 0-.707 2.293 0 3 .707.707 1 0 0 0s-2.304 1.53-6 0c-1.307-.541-4-1-4-1 0 1-.383 1.076 0 2 .541 1.307 1.459.693 2 2 .383.924 0 1 0 1s-3.908.496-8 1c-.992.122-1.08-.69-4 0-2.176.514-3 1-3 1h-1v1c0 1-.765 2.152 0 4 .541 1.307 2 3 2 3 2 3 3.486 3.824 4 6 .23.973 1 1 1 1 0 1 1 2 1 2 1 1 1 1 1 2v1s.459-.307 1 1c.383.924 1 1 1 2s0 1 1 2l1 2c1 2 1.459 1.693 2 3 .383.924 0 1 1 2l1 1c.707.707 0 1 1 2v1l3 3c1 0 2 2 2 2 1 1 1.459.693 2 2 .383.924 3 3 3 3 0 1 .693 2.459 2 3 .924.383 1.293.293 2 1 .707.707 1 1 1 2 0 0 1.293.293 2 1 .707.707.293 1.293 1 2 .707.707 1 0 1 1 0 0 1 0 1 1 0 0 1 0 1 1h1s0 1 1 1c0 0-.707.293 0 1 .707.707 1 0 1 0h1c0 1 .293.293 1 1 .707.707 0 1 0 1"/>
  <path fill="white" stroke="#000" d="M349 208c0 1-.224.903-1 3-1.43 3.867-2.753 18.01-3 21-.502 6.062-2 14-2 16 0 4 .379 6.16-1 12-.514 2.176-1 9-1 12v8c0 1 0 1-1 1-1-1-3.908-1.496-8-2-6.948-.855-13.006.249-18 0-10.037-.5-11-1-14-1h-12c-6 0-19.879.493-23 1-7.897 1.281-10.824 1.486-13 2-.973.23-1.934.144-4 1-2.922 1.21-6 1-10 2-1-1-.848-2.08-3-6-2.806-5.111-3-6-4-7v1c0 1-1.149 3.134 0 8 .514 2.176 2 4 3 5 0 0 0 1-1 1-2 0-6.824 2.486-9 3-1.946.46-2 1-3 1 0 0 1.954.207 6 1 6.94 1.36 7 1 7 1v1l-1 2c-2 2-2 3-2 4 0 0-.45-.955 3-2 1.914-.58 5.712-1.982 11-3 .982-.19 1 1 1 1v6c0 1 0 1 1 1l3-2 4-3 1-1c1 0 .938-.498 7-1 2.99-.247 11-1 16-1h48c0 1-2.121 1.879 0 4 .707.707 1 2 1 2 0 1-.46 3.054 0 5 .514 2.176-2.536 6.464 1 10 .707.707 1 3 1 5v17s-.46 1.054 0 3c.514 2.176 1 3 1 3 0 1 .459 1.693 1 3 .383.924 0 2 0 2 1 2 1 3 1 3 0 1 1 2 1 3s1.293 3.293 2 4c.707.707 0 2 0 2 0 2 1.173 3.853 2 5 1.307 1.814 1.707 2.293 1 3-.707.707-2 2-3 4s-3.906 6.05-5 8c-4.615 8.228-4.811 10.139-10 17-3.862 5.107-10.293 12.881-13 20-2.248 5.912-3.293 7.293-4 8-.707.707.383 1.076 0 2-.541 1.307-1 1-1 2 0 0 .707-.293 0-1-.707-.707-2-1-2-1h-4c0 1-1 1-1 1-1 0-1 1-1 1s-.203.257 1 1c2.69 1.663 9.693 3.459 11 4 5.543 2.296 9 0 10 0-1 0-1.293 1.293-2 2-.707.707-1 0-1 1 0 0-.383-.076 0-1 1.082-2.613 2.368-3.103 3-5 1.581-4.743 2.693-5.541 4-5 .924.383-.309 1.072 1 6 .812 3.056 1 5 1 6s1 2 1 2 .19.118 2-3c2.245-3.868 1.057-10.767 5-14 .773-.634 1-1 1-1 0 1 1.486 2.824 2 5 .23.973 0 2 1 2v-11c0-2 1-4 1-6 0-1 1-5 1-5 0-1 .486-1.824 1-4 .23-.973 1.693-5.186 3-7 1.654-2.295 3-3 4-5 0 0 .714-2.212 3-5 1.793-2.187 3.459-2.693 4-4 .383-.924 1-3 3-5 1-1 1-2 2-2h5s1 3 2 4c0 0 .337 3.31 2 6 1.487 2.406 1.73 5.694 6 12 1.586 2.342 2.337 3.31 4 6 1.487 2.406 2.103 2.906 3 4 4.572 5.577 6 8 6 9l1 1c.707.707 1.617 3.076 2 4 .541 1.307 1 2 2 3 0 0 0 1 1 2h1c0 1 .459.693 1 2 .383.924 0 1 0 1s.707.293 0 1c-.707.707-3 6-3 6-1 3-2 4-3 6 0 0-.293 1.293-1 2-1.414 1.414-.293 1.293-1 2-.707.707.293 1.707 1 1 .707-.707.956-1.046 2-2 5.767-5.267 8.77-8.027 9-9 .514-2.176 3-4 3-4 0-1 0 0 0 0 1 3 1 5 1 7 0 1 1 2 1 3s1 1 1 1 .207.187 2-2c2.286-2.788 3.77-7.027 4-8 .514-2.176 1-3 1-2 0 0-.565 3.151 2 5 .811.585 1.459 1.693 2 3 .383.924 1 1 1 2l1 1c.707.707 1 0 1 0v-1c1-1 1-2 1-4s.23-8.027 0-9c-.514-2.176-1-2-1-2 0-1 0-1-1-2 0-1-2.15-2.474-3-3-1.902-1.176-1.617-3.076-2-4-.541-1.307-.853-2.173-2-3-1.814-1.307-3-3-3-3-2-3-2.459-3.693-3-5-.383-.924-.54-2.054-1-4-.514-2.176-1.617-3.076-2-4-.541-1.307-1.459-2.693-2-4-.383-.924-1-1-1-2 0 0 .307-1.459-1-2a3.628 3.628 0 0 1-2-2c-.541-1.307-1-1-2-2l-2-2-2-2-2-2-1-1-3-3c-1-1-1.824-1.098-3-3-.526-.85 0-1 0-1-1-1-1.459-.693-2-2-.383-.924-1-2-1-2v-1c-1 0-1-1-1-1 0-1-.459-.693-1-2-.383-.924-1-3-1-3 0-1 1-1 1-1 6 0 6.293.707 7 0 .707-.707.076-.617 1-1 1.307-.541 1-1 2-2 0 0-.707-.293 0-1 .707-.707 1 0 1 0v-1l1-1 1-1 2-2c1-1 .293-1.293 1-2 .707-.707.617-.076 1-1 .541-1.307 1.486-.824 2-3 .23-.973 1.54-5.053 2-7 .514-2.176.693-4.186 2-6 .827-1.147 1-3 1-5v-34s-.194-.448 4-2c3.867-1.43 8.824-3.486 11-4 1.946-.46 2-1 2-1 1 0 4.04-2.924 6-4 5.111-2.806 11.127-2.926 14-8 .493-.87 2.186-1.693 4-3 1.147-.827.705-1.346 3-3 1.814-1.307 2-1 3-2 0 0 1.076-.617 2-1 1.307-.541 2-2 3-2 0 0 0-1 1-1l1-1c1 0 1-1 1-1 0 1 0 1 1 1 0 0 .076-.383 1 0 1.307.541 2 1 2 1 1 0 .693-.459 2-1 .924-.383 2 0 3 0h2c0-1 0-1-1-1 0 0 0-1-1-1l-1-1-1-1c-1-1-1-1-2-1 0-1-1-1-1-1v-1c1 0 2-1 2-2 0 0 .617-.076 1-1 .541-1.307 1-1 1-1 1-1 1.293-.293 2-1 .707-.707 0-1-1-1h-2c0 1-2.027.77-3 1-2.176.514-2.824 2.486-5 3-.973.23-2.707-.293-2-1 .707-.707 1-2 3-4 1-1 2-3 2-4l1-1v-1h-1s-1.043.71-2 1c-3.45 1.045-4 3-5 4l-1 1c-1 1-.293 1.293-1 2l-1 1c-.707.707-1.528 1.118-2 2-1.701 3.179-4.824 2.098-6 4-.526.85-1 1-2 2-2 2-6.212 2.714-9 5-1.094.897-3.853 1.173-5 2-1.814 1.307-4.879 2.493-8 3-1.974.32-2 0-3 0s-2 1-2 1c-1 0-1 1-2 1s-3 1-4 2h-1s-1 1-2 1-1 1-1 1c-1 0-3 0-4 1h-14s-1 0-1-1v-5c0-1-.459-.693-1-2-.383-.924 0-1 0-1v-5l-1-1v-4s-1 0-1-1v-2s.23-1.027 0-2c-.514-2.176-1-2-1-3v-3c0-2-1-3-1-4v-30c1-1 1-1 1-3v-6c0-2-.496-1.908-1-6-.367-2.978.244-4.015 0-6-.504-4.092-1-4-1-7 0-1-.459-1.693-1-3-.765-1.848-.77-6.027-1-7-.514-2.176-1-3-2-5 0 0-.459-1.693-1-3-.765-1.848-1.486-2.824-2-5-.23-.973-1.173-2.853-2-4-1.307-1.814-1-3-2-5 0 0-2.617-4.076-3-5-1.082-2.613-2-2-3-4 0 0-3-2-5-4-1-1-4.043-2.71-5-3-3.45-1.045-3.186-1.693-5-3-1.147-.827-3.002-1.93-4-2-7.053-.501-9-1-13-1h-5c-9 0-11.908.496-16 1-1.985.244-5 1-5 1-3 0-3.938 1.498-10 2-1.993.165-5.675-1.162-12 2l-2 1c-2 0-5.647 1.973-10 3-.973.23-3.824 1.486-6 2-.973.23-1.761.416-5 2-2.84 1.39-6 2-6 2-1 1-.693 1.459-2 2-.924.383-1 1-2 1v1l-1 1c-.707.707 0 1 0 1 0 1 0 1-1 2v18c1 1 1 1 1 3l1 2s.77 1.027 1 2c.514 2.176.853 2.173 2 3 1.814 1.307 1.693 1.459 3 2 .924.383 2 1 3 1h1s6 1 8 1c6 0 9 1 12 1h4s7-1 10-1h6c1 0 1 0 2-1 0 0 .938-.498 7-1 .997-.082 2-1 2-1s-.15.474-1 1c-1.902 1.176-4.103 3.906-5 5-2.286 2.788-3.212 3.714-6 6-1.094.897-3 2-3 2-1 0-2.703 1.541-6 3-3.77 1.668-6 3-7 3 0 0-1.076.617-2 1-1.307.541-2 1-3 2 0 0-1.293.293-2 1-.707.707-2.853 2.173-4 3-1.814 1.307-2 2-4 3s-3.186 1.693-5 3c-2.295 1.654-3 2-3 2-4 3-5 3-7 5 0 0-1 1 0 2 0 0 1.539.606 4 2 3.588 2.031 5 1 5 1h15c2 0 5.027.23 6 0 2.176-.514 3-1 5-1 0 0 3-2 5-2 1 0 2.027-.77 3-1 2.176-.514 3.412-.969 7-3 1.23-.697 3-1 4-2 0 0 1.076.383 2 0 1.307-.541 3.026-1.68 5-2 3.121-.507 3.824-1.486 6-2 .973-.23 1.82-.221 3-1 4.496-2.964 5-2 6-2 0 0 1.003.082 2 0 6.062-.502 6-1 7-1h1l1 1c1.414 1.414 3 0 5 0l1 1c1.414 1.414 2.293-.707 3 0 .707.707 0 1 1 1h1"/>
  <path fill="white" stroke="#000" d="M397 326c1 1 .387 1.918 3 3 .924.383 3 1 3 1h17c5 0 6.078.21 9-1 2.066-.856 7.938-2.498 14-3 6.976-.577 16.072-.244 20-1 5.288-1.018 7-3 9-4s6-2 6-2c3-1 4.882-1.19 8-3 3.868-2.245 11.761-6.416 15-8 2.84-1.39 3.474-2.15 4-3 1.176-1.902 5.212-4.714 8-7 4.375-3.586 5-5 6-7s1-3 4-7 3.71-5.043 4-6c1.045-3.45 2.19-2.882 4-6 1.122-1.934 2.617-5.076 3-6 1.082-2.613 2-3 2-3v-1c1-1 1-1 0-1 0 0-2.076-.383-3 0-1.307.541-2 1-3 1 0 0 .23.303-1 1-3.588 2.031-5.881 3.293-13 6-2.956 1.124-4 2-4 1 0 0 .912-4.03 2-7 1.852-5.057 4.106-8.593 9-15 .858-1.124 6.31-4.719 9-8 2.286-2.788 3-4 4-6l1-1s.293-.707 1 0c.707.707 1.911 2.093 4 4 5.767 5.267 6 5 10 9s6 7 7 9 .693 2.186 2 4c.827 1.147 2 2 2 3l1 1h-1c-2 0-7.228-1.148-10 0-1.307.541-1 1-1 1h-2c-1 2-1 4-1 10 0 1-.493 7.879-1 11-.64 3.948-1 7-1 10 0 1-1 5-2 8s-1.924 6.04-3 8c-2.806 5.111-3.714 6.212-6 9-1.793 2.187-5.911 6.093-8 8-5.767 5.267-6 6-8 7s-3.056 1.669-4 2c-6.042 2.12-6.576 4.854-16 9-2.895 1.273-5 2-5 2-4 1-5.824 1.486-8 2-.973.23-5 1-10 1-2 0-8.953.499-17 1-.998.062-5.908.496-10 1-.992.122-7 0-14 0-8 0-10 0-12-1 0 0-6-1-7-1h-3s.307-.459-1-1c-.924-.383-1-1-3-2 0 0-.693-1.459-2-2-.924-.383-1-1-1-1-1 0-1.076-.617-2-1-1.307-.541-2-2-2-2s-1 0-2-1c0 0-2-1-3-2h-2s-1 0-1-1h-2M277 163c0-1 .173-.853 1-2 1.307-1.814 3.419-5.419 5-7 1.581-1.581 1-3 1-3s-.707-.293 0-1c.707-.707 1 0 1 0 0-1 1-2 0-2s-.307 1.186 1 3c.827 1.147 2.878 3.066 4 5 1.81 3.118 3.486 3.824 4 6 .46 1.946 1 3 1 3s-6 0-9-1h-16M383 274s1.173-.853 2-2c2.615-3.628 5-9 7-13 3-6 5.194-7.889 8-13 1.076-1.96 1.77-5.027 2-6 .514-2.176 1.173-1.853 2-3 1.307-1.814 1.878-4.066 3-6 1.81-3.118 2-4 3-5s1.459-1.693 2-3c.383-.924 0-1 0 0v15s0 1 1 1c0 0 .027.23 1 0 2.176-.514 8.522-3.776 13-6 6.52-3.238 6.964-3.116 10-4 3.959-1.153 9-3 10-4 0 0 1 0 0 1 0 0-.459-.307-1 1-.383.924-1.77 2.027-2 3-.514 2.176-2 3-4 5 0 0 0 1-2 4 0 0-1 0 0 0 0 0 1.931-.238 5-1 5.903-1.466 10.315.565 19-2 2.144-.633 6.824-1.486 9-2 3.893-.919 6.926.498 12 1 1.99.197 8 0 8 0 0 1 .072 2.611-2 5-1.465 1.69-1.435 5.151-4 7-.811.585-.293 1.293-1 2-.707.707-1.293.293-2 1-.707.707-3.299.821-5 4-.472.882-1.173.853-2 2-1.307 1.814-2 2-4 4l-2 2-2 2c-.707.707-2 1-2 1-3 2-2.853 2.173-4 3-1.814 1.307-1.797 2.256-3 3-2.69 1.663-4.853 2.173-6 3-3.628 2.615-5.889 3.194-11 6-1.96 1.076-12.885 6.13-14 7-4.596 3.588-4.853 3.173-6 4-1.814 1.307-4 2-4 2-2 1-3.293 2.293-4 3-.707.707-6 2-6 2-1 0-.293.293-1 1-.707.707-2 0-2 0 0 1-2.908 2.496-7 3-.992.122-1 0-1 1h-1l-1 1h-1"/>
</svg>