<svg xmlns="http://www.w3.org/2000/svg" width="800" height="600">
  <path fill="none" stroke="#fff" d="M267 460s1-1 4-6c6-10 8.923-14.047 12-19 8.783-14.137 13.296-19.857 18-30 3.204-6.909 9.046-19.978 10-22 4.203-8.907 5.486-10.824 6-13 .23-.973 1-3 2-4 1 0 3.835 4.113 8 10 2.888 4.082 9.882 12.073 13 17 5.784 9.14 11.142 18.635 18 27 7.173 8.75 19.247 16.612 21 18 6.123 4.85 6.693 8.459 8 9 .924.383 1 1 2 1 0 0-.383.076 0 1 1.082 2.613 4 3 5 4v1M317 363v-38c0-6-1.499-13.947-2-21-.425-5.985-1.997-8.885-3-22-.152-1.994-.31-13.01 0-18 .501-8.047 1-12 1-21v-10c0-5 0-6-1-10v-3M319 284s.734-.606 7-3c10.65-4.07 24.893-7.197 34-12 5.933-3.13 5.703-3.564 11-6 2.873-1.321 12.68-4.614 18-7 15.295-6.86 21-6 25-8l1-1 1-1h1v-1"/>
  <path fill="#fff" stroke="#fff" d="M311 221s1.066.338 7-1c7.102-1.601 13.235-4.736 20-11 1.038-.96 4.99-3.79 6-11 .555-3.961 0-7 0-9 0-4-1.073-7.932-2-9-3.276-3.777-6-7-14-12s-11.096-5.739-25-11c-5.037-1.906-10-3-13-3-2 0-3.132.755-7 3-3.118 1.81-8 6-9 7-4 4-5.493 6.879-6 10-.48 2.961-.714 8.064 0 12 1.524 8.407 2.428 8.423 7 14 .897 1.094 8 8 11 10s5.92 4.168 10 6c4.913 2.206 7.824 3.486 10 4 .973.23 1.013-.16 2 0 3.121.507 6 1 6 1h2M311 282s.047-.499-8-1c-3.992-.249-9.89-1.481-22-4-5.955-1.239-18.072-2.691-23-4-3.056-.812-3.954-1.207-8-2-6.94-1.36-11.964-2.247-18-3-11.949-1.491-18-1-24-2M414 261c-1 0-1 0-1-2s.284-5.01 0-9c-.501-7.053-1-9-1-11v-14c0-1 .765-2.152 0-4-.541-1.307-1-2-1-4v-5c0-2-1-3-1-5 0-3 1.406-3.504-1-8-.667-1.247-.54-3.054-1-5-.514-2.176-1-4-1-6l-1-3c-1-3-1-4-1-4v-4s-1-2-1-4v-35c0-3 1-9 1-11v-7"/>
  <path fill="#fff" stroke="#fff" d="M387 226s.061.72 16-1c13.077-1.412 18.31-.115 36-4 3.089-.678 6-2 7-2h2M217 240l-1-1c-2 0-2.693-.459-4-1-.924-.383-6 0-12 0s-9.926 1.498-15 2c-.995.099-1.003.918-2 1-6.062.502-7.186 1.693-9 3-3.442 2.48-4.15 4.474-5 5-1.902 1.176-1.987 2.757-3 9-.32 1.974-.244 7.015 0 9 1.008 8.184 2.57 10.133 4 14 2.327 6.292 4.693 10.186 6 12 1.654 2.295 8 9 11 12 1 1 2 2 6 4 6 3 11 5 13 6 4 2 8 4 9 4s3.054.46 5 0c2.176-.514 3.471-3.459 10-5 .973-.23 3-3 4-4 2-2 4-7 6-11 1-2 3.987-5.757 5-12 .16-.987.918-4.003 1-5 .502-6.062 1-8 1-9v-4c0-1 .16-2.013 0-3-.507-3.121-1.293-3.293-2-4-.707-.707.565-3.151-2-5-.811-.585-2-1-2-1-1-2-3.372-2.385-7-5-1.147-.827-2-1-3-2 0 0-3.934-2.144-6-3-2.922-1.21-3.293-.293-4-1-.707-.707.092-1.496-4-2-.993-.122-.693-.459-2-1-.924-.383-2 0-3-1 0 0-2-1-2-2"/>
</svg>