  <svg width="597.231" height="427.05" xmlns="http://www.w3.org/2000/svg"><defs><linearGradient id="a" x1="0" y1="0" x2="0" y2="692.82" gradientTransform="matrix(.86203 0 0 .6164 0 0)" gradientUnits="userSpaceOnUse"><stop offset="0%" stop-color="#87ceeb"/><stop offset="100%" stop-color="#e0f6ff"/></linearGradient></defs><path fill="url(#a)" d="M0 0h597.231v427.05H0z"/><path d="M145.474 135.25c-50 0-50-50 0-50 0-50 100-50 100 0 50 0 50 50 0 50z" fill="#fff" stroke="#666" stroke-width="3"/><circle cx="95.474" cy="65.25" r="20" fill="gold"/><text x="75.474" y="45.25" font-family="monospace" fill="#444">nucleate()</text><g font-family="monospace" fill="#06c"><text x="220" y="240" transform="translate(-54.526 -64.75)">01</text><text x="250" y="280" transform="translate(-54.526 -64.75)">10</text><text x="280" y="260" transform="translate(-54.526 -64.75)">11</text></g><path d="M345.474 335.25q50-50 100 0" fill="none" stroke="#ff6b6b" stroke-width="2" stroke-dasharray="5, 5"/><text x="365.474" y="315.25" font-family="monospace" fill="#f44">evaporate()</text><text x="445.474" y="135.25" font-family="monospace" fill="#f44">☁ poor&#95;conditions</text><path d="M245.474 185.25q100 50 0 100-100-50 0-100" fill="none" stroke="#666" stroke-width="2" stroke-dasharray="5, 5"/><text x="145.474" y="115.25" font-family="monospace" fill="#444">precipitation: ${pre}</text><text x="245.474" y="75.25" font-family="monospace" fill="#444">saturation: ${sat}</text><path d="M45.474 235.25q50 0 100-50" fill="none" stroke="#4caf50" stroke-width="2"/><text x="45.474" y="225.25" font-family="monospace" fill="#4caf50">absorb()</text><path d="M295.474 85.25h50" fill="none" stroke="#ff9800" stroke-width="2"/><text x="305.474" y="75.25" font-family="monospace" fill="#ff9800">forecast()</text><text x="185.474" y="155.25" font-family="monospace" fill="#06c">pour()</text><text x="95.474" y="385.25" font-family="monospace" font-style="italic" fill="#666">&quot;It&apos;s not a memory leak, it&apos;s just high humidity&quot;</text></svg>