<?xml version="1.0" encoding="UTF-8" standalone="no"?>
<svg
   xmlns:dc="http://purl.org/dc/elements/1.1/"
   xmlns:cc="http://creativecommons.org/ns#"
   xmlns:rdf="http://www.w3.org/1999/02/22-rdf-syntax-ns#"
   xmlns:svg="http://www.w3.org/2000/svg"
   xmlns="http://www.w3.org/2000/svg"
   xmlns:sodipodi="http://sodipodi.sourceforge.net/DTD/sodipodi-0.dtd"
   xmlns:inkscape="http://www.inkscape.org/namespaces/inkscape"
   width="300mm"
   height="300mm"
   viewBox="0 0 300 300"
   version="1.1"
   id="svg8"
   inkscape:version="1.0.1 (3bc2e813f5, 2020-09-07)"
   sodipodi:docname="logo_round.svg"
   inkscape:export-filename="/kalmarunionen-artwork/png/logo_round_24x24.png"
   inkscape:export-xdpi="2.0320001"
   inkscape:export-ydpi="2.0320001">
  <defs
     id="defs2">
    <marker
       style="overflow:visible"
       id="Arrow1Lstart"
       refX="0"
       refY="0"
       orient="auto"
       inkscape:stockid="Arrow1Lstart"
       inkscape:isstock="true">
      <path
         transform="matrix(0.8,0,0,0.8,10,0)"
         style="fill:#3853c0;fill-opacity:1;fill-rule:evenodd;stroke:#3853c0;stroke-width:1pt;stroke-opacity:1"
         d="M 0,0 5,-5 -12.5,0 5,5 Z"
         id="path1106" />
    </marker>
  </defs>
  <sodipodi:namedview
     id="base"
     pagecolor="#ffffff"
     bordercolor="#666666"
     borderopacity="1.0"
     inkscape:pageopacity="0.0"
     inkscape:pageshadow="2"
     inkscape:zoom="0.32"
     inkscape:cx="398.78403"
     inkscape:cy="713.6802"
     inkscape:document-units="mm"
     inkscape:current-layer="layer1"
     inkscape:document-rotation="0"
     showgrid="false"
     inkscape:snap-text-baseline="true"
     inkscape:snap-page="true"
     inkscape:snap-center="true"
     inkscape:snap-object-midpoints="true"
     inkscape:snap-midpoints="true"
     inkscape:snap-smooth-nodes="true"
     inkscape:snap-intersection-paths="true"
     inkscape:object-paths="true"
     inkscape:snap-bbox="true"
     inkscape:snap-bbox-midpoints="false"
     inkscape:snap-bbox-edge-midpoints="true"
     inkscape:bbox-nodes="true"
     inkscape:bbox-paths="true"
     inkscape:snap-nodes="false"
     inkscape:snap-others="false"
     inkscape:window-width="1904"
     inkscape:window-height="1000"
     inkscape:window-x="8"
     inkscape:window-y="35"
     inkscape:window-maximized="0"
     inkscape:snap-global="true" />
  <metadata
     id="metadata5">
    <rdf:RDF>
      <cc:Work
         rdf:about="">
        <dc:format>image/svg+xml</dc:format>
        <dc:type
           rdf:resource="http://purl.org/dc/dcmitype/StillImage" />
        <dc:title />
      </cc:Work>
    </rdf:RDF>
  </metadata>
  <g
     inkscape:label="Layer 1"
     inkscape:groupmode="layer"
     id="layer1"
     transform="translate(-54.12027,-64.017471)">
    <circle
       style="opacity:0.996;fill:#0e0f3a;fill-opacity:0.996078;stroke-width:6.66538;stroke-linecap:square;paint-order:markers stroke fill"
       id="path2938"
       cx="204.12027"
       cy="214.01747"
       r="150" />
    <g
       id="g2885"
       style="fill:#a1bbe0;fill-opacity:1">
      <path
         id="path1387"
         style="color:#000000;font-style:normal;font-variant:normal;font-weight:normal;font-stretch:normal;font-size:medium;line-height:normal;font-family:sans-serif;font-variant-ligatures:normal;font-variant-position:normal;font-variant-caps:normal;font-variant-numeric:normal;font-variant-alternates:normal;font-variant-east-asian:normal;font-feature-settings:normal;font-variation-settings:normal;text-indent:0;text-align:start;text-decoration:none;text-decoration-line:none;text-decoration-style:solid;text-decoration-color:#000000;letter-spacing:normal;word-spacing:normal;text-transform:none;writing-mode:lr-tb;direction:ltr;text-orientation:mixed;dominant-baseline:auto;baseline-shift:baseline;text-anchor:start;white-space:normal;shape-padding:0;shape-margin:0;inline-size:0;clip-rule:nonzero;display:inline;overflow:visible;visibility:visible;opacity:0.996;isolation:auto;mix-blend-mode:normal;color-interpolation:sRGB;color-interpolation-filters:linearRGB;solid-color:#000000;solid-opacity:1;vector-effect:none;fill:#a1bbe0;fill-opacity:1;fill-rule:nonzero;stroke:none;stroke-width:128.504;stroke-linecap:butt;stroke-linejoin:miter;stroke-miterlimit:4;stroke-dasharray:none;stroke-dashoffset:0;stroke-opacity:1;paint-order:markers fill stroke;color-rendering:auto;image-rendering:auto;shape-rendering:auto;text-rendering:auto;enable-background:accumulate;stop-color:#000000"
         d="m 661.11914,250.91602 a 488.41707,488.41707 0 0 0 -1.85937,0.004 488.41707,488.41707 0 0 0 -1.85743,0.01 488.41707,488.41707 0 0 0 -1.85742,0.0156 488.41707,488.41707 0 0 0 -1.85742,0.0234 488.41707,488.41707 0 0 0 -1.85938,0.0312 488.41707,488.41707 0 0 0 -1.85742,0.041 488.41707,488.41707 0 0 0 -1.85937,0.043 488.41707,488.41707 0 0 0 -1.85547,0.0527 488.41707,488.41707 0 0 0 -1.85938,0.0606 488.41707,488.41707 0 0 0 -1.85742,0.0644 488.41707,488.41707 0 0 0 -1.85547,0.0742 488.41707,488.41707 0 0 0 -1.85742,0.082 488.41707,488.41707 0 0 0 -1.85547,0.0859 488.41707,488.41707 0 0 0 -1.85742,0.0937 488.41707,488.41707 0 0 0 -1.85547,0.10156 488.41707,488.41707 0 0 0 -1.85547,0.10937 488.41707,488.41707 0 0 0 -1.85351,0.11524 488.41707,488.41707 0 0 0 -1.85352,0.12305 488.41707,488.41707 0 0 0 -1.85351,0.1289 488.41707,488.41707 0 0 0 -1.85352,0.13867 488.41707,488.41707 0 0 0 -1.85351,0.14258 488.41707,488.41707 0 0 0 -1.85157,0.15039 488.41707,488.41707 0 0 0 -1.85156,0.16016 488.41707,488.41707 0 0 0 -1.85156,0.16406 488.41707,488.41707 0 0 0 -1.84961,0.17383 488.41707,488.41707 0 0 0 -1.85156,0.17773 488.41707,488.41707 0 0 0 -1.84961,0.1875 488.41707,488.41707 0 0 0 -1.84766,0.19336 488.41707,488.41707 0 0 0 -1.84766,0.19922 488.41707,488.41707 0 0 0 -1.84765,0.20703 488.41707,488.41707 0 0 0 -1.84571,0.21485 488.41707,488.41707 0 0 0 -1.8457,0.2207 488.41707,488.41707 0 0 0 -1.8418,0.23047 488.41707,488.41707 0 0 0 -1.8457,0.23242 488.41707,488.41707 0 0 0 -1.8418,0.24414 488.41707,488.41707 0 0 0 -1.84179,0.25 488.41707,488.41707 0 0 0 -1.83985,0.25586 488.41707,488.41707 0 0 0 -1.83984,0.26367 488.41707,488.41707 0 0 0 -1.83789,0.27149 488.41707,488.41707 0 0 0 -1.83789,0.27539 488.41707,488.41707 0 0 0 -1.83594,0.28515 488.41707,488.41707 0 0 0 -1.83594,0.29102 488.41707,488.41707 0 0 0 -1.83398,0.29883 488.41707,488.41707 0 0 0 -1.83203,0.30468 488.41707,488.41707 0 0 0 -1.83399,0.3125 488.41707,488.41707 0 0 0 -1.83007,0.31836 488.41707,488.41707 0 0 0 -1.82813,0.32813 488.41707,488.41707 0 0 0 -1.83008,0.33203 488.41707,488.41707 0 0 0 -1.82617,0.33984 488.41707,488.41707 0 0 0 -1.82617,0.34766 488.41707,488.41707 0 0 0 -1.82422,0.35547 488.41707,488.41707 0 0 0 -1.82422,0.35937 488.41707,488.41707 0 0 0 -1.82031,0.36719 488.41707,488.41707 0 0 0 -1.82031,0.375 488.41707,488.41707 0 0 0 -1.81836,0.38281 488.41707,488.41707 0 0 0 -1.81641,0.38868 488.41707,488.41707 0 0 0 -1.81836,0.39648 488.41707,488.41707 0 0 0 -1.8125,0.40234 488.41707,488.41707 0 0 0 -1.8125,0.40821 488.41707,488.41707 0 0 0 -1.8125,0.41797 488.41707,488.41707 0 0 0 -1.80859,0.42187 488.41707,488.41707 0 0 0 -1.8086,0.43164 488.41707,488.41707 0 0 0 -1.80468,0.43555 488.41707,488.41707 0 0 0 -1.80664,0.44336 488.41707,488.41707 0 0 0 -1.80274,0.45117 488.41707,488.41707 0 0 0 -1.79883,0.45898 488.41707,488.41707 0 0 0 -1.80273,0.46289 488.41707,488.41707 0 0 0 -1.79492,0.47071 488.41707,488.41707 0 0 0 -1.79688,0.47851 v -0.002 a 488.41707,488.41707 0 0 0 -1.49218,0.40234 488.41707,488.41707 0 0 0 -1.79297,0.49219 488.41707,488.41707 0 0 0 -1.78907,0.49805 488.41707,488.41707 0 0 0 -1.78906,0.5039 488.41707,488.41707 0 0 0 -1.78711,0.50977 488.41707,488.41707 0 0 0 -1.78515,0.51953 488.41707,488.41707 0 0 0 -1.78125,0.52344 488.41707,488.41707 0 0 0 -1.78125,0.53125 488.41707,488.41707 0 0 0 -1.7793,0.53711 488.41707,488.41707 0 0 0 -1.77734,0.54492 488.41707,488.41707 0 0 0 -1.77344,0.55273 488.41707,488.41707 0 0 0 -1.77344,0.5586 488.41707,488.41707 0 0 0 -1.76953,0.56445 488.41707,488.41707 0 0 0 -1.76758,0.57227 488.41707,488.41707 0 0 0 -1.76758,0.57812 488.41707,488.41707 0 0 0 -1.76367,0.58594 488.41707,488.41707 0 0 0 -1.76172,0.5918 488.41707,488.41707 0 0 0 -1.75781,0.59961 488.41707,488.41707 0 0 0 -1.75977,0.60546 488.41707,488.41707 0 0 0 -1.7539,0.61133 488.41707,488.41707 0 0 0 -1.75196,0.61914 488.41707,488.41707 0 0 0 -1.75,0.625 488.41707,488.41707 0 0 0 -1.74804,0.63282 488.41707,488.41707 0 0 0 -1.74414,0.63867 488.41707,488.41707 0 0 0 -1.74219,0.64648 488.41707,488.41707 0 0 0 -1.74023,0.65039 488.41707,488.41707 0 0 0 -1.74024,0.65821 488.41707,488.41707 0 0 0 -1.73437,0.66601 488.41707,488.41707 0 0 0 -1.73243,0.66992 488.41707,488.41707 0 0 0 -1.73046,0.67969 488.41707,488.41707 0 0 0 -1.72657,0.68555 488.41707,488.41707 0 0 0 -1.72461,0.6914 488.41707,488.41707 0 0 0 -1.72265,0.69922 488.41707,488.41707 0 0 0 -1.72071,0.70313 488.41707,488.41707 0 0 0 -1.71679,0.71093 488.41707,488.41707 0 0 0 -1.71289,0.71876 488.41707,488.41707 0 0 0 -1.71094,0.7246 488.41707,488.41707 0 0 0 -1.70899,0.73047 488.41707,488.41707 0 0 0 -1.70703,0.73828 488.41707,488.41707 0 0 0 -1.70312,0.74415 488.41707,488.41707 0 0 0 -1.69922,0.74804 488.41707,488.41707 0 0 0 -1.69922,0.75781 488.41707,488.41707 0 0 0 -1.69336,0.76368 488.41707,488.41707 0 0 0 -1.6914,0.76757 488.41707,488.41707 0 0 0 -1.6875,0.77735 488.41707,488.41707 0 0 0 -1.6875,0.7832 488.41707,488.41707 0 0 0 -1.67969,0.78711 488.41707,488.41707 0 0 0 -1.68164,0.79492 488.41707,488.41707 0 0 0 -1.67578,0.80274 488.41707,488.41707 0 0 0 -1.67383,0.80859 488.41707,488.41707 0 0 0 -1.67188,0.81445 488.41707,488.41707 0 0 0 -1.66601,0.82032 488.41707,488.41707 0 0 0 -1.66407,0.82617 488.41707,488.41707 0 0 0 -1.6621,0.83398 488.41707,488.41707 0 0 0 -1.65626,0.83985 488.41707,488.41707 0 0 0 -1.65624,0.8457 488.41707,488.41707 0 0 0 -1.6504,0.85156 488.41707,488.41707 0 0 0 -1.64843,0.85938 488.41707,488.41707 0 0 0 -1.64649,0.86328 488.41707,488.41707 0 0 0 -1.64062,0.87109 488.41707,488.41707 0 0 0 -1.63672,0.87891 488.41707,488.41707 0 0 0 -1.63672,0.88281 488.41707,488.41707 0 0 0 -1.63086,0.89063 488.41707,488.41707 0 0 0 -1.62891,0.89648 488.41707,488.41707 0 0 0 -1.62304,0.90039 488.41707,488.41707 0 0 0 -1.6211,0.9082 488.41707,488.41707 0 0 0 -1.61914,0.91602 488.41707,488.41707 0 0 0 -1.61328,0.91992 488.41707,488.41707 0 0 0 -1.61133,0.92774 488.41707,488.41707 0 0 0 -1.60742,0.93164 488.41707,488.41707 0 0 0 -0.85742,0.50195 l 17.29297,64.46094 c 35.97036,-23.02312 76.08839,-41.00433 119.64648,-52.68946 49.77715,-13.35347 99.77816,-17.34804 148.15625,-13.05664 l 131.42578,-35.25586 a 488.41707,488.41707 0 0 0 -0.23046,-0.0859 488.41707,488.41707 0 0 0 -1.7461,-0.64258 488.41707,488.41707 0 0 0 -1.74414,-0.63477 488.41707,488.41707 0 0 0 -1.75,-0.62695 488.41707,488.41707 0 0 0 -1.75195,-0.62109 488.41707,488.41707 0 0 0 -1.75391,-0.61719 488.41707,488.41707 0 0 0 -1.75586,-0.60547 488.41707,488.41707 0 0 0 -1.75781,-0.60352 488.41707,488.41707 0 0 0 -1.76172,-0.59375 488.41707,488.41707 0 0 0 -1.76172,-0.58789 488.41707,488.41707 0 0 0 -1.76562,-0.58203 488.41707,488.41707 0 0 0 -1.76758,-0.57422 488.41707,488.41707 0 0 0 -1.76953,-0.5664 488.41707,488.41707 0 0 0 -1.77149,-0.5625 488.41707,488.41707 0 0 0 -1.77343,-0.55469 488.41707,488.41707 0 0 0 -1.77539,-0.54883 488.41707,488.41707 0 0 0 -1.7793,-0.53906 488.41707,488.41707 0 0 0 -1.7793,-0.53516 488.41707,488.41707 0 0 0 -1.78125,-0.52539 488.41707,488.41707 0 0 0 -1.78515,-0.52148 488.41707,488.41707 0 0 0 -1.78516,-0.51367 488.41707,488.41707 0 0 0 -1.78906,-0.50586 488.41707,488.41707 0 0 0 -1.78907,-0.50196 488.41707,488.41707 0 0 0 -1.79296,-0.49414 488.41707,488.41707 0 0 0 -1.79102,-0.48437 488.41707,488.41707 0 0 0 -1.79883,-0.48047 488.41707,488.41707 0 0 0 -1.79687,-0.47266 488.41707,488.41707 0 0 0 -1.79688,-0.46679 488.41707,488.41707 0 0 0 -1.80078,-0.45899 488.41707,488.41707 0 0 0 -1.80273,-0.45312 488.41707,488.41707 0 0 0 -1.80274,-0.44336 488.41707,488.41707 0 0 0 -1.80664,-0.43946 488.41707,488.41707 0 0 0 -1.80859,-0.43164 488.41707,488.41707 0 0 0 -1.8086,-0.42578 488.41707,488.41707 0 0 0 -1.81054,-0.41797 488.41707,488.41707 0 0 0 -1.8125,-0.41015 488.41707,488.41707 0 0 0 -1.81446,-0.4043 488.41707,488.41707 0 0 0 -1.81445,-0.39844 488.41707,488.41707 0 0 0 -1.81836,-0.39062 488.41707,488.41707 0 0 0 -1.81836,-0.38281 488.41707,488.41707 0 0 0 -1.81836,-0.375 488.41707,488.41707 0 0 0 -1.82226,-0.3711 488.41707,488.41707 0 0 0 -1.82227,-0.36328 488.41707,488.41707 0 0 0 -1.82422,-0.35547 488.41707,488.41707 0 0 0 -1.82422,-0.34765 488.41707,488.41707 0 0 0 -1.82812,-0.34376 488.41707,488.41707 0 0 0 -1.82813,-0.33398 488.41707,488.41707 0 0 0 -1.83007,-0.32812 488.41707,488.41707 0 0 0 -1.83008,-0.32032 488.41707,488.41707 0 0 0 -1.83203,-0.3125 488.41707,488.41707 0 0 0 -1.83203,-0.30664 488.41707,488.41707 0 0 0 -1.83399,-0.30078 488.41707,488.41707 0 0 0 -1.83398,-0.29297 488.41707,488.41707 0 0 0 -1.83594,-0.28711 488.41707,488.41707 0 0 0 -1.83789,-0.27929 488.41707,488.41707 0 0 0 -1.83985,-0.27149 488.41707,488.41707 0 0 0 -1.83789,-0.26562 488.41707,488.41707 0 0 0 -1.83984,-0.25782 488.41707,488.41707 0 0 0 -1.84375,-0.25 488.41707,488.41707 0 0 0 -1.8418,-0.24609 488.41707,488.41707 0 0 0 -1.84179,-0.23633 488.41707,488.41707 0 0 0 -1.84571,-0.22851 488.41707,488.41707 0 0 0 -1.84375,-0.22461 488.41707,488.41707 0 0 0 -1.84765,-0.21485 488.41707,488.41707 0 0 0 -1.84571,-0.20898 488.41707,488.41707 0 0 0 -1.84765,-0.20313 488.41707,488.41707 0 0 0 -1.84766,-0.19531 488.41707,488.41707 0 0 0 -1.84765,-0.1875 488.41707,488.41707 0 0 0 -1.85157,-0.18164 488.41707,488.41707 0 0 0 -1.84961,-0.17187 488.41707,488.41707 0 0 0 -1.85156,-0.16797 488.41707,488.41707 0 0 0 -1.84961,-0.16016 488.41707,488.41707 0 0 0 -1.85351,-0.15234 488.41707,488.41707 0 0 0 -1.85352,-0.14649 488.41707,488.41707 0 0 0 -1.85156,-0.13672 488.41707,488.41707 0 0 0 -1.85352,-0.13281 488.41707,488.41707 0 0 0 -1.85547,-0.125 488.41707,488.41707 0 0 0 -1.85351,-0.11719 488.41707,488.41707 0 0 0 -1.85547,-0.10937 488.41707,488.41707 0 0 0 -1.85547,-0.10352 488.41707,488.41707 0 0 0 -1.85547,-0.0957 488.41707,488.41707 0 0 0 -1.85742,-0.0898 488.41707,488.41707 0 0 0 -1.85547,-0.082 488.41707,488.41707 0 0 0 -1.85742,-0.0742 488.41707,488.41707 0 0 0 -1.85742,-0.0684 488.41707,488.41707 0 0 0 -1.85742,-0.0625 488.41707,488.41707 0 0 0 -1.85743,-0.0527 488.41707,488.41707 0 0 0 -1.85742,-0.0469 488.41707,488.41707 0 0 0 -1.85937,-0.0391 488.41707,488.41707 0 0 0 -1.85743,-0.0332 488.41707,488.41707 0 0 0 -1.85742,-0.0254 488.41707,488.41707 0 0 0 -1.85742,-0.0176 488.41707,488.41707 0 0 0 -1.85937,-0.0117 488.41707,488.41707 0 0 0 -1.85938,-0.006 z m 191.34961,39.13671 22.10547,82.4043 c 23.5283,13.7032 45.73805,29.67151 66.28516,47.70508 l 72.11522,-19.3457 a 488.41707,488.41707 0 0 0 -0.5879,-0.61329 488.41707,488.41707 0 0 0 -1.2929,-1.33398 488.41707,488.41707 0 0 0 -1.2969,-1.33008 488.41707,488.41707 0 0 0 -1.3028,-1.32422 488.41707,488.41707 0 0 0 -1.3086,-1.32226 488.41707,488.41707 0 0 0 -1.3144,-1.3125 488.41707,488.41707 0 0 0 -1.3184,-1.31055 488.41707,488.41707 0 0 0 -1.3222,-1.30664 488.41707,488.41707 0 0 0 -1.3282,-1.29883 488.41707,488.41707 0 0 0 -1.332,-1.29492 488.41707,488.41707 0 0 0 -1.33788,-1.28906 488.41707,488.41707 0 0 0 -1.3418,-1.28711 488.41707,488.41707 0 0 0 -1.34765,-1.27735 488.41707,488.41707 0 0 0 -1.35352,-1.27539 488.41707,488.41707 0 0 0 -1.35742,-1.26953 488.41707,488.41707 0 0 0 -1.36133,-1.26562 488.41707,488.41707 0 0 0 -1.36718,-1.25781 488.41707,488.41707 0 0 0 -1.3711,-1.25391 488.41707,488.41707 0 0 0 -1.37695,-1.25 488.41707,488.41707 0 0 0 -1.38281,-1.24219 488.41707,488.41707 0 0 0 -1.38477,-1.23828 488.41707,488.41707 0 0 0 -1.39062,-1.23242 488.41707,488.41707 0 0 0 -1.39454,-1.22656 488.41707,488.41707 0 0 0 -1.40039,-1.22266 488.41707,488.41707 0 0 0 -1.40429,-1.2168 488.41707,488.41707 0 0 0 -1.41016,-1.21093 488.41707,488.41707 0 0 0 -1.41406,-1.20508 488.41707,488.41707 0 0 0 -1.41797,-1.20117 488.41707,488.41707 0 0 0 -1.42383,-1.19532 488.41707,488.41707 0 0 0 -1.42578,-1.1914 488.41707,488.41707 0 0 0 -1.43164,-1.1836 488.41707,488.41707 0 0 0 -1.4375,-1.17968 488.41707,488.41707 0 0 0 -1.44141,-1.17383 488.41707,488.41707 0 0 0 -1.44531,-1.16797 488.41707,488.41707 0 0 0 -1.45117,-1.16211 488.41707,488.41707 0 0 0 -1.45313,-1.15625 488.41707,488.41707 0 0 0 -1.45898,-1.15234 488.41707,488.41707 0 0 0 -1.46484,-1.14454 488.41707,488.41707 0 0 0 -1.46485,-1.14062 488.41707,488.41707 0 0 0 -1.47265,-1.13477 488.41707,488.41707 0 0 0 -1.47461,-1.1289 488.41707,488.41707 0 0 0 -1.48047,-1.125 488.41707,488.41707 0 0 0 -1.48633,-1.11719 488.41707,488.41707 0 0 0 -1.48828,-1.11133 488.41707,488.41707 0 0 0 -1.49414,-1.10547 488.41707,488.41707 0 0 0 -1.4961,-1.10156 488.41707,488.41707 0 0 0 -1.50195,-1.0957 488.41707,488.41707 0 0 0 -1.50586,-1.08985 488.41707,488.41707 0 0 0 -1.50976,-1.08398 488.41707,488.41707 0 0 0 -1.51368,-1.07813 488.41707,488.41707 0 0 0 -1.51757,-1.07031 488.41707,488.41707 0 0 0 -1.52149,-1.0664 488.41707,488.41707 0 0 0 -1.52539,-1.06055 488.41707,488.41707 0 0 0 -1.53125,-1.05664 488.41707,488.41707 0 0 0 -1.5332,-1.04883 488.41707,488.41707 0 0 0 -1.53907,-1.04297 488.41707,488.41707 0 0 0 -1.54296,-1.03515 488.41707,488.41707 0 0 0 -1.54493,-1.03126 488.41707,488.41707 0 0 0 -1.55078,-1.02539 488.41707,488.41707 0 0 0 -1.55273,-1.01953 488.41707,488.41707 0 0 0 -1.5586,-1.01367 488.41707,488.41707 0 0 0 -1.56054,-1.00976 488.41707,488.41707 0 0 0 -1.56446,-1.00196 488.41707,488.41707 0 0 0 -1.57031,-0.99414 488.41707,488.41707 0 0 0 -1.57422,-0.99023 488.41707,488.41707 0 0 0 -1.57617,-0.98242 488.41707,488.41707 0 0 0 -1.58008,-0.97852 488.41707,488.41707 0 0 0 -1.58398,-0.97266 488.41707,488.41707 0 0 0 -1.58594,-0.96484 488.41707,488.41707 0 0 0 -1.59375,-0.96094 488.41707,488.41707 0 0 0 -1.59375,-0.95312 488.41707,488.41707 0 0 0 -1.59961,-0.94727 488.41707,488.41707 0 0 0 -1.60156,-0.9414 488.41707,488.41707 0 0 0 -1.60547,-0.9375 488.41707,488.41707 0 0 0 -1.60937,-0.92774 488.41707,488.41707 0 0 0 -1.61329,-0.92187 488.41707,488.41707 0 0 0 -1.61718,-0.91797 488.41707,488.41707 0 0 0 -1.61914,-0.91016 488.41707,488.41707 0 0 0 -1.62305,-0.9043 488.41707,488.41707 0 0 0 -1.62695,-0.89843 488.41707,488.41707 0 0 0 -1.63086,-0.89453 488.41707,488.41707 0 0 0 -1.63282,-0.88477 488.41707,488.41707 0 0 0 -1.63671,-0.88086 488.41707,488.41707 0 0 0 -1.64063,-0.87109 488.41707,488.41707 0 0 0 -1.64453,-0.86914 488.41707,488.41707 0 0 0 -1.64648,-0.86133 488.41707,488.41707 0 0 0 -1.65039,-0.85352 488.41707,488.41707 0 0 0 -1.65235,-0.84961 488.41707,488.41707 0 0 0 -1.65625,-0.84179 488.41707,488.41707 0 0 0 -1.66016,-0.83594 488.41707,488.41707 0 0 0 -1.6621,-0.83008 488.41707,488.41707 0 0 0 -1.66602,-0.82226 488.41707,488.41707 0 0 0 -1.66992,-0.81641 488.41707,488.41707 0 0 0 -1.67383,-0.81055 488.41707,488.41707 0 0 0 -1.67383,-0.80469 488.41707,488.41707 0 0 0 -1.67969,-0.79687 488.41707,488.41707 0 0 0 -1.67968,-0.79297 488.41707,488.41707 0 0 0 -1.68555,-0.78516 488.41707,488.41707 0 0 0 -1.6875,-0.77734 488.41707,488.41707 0 0 0 -1.69141,-0.77344 488.41707,488.41707 0 0 0 -1.6914,-0.76562 488.41707,488.41707 0 0 0 -1.69531,-0.75977 488.41707,488.41707 0 0 0 -1.70118,-0.75195 488.41707,488.41707 0 0 0 -1.70117,-0.74805 488.41707,488.41707 0 0 0 -1.70508,-0.74023 488.41707,488.41707 0 0 0 -1.70703,-0.73242 488.41707,488.41707 0 0 0 -0.32617,-0.13868 z m -32.4375,36.28711 -30.85352,8.27735 c 12.45711,3.94321 24.70121,8.46037 36.70118,13.51953 z m -441.91016,14.76172 a 488.41707,488.41707 0 0 0 -0.65625,0.4668 488.41707,488.41707 0 0 0 -1.51172,1.08203 488.41707,488.41707 0 0 0 -1.50585,1.08594 488.41707,488.41707 0 0 0 -1.50196,1.09375 488.41707,488.41707 0 0 0 -1.5,1.09765 488.41707,488.41707 0 0 0 -1.49414,1.10547 488.41707,488.41707 0 0 0 -1.49023,1.10938 488.41707,488.41707 0 0 0 -1.48633,1.11523 488.41707,488.41707 0 0 0 -1.48242,1.12305 488.41707,488.41707 0 0 0 -1.47852,1.125 488.41707,488.41707 0 0 0 -1.47265,1.13281 488.41707,488.41707 0 0 0 -1.47071,1.13867 488.41707,488.41707 0 0 0 -1.46484,1.14258 488.41707,488.41707 0 0 0 -1.46094,1.15039 488.41707,488.41707 0 0 0 -1.45508,1.1543 488.41707,488.41707 0 0 0 -1.45312,1.16016 488.41707,488.41707 0 0 0 -1.44531,1.16601 488.41707,488.41707 0 0 0 -1.44336,1.16992 488.41707,488.41707 0 0 0 -1.4375,1.17774 488.41707,488.41707 0 0 0 -1.4336,1.18164 488.41707,488.41707 0 0 0 -1.43164,1.18945 488.41707,488.41707 0 0 0 -1.42187,1.19336 488.41707,488.41707 0 0 0 -1.42188,1.19727 488.41707,488.41707 0 0 0 -1.41601,1.20312 488.41707,488.41707 0 0 0 -1.41211,1.20899 488.41707,488.41707 0 0 0 -1.4043,1.21484 488.41707,488.41707 0 0 0 -1.4043,1.22266 488.41707,488.41707 0 0 0 -1.39648,1.22265 488.41707,488.41707 0 0 0 -1.39258,1.23242 488.41707,488.41707 0 0 0 -1.38672,1.23438 488.41707,488.41707 0 0 0 -1.38476,1.24023 488.41707,488.41707 0 0 0 -1.37696,1.24805 488.41707,488.41707 0 0 0 -1.37304,1.25195 488.41707,488.41707 0 0 0 -1.36914,1.25782 488.41707,488.41707 0 0 0 -1.36524,1.26171 488.41707,488.41707 0 0 0 -1.35937,1.26563 488.41707,488.41707 0 0 0 -1.35352,1.27344 488.41707,488.41707 0 0 0 -1.35156,1.27734 488.41707,488.41707 0 0 0 -0.80274,0.76563 l 19.30469,71.96093 c 16.09778,-18.18152 33.80804,-35.05497 53.01563,-50.35547 z m -87.35156,79.55664 a 488.41707,488.41707 0 0 0 -0.84765,0.98828 488.41707,488.41707 0 0 0 -1.20704,1.41407 488.41707,488.41707 0 0 0 -1.20117,1.41797 488.41707,488.41707 0 0 0 -1.19531,1.42187 488.41707,488.41707 0 0 0 -1.1875,1.42773 488.41707,488.41707 0 0 0 -1.18555,1.43165 488.41707,488.41707 0 0 0 -1.17969,1.4375 488.41707,488.41707 0 0 0 -1.17187,1.4414 488.41707,488.41707 0 0 0 -1.16992,1.44531 488.41707,488.41707 0 0 0 -1.16211,1.44922 488.41707,488.41707 0 0 0 -1.15625,1.45313 488.41707,488.41707 0 0 0 -1.15235,1.46094 488.41707,488.41707 0 0 0 -1.14453,1.46093 488.41707,488.41707 0 0 0 -1.14062,1.46875 488.41707,488.41707 0 0 0 -1.13477,1.47071 488.41707,488.41707 0 0 0 -1.13086,1.47656 488.41707,488.41707 0 0 0 -1.12304,1.48047 488.41707,488.41707 0 0 0 -1.11719,1.48437 488.41707,488.41707 0 0 0 -1.11328,1.49024 488.41707,488.41707 0 0 0 -1.10547,1.49218 488.41707,488.41707 0 0 0 -1.09961,1.49805 488.41707,488.41707 0 0 0 -1.0957,1.5 488.41707,488.41707 0 0 0 -1.08985,1.50586 488.41707,488.41707 0 0 0 -1.08203,1.50977 488.41707,488.41707 0 0 0 -1.07812,1.51562 488.41707,488.41707 0 0 0 -1.07422,1.51758 488.41707,488.41707 0 0 0 -1.06641,1.52148 488.41707,488.41707 0 0 0 -1.06054,1.52539 488.41707,488.41707 0 0 0 -1.05469,1.53125 488.41707,488.41707 0 0 0 -1.04883,1.53321 488.41707,488.41707 0 0 0 -1.04297,1.53906 488.41707,488.41707 0 0 0 -1.03711,1.54102 488.41707,488.41707 0 0 0 -1.03125,1.54492 488.41707,488.41707 0 0 0 -1.02539,1.55273 488.41707,488.41707 0 0 0 -1.01953,1.55274 488.41707,488.41707 0 0 0 -1.01367,1.55664 488.41707,488.41707 0 0 0 -1.00586,1.5625 488.41707,488.41707 0 0 0 -1.00391,1.56445 488.41707,488.41707 0 0 0 -0.99414,1.56836 488.41707,488.41707 0 0 0 -0.99023,1.57422 488.41707,488.41707 0 0 0 -0.98438,1.57617 488.41707,488.41707 0 0 0 -0.97851,1.58008 488.41707,488.41707 0 0 0 -0.97071,1.58398 488.41707,488.41707 0 0 0 -0.96484,1.58789 488.41707,488.41707 0 0 0 -0.96094,1.5918 488.41707,488.41707 0 0 0 -0.95312,1.5957 488.41707,488.41707 0 0 0 -0.94922,1.59766 488.41707,488.41707 0 0 0 -0.94141,1.60156 488.41707,488.41707 0 0 0 -0.93359,1.60547 488.41707,488.41707 0 0 0 -0.92969,1.61133 488.41707,488.41707 0 0 0 -0.92383,1.61328 488.41707,488.41707 0 0 0 -0.91601,1.61719 488.41707,488.41707 0 0 0 -0.91016,1.61914 488.41707,488.41707 0 0 0 -0.90625,1.62304 488.41707,488.41707 0 0 0 -0.89844,1.62696 488.41707,488.41707 0 0 0 -0.89062,1.6289 488.41707,488.41707 0 0 0 -0.88672,1.63477 488.41707,488.41707 0 0 0 -0.87891,1.63672 488.41707,488.41707 0 0 0 -0.875,1.64062 488.41707,488.41707 0 0 0 -0.86718,1.64258 488.41707,488.41707 0 0 0 -0.86133,1.64649 488.41707,488.41707 0 0 0 -0.85352,1.65234 488.41707,488.41707 0 0 0 -0.84961,1.65234 488.41707,488.41707 0 0 0 -0.84179,1.65625 488.41707,488.41707 0 0 0 -0.83594,1.66016 488.41707,488.41707 0 0 0 -0.82813,1.66211 488.41707,488.41707 0 0 0 -0.82617,1.66602 488.41707,488.41707 0 0 0 -0.8164,1.66992 488.41707,488.41707 0 0 0 -0.81055,1.67187 488.41707,488.41707 0 0 0 -0.80469,1.67578 488.41707,488.41707 0 0 0 -0.79687,1.67774 488.41707,488.41707 0 0 0 -0.79102,1.68164 488.41707,488.41707 0 0 0 -0.78516,1.68555 488.41707,488.41707 0 0 0 -0.77929,1.68554 488.41707,488.41707 0 0 0 -0.77149,1.68946 488.41707,488.41707 0 0 0 -0.76562,1.69531 488.41707,488.41707 0 0 0 -0.75977,1.69531 488.41707,488.41707 0 0 0 -0.75195,1.69922 488.41707,488.41707 0 0 0 -0.74609,1.70117 488.41707,488.41707 0 0 0 -0.74024,1.70508 488.41707,488.41707 0 0 0 -0.73437,1.70898 488.41707,488.41707 0 0 0 -0.72657,1.71094 488.41707,488.41707 0 0 0 -0.71875,1.71094 488.41707,488.41707 0 0 0 -0.71484,1.71679 488.41707,488.41707 0 0 0 -0.70899,1.71876 488.41707,488.41707 0 0 0 -0.70117,1.7207 488.41707,488.41707 0 0 0 -0.69336,1.72461 488.41707,488.41707 0 0 0 -0.6875,1.72656 488.41707,488.41707 0 0 0 -0.67968,1.72852 488.41707,488.41707 0 0 0 -0.67383,1.73242 488.41707,488.41707 0 0 0 -0.66992,1.73437 488.41707,488.41707 0 0 0 -0.66016,1.73633 488.41707,488.41707 0 0 0 -0.6543,1.73828 488.41707,488.41707 0 0 0 -0.64843,1.74219 488.41707,488.41707 0 0 0 -0.64258,1.74414 488.41707,488.41707 0 0 0 -0.63477,1.74609 488.41707,488.41707 0 0 0 -0.62695,1.75 488.41707,488.41707 0 0 0 -0.62109,1.75196 488.41707,488.41707 0 0 0 -0.61524,1.75195 488.41707,488.41707 0 0 0 -0.60937,1.75781 488.41707,488.41707 0 0 0 -0.60157,1.75781 488.41707,488.41707 0 0 0 -0.59375,1.75977 488.41707,488.41707 0 0 0 -0.58789,1.76367 488.41707,488.41707 0 0 0 -0.58203,1.76563 488.41707,488.41707 0 0 0 -0.57422,1.76758 488.41707,488.41707 0 0 0 -0.56836,1.76757 488.41707,488.41707 0 0 0 -0.56054,1.77149 488.41707,488.41707 0 0 0 -0.55469,1.77539 488.41707,488.41707 0 0 0 -0.54688,1.77539 488.41707,488.41707 0 0 0 -0.54296,1.7793 488.41707,488.41707 0 0 0 -0.53321,1.77929 488.41707,488.41707 0 0 0 -0.52734,1.78125 488.41707,488.41707 0 0 0 -0.51953,1.78516 488.41707,488.41707 0 0 0 -0.51368,1.78516 488.41707,488.41707 0 0 0 -0.50781,1.78711 488.41707,488.41707 0 0 0 -0.5,1.79101 488.41707,488.41707 0 0 0 -0.49219,1.79102 488.41707,488.41707 0 0 0 -0.48828,1.79297 488.41707,488.41707 0 0 0 -0.47851,1.79492 488.41707,488.41707 0 0 0 -0.47461,1.79687 488.41707,488.41707 0 0 0 -0.46484,1.80078 488.41707,488.41707 0 0 0 -0.45899,1.80078 488.41707,488.41707 0 0 0 -0.45117,1.80079 488.41707,488.41707 0 0 0 -0.44727,1.80468 488.41707,488.41707 0 0 0 -0.43945,1.80664 488.41707,488.41707 0 0 0 -0.42969,1.8086 488.41707,488.41707 0 0 0 -0.42578,1.80859 488.41707,488.41707 0 0 0 -0.41797,1.81055 488.41707,488.41707 0 0 0 -0.41211,1.8125 488.41707,488.41707 0 0 0 -0.40234,1.8125 488.41707,488.41707 0 0 0 -0.39649,1.8164 488.41707,488.41707 0 0 0 -0.39062,1.81641 488.41707,488.41707 0 0 0 -0.38477,1.81836 488.41707,488.41707 0 0 0 -0.37695,1.82031 488.41707,488.41707 0 0 0 -0.36914,1.82227 488.41707,488.41707 0 0 0 -0.36133,1.82226 488.41707,488.41707 0 0 0 -0.35547,1.82422 488.41707,488.41707 0 0 0 -0.34961,1.82422 488.41707,488.41707 0 0 0 -0.34179,1.82617 488.41707,488.41707 0 0 0 -0.33399,1.83008 488.41707,488.41707 0 0 0 -0.32812,1.82813 488.41707,488.41707 0 0 0 -0.32227,1.83203 488.41707,488.41707 0 0 0 -0.31445,1.83008 488.41707,488.41707 0 0 0 -0.30664,1.83203 488.41707,488.41707 0 0 0 -0.30078,1.83593 488.41707,488.41707 0 0 0 -0.29297,1.83399 488.41707,488.41707 0 0 0 -0.28516,1.83594 488.41707,488.41707 0 0 0 -0.27929,1.83789 488.41707,488.41707 0 0 0 -0.27149,1.83789 488.41707,488.41707 0 0 0 -0.26562,1.83984 488.41707,488.41707 0 0 0 -0.25782,1.83985 488.41707,488.41707 0 0 0 -0.25195,1.84179 488.41707,488.41707 0 0 0 -0.24414,1.8418 488.41707,488.41707 0 0 0 -0.23633,1.84375 488.41707,488.41707 0 0 0 -0.23047,1.8457 488.41707,488.41707 0 0 0 -0.22265,1.84375 488.41707,488.41707 0 0 0 -0.2168,1.84571 488.41707,488.41707 0 0 0 -0.20898,1.84765 488.41707,488.41707 0 0 0 -0.20118,1.84766 488.41707,488.41707 0 0 0 -0.19336,1.84765 488.41707,488.41707 0 0 0 -0.18945,1.84766 488.41707,488.41707 0 0 0 -0.17969,1.84961 488.41707,488.41707 0 0 0 -0.17578,1.85156 488.41707,488.41707 0 0 0 -0.16601,1.84961 488.41707,488.41707 0 0 0 -0.15821,1.85156 488.41707,488.41707 0 0 0 -0.15429,1.85352 488.41707,488.41707 0 0 0 -0.14453,1.85156 488.41707,488.41707 0 0 0 -0.14063,1.85352 488.41707,488.41707 0 0 0 -0.13086,1.85351 488.41707,488.41707 0 0 0 -0.12305,1.85352 488.41707,488.41707 0 0 0 -0.11718,1.85547 488.41707,488.41707 0 0 0 -0.11133,1.85547 488.41707,488.41707 0 0 0 -0.10352,1.85547 488.41707,488.41707 0 0 0 -0.0957,1.85546 488.41707,488.41707 0 0 0 -0.0879,1.85547 488.41707,488.41707 0 0 0 -0.084,1.85742 488.41707,488.41707 0 0 0 -0.0762,1.85547 488.41707,488.41707 0 0 0 -0.0664,1.85938 488.41707,488.41707 0 0 0 -0.0606,1.85547 488.41707,488.41707 0 0 0 -0.0527,1.85937 488.41707,488.41707 0 0 0 -0.0488,1.85742 488.41707,488.41707 0 0 0 -0.0391,1.85743 488.41707,488.41707 0 0 0 -0.0332,1.85742 488.41707,488.41707 0 0 0 -0.0254,1.85937 488.41707,488.41707 0 0 0 -0.0195,1.85742 488.41707,488.41707 0 0 0 -0.0117,1.85938 488.41707,488.41707 0 0 0 -0.002,1.85742 488.41707,488.41707 0 0 0 0,1.85742 488.41707,488.41707 0 0 0 0.0117,1.85938 488.41707,488.41707 0 0 0 0.0156,1.85937 488.41707,488.41707 0 0 0 0.0254,1.85743 488.41707,488.41707 0 0 0 0.0312,1.85742 488.41707,488.41707 0 0 0 0.0371,1.85937 488.41707,488.41707 0 0 0 0.0449,1.85742 488.41707,488.41707 0 0 0 0.0527,1.85743 488.41707,488.41707 0 0 0 0.0586,1.85937 488.41707,488.41707 0 0 0 0.0664,1.85547 488.41707,488.41707 0 0 0 0.0723,1.85742 488.41707,488.41707 0 0 0 0.082,1.85742 488.41707,488.41707 0 0 0 0.0879,1.85547 488.41707,488.41707 0 0 0 0.0937,1.85742 488.41707,488.41707 0 0 0 0.10351,1.85352 488.41707,488.41707 0 0 0 0.10547,1.85547 488.41707,488.41707 0 0 0 0.11719,1.85547 488.41707,488.41707 0 0 0 0.12304,1.85351 488.41707,488.41707 0 0 0 0.12891,1.85352 488.41707,488.41707 0 0 0 0.13672,1.85351 488.41707,488.41707 0 0 0 0.14453,1.85157 488.41707,488.41707 0 0 0 0.15234,1.85351 488.41707,488.41707 0 0 0 0.15625,1.85156 488.41707,488.41707 0 0 0 0.16602,1.85157 488.41707,488.41707 0 0 0 0.17188,1.84961 488.41707,488.41707 0 0 0 0.17968,1.85156 488.41707,488.41707 0 0 0 0.18555,1.84765 488.41707,488.41707 0 0 0 0.19336,1.84766 488.41707,488.41707 0 0 0 0.20117,1.84961 488.41707,488.41707 0 0 0 0.20703,1.8457 488.41707,488.41707 0 0 0 0.21485,1.84571 488.41707,488.41707 0 0 0 0.22265,1.8457 488.41707,488.41707 0 0 0 0.22656,1.84375 488.41707,488.41707 0 0 0 0.23633,1.84375 488.41707,488.41707 0 0 0 0.24024,1.8418 488.41707,488.41707 0 0 0 0.25,1.84179 488.41707,488.41707 0 0 0 0.25781,1.8418 488.41707,488.41707 0 0 0 0.26367,1.83984 488.41707,488.41707 0 0 0 0.26953,1.83789 488.41707,488.41707 0 0 0 0.27735,1.83594 488.41707,488.41707 0 0 0 0.2832,1.83789 488.41707,488.41707 0 0 0 0.29297,1.83399 488.41707,488.41707 0 0 0 0.29687,1.83594 488.41707,488.41707 0 0 0 0.30664,1.83203 488.41707,488.41707 0 0 0 0.31446,1.83398 488.41707,488.41707 0 0 0 0.31836,1.82813 488.41707,488.41707 0 0 0 0.32422,1.83007 488.41707,488.41707 0 0 0 0.33398,1.83008 488.41707,488.41707 0 0 0 0.33984,1.82617 488.41707,488.41707 0 0 0 0.34766,1.82618 488.41707,488.41707 0 0 0 0.35352,1.82421 488.41707,488.41707 0 0 0 0.36328,1.82227 488.41707,488.41707 0 0 0 0.36718,1.82227 488.41707,488.41707 0 0 0 0.375,1.82031 488.41707,488.41707 0 0 0 0.38086,1.81836 488.41707,488.41707 0 0 0 0.38868,1.8164 488.41707,488.41707 0 0 0 0.39453,1.81641 488.41707,488.41707 0 0 0 0.40429,1.81445 488.41707,488.41707 0 0 0 0.41016,1.8125 488.41707,488.41707 0 0 0 0.41406,1.81055 488.41707,488.41707 0 0 0 0.42383,1.81055 488.41707,488.41707 0 0 0 0.42969,1.80859 488.41707,488.41707 0 0 0 0.4375,1.80469 488.41707,488.41707 0 0 0 0.44531,1.80664 488.41707,488.41707 0 0 0 0.45117,1.80078 488.41707,488.41707 0 0 0 0.45703,1.80078 488.41707,488.41707 0 0 0 0.46289,1.80078 488.41707,488.41707 0 0 0 0.47071,1.79688 488.41707,488.41707 0 0 0 0.48047,1.79687 488.41707,488.41707 0 0 0 0.40234,1.49219 488.41707,488.41707 0 0 0 0.49023,1.79102 488.41707,488.41707 0 0 0 0.4961,1.79101 488.41707,488.41707 0 0 0 0.5039,1.78906 488.41707,488.41707 0 0 0 0.51368,1.78711 488.41707,488.41707 0 0 0 0.51562,1.78516 488.41707,488.41707 0 0 0 0.52539,1.78125 488.41707,488.41707 0 0 0 0.53125,1.78125 488.41707,488.41707 0 0 0 0.53906,1.77734 488.41707,488.41707 0 0 0 0.54493,1.77735 488.41707,488.41707 0 0 0 0.55078,1.77539 488.41707,488.41707 0 0 0 0.55859,1.77344 488.41707,488.41707 0 0 0 0.56641,1.76953 488.41707,488.41707 0 0 0 0.57031,1.76757 488.41707,488.41707 0 0 0 0.58008,1.76563 488.41707,488.41707 0 0 0 0.58398,1.76367 488.41707,488.41707 0 0 0 0.5918,1.76367 488.41707,488.41707 0 0 0 0.59961,1.75782 488.41707,488.41707 0 0 0 0.60547,1.75781 488.41707,488.41707 0 0 0 0.61133,1.7539 488.41707,488.41707 0 0 0 0.61914,1.75196 488.41707,488.41707 0 0 0 0.625,1.75 488.41707,488.41707 0 0 0 0.63281,1.75 488.41707,488.41707 0 0 0 0.63867,1.74218 488.41707,488.41707 0 0 0 0.64648,1.74415 488.41707,488.41707 0 0 0 0.6504,1.74023 488.41707,488.41707 0 0 0 0.66015,1.73828 488.41707,488.41707 0 0 0 0.66406,1.73438 488.41707,488.41707 0 0 0 0.67188,1.73242 488.41707,488.41707 0 0 0 0.67773,1.73047 488.41707,488.41707 0 0 0 0.68555,1.72851 488.41707,488.41707 0 0 0 0.69141,1.72461 488.41707,488.41707 0 0 0 0.69726,1.72266 488.41707,488.41707 0 0 0 0.70703,1.71875 488.41707,488.41707 0 0 0 0.71094,1.7168 488.41707,488.41707 0 0 0 0.7168,1.71484 488.41707,488.41707 0 0 0 0.72461,1.71094 488.41707,488.41707 0 0 0 0.73047,1.70898 488.41707,488.41707 0 0 0 0.73632,1.70703 488.41707,488.41707 0 0 0 0.74414,1.70117 488.41707,488.41707 0 0 0 0.75,1.70118 488.41707,488.41707 0 0 0 0.75586,1.69726 488.41707,488.41707 0 0 0 0.76563,1.69531 488.41707,488.41707 0 0 0 0.76758,1.68946 488.41707,488.41707 0 0 0 0.77734,1.68945 488.41707,488.41707 0 0 0 0.78125,1.6875 488.41707,488.41707 0 0 0 0.78906,1.67969 488.41707,488.41707 0 0 0 0.79688,1.68164 488.41707,488.41707 0 0 0 0.80078,1.67578 488.41707,488.41707 0 0 0 0.80859,1.67383 488.41707,488.41707 0 0 0 0.8125,1.66992 488.41707,488.41707 0 0 0 0.82227,1.66797 488.41707,488.41707 0 0 0 0.82617,1.66406 488.41707,488.41707 0 0 0 0.83398,1.66211 488.41707,488.41707 0 0 0 0.83985,1.65625 488.41707,488.41707 0 0 0 0.8457,1.65625 488.41707,488.41707 0 0 0 0.85156,1.65039 488.41707,488.41707 0 0 0 0.85938,1.64844 488.41707,488.41707 0 0 0 0.86523,1.64453 488.41707,488.41707 0 0 0 0.8711,1.64258 488.41707,488.41707 0 0 0 0.87695,1.63672 488.41707,488.41707 0 0 0 0.88281,1.63476 488.41707,488.41707 0 0 0 0.89063,1.63281 488.41707,488.41707 0 0 0 0.89648,1.62696 488.41707,488.41707 0 0 0 0.90235,1.625 488.41707,488.41707 0 0 0 0.9082,1.62109 488.41707,488.41707 0 0 0 0.91406,1.61914 488.41707,488.41707 0 0 0 0.91992,1.61328 488.41707,488.41707 0 0 0 0.92774,1.61133 488.41707,488.41707 0 0 0 0.93164,1.60742 488.41707,488.41707 0 0 0 0.93945,1.60352 488.41707,488.41707 0 0 0 0.94531,1.60156 488.41707,488.41707 0 0 0 0.95118,1.5957 488.41707,488.41707 0 0 0 0.95703,1.5918 488.41707,488.41707 0 0 0 0.96289,1.58985 488.41707,488.41707 0 0 0 0.9707,1.58398 488.41707,488.41707 0 0 0 0.97461,1.58398 488.41707,488.41707 0 0 0 0.98047,1.57813 488.41707,488.41707 0 0 0 0.98828,1.57422 488.41707,488.41707 0 0 0 0.99414,1.57031 488.41707,488.41707 0 0 0 0.99805,1.5664 488.41707,488.41707 0 0 0 1.00586,1.5625 488.41707,488.41707 0 0 0 1.01172,1.5586 488.41707,488.41707 0 0 0 1.01757,1.5566 488.41707,488.41707 0 0 0 1.02149,1.5508 488.41707,488.41707 0 0 0 1.0293,1.5488 488.41707,488.41707 0 0 0 1.03515,1.543 488.41707,488.41707 0 0 0 1.04102,1.5391 488.41707,488.41707 0 0 0 1.04492,1.5371 488.41707,488.41707 0 0 0 1.05469,1.5312 488.41707,488.41707 0 0 0 1.05664,1.5274 488.41707,488.41707 0 0 0 1.06445,1.5234 488.41707,488.41707 0 0 0 1.07031,1.5196 488.41707,488.41707 0 0 0 1.07617,1.5156 488.41707,488.41707 0 0 0 1.08008,1.5117 488.41707,488.41707 0 0 0 1.08594,1.5078 488.41707,488.41707 0 0 0 1.09375,1.502 488.41707,488.41707 0 0 0 1.09961,1.498 488.41707,488.41707 0 0 0 1.10352,1.4961 488.41707,488.41707 0 0 0 1.10937,1.4902 488.41707,488.41707 0 0 0 1.11523,1.4864 488.41707,488.41707 0 0 0 1.1211,1.4824 488.41707,488.41707 0 0 0 1.12695,1.4785 488.41707,488.41707 0 0 0 1.13281,1.4727 488.41707,488.41707 0 0 0 1.13868,1.4707 488.41707,488.41707 0 0 0 1.14453,1.4648 488.41707,488.41707 0 0 0 1.14648,1.459 488.41707,488.41707 0 0 0 1.15625,1.457 488.41707,488.41707 0 0 0 1.16016,1.4531 488.41707,488.41707 0 0 0 1.16601,1.4454 488.41707,488.41707 0 0 0 1.17188,1.4433 488.41707,488.41707 0 0 0 1.17578,1.4375 488.41707,488.41707 0 0 0 1.18164,1.4336 488.41707,488.41707 0 0 0 1.18945,1.4297 488.41707,488.41707 0 0 0 1.19141,1.4238 488.41707,488.41707 0 0 0 1.19922,1.4219 488.41707,488.41707 0 0 0 1.20508,1.4141 488.41707,488.41707 0 0 0 1.20898,1.4121 488.41707,488.41707 0 0 0 1.21485,1.4062 488.41707,488.41707 0 0 0 1.21874,1.4024 488.41707,488.41707 0 0 0 1.22657,1.3965 488.41707,488.41707 0 0 0 1.22851,1.3945 488.41707,488.41707 0 0 0 1.23633,1.3867 488.41707,488.41707 0 0 0 1.24219,1.3828 488.41707,488.41707 0 0 0 1.24609,1.3789 488.41707,488.41707 0 0 0 1.25196,1.3731 488.41707,488.41707 0 0 0 1.25781,1.3691 488.41707,488.41707 0 0 0 1.26172,1.3652 488.41707,488.41707 0 0 0 1.26758,1.3575 488.41707,488.41707 0 0 0 1.27148,1.3554 488.41707,488.41707 0 0 0 1.27734,1.3496 488.41707,488.41707 0 0 0 1.28321,1.3457 488.41707,488.41707 0 0 0 1.28711,1.3379 488.41707,488.41707 0 0 0 1.29296,1.336 488.41707,488.41707 0 0 0 1.29883,1.3301 488.41707,488.41707 0 0 0 1.30274,1.3242 488.41707,488.41707 0 0 0 1.30859,1.3203 488.41707,488.41707 0 0 0 1.3125,1.3164 488.41707,488.41707 0 0 0 1.31836,1.3086 488.41707,488.41707 0 0 0 1.32227,1.3047 488.41707,488.41707 0 0 0 1.32812,1.3008 488.41707,488.41707 0 0 0 1.33399,1.2929 488.41707,488.41707 0 0 0 1.33789,1.293 488.41707,488.41707 0 0 0 1.34179,1.2832 488.41707,488.41707 0 0 0 1.34766,1.2812 488.41707,488.41707 0 0 0 1.35351,1.2735 488.41707,488.41707 0 0 0 1.35743,1.2676 488.41707,488.41707 0 0 0 1.36132,1.2656 488.41707,488.41707 0 0 0 1.36719,1.2578 488.41707,488.41707 0 0 0 1.3711,1.2539 488.41707,488.41707 0 0 0 1.37695,1.25 488.41707,488.41707 0 0 0 1.38086,1.2422 488.41707,488.41707 0 0 0 1.38672,1.2383 488.41707,488.41707 0 0 0 1.38867,1.2324 488.41707,488.41707 0 0 0 1.39648,1.2305 488.41707,488.41707 0 0 0 1.40039,1.2207 488.41707,488.41707 0 0 0 1.4043,1.2168 488.41707,488.41707 0 0 0 1.41016,1.2109 488.41707,488.41707 0 0 0 1.41406,1.207 488.41707,488.41707 0 0 0 1.41797,1.2012 488.41707,488.41707 0 0 0 1.42187,1.1953 488.41707,488.41707 0 0 0 1.42774,1.1875 488.41707,488.41707 0 0 0 1.43164,1.1856 488.41707,488.41707 0 0 0 1.4375,1.1797 488.41707,488.41707 0 0 0 1.43945,1.1718 488.41707,488.41707 0 0 0 1.44727,1.168 488.41707,488.41707 0 0 0 1.44922,1.1641 488.41707,488.41707 0 0 0 1.45507,1.1562 488.41707,488.41707 0 0 0 1.45703,1.1523 488.41707,488.41707 0 0 0 1.46485,1.1446 488.41707,488.41707 0 0 0 1.4668,1.1406 488.41707,488.41707 0 0 0 1.4707,1.1348 488.41707,488.41707 0 0 0 1.47851,1.1269 488.41707,488.41707 0 0 0 1.48047,1.125 488.41707,488.41707 0 0 0 1.48243,1.1192 488.41707,488.41707 0 0 0 1.49023,1.1113 488.41707,488.41707 0 0 0 1.49219,1.1074 488.41707,488.41707 0 0 0 1.49804,1.0996 488.41707,488.41707 0 0 0 1.5,1.0957 488.41707,488.41707 0 0 0 1.50586,1.0899 488.41707,488.41707 0 0 0 1.50977,1.082 488.41707,488.41707 0 0 0 1.51562,1.0781 488.41707,488.41707 0 0 0 1.51563,1.0742 488.41707,488.41707 0 0 0 1.52148,1.0645 488.41707,488.41707 0 0 0 1.52735,1.0625 488.41707,488.41707 0 0 0 1.52929,1.0527 488.41707,488.41707 0 0 0 1.53711,1.0508 488.41707,488.41707 0 0 0 1.53711,1.041 488.41707,488.41707 0 0 0 1.54102,1.0371 488.41707,488.41707 0 0 0 1.54687,1.0313 488.41707,488.41707 0 0 0 1.54883,1.0273 488.41707,488.41707 0 0 0 1.55469,1.0176 488.41707,488.41707 0 0 0 1.55664,1.0137 488.41707,488.41707 0 0 0 1.56055,1.0078 488.41707,488.41707 0 0 0 1.5664,1.002 488.41707,488.41707 0 0 0 1.56836,0.996 488.41707,488.41707 0 0 0 1.57422,0.9903 488.41707,488.41707 0 0 0 1.57617,0.9844 488.41707,488.41707 0 0 0 1.58008,0.9765 488.41707,488.41707 0 0 0 1.58399,0.9727 488.41707,488.41707 0 0 0 1.58789,0.9648 488.41707,488.41707 0 0 0 1.59179,0.961 488.41707,488.41707 0 0 0 1.59571,0.9531 488.41707,488.41707 0 0 0 1.59765,0.9472 488.41707,488.41707 0 0 0 1.60352,0.9414 488.41707,488.41707 0 0 0 1.60547,0.9356 488.41707,488.41707 0 0 0 1.60937,0.9297 488.41707,488.41707 0 0 0 1.61133,0.9238 488.41707,488.41707 0 0 0 1.61719,0.9141 488.41707,488.41707 0 0 0 1.61914,0.9121 488.41707,488.41707 0 0 0 1.625,0.9062 488.41707,488.41707 0 0 0 1.625,0.8985 488.41707,488.41707 0 0 0 1.63086,0.8906 488.41707,488.41707 0 0 0 1.63281,0.8867 488.41707,488.41707 0 0 0 1.63867,0.8789 488.41707,488.41707 0 0 0 1.63867,0.875 488.41707,488.41707 0 0 0 1.64453,0.8672 488.41707,488.41707 0 0 0 1.64649,0.8594 488.41707,488.41707 0 0 0 1.65039,0.8555 488.41707,488.41707 0 0 0 1.6543,0.8496 488.41707,488.41707 0 0 0 1.65625,0.8418 488.41707,488.41707 0 0 0 1.6582,0.8339 488.41707,488.41707 0 0 0 1.66406,0.8301 488.41707,488.41707 0 0 0 1.66602,0.8242 488.41707,488.41707 0 0 0 1.66797,0.8164 488.41707,488.41707 0 0 0 1.67382,0.8125 488.41707,488.41707 0 0 0 1.67579,0.8028 488.41707,488.41707 0 0 0 1.67773,0.7988 488.41707,488.41707 0 0 0 1.68164,0.791 488.41707,488.41707 0 0 0 1.68359,0.7852 488.41707,488.41707 0 0 0 1.6875,0.7793 488.41707,488.41707 0 0 0 1.69141,0.7715 488.41707,488.41707 0 0 0 1.69336,0.7656 488.41707,488.41707 0 0 0 1.69727,0.7598 488.41707,488.41707 0 0 0 1.69726,0.7519 488.41707,488.41707 0 0 0 1.70313,0.7461 488.41707,488.41707 0 0 0 1.70312,0.7402 488.41707,488.41707 0 0 0 1.70899,0.7325 488.41707,488.41707 0 0 0 1.71093,0.7285 488.41707,488.41707 0 0 0 1.71289,0.7187 488.41707,488.41707 0 0 0 1.71485,0.7149 488.41707,488.41707 0 0 0 1.71875,0.707 488.41707,488.41707 0 0 0 1.72265,0.7012 488.41707,488.41707 0 0 0 1.72266,0.6953 488.41707,488.41707 0 0 0 1.72461,0.6875 488.41707,488.41707 0 0 0 1.73047,0.6797 488.41707,488.41707 0 0 0 1.73242,0.6738 488.41707,488.41707 0 0 0 1.73438,0.668 488.41707,488.41707 0 0 0 1.73632,0.6621 488.41707,488.41707 0 0 0 1.73828,0.6543 488.41707,488.41707 0 0 0 1.74219,0.6484 488.41707,488.41707 0 0 0 1.74414,0.6406 488.41707,488.41707 0 0 0 1.74805,0.6348 488.41707,488.41707 0 0 0 1.74805,0.6289 488.41707,488.41707 0 0 0 1.75195,0.6211 488.41707,488.41707 0 0 0 1.52148,0.5332 l -20.77539,-77.4453 C 370.76926,1071.6863 284.89089,974.72869 251.22461,849.23242 217.55817,723.73561 243.37764,596.81297 311.54492,498.10156 Z m 800.80077,88.29492 -33.1445,82.31641 c 4.5899,12.40013 8.6575,25.12348 12.1543,38.1582 3.4971,13.03619 6.3452,26.08718 8.5781,39.1211 l 69.8965,54.67773 a 488.41707,488.41707 0 0 0 -0.014,-0.39844 488.41707,488.41707 0 0 0 -0.064,-1.85546 488.41707,488.41707 0 0 0 -0.074,-1.85743 488.41707,488.41707 0 0 0 -0.082,-1.85742 488.41707,488.41707 0 0 0 -0.088,-1.85742 488.41707,488.41707 0 0 0 -0.092,-1.85547 488.41707,488.41707 0 0 0 -0.1015,-1.85547 488.41707,488.41707 0 0 0 -0.1094,-1.85351 488.41707,488.41707 0 0 0 -0.1172,-1.85742 488.41707,488.41707 0 0 0 -0.123,-1.85352 488.41707,488.41707 0 0 0 -0.129,-1.85352 488.41707,488.41707 0 0 0 -0.1367,-1.85156 488.41707,488.41707 0 0 0 -0.1445,-1.85547 488.41707,488.41707 0 0 0 -0.1504,-1.85156 488.41707,488.41707 0 0 0 -0.1582,-1.84961 488.41707,488.41707 0 0 0 -0.166,-1.85351 488.41707,488.41707 0 0 0 -0.1719,-1.84961 488.41707,488.41707 0 0 0 -0.1797,-1.84961 488.41707,488.41707 0 0 0 -0.1855,-1.84766 488.41707,488.41707 0 0 0 -0.1934,-1.84961 488.41707,488.41707 0 0 0 -0.1992,-1.84766 488.41707,488.41707 0 0 0 -0.209,-1.8457 488.41707,488.41707 0 0 0 -0.2148,-1.8457 488.41707,488.41707 0 0 0 -0.2188,-1.8457 488.41707,488.41707 0 0 0 -0.2304,-1.84375 488.41707,488.41707 0 0 0 -0.2364,-1.84375 488.41707,488.41707 0 0 0 -0.2402,-1.8418 488.41707,488.41707 0 0 0 -0.25,-1.8418 488.41707,488.41707 0 0 0 -0.2578,-1.83984 488.41707,488.41707 0 0 0 -0.2617,-1.8418 488.41707,488.41707 0 0 0 -0.2715,-1.83789 488.41707,488.41707 0 0 0 -0.2754,-1.83789 488.41707,488.41707 0 0 0 -0.2852,-1.83789 488.41707,488.41707 0 0 0 -0.2929,-1.83399 488.41707,488.41707 0 0 0 -0.2969,-1.83593 488.41707,488.41707 0 0 0 -0.3067,-1.83203 488.41707,488.41707 0 0 0 -0.3105,-1.83204 488.41707,488.41707 0 0 0 -0.3203,-1.83203 488.41707,488.41707 0 0 0 -0.3262,-1.82812 488.41707,488.41707 0 0 0 -0.334,-1.82813 488.41707,488.41707 0 0 0 -0.3398,-1.82812 488.41707,488.41707 0 0 0 -0.3477,-1.82422 488.41707,488.41707 0 0 0 -0.3535,-1.82422 488.41707,488.41707 0 0 0 -0.3594,-1.82422 488.41707,488.41707 0 0 0 -0.3691,-1.82031 488.41707,488.41707 0 0 0 -0.377,-1.82031 488.41707,488.41707 0 0 0 -0.3789,-1.82032 488.41707,488.41707 0 0 0 -0.3886,-1.8164 488.41707,488.41707 0 0 0 -0.3965,-1.81445 488.41707,488.41707 0 0 0 -0.4024,-1.81641 488.41707,488.41707 0 0 0 -0.4082,-1.8125 488.41707,488.41707 0 0 0 -0.4179,-1.80859 488.41707,488.41707 0 0 0 -0.4219,-1.81055 488.41707,488.41707 0 0 0 -0.4316,-1.8086 488.41707,488.41707 0 0 0 -0.4376,-1.80664 488.41707,488.41707 0 0 0 -0.4433,-1.80468 488.41707,488.41707 0 0 0 -0.4492,-1.80274 488.41707,488.41707 0 0 0 -0.459,-1.80078 488.41707,488.41707 0 0 0 -0.4649,-1.79883 488.41707,488.41707 0 0 0 -0.4707,-1.79883 488.41707,488.41707 0 0 0 -0.4804,-1.79492 488.41707,488.41707 0 0 0 -0.4004,-1.49218 488.41707,488.41707 0 0 0 -0.4922,-1.79297 488.41707,488.41707 0 0 0 -0.4981,-1.78907 488.41707,488.41707 0 0 0 -0.5039,-1.78906 488.41707,488.41707 0 0 0 -0.5117,-1.78711 488.41707,488.41707 0 0 0 -0.5156,-1.7832 488.41707,488.41707 0 0 0 -0.5254,-1.78516 488.41707,488.41707 0 0 0 -0.5312,-1.78125 488.41707,488.41707 0 0 0 -0.5391,-1.77734 488.41707,488.41707 0 0 0 -0.543,-1.77734 488.41707,488.41707 0 0 0 -0.5527,-1.77344 488.41707,488.41707 0 0 0 -0.5586,-1.77344 488.41707,488.41707 0 0 0 -0.5645,-1.76953 488.41707,488.41707 0 0 0 -0.5742,-1.76953 488.41707,488.41707 0 0 0 -0.5761,-1.76563 488.41707,488.41707 0 0 0 -0.5879,-1.76367 488.41707,488.41707 0 0 0 -0.5899,-1.75976 488.41707,488.41707 0 0 0 -0.5996,-1.76172 488.41707,488.41707 0 0 0 -0.6055,-1.75586 488.41707,488.41707 0 0 0 -0.6132,-1.75586 488.41707,488.41707 0 0 0 -0.6172,-1.75196 488.41707,488.41707 0 0 0 -0.627,-1.75 488.41707,488.41707 0 0 0 -0.6308,-1.74804 488.41707,488.41707 0 0 0 -0.6407,-1.74414 488.41707,488.41707 0 0 0 -0.6445,-1.74219 488.41707,488.41707 0 0 0 -0.6504,-1.74023 488.41707,488.41707 0 0 0 -0.6582,-1.73829 488.41707,488.41707 0 0 0 -0.666,-1.73437 488.41707,488.41707 0 0 0 -0.6738,-1.73242 488.41707,488.41707 0 0 0 -0.6778,-1.73047 488.41707,488.41707 0 0 0 -0.6836,-1.72852 488.41707,488.41707 0 0 0 -0.6914,-1.72461 488.41707,488.41707 0 0 0 -0.6992,-1.72265 488.41707,488.41707 0 0 0 -0.7031,-1.71875 488.41707,488.41707 0 0 0 -0.711,-1.7168 488.41707,488.41707 0 0 0 -0.7187,-1.71484 488.41707,488.41707 0 0 0 -0.7246,-1.71289 488.41707,488.41707 0 0 0 -0.7324,-1.70703 488.41707,488.41707 0 0 0 -0.7364,-1.70704 488.41707,488.41707 0 0 0 -0.7441,-1.70312 488.41707,488.41707 0 0 0 -0.748,-1.69922 488.41707,488.41707 0 0 0 -0.7579,-1.69727 488.41707,488.41707 0 0 0 -0.7636,-1.69531 488.41707,488.41707 0 0 0 -0.7696,-1.6914 488.41707,488.41707 0 0 0 -0.7773,-1.68946 488.41707,488.41707 0 0 0 -0.7813,-1.68359 488.41707,488.41707 0 0 0 -0.789,-1.68359 488.41707,488.41707 0 0 0 -0.7949,-1.67969 488.41707,488.41707 0 0 0 -0.8008,-1.67578 488.41707,488.41707 0 0 0 -0.8086,-1.67383 488.41707,488.41707 0 0 0 -0.8145,-1.66992 488.41707,488.41707 0 0 0 -0.8222,-1.66797 488.41707,488.41707 0 0 0 -0.8262,-1.66407 488.41707,488.41707 0 0 0 -0.834,-1.66015 488.41707,488.41707 0 0 0 -0.8379,-1.66016 488.41707,488.41707 0 0 0 -0.8476,-1.65429 488.41707,488.41707 0 0 0 -0.8516,-1.6504 488.41707,488.41707 0 0 0 -0.8574,-1.64843 488.41707,488.41707 0 0 0 -0.8672,-1.64453 488.41707,488.41707 0 0 0 -0.8692,-1.64063 488.41707,488.41707 0 0 0 -0.3359,-0.62891 z m 44.0918,345.0625 a 488.41707,488.41707 0 0 1 0,0.006 v 0 z m 0,0.006 -72.043,19.72266 C 1020.15,1004.1169 914.06635,1110.5768 770.80854,1149.0079 c -43.55887,11.6853 -87.29038,16.1982 -129.95508,14.2695 l 17.29492,64.4649 a 488.41707,488.41707 0 0 0 0.67969,0 488.41707,488.41707 0 0 0 1.85742,0 488.41707,488.41707 0 0 0 1.85938,0 488.41707,488.41707 0 0 0 1.85742,-0.01 488.41707,488.41707 0 0 0 1.85742,-0.02 488.41707,488.41707 0 0 0 1.85938,-0.023 488.41707,488.41707 0 0 0 1.85742,-0.029 488.41707,488.41707 0 0 0 1.85937,-0.039 488.41707,488.41707 0 0 0 1.85743,-0.045 488.41707,488.41707 0 0 0 1.85742,-0.051 488.41707,488.41707 0 0 0 1.85742,-0.061 488.41707,488.41707 0 0 0 1.85742,-0.066 488.41707,488.41707 0 0 0 1.85742,-0.07 488.41707,488.41707 0 0 0 1.85743,-0.082 488.41707,488.41707 0 0 0 1.85546,-0.09 488.41707,488.41707 0 0 0 1.85547,-0.094 488.41707,488.41707 0 0 0 1.85547,-0.1016 488.41707,488.41707 0 0 0 1.85547,-0.1074 488.41707,488.41707 0 0 0 1.85352,-0.1152 488.41707,488.41707 0 0 0 1.85742,-0.1231 488.41707,488.41707 0 0 0 1.85351,-0.1328 488.41707,488.41707 0 0 0 1.85157,-0.1347 488.41707,488.41707 0 0 0 1.85351,-0.1446 488.41707,488.41707 0 0 0 1.85156,-0.1523 488.41707,488.41707 0 0 0 1.85157,-0.1563 488.41707,488.41707 0 0 0 1.85156,-0.164 488.41707,488.41707 0 0 0 1.85156,-0.1739 488.41707,488.41707 0 0 0 1.84961,-0.1777 488.41707,488.41707 0 0 0 1.84766,-0.1875 488.41707,488.41707 0 0 0 1.84961,-0.1934 488.41707,488.41707 0 0 0 1.84765,-0.1992 488.41707,488.41707 0 0 0 1.84571,-0.209 488.41707,488.41707 0 0 0 1.8457,-0.2128 488.41707,488.41707 0 0 0 1.8457,-0.2227 488.41707,488.41707 0 0 0 1.84375,-0.2266 488.41707,488.41707 0 0 0 1.84375,-0.2363 488.41707,488.41707 0 0 0 1.8418,-0.2422 488.41707,488.41707 0 0 0 1.8418,-0.248 488.41707,488.41707 0 0 0 1.83984,-0.2578 488.41707,488.41707 0 0 0 1.8418,-0.2637 488.41707,488.41707 0 0 0 1.83789,-0.2695 488.41707,488.41707 0 0 0 1.83789,-0.2793 488.41707,488.41707 0 0 0 1.83594,-0.2852 488.41707,488.41707 0 0 0 1.83593,-0.2891 488.41707,488.41707 0 0 0 1.83399,-0.2988 488.41707,488.41707 0 0 0 1.83398,-0.3047 488.41707,488.41707 0 0 0 1.83008,-0.3144 488.41707,488.41707 0 0 0 1.83203,-0.3184 488.41707,488.41707 0 0 0 1.83008,-0.3262 488.41707,488.41707 0 0 0 1.82812,-0.3339 488.41707,488.41707 0 0 0 1.82813,-0.3379 488.41707,488.41707 0 0 0 1.82227,-0.3496 488.41707,488.41707 0 0 0 1.82617,-0.3536 488.41707,488.41707 0 0 0 1.82226,-0.3613 488.41707,488.41707 0 0 0 1.82227,-0.3672 488.41707,488.41707 0 0 0 1.81836,-0.375 488.41707,488.41707 0 0 0 1.82031,-0.3808 488.41707,488.41707 0 0 0 1.81836,-0.3907 488.41707,488.41707 0 0 0 1.81445,-0.3925 488.41707,488.41707 0 0 0 1.81446,-0.4043 488.41707,488.41707 0 0 0 1.8125,-0.4102 488.41707,488.41707 0 0 0 1.81054,-0.4141 488.41707,488.41707 0 0 0 1.81055,-0.4257 488.41707,488.41707 0 0 0 1.80664,-0.4278 488.41707,488.41707 0 0 0 1.80859,-0.4375 488.41707,488.41707 0 0 0 1.80469,-0.4433 488.41707,488.41707 0 0 0 1.80078,-0.4512 488.41707,488.41707 0 0 0 1.80274,-0.459 488.41707,488.41707 0 0 0 1.79883,-0.4629 488.41707,488.41707 0 0 0 1.79882,-0.4707 488.41707,488.41707 0 0 0 1.79297,-0.4804 488.41707,488.41707 0 0 0 1.49219,-0.4004 488.41707,488.41707 0 0 0 1.79492,-0.4922 488.41707,488.41707 0 0 0 1.78906,-0.4961 488.41707,488.41707 0 0 0 1.78907,-0.5059 488.41707,488.41707 0 0 0 1.78711,-0.5117 488.41707,488.41707 0 0 0 1.7832,-0.5156 488.41707,488.41707 0 0 0 1.78516,-0.5254 488.41707,488.41707 0 0 0 1.77929,-0.5332 488.41707,488.41707 0 0 0 1.7793,-0.5371 488.41707,488.41707 0 0 0 1.77734,-0.5449 488.41707,488.41707 0 0 0 1.77344,-0.5508 488.41707,488.41707 0 0 0 1.77344,-0.5586 488.41707,488.41707 0 0 0 1.76953,-0.5664 488.41707,488.41707 0 0 0 1.76953,-0.5723 488.41707,488.41707 0 0 0 1.76563,-0.5781 488.41707,488.41707 0 0 0 1.76367,-0.584 488.41707,488.41707 0 0 0 1.75976,-0.5918 488.41707,488.41707 0 0 0 1.76172,-0.5996 488.41707,488.41707 0 0 0 1.75586,-0.6055 488.41707,488.41707 0 0 0 1.75586,-0.6113 488.41707,488.41707 0 0 0 1.75,-0.6191 488.41707,488.41707 0 0 0 1.75195,-0.627 488.41707,488.41707 0 0 0 1.7461,-0.6328 488.41707,488.41707 0 0 0 1.74609,-0.6367 488.41707,488.41707 0 0 0 1.74219,-0.6465 488.41707,488.41707 0 0 0 1.74023,-0.6524 488.41707,488.41707 0 0 0 1.73828,-0.6582 488.41707,488.41707 0 0 0 1.73438,-0.666 488.41707,488.41707 0 0 0 1.73242,-0.6699 488.41707,488.41707 0 0 0 1.73047,-0.6797 488.41707,488.41707 0 0 0 1.72852,-0.6836 488.41707,488.41707 0 0 0 1.7246,-0.6933 488.41707,488.41707 0 0 0 1.72266,-0.6973 488.41707,488.41707 0 0 0 1.71875,-0.7051 488.41707,488.41707 0 0 0 1.7168,-0.7109 488.41707,488.41707 0 0 0 1.71484,-0.7168 488.41707,488.41707 0 0 0 1.71289,-0.7246 488.41707,488.41707 0 0 0 1.70703,-0.7325 488.41707,488.41707 0 0 0 1.70703,-0.7363 488.41707,488.41707 0 0 0 1.70313,-0.7441 488.41707,488.41707 0 0 0 1.69922,-0.75 488.41707,488.41707 0 0 0 1.69726,-0.7578 488.41707,488.41707 0 0 0 1.69532,-0.7618 488.41707,488.41707 0 0 0 1.6914,-0.7695 488.41707,488.41707 0 0 0 1.68946,-0.7754 488.41707,488.41707 0 0 0 1.68359,-0.7812 488.41707,488.41707 0 0 0 1.68359,-0.791 488.41707,488.41707 0 0 0 1.67969,-0.795 488.41707,488.41707 0 0 0 1.67578,-0.8027 488.41707,488.41707 0 0 0 1.67383,-0.8066 488.41707,488.41707 0 0 0 1.66992,-0.8145 488.41707,488.41707 0 0 0 1.66797,-0.8203 488.41707,488.41707 0 0 0 1.66406,-0.8262 488.41707,488.41707 0 0 0 1.66016,-0.834 488.41707,488.41707 0 0 0 1.6582,-0.8398 488.41707,488.41707 0 0 0 1.65625,-0.8457 488.41707,488.41707 0 0 0 1.65039,-0.8535 488.41707,488.41707 0 0 0 1.64844,-0.8574 488.41707,488.41707 0 0 0 1.64453,-0.8653 488.41707,488.41707 0 0 0 1.64063,-0.8711 488.41707,488.41707 0 0 0 1.64062,-0.8769 488.41707,488.41707 0 0 0 1.63281,-0.8828 488.41707,488.41707 0 0 0 1.63282,-0.8907 488.41707,488.41707 0 0 0 1.62695,-0.8964 488.41707,488.41707 0 0 0 1.625,-0.9024 488.41707,488.41707 0 0 0 1.62305,-0.9082 488.41707,488.41707 0 0 0 1.61718,-0.9141 488.41707,488.41707 0 0 0 1.61329,-0.9199 488.41707,488.41707 0 0 0 1.61132,-0.9277 488.41707,488.41707 0 0 0 1.60743,-0.9336 488.41707,488.41707 0 0 0 1.60351,-0.9395 488.41707,488.41707 0 0 0 1.59961,-0.9453 488.41707,488.41707 0 0 0 1.59766,-0.9492 488.41707,488.41707 0 0 0 1.59179,-0.957 488.41707,488.41707 0 0 0 1.58985,-0.9649 488.41707,488.41707 0 0 0 1.58593,-0.9687 488.41707,488.41707 0 0 0 1.58204,-0.9746 488.41707,488.41707 0 0 0 1.57812,-0.9805 488.41707,488.41707 0 0 0 1.57227,-0.9883 488.41707,488.41707 0 0 0 1.57226,-0.9941 488.41707,488.41707 0 0 0 1.56641,-0.9981 488.41707,488.41707 0 0 0 1.56445,-1.0078 488.41707,488.41707 0 0 0 1.5586,-1.0097 488.41707,488.41707 0 0 0 1.55468,-1.0176 488.41707,488.41707 0 0 0 1.55274,-1.0235 488.41707,488.41707 0 0 0 1.54687,-1.0273 488.41707,488.41707 0 0 0 1.54297,-1.0352 488.41707,488.41707 0 0 0 1.54102,-1.0429 488.41707,488.41707 0 0 0 1.53515,-1.0449 488.41707,488.41707 0 0 0 1.53125,-1.0528 488.41707,488.41707 0 0 0 1.52735,-1.0566 488.41707,488.41707 0 0 0 1.52343,-1.0645 488.41707,488.41707 0 0 0 1.51954,-1.0703 488.41707,488.41707 0 0 0 1.51562,-1.0762 488.41707,488.41707 0 0 0 1.51172,-1.082 488.41707,488.41707 0 0 0 1.50586,-1.0859 488.41707,488.41707 0 0 0 1.50586,-1.0938 488.41707,488.41707 0 0 0 1.49805,-1.0976 488.41707,488.41707 0 0 0 1.49414,-1.1055 488.41707,488.41707 0 0 0 1.49218,-1.1094 488.41707,488.41707 0 0 0 1.48633,-1.1152 488.41707,488.41707 0 0 0 1.48047,-1.1211 488.41707,488.41707 0 0 0 1.47852,-1.127 488.41707,488.41707 0 0 0 1.4746,-1.1328 488.41707,488.41707 0 0 0 1.4668,-1.1386 488.41707,488.41707 0 0 0 1.46485,-1.1426 488.41707,488.41707 0 0 0 1.46093,-1.1485 488.41707,488.41707 0 0 0 1.45703,-1.1543 488.41707,488.41707 0 0 0 1.45118,-1.1601 488.41707,488.41707 0 0 0 1.44726,-1.166 488.41707,488.41707 0 0 0 1.44336,-1.1719 488.41707,488.41707 0 0 0 1.4375,-1.1758 488.41707,488.41707 0 0 0 1.43359,-1.1816 488.41707,488.41707 0 0 0 1.42969,-1.1895 488.41707,488.41707 0 0 0 1.42578,-1.1933 488.41707,488.41707 0 0 0 1.41993,-1.1973 488.41707,488.41707 0 0 0 1.41601,-1.2051 488.41707,488.41707 0 0 0 1.41016,-1.209 488.41707,488.41707 0 0 0 1.40625,-1.2148 488.41707,488.41707 0 0 0 1.40234,-1.2207 488.41707,488.41707 0 0 0 1.39649,-1.2246 488.41707,488.41707 0 0 0 1.39257,-1.2285 488.41707,488.41707 0 0 0 1.38672,-1.2383 488.41707,488.41707 0 0 0 1.38477,-1.2402 488.41707,488.41707 0 0 0 1.3789,-1.2461 488.41707,488.41707 0 0 0 1.37305,-1.252 488.41707,488.41707 0 0 0 1.36914,-1.2578 488.41707,488.41707 0 0 0 1.36328,-1.2617 488.41707,488.41707 0 0 0 1.35938,-1.2676 488.41707,488.41707 0 0 0 1.35547,-1.2715 488.41707,488.41707 0 0 0 1.34961,-1.2793 488.41707,488.41707 0 0 0 1.34375,-1.2812 488.41707,488.41707 0 0 0 1.33979,-1.2891 488.41707,488.41707 0 0 0 1.336,-1.291 488.41707,488.41707 0 0 0 1.3301,-1.2988 488.41707,488.41707 0 0 0 1.3242,-1.3028 488.41707,488.41707 0 0 0 1.3203,-1.3086 488.41707,488.41707 0 0 0 1.3144,-1.3125 488.41707,488.41707 0 0 0 1.3106,-1.3183 488.41707,488.41707 0 0 0 1.3066,-1.3243 488.41707,488.41707 0 0 0 1.2989,-1.3261 488.41707,488.41707 0 0 0 1.2949,-1.334 488.41707,488.41707 0 0 0 1.289,-1.3379 488.41707,488.41707 0 0 0 1.2852,-1.3437 488.41707,488.41707 0 0 0 1.2793,-1.3457 488.41707,488.41707 0 0 0 1.2754,-1.3536 488.41707,488.41707 0 0 0 1.2695,-1.3574 488.41707,488.41707 0 0 0 1.2656,-1.3633 488.41707,488.41707 0 0 0 1.2559,-1.3652 488.41707,488.41707 0 0 0 1.2539,-1.3731 488.41707,488.41707 0 0 0 1.2481,-1.375 488.41707,488.41707 0 0 0 1.2461,-1.3828 488.41707,488.41707 0 0 0 1.2382,-1.3847 488.41707,488.41707 0 0 0 1.2325,-1.3907 488.41707,488.41707 0 0 0 1.2265,-1.3945 488.41707,488.41707 0 0 0 1.2227,-1.4023 488.41707,488.41707 0 0 0 1.2168,-1.4043 488.41707,488.41707 0 0 0 1.2109,-1.4082 488.41707,488.41707 0 0 0 1.207,-1.4141 488.41707,488.41707 0 0 0 1.1993,-1.418 488.41707,488.41707 0 0 0 1.1972,-1.4218 488.41707,488.41707 0 0 0 1.1895,-1.4278 488.41707,488.41707 0 0 0 1.1816,-1.4336 488.41707,488.41707 0 0 0 1.1797,-1.4375 488.41707,488.41707 0 0 0 1.1738,-1.4394 488.41707,488.41707 0 0 0 1.17,-1.4453 488.41707,488.41707 0 0 0 1.1621,-1.4492 488.41707,488.41707 0 0 0 1.1562,-1.4551 488.41707,488.41707 0 0 0 1.1524,-1.459 488.41707,488.41707 0 0 0 1.1445,-1.4629 488.41707,488.41707 0 0 0 1.1406,-1.4668 488.41707,488.41707 0 0 0 1.1348,-1.4727 488.41707,488.41707 0 0 0 1.1289,-1.4765 488.41707,488.41707 0 0 0 1.123,-1.4805 488.41707,488.41707 0 0 0 1.1192,-1.4844 488.41707,488.41707 0 0 0 1.1113,-1.4882 488.41707,488.41707 0 0 0 1.1055,-1.4942 488.41707,488.41707 0 0 0 1.1015,-1.4961 488.41707,488.41707 0 0 0 1.0957,-1.5 488.41707,488.41707 0 0 0 1.0879,-1.5058 488.41707,488.41707 0 0 0 1.086,-1.5118 488.41707,488.41707 0 0 0 1.0761,-1.5136 488.41707,488.41707 0 0 0 1.0723,-1.5176 488.41707,488.41707 0 0 0 1.0664,-1.5234 488.41707,488.41707 0 0 0 1.0606,-1.5254 488.41707,488.41707 0 0 0 1.0566,-1.5293 488.41707,488.41707 0 0 0 1.0469,-1.5352 488.41707,488.41707 0 0 0 1.0449,-1.5371 488.41707,488.41707 0 0 0 1.0352,-1.541 488.41707,488.41707 0 0 0 1.0312,-1.5469 488.41707,488.41707 0 0 0 1.0254,-1.5508 488.41707,488.41707 0 0 0 1.0195,-1.5527 488.41707,488.41707 0 0 0 1.0137,-1.5586 488.41707,488.41707 0 0 0 1.0098,-1.5605 488.41707,488.41707 0 0 0 1,-1.5664 488.41707,488.41707 0 0 0 0.9961,-1.5665 488.41707,488.41707 0 0 0 0.9882,-1.57413 488.41707,488.41707 0 0 0 0.9844,-1.57617 488.41707,488.41707 0 0 0 0.9785,-1.58204 488.41707,488.41707 0 0 0 0.9727,-1.58203 488.41707,488.41707 0 0 0 0.9648,-1.58789 488.41707,488.41707 0 0 0 0.961,-1.59179 488.41707,488.41707 0 0 0 0.9531,-1.59571 488.41707,488.41707 0 0 0 0.9473,-1.59765 488.41707,488.41707 0 0 0 0.9414,-1.60352 488.41707,488.41707 0 0 0 0.9336,-1.60547 488.41707,488.41707 0 0 0 0.9296,-1.60937 488.41707,488.41707 0 0 0 0.9239,-1.61328 488.41707,488.41707 0 0 0 0.9179,-1.61524 488.41707,488.41707 0 0 0 0.9102,-1.62109 488.41707,488.41707 0 0 0 0.9043,-1.62305 488.41707,488.41707 0 0 0 0.8984,-1.62695 488.41707,488.41707 0 0 0 0.8926,-1.62891 488.41707,488.41707 0 0 0 0.8867,-1.63476 488.41707,488.41707 0 0 0 0.8809,-1.63672 488.41707,488.41707 0 0 0 0.8711,-1.63867 488.41707,488.41707 0 0 0 0.8691,-1.64454 488.41707,488.41707 0 0 0 0.8594,-1.64648 488.41707,488.41707 0 0 0 0.8555,-1.65234 488.41707,488.41707 0 0 0 0.8496,-1.65235 488.41707,488.41707 0 0 0 0.8418,-1.65625 488.41707,488.41707 0 0 0 0.8359,-1.66015 488.41707,488.41707 0 0 0 0.8301,-1.66407 488.41707,488.41707 0 0 0 0.8223,-1.66406 488.41707,488.41707 0 0 0 0.8164,-1.66992 488.41707,488.41707 0 0 0 0.8105,-1.67188 488.41707,488.41707 0 0 0 0.8047,-1.67578 488.41707,488.41707 0 0 0 0.7988,-1.67968 488.41707,488.41707 0 0 0 0.7891,-1.67969 488.41707,488.41707 0 0 0 0.7871,-1.68555 488.41707,488.41707 0 0 0 0.7773,-1.68555 488.41707,488.41707 0 0 0 0.7735,-1.6914 488.41707,488.41707 0 0 0 0.7636,-1.69336 488.41707,488.41707 0 0 0 0.7598,-1.69727 488.41707,488.41707 0 0 0 0.7539,-1.69922 488.41707,488.41707 0 0 0 0.7481,-1.70117 488.41707,488.41707 0 0 0 0.7382,-1.70508 488.41707,488.41707 0 0 0 0.7344,-1.70703 488.41707,488.41707 0 0 0 0.7266,-1.71093 488.41707,488.41707 0 0 0 0.7207,-1.71289 488.41707,488.41707 0 0 0 0.7129,-1.71485 488.41707,488.41707 0 0 0 0.707,-1.71875 488.41707,488.41707 0 0 0 0.7012,-1.72266 488.41707,488.41707 0 0 0 0.6933,-1.72265 488.41707,488.41707 0 0 0 0.6875,-1.72852 488.41707,488.41707 0 0 0 0.6817,-1.72656 488.41707,488.41707 0 0 0 0.6738,-1.73242 488.41707,488.41707 0 0 0 0.6699,-1.73438 488.41707,488.41707 0 0 0 0.6602,-1.73632 488.41707,488.41707 0 0 0 0.6562,-1.73829 488.41707,488.41707 0 0 0 0.6465,-1.74414 488.41707,488.41707 0 0 0 0.6426,-1.74218 488.41707,488.41707 0 0 0 0.6328,-1.74805 488.41707,488.41707 0 0 0 0.6289,-1.74805 488.41707,488.41707 0 0 0 0.6231,-1.75195 488.41707,488.41707 0 0 0 0.6132,-1.75391 488.41707,488.41707 0 0 0 0.6075,-1.75586 488.41707,488.41707 0 0 0 0.6035,-1.75781 488.41707,488.41707 0 0 0 0.5918,-1.76172 488.41707,488.41707 0 0 0 0.5898,-1.76367 488.41707,488.41707 0 0 0 0.5821,-1.76367 488.41707,488.41707 0 0 0 0.5722,-1.76758 488.41707,488.41707 0 0 0 0.5703,-1.76953 488.41707,488.41707 0 0 0 0.5606,-1.77344 488.41707,488.41707 0 0 0 0.5547,-1.77148 488.41707,488.41707 0 0 0 0.5468,-1.77735 488.41707,488.41707 0 0 0 0.5411,-1.77734 488.41707,488.41707 0 0 0 0.5332,-1.78125 488.41707,488.41707 0 0 0 0.5273,-1.78125 488.41707,488.41707 0 0 0 0.5215,-1.7832 488.41707,488.41707 0 0 0 0.5137,-1.78516 488.41707,488.41707 0 0 0 0.5058,-1.78906 488.41707,488.41707 0 0 0 0.502,-1.78906 488.41707,488.41707 0 0 0 0.4941,-1.79102 488.41707,488.41707 0 0 0 0.4844,-1.79492 488.41707,488.41707 0 0 0 0.4805,-1.79492 488.41707,488.41707 0 0 0 0.4726,-1.79688 488.41707,488.41707 0 0 0 0.4668,-1.80078 488.41707,488.41707 0 0 0 0.459,-1.79883 488.41707,488.41707 0 0 0 0.4531,-1.80469 488.41707,488.41707 0 0 0 0.4434,-1.80273 488.41707,488.41707 0 0 0 0.3594,-1.47852 z m -609.20512,287.99798 19.30469,71.961 a 488.41707,488.41707 0 0 0 0.77734,0.1875 488.41707,488.41707 0 0 0 1.80664,0.4336 488.41707,488.41707 0 0 0 1.80859,0.4257 488.41707,488.41707 0 0 0 1.81055,0.418 488.41707,488.41707 0 0 0 1.8125,0.4102 488.41707,488.41707 0 0 0 1.81445,0.4043 488.41707,488.41707 0 0 0 1.81641,0.3964 488.41707,488.41707 0 0 0 1.81445,0.3907 488.41707,488.41707 0 0 0 1.82032,0.3828 488.41707,488.41707 0 0 0 1.82031,0.3769 488.41707,488.41707 0 0 0 1.81836,0.3711 488.41707,488.41707 0 0 0 1.82422,0.3614 488.41707,488.41707 0 0 0 1.82421,0.3554 488.41707,488.41707 0 0 0 1.82618,0.3496 488.41707,488.41707 0 0 0 1.82617,0.3418 488.41707,488.41707 0 0 0 1.82617,0.334 488.41707,488.41707 0 0 0 1.83008,0.3281 488.41707,488.41707 0 0 0 1.83203,0.3223 488.41707,488.41707 0 0 0 1.83008,0.3145 488.41707,488.41707 0 0 0 1.83398,0.3066 488.41707,488.41707 0 0 0 1.83399,0.3008 488.41707,488.41707 0 0 0 1.83593,0.291 488.41707,488.41707 0 0 0 1.83594,0.2871 488.41707,488.41707 0 0 0 1.83594,0.2793 488.41707,488.41707 0 0 0 1.83789,0.2715 488.41707,488.41707 0 0 0 1.8418,0.2637 488.41707,488.41707 0 0 0 1.83789,0.2597 488.41707,488.41707 0 0 0 1.84179,0.25 488.41707,488.41707 0 0 0 1.8418,0.2461 488.41707,488.41707 0 0 0 1.84375,0.2364 488.41707,488.41707 0 0 0 1.8457,0.2304 488.41707,488.41707 0 0 0 1.84375,0.2227 488.41707,488.41707 0 0 0 1.84571,0.2148 488.41707,488.41707 0 0 0 1.8457,0.211 488.41707,488.41707 0 0 0 1.84766,0.2011 488.41707,488.41707 0 0 0 1.84961,0.1934 488.41707,488.41707 0 0 0 1.84765,0.1875 488.41707,488.41707 0 0 0 1.84961,0.1816 488.41707,488.41707 0 0 0 1.11328,0.1055 l -17.85156,-66.5469 c -24.28676,-3.6326 -48.06505,-9.3753 -71.10156,-17.0586 z"
         transform="matrix(0.26458333,0,0,0.26458333,29.29154,18.4032)" />
      <path
         id="rect1579"
         style="opacity:0.996;fill:#a1bbe0;fill-opacity:1;stroke-width:7.01569;stroke-linecap:square;paint-order:markers stroke fill"
         d="m 128.40487,105.18188 -16.41967,4.4049 56.59861,210.9799 5.10667,19.03552 a 129.22701,129.22701 0 0 0 0.20567,0.0496 129.22701,129.22701 0 0 0 0.47801,0.11473 129.22701,129.22701 0 0 0 0.47852,0.11263 129.22701,129.22701 0 0 0 0.47904,0.11059 129.22701,129.22701 0 0 0 0.47956,0.10854 129.22701,129.22701 0 0 0 0.48007,0.10697 129.22701,129.22701 0 0 0 0.48059,0.10488 129.22701,129.22701 0 0 0 0.48008,0.10337 129.22701,129.22701 0 0 0 0.48162,0.10128 129.22701,129.22701 0 0 0 0.48163,0.0997 129.22701,129.22701 0 0 0 0.4811,0.0982 129.22701,129.22701 0 0 0 0.48266,0.0956 129.22701,129.22701 0 0 0 0.48266,0.094 129.22701,129.22701 0 0 0 0.48317,0.0925 129.22701,129.22701 0 0 0 0.48318,0.0904 129.22701,129.22701 0 0 0 0.48317,0.0884 129.22701,129.22701 0 0 0 0.48421,0.0868 129.22701,129.22701 0 0 0 0.48472,0.0853 129.22701,129.22701 0 0 0 0.48421,0.0832 129.22701,129.22701 0 0 0 0.48524,0.0811 129.22701,129.22701 0 0 0 0.48525,0.0796 129.22701,129.22701 0 0 0 0.48575,0.077 129.22701,129.22701 0 0 0 0.48576,0.076 129.22701,129.22701 0 0 0 0.48576,0.0739 129.22701,129.22701 0 0 0 0.48628,0.0718 129.22701,129.22701 0 0 0 0.48731,0.0698 129.22701,129.22701 0 0 0 0.48627,0.0687 129.22701,129.22701 0 0 0 0.48731,0.0661 129.22701,129.22701 0 0 0 0.48731,0.0651 129.22701,129.22701 0 0 0 0.48782,0.0625 129.22701,129.22701 0 0 0 0.48835,0.061 129.22701,129.22701 0 0 0 0.48782,0.0589 129.22701,129.22701 0 0 0 0.48834,0.0568 129.22701,129.22701 0 0 0 0.48835,0.0558 129.22701,129.22701 0 0 0 0.48886,0.0532 129.22701,129.22701 0 0 0 0.48937,0.0512 129.22701,129.22701 0 0 0 0.48886,0.0496 129.22701,129.22701 0 0 0 0.48938,0.048 129.22701,129.22701 0 0 0 0.29455,0.0279 l -4.72322,-17.6072 z" />
    </g>
    <g
       id="g1603"
       style="fill:#ffa303;fill-opacity:1;stroke:none">
      <path
         style="fill:#ffa303;fill-opacity:1;stroke:none;stroke-width:0.264583px;stroke-linecap:butt;stroke-linejoin:miter;stroke-opacity:1"
         d="m 188.22778,120.3151 11.16278,41.61101 -41.611,11.16278 -11.16279,-41.61103 41.61101,-11.16276 11.16278,41.61101 -41.61101,11.16278 -11.16278,-41.61103 z"
         id="path1520" />
      <path
         style="fill:#ffa303;fill-opacity:1;stroke:none;stroke-width:0.565;stroke-linecap:butt;stroke-linejoin:miter;stroke-miterlimit:4;stroke-dasharray:none;stroke-opacity:1"
         d="m 204.64722,115.91034 11.19647,41.60196 41.57735,-11.15375 -11.16278,-41.61104 z"
         id="path1518" />
      <path
         style="fill:#ffa303;fill-opacity:1;stroke:none;stroke-width:0.264583px;stroke-linecap:butt;stroke-linejoin:miter;stroke-opacity:1"
         d="m 173.3471,231.11937 -11.16279,-41.61104 41.61102,-11.16278 11.16279,41.61102 z"
         id="path1524" />
      <path
         style="fill:#ffa303;fill-opacity:1;stroke:none;stroke-width:0.264583px;stroke-linecap:butt;stroke-linejoin:miter;stroke-opacity:1"
         d="m 220.24871,173.93269 11.1535,41.57644 41.57736,-11.15376 -11.15376,-41.57738 z"
         id="path1526" />
      <path
         style="fill:#ffa303;fill-opacity:1;stroke:none;stroke-width:0.264583px;stroke-linecap:butt;stroke-linejoin:miter;stroke-opacity:1"
         d="m 258.48124,252.85033 83.72528,-22.46054 -42.43213,-33.18647 -16.38627,4.3598 2.80128,10.4422 z"
         id="path1547" />
      <path
         style="fill:#ffa303;fill-opacity:1;stroke:none;stroke-width:0.264583px;stroke-linecap:butt;stroke-linejoin:miter;stroke-opacity:1"
         d="m 267.81749,143.52116 11.16587,41.62252 16.35177,-4.38662 20.26825,-50.04316 z"
         id="path1551" />
    </g>
    <g
       id="g1608"
       style="fill:#ca1515;fill-opacity:1;stroke:none">
      <path
         style="fill:#ca1515;fill-opacity:1;stroke:none;stroke-width:0.264583px;stroke-linecap:butt;stroke-linejoin:miter;stroke-opacity:1"
         d="m 188.22778,120.3151 11.16278,41.61101 -41.611,11.16278 4.40475,16.41944 41.61102,-11.16278 11.16279,41.61102 16.41944,-4.40475 -11.1291,-41.62007 41.57735,-11.15376 -4.4138,-16.45311 -41.57735,11.15376 -11.18604,-41.56308 z"
         id="path1522" />
      <path
         style="fill:#ca1515;fill-opacity:1;stroke:none;stroke-width:0.264583px;stroke-linecap:butt;stroke-linejoin:miter;stroke-opacity:1"
         d="m 270.26099,216.27836 -36.05749,9.67297 8.36151,31.16881 z"
         id="path1545" />
      <path
         style="fill:#ca1515;fill-opacity:1;stroke:none;stroke-width:0.264583px;stroke-linecap:butt;stroke-linejoin:miter;stroke-opacity:1"
         d="m 278.98336,185.14368 4.40476,16.41944 16.40035,-4.3488 -8.42569,-6.5911 3.9724,-9.86617 z"
         id="path1549" />
    </g>
  </g>
</svg>
