M48
; DRILL file {KiCad (5.1.10)-1} date 09/04/21 18:59:43
; FORMAT={-:-/ absolute / inch / decimal}
; #@! TF.CreationDate,2021-09-04T18:59:43+09:00
; #@! TF.GenerationSoftware,Kicad,Pcbnew,(5.1.10)-1
FMAT,2
INCH
T1C0.0354
T2C0.0394
%
G90
G05
T1
X5.1969Y-5.8268
X5.2969Y-5.8268
X5.748Y-5.5693
X5.748Y-5.6693
X5.8661Y-4.5276
X5.8661Y-4.6276
X6.1Y-5.1
X6.2Y-5.1
X6.5929Y-4.7244
X6.6142Y-5.4118
X6.6142Y-5.5118
X6.6929Y-4.7244
X6.7323Y-4.252
X6.8Y-5.7
X6.8323Y-4.252
X6.9Y-5.7
X6.9685Y-3.937
X6.9685Y-4.037
X7.3803Y-3.7795
X7.4803Y-3.7795
X7.6Y-6.1
X7.7Y-6.1
T2
X5.3Y-4.6
X5.3Y-4.7
T0
M30
