<svg viewBox="0 0 1000 400" xmlns="http://www.w3.org/2000/svg">
<path d="M0,0 L1000,0 L1000,400 L0,400 z" fill="#000000" stroke="none" stroke-width="0"/>
<path d="M0,0 L200,0 L200,400 L0,400 z" fill="#e8e8e8" stroke="none" stroke-width="0"/>
<path d="M200,0 L1000,0 L1000,45 L200,45 z" fill="#000000" stroke="none" stroke-width="0"/>
<path d="M200,20 L1000,20" fill="none" stroke="#cbcbcb" stroke-width="1"/>
<path d="M200,20 L200,400" fill="none" stroke="#202070" stroke-width="1"/>
<path d="M200,14 L200,26" fill="none" stroke="#FFFFFF" stroke-width="1"/>
<path d="M211,20 L211,26" fill="none" stroke="#FFFFFF" stroke-width="1"/>
<path d="M221,20 L221,26" fill="none" stroke="#FFFFFF" stroke-width="1"/>
<path d="M232,20 L232,26" fill="none" stroke="#FFFFFF" stroke-width="1"/>
<path d="M243,20 L243,26" fill="none" stroke="#FFFFFF" stroke-width="1"/>
<path d="M253,20 L253,400" fill="none" stroke="#202070" stroke-width="1"/>
<path d="M253,14 L253,26" fill="none" stroke="#FFFFFF" stroke-width="1"/>
<text alignment-baseline="hanging" fill="#FFFFFF" font-family="sans-serif" font-size="10" text-anchor="middle" x="253" y="31">
200us
</text>
<path d="M264,20 L264,26" fill="none" stroke="#FFFFFF" stroke-width="1"/>
<path d="M275,20 L275,26" fill="none" stroke="#FFFFFF" stroke-width="1"/>
<path d="M285,20 L285,26" fill="none" stroke="#FFFFFF" stroke-width="1"/>
<path d="M296,20 L296,26" fill="none" stroke="#FFFFFF" stroke-width="1"/>
<path d="M307,20 L307,400" fill="none" stroke="#202070" stroke-width="1"/>
<path d="M307,14 L307,26" fill="none" stroke="#FFFFFF" stroke-width="1"/>
<text alignment-baseline="hanging" fill="#FFFFFF" font-family="sans-serif" font-size="10" text-anchor="middle" x="307" y="31">
400us
</text>
<path d="M317,20 L317,26" fill="none" stroke="#FFFFFF" stroke-width="1"/>
<path d="M328,20 L328,26" fill="none" stroke="#FFFFFF" stroke-width="1"/>
<path d="M339,20 L339,26" fill="none" stroke="#FFFFFF" stroke-width="1"/>
<path d="M350,20 L350,26" fill="none" stroke="#FFFFFF" stroke-width="1"/>
<path d="M360,20 L360,400" fill="none" stroke="#202070" stroke-width="1"/>
<path d="M360,14 L360,26" fill="none" stroke="#FFFFFF" stroke-width="1"/>
<text alignment-baseline="hanging" fill="#FFFFFF" font-family="sans-serif" font-size="10" text-anchor="middle" x="360" y="31">
600us
</text>
<path d="M371,20 L371,26" fill="none" stroke="#FFFFFF" stroke-width="1"/>
<path d="M382,20 L382,26" fill="none" stroke="#FFFFFF" stroke-width="1"/>
<path d="M392,20 L392,26" fill="none" stroke="#FFFFFF" stroke-width="1"/>
<path d="M403,20 L403,26" fill="none" stroke="#FFFFFF" stroke-width="1"/>
<path d="M414,20 L414,400" fill="none" stroke="#202070" stroke-width="1"/>
<path d="M414,14 L414,26" fill="none" stroke="#FFFFFF" stroke-width="1"/>
<text alignment-baseline="hanging" fill="#FFFFFF" font-family="sans-serif" font-size="10" text-anchor="middle" x="414" y="31">
800us
</text>
<path d="M424,20 L424,26" fill="none" stroke="#FFFFFF" stroke-width="1"/>
<path d="M435,20 L435,26" fill="none" stroke="#FFFFFF" stroke-width="1"/>
<path d="M446,20 L446,26" fill="none" stroke="#FFFFFF" stroke-width="1"/>
<path d="M456,20 L456,26" fill="none" stroke="#FFFFFF" stroke-width="1"/>
<path d="M467,20 L467,400" fill="none" stroke="#202070" stroke-width="1"/>
<path d="M467,14 L467,26" fill="none" stroke="#FFFFFF" stroke-width="1"/>
<text alignment-baseline="hanging" fill="#FFFFFF" font-family="sans-serif" font-size="10" text-anchor="middle" x="467" y="31">
1ms
</text>
<path d="M478,20 L478,26" fill="none" stroke="#FFFFFF" stroke-width="1"/>
<path d="M488,20 L488,26" fill="none" stroke="#FFFFFF" stroke-width="1"/>
<path d="M499,20 L499,26" fill="none" stroke="#FFFFFF" stroke-width="1"/>
<path d="M510,20 L510,26" fill="none" stroke="#FFFFFF" stroke-width="1"/>
<path d="M520,20 L520,400" fill="none" stroke="#202070" stroke-width="1"/>
<path d="M520,14 L520,26" fill="none" stroke="#FFFFFF" stroke-width="1"/>
<text alignment-baseline="hanging" fill="#FFFFFF" font-family="sans-serif" font-size="10" text-anchor="middle" x="520" y="31">
1ms
</text>
<path d="M531,20 L531,26" fill="none" stroke="#FFFFFF" stroke-width="1"/>
<path d="M542,20 L542,26" fill="none" stroke="#FFFFFF" stroke-width="1"/>
<path d="M552,20 L552,26" fill="none" stroke="#FFFFFF" stroke-width="1"/>
<path d="M563,20 L563,26" fill="none" stroke="#FFFFFF" stroke-width="1"/>
<path d="M574,20 L574,400" fill="none" stroke="#202070" stroke-width="1"/>
<path d="M574,14 L574,26" fill="none" stroke="#FFFFFF" stroke-width="1"/>
<text alignment-baseline="hanging" fill="#FFFFFF" font-family="sans-serif" font-size="10" text-anchor="middle" x="574" y="31">
1ms
</text>
<path d="M584,20 L584,26" fill="none" stroke="#FFFFFF" stroke-width="1"/>
<path d="M595,20 L595,26" fill="none" stroke="#FFFFFF" stroke-width="1"/>
<path d="M606,20 L606,26" fill="none" stroke="#FFFFFF" stroke-width="1"/>
<path d="M617,20 L617,26" fill="none" stroke="#FFFFFF" stroke-width="1"/>
<path d="M627,20 L627,400" fill="none" stroke="#202070" stroke-width="1"/>
<path d="M627,14 L627,26" fill="none" stroke="#FFFFFF" stroke-width="1"/>
<text alignment-baseline="hanging" fill="#FFFFFF" font-family="sans-serif" font-size="10" text-anchor="middle" x="627" y="31">
1ms
</text>
<path d="M638,20 L638,26" fill="none" stroke="#FFFFFF" stroke-width="1"/>
<path d="M649,20 L649,26" fill="none" stroke="#FFFFFF" stroke-width="1"/>
<path d="M659,20 L659,26" fill="none" stroke="#FFFFFF" stroke-width="1"/>
<path d="M670,20 L670,26" fill="none" stroke="#FFFFFF" stroke-width="1"/>
<path d="M681,20 L681,400" fill="none" stroke="#202070" stroke-width="1"/>
<path d="M681,14 L681,26" fill="none" stroke="#FFFFFF" stroke-width="1"/>
<text alignment-baseline="hanging" fill="#FFFFFF" font-family="sans-serif" font-size="10" text-anchor="middle" x="681" y="31">
1ms
</text>
<path d="M691,20 L691,26" fill="none" stroke="#FFFFFF" stroke-width="1"/>
<path d="M702,20 L702,26" fill="none" stroke="#FFFFFF" stroke-width="1"/>
<path d="M713,20 L713,26" fill="none" stroke="#FFFFFF" stroke-width="1"/>
<path d="M723,20 L723,26" fill="none" stroke="#FFFFFF" stroke-width="1"/>
<path d="M734,20 L734,400" fill="none" stroke="#202070" stroke-width="1"/>
<path d="M734,14 L734,26" fill="none" stroke="#FFFFFF" stroke-width="1"/>
<text alignment-baseline="hanging" fill="#FFFFFF" font-family="sans-serif" font-size="10" text-anchor="middle" x="734" y="31">
2ms
</text>
<path d="M745,20 L745,26" fill="none" stroke="#FFFFFF" stroke-width="1"/>
<path d="M755,20 L755,26" fill="none" stroke="#FFFFFF" stroke-width="1"/>
<path d="M766,20 L766,26" fill="none" stroke="#FFFFFF" stroke-width="1"/>
<path d="M777,20 L777,26" fill="none" stroke="#FFFFFF" stroke-width="1"/>
<path d="M787,20 L787,400" fill="none" stroke="#202070" stroke-width="1"/>
<path d="M787,14 L787,26" fill="none" stroke="#FFFFFF" stroke-width="1"/>
<text alignment-baseline="hanging" fill="#FFFFFF" font-family="sans-serif" font-size="10" text-anchor="middle" x="787" y="31">
2ms
</text>
<path d="M798,20 L798,26" fill="none" stroke="#FFFFFF" stroke-width="1"/>
<path d="M809,20 L809,26" fill="none" stroke="#FFFFFF" stroke-width="1"/>
<path d="M819,20 L819,26" fill="none" stroke="#FFFFFF" stroke-width="1"/>
<path d="M830,20 L830,26" fill="none" stroke="#FFFFFF" stroke-width="1"/>
<path d="M841,20 L841,400" fill="none" stroke="#202070" stroke-width="1"/>
<path d="M841,14 L841,26" fill="none" stroke="#FFFFFF" stroke-width="1"/>
<text alignment-baseline="hanging" fill="#FFFFFF" font-family="sans-serif" font-size="10" text-anchor="middle" x="841" y="31">
2ms
</text>
<path d="M851,20 L851,26" fill="none" stroke="#FFFFFF" stroke-width="1"/>
<path d="M862,20 L862,26" fill="none" stroke="#FFFFFF" stroke-width="1"/>
<path d="M873,20 L873,26" fill="none" stroke="#FFFFFF" stroke-width="1"/>
<path d="M884,20 L884,26" fill="none" stroke="#FFFFFF" stroke-width="1"/>
<path d="M894,20 L894,400" fill="none" stroke="#202070" stroke-width="1"/>
<path d="M894,14 L894,26" fill="none" stroke="#FFFFFF" stroke-width="1"/>
<text alignment-baseline="hanging" fill="#FFFFFF" font-family="sans-serif" font-size="10" text-anchor="middle" x="894" y="31">
2ms
</text>
<path d="M905,20 L905,26" fill="none" stroke="#FFFFFF" stroke-width="1"/>
<path d="M916,20 L916,26" fill="none" stroke="#FFFFFF" stroke-width="1"/>
<path d="M926,20 L926,26" fill="none" stroke="#FFFFFF" stroke-width="1"/>
<path d="M937,20 L937,26" fill="none" stroke="#FFFFFF" stroke-width="1"/>
<path d="M948,20 L948,400" fill="none" stroke="#202070" stroke-width="1"/>
<path d="M948,14 L948,26" fill="none" stroke="#FFFFFF" stroke-width="1"/>
<text alignment-baseline="hanging" fill="#FFFFFF" font-family="sans-serif" font-size="10" text-anchor="middle" x="948" y="31">
2ms
</text>
<path d="M958,20 L958,26" fill="none" stroke="#FFFFFF" stroke-width="1"/>
<path d="M969,20 L969,26" fill="none" stroke="#FFFFFF" stroke-width="1"/>
<path d="M980,20 L980,26" fill="none" stroke="#FFFFFF" stroke-width="1"/>
<path d="M990,20 L990,26" fill="none" stroke="#FFFFFF" stroke-width="1"/>
<path d="M1001,20 L1001,400" fill="none" stroke="#202070" stroke-width="1"/>
<path d="M1001,14 L1001,26" fill="none" stroke="#FFFFFF" stroke-width="1"/>
<text alignment-baseline="bottom" font-family="sans-serif" font-size="10" text-anchor="start" x="5" y="60">
uut.dout
</text>
<path d="M0,65 L200,65" fill="none" stroke="#cbcbcb" stroke-width="1"/>
<path d="M200,65 L1000,65" fill="none" stroke="#202070" stroke-width="1"/>
<text alignment-baseline="middle" fill="white" font-family="monospace" font-size="8" text-anchor="start" x="202" y="56">
0h52
</text>
<text alignment-baseline="middle" fill="white" font-family="monospace" font-size="8" text-anchor="start" x="228.7" y="56">
0h41
</text>
<text alignment-baseline="middle" fill="white" font-family="monospace" font-size="8" text-anchor="start" x="255.4" y="56">
0h56
</text>
<text alignment-baseline="middle" fill="white" font-family="monospace" font-size="8" text-anchor="start" x="282.1" y="56">
0h44
</text>
<text alignment-baseline="middle" fill="white" font-family="monospace" font-size="8" text-anchor="start" x="308.8" y="56">
0h79
</text>
<text alignment-baseline="middle" fill="white" font-family="monospace" font-size="8" text-anchor="start" x="335.5" y="56">
0h4a
</text>
<text alignment-baseline="middle" fill="white" font-family="monospace" font-size="8" text-anchor="start" x="362.2" y="56">
0h42
</text>
<text alignment-baseline="middle" fill="white" font-family="monospace" font-size="8" text-anchor="start" x="388.9" y="56">
0h70
</text>
<text alignment-baseline="middle" fill="white" font-family="monospace" font-size="8" text-anchor="start" x="415.6" y="56">
0h66
</text>
<text alignment-baseline="middle" fill="white" font-family="monospace" font-size="8" text-anchor="start" x="442.29999999999995" y="56">
0h5d
</text>
<text alignment-baseline="middle" fill="white" font-family="monospace" font-size="8" text-anchor="start" x="469" y="56">
0h47
</text>
<text alignment-baseline="middle" fill="white" font-family="monospace" font-size="8" text-anchor="start" x="495.7" y="56">
0h6c
</text>
<text alignment-baseline="middle" fill="white" font-family="monospace" font-size="8" text-anchor="start" x="522.4" y="56">
0h61
</text>
<text alignment-baseline="middle" fill="white" font-family="monospace" font-size="8" text-anchor="start" x="549.0999999999999" y="56">
0h70
</text>
<text alignment-baseline="middle" fill="white" font-family="monospace" font-size="8" text-anchor="start" x="575.8" y="56">
0h7b
</text>
<text alignment-baseline="middle" fill="white" font-family="monospace" font-size="8" text-anchor="start" x="602.5" y="56">
0h72
</text>
<text alignment-baseline="middle" fill="white" font-family="monospace" font-size="8" text-anchor="start" x="629.2" y="56">
0h76
</text>
<text alignment-baseline="middle" fill="white" font-family="monospace" font-size="8" text-anchor="start" x="655.9" y="56">
0h6b
</text>
<text alignment-baseline="middle" fill="white" font-family="monospace" font-size="8" text-anchor="start" x="682.5999999999999" y="56">
0h6d
</text>
<text alignment-baseline="middle" fill="white" font-family="monospace" font-size="8" text-anchor="start" x="709.3" y="56">
0h6c
</text>
<text alignment-baseline="middle" fill="white" font-family="monospace" font-size="8" text-anchor="start" x="736" y="56">
0h5d
</text>
<text alignment-baseline="middle" fill="white" font-family="monospace" font-size="8" text-anchor="start" x="762.7" y="56">
0h6b
</text>
<text alignment-baseline="middle" fill="white" font-family="monospace" font-size="8" text-anchor="start" x="789.4" y="56">
0h71
</text>
<text alignment-baseline="middle" fill="white" font-family="monospace" font-size="8" text-anchor="start" x="816.1" y="56">
0h5d
</text>
<text alignment-baseline="middle" fill="white" font-family="monospace" font-size="8" text-anchor="start" x="842.8" y="56">
0h31
</text>
<text alignment-baseline="middle" fill="white" font-family="monospace" font-size="8" text-anchor="start" x="869.5" y="56">
0h63
</text>
<text alignment-baseline="middle" fill="white" font-family="monospace" font-size="8" text-anchor="start" x="896.1999999999999" y="56">
0h71
</text>
<text alignment-baseline="middle" fill="white" font-family="monospace" font-size="8" text-anchor="start" x="922.9" y="56">
0h7b
</text>
<path d="M200,47 L199,47 L201,63 L225.7,63 L227.7,47 L252.4,47 L254.4,63 L279.1,63 L281.1,47 L305.8,47 L307.8,63 L332.5,63 L334.5,47 L359.2,47 L361.2,63 L385.9,63 L387.9,47 L412.6,47 L414.6,63 L439.3,63 L441.3,47 L466,47 L468,63 L492.7,63 L494.7,47 L519.4,47 L521.4,63 L546.1,63 L548.1,47 L572.8,47 L574.8,63 L599.5,63 L601.5,47 L626.2,47 L628.2,63 L652.9,63 L654.9,47 L679.6,47 L681.6,63 L706.3,63 L708.3,47 L733,47 L735,63 L759.7,63 L761.7,47 L786.4,47 L788.4,63 L813.1,63 L815.1,47 L839.8,47 L841.8,63 L866.5,63 L868.5,47 L893.2,47 L895.2,63 L919.9,63 L921.9,47 L1001,47" fill="none" stroke="#00ff00" stroke-width="0.75"/>
<path d="M200,63 L199,63 L201,47 L225.7,47 L227.7,63 L252.4,63 L254.4,47 L279.1,47 L281.1,63 L305.8,63 L307.8,47 L332.5,47 L334.5,63 L359.2,63 L361.2,47 L385.9,47 L387.9,63 L412.6,63 L414.6,47 L439.3,47 L441.3,63 L466,63 L468,47 L492.7,47 L494.7,63 L519.4,63 L521.4,47 L546.1,47 L548.1,63 L572.8,63 L574.8,47 L599.5,47 L601.5,63 L626.2,63 L628.2,47 L652.9,47 L654.9,63 L679.6,63 L681.6,47 L706.3,47 L708.3,63 L733,63 L735,47 L759.7,47 L761.7,63 L786.4,63 L788.4,47 L813.1,47 L815.1,63 L839.8,63 L841.8,47 L866.5,47 L868.5,63 L893.2,63 L895.2,47 L919.9,47 L921.9,63 L1001,63" fill="none" stroke="#00ff00" stroke-width="0.75"/>
<text alignment-baseline="bottom" font-family="sans-serif" font-size="10" text-anchor="start" x="5" y="80">
uut.clock
</text>
<path d="M0,85 L200,85" fill="none" stroke="#cbcbcb" stroke-width="1"/>
<path d="M200,85 L1000,85" fill="none" stroke="#202070" stroke-width="1"/>
<path d="M200,83 L200,83 L200,83 L213,83 L213,68 L227,68 L227,83 L240,83 L240,68 L253,68 L253,83 L267,83 L267,68 L280,68 L280,83 L293,83 L293,68 L307,68 L307,83 L320,83 L320,68 L334,68 L334,83 L347,83 L347,68 L360,68 L360,83 L374,83 L374,68 L387,68 L387,83 L400,83 L400,68 L414,68 L414,83 L427,83 L427,68 L440,68 L440,83 L454,83 L454,68 L467,68 L467,83 L480,83 L480,68 L494,68 L494,83 L507,83 L507,68 L520,68 L520,83 L534,83 L534,68 L547,68 L547,83 L560,83 L560,68 L574,68 L574,83 L587,83 L587,68 L601,68 L601,83 L614,83 L614,68 L627,68 L627,83 L641,83 L641,68 L654,68 L654,83 L667,83 L667,68 L681,68 L681,83 L694,83 L694,68 L707,68 L707,83 L721,83 L721,68 L734,68 L734,83 L747,83 L747,68 L761,68 L761,83 L774,83 L774,68 L787,68 L787,83 L801,83 L801,68 L814,68 L814,83 L827,83 L827,68 L841,68 L841,83 L854,83 L854,68 L868,68 L868,83 L881,83 L881,68 L894,68 L894,83 L908,83 L908,68 L921,68 L921,83 L934,83 L934,68 L948,68 L948,83 L961,83 L961,68 L974,68 L974,83 L1001,83" fill="none" stroke="#00ff00" stroke-width="0.75"/>
</svg>
