<svg xmlns="http://www.w3.org/2000/svg" width="20" height="20" viewBox="0 0 20 20">
  <g fill="#FFF">
    <path d="M10,20 C4.48609848,20 0,15.5139015 0,10 C0,4.48609848 4.48609848,0 10,0 C15.5139015,0 20,4.48609848 20,10 C20,15.5139015 15.5139015,20 10,20 Z M10,1.25 C5.17518939,1.25 1.25,5.17518939 1.25,10 C1.25,14.8248106 5.17518939,18.75 10,18.75 C14.8248106,18.75 18.75,14.8248106 18.75,10 C18.75,5.17518939 14.8248106,1.25 10,1.25 Z"/>
    <path d="M10,13.75 C7.93212121,13.75 6.25,12.0678788 6.25,10 C6.25,7.93212121 7.93212121,6.25 10,6.25 C12.0678788,6.25 13.75,7.93212121 13.75,10 C13.75,12.0678788 12.0678788,13.75 10,13.75 Z M10,7.5 C8.62121212,7.5 7.5,8.62121212 7.5,10 C7.5,11.3787879 8.62121212,12.5 10,12.5 C11.3787879,12.5 12.5,11.3787879 12.5,10 C12.5,8.62121212 11.3787879,7.5 10,7.5 Z"/>
    <path d="M10 11.25C9.31090909 11.25 8.75 10.6890909 8.75 10 8.75 9.31090909 9.31090909 8.75 10 8.75 10.6890909 8.75 11.25 9.31090909 11.25 10 11.25 10.6890909 10.6890909 11.25 10 11.25zM5.17882576 6.02295455L4.2144697 5.22704545C5.64575758 3.4942803 7.75450758 2.5 10 2.5L10 3.75C8.12867424 3.75 6.37143939 4.57825758 5.17882576 6.02295455zM10 17.4999242L10 16.2499242C11.8713258 16.2499242 13.6285227 15.4216667 14.8211742 13.9769697L15.7855303 14.7728788C14.3542424 16.5056818 12.2454545 17.4999242 10 17.4999242L10 17.4999242z"/>
  </g>
</svg>
