<svg xmlns="http://www.w3.org/2000/svg" width="99" height="20" viewBox="0 0 99 20">
  <g fill="#444bf8">
    <path d="M27.9602244 16L27.9602244 7.6306898 28.0681789 7.6306898 31.3693121 15.8806819 32.8011289 15.8806819 36.107944 7.64205343 36.2158984 7.64205343 36.2158984 16 37.9545331 16 37.9545331 4.36364746 35.7954443 4.36364746 32.1704477 13.2102299 32.0340842 13.2102299 28.3749968 4.36364746 26.2215897 4.36364746 26.2215897 16 27.9602244 16zM41.1704526 6.27273655C41.8181793 6.27273655 42.2670425 5.80114609 42.2670425 5.23864663 42.2670425 4.7045567 41.8181793 4.2045567 41.1704526 4.2045567 40.522726 4.2045567 40.0738628 4.7045567 40.0738628 5.23864663 40.0738628 5.80114609 40.522726 6.27273655 41.1704526 6.27273655zM42.0511336 16L42.0511336 7.2727356 40.3011353 7.2727356 40.3011353 16 42.0511336 16zM46.0227246 16L46.0227246 11.0625047C46.0340882 9.98296028 46.8124965 8.82955229 48.0624953 8.82955229 48.4318132 8.82955229 48.710222 8.94318855 48.8409037 9.0113703L49.4034032 7.44887179C49.1306761 7.28978103 48.6761311 7.1420539 48.2215861 7.1420539 47.2784052 7.1420539 46.3522697 7.78409874 46.1022699 8.64773428L45.9999973 8.64773428 45.9999973 7.2727356 44.2727262 7.2727356 44.2727262 16 46.0227246 16zM51.5511345 6.27273655C52.1988611 6.27273655 52.6477243 5.80114609 52.6477243 5.23864663 52.6477243 4.7045567 52.1988611 4.2045567 51.5511345 4.2045567 50.9034078 4.2045567 50.4545446 4.7045567 50.4545446 5.23864663 50.4545446 5.80114609 50.9034078 6.27273655 51.5511345 6.27273655zM52.4318154 16L52.4318154 7.2727356 50.6818171 7.2727356 50.6818171 16 52.4318154 16zM63.8295399 16.1874998C66.3920375 16.1874998 68.409081 14.6875013 68.409081 12.0625038L68.409081 4.36364746 66.6079463 4.36364746 66.6079463 12.0340947C66.6079463 13.6306841 65.3522657 14.5397741 63.8295399 14.5397741 62.3011323 14.5397741 61.034088 13.6306841 61.034088 12.0340947L61.034088 4.36364746 59.2329534 4.36364746 59.2329534 12.0625038C59.2329534 14.6875013 61.2556787 16.1874998 63.8295399 16.1874998zM72.6477244 16L72.6477244 4.36364746 70.8465897 4.36364746 70.8465897 16 72.6477244 16zM81.346588 16L81.346588 12.5170488 82.7784048 10.9261412 86.5284013 16 88.6931719 16 83.9034038 9.65909696 88.8068082 4.36364746 86.4488559 4.36364746 81.4886333 9.84659678 81.346588 9.84659678 81.346588 4.36364746 79.5454534 4.36364746 79.5454534 16 81.346588 16zM91.1363617 6.27273655C91.7840884 6.27273655 92.2329516 5.80114609 92.2329516 5.23864663 92.2329516 4.7045567 91.7840884 4.2045567 91.1363617 4.2045567 90.4886351 4.2045567 90.0397719 4.7045567 90.0397719 5.23864663 90.0397719 5.80114609 90.4886351 6.27273655 91.1363617 6.27273655zM92.0170427 16L92.0170427 7.2727356 90.2670444 7.2727356 90.2670444 16 92.0170427 16zM97.1363598 16.1136363C97.7840865 16.1136363 98.2102224 15.9943182 98.3863586 15.9261364L98.0738589 14.4886378C97.9488591 14.5170469 97.7499956 14.5568196 97.4999958 14.5568196 96.9602236 14.5568196 96.4715877 14.4034106 96.4715877 13.420457L96.4715877 8.70455241 98.1761316 8.70455241 98.1761316 7.2727356 96.4715877 7.2727356 96.4715877 5.40910101 94.7215894 5.40910101 94.7215894 7.2727356 93.5113633 7.2727356 93.5113633 8.70455241 94.7215894 8.70455241 94.7215894 13.7670476C94.7215894 15.301137 95.9147701 16.1136363 97.1363598 16.1136363zM10 20C4.48609848 20 0 15.5139015 0 10 0 4.48609848 4.48609848 0 10 0 15.5139015 0 20 4.48609848 20 10 20 15.5139015 15.5139015 20 10 20zM10 1.25C5.17518939 1.25 1.25 5.17518939 1.25 10 1.25 14.8248106 5.17518939 18.75 10 18.75 14.8248106 18.75 18.75 14.8248106 18.75 10 18.75 5.17518939 14.8248106 1.25 10 1.25z"/>
    <path d="M10,13.75 C7.93212121,13.75 6.25,12.0678788 6.25,10 C6.25,7.93212121 7.93212121,6.25 10,6.25 C12.0678788,6.25 13.75,7.93212121 13.75,10 C13.75,12.0678788 12.0678788,13.75 10,13.75 Z M10,7.5 C8.62121212,7.5 7.5,8.62121212 7.5,10 C7.5,11.3787879 8.62121212,12.5 10,12.5 C11.3787879,12.5 12.5,11.3787879 12.5,10 C12.5,8.62121212 11.3787879,7.5 10,7.5 Z"/>
    <path d="M10,11.25 C9.31090909,11.25 8.75,10.6890909 8.75,10 C8.75,9.31090909 9.31090909,8.75 10,8.75 C10.6890909,8.75 11.25,9.31090909 11.25,10 C11.25,10.6890909 10.6890909,11.25 10,11.25 Z"/>
  </g>
</svg>
