<?xml version="1.0" encoding="UTF-8"?>
<svg xmlns="http://www.w3.org/2000/svg" xmlns:xlink="http://www.w3.org/1999/xlink"
     width="958.095" height="1065.295" viewBox="-48.4225 -1016.8725000000001 958.095 1065.295">
<defs>
<style type="text/css">
.l71d20 {stroke: rgb(128, 32, 128); fill: rgb(128, 32, 128); fill-opacity: 0.5;}
.l0d0 {fill: none;}
</style>
</defs>
<rect x="-48.4225" y="-1016.8725000000001" width="958.095" height="1065.295" fill="white" stroke="none"/>
<g id="met4" transform="scale(1 -1)">
<polygon class="l71d20" points="140.9,106.4 156.9,106.4 156.9,845.6 140.9,845.6"/>
<polygon class="l71d20" points="234.60000000000002,106.4 250.60000000000002,106.4 250.60000000000002,851.2 234.60000000000002,851.2"/>
<polygon class="l71d20" points="328.35,106.4 344.35,106.4 344.35,845.6 328.35,845.6"/>
<polygon class="l71d20" points="422.04999999999995,106.4 438.05,106.4 438.05,851.2 422.04999999999995,851.2"/>
<polygon class="l71d20" points="515.8,106.4 531.8,106.4 531.8,845.6 515.8,845.6"/>
<polygon class="l71d20" points="609.5,106.4 625.5,106.4 625.5,851.2 609.5,851.2"/>
<polygon class="l71d20" points="703.25,106.4 719.25,106.4 719.25,845.6 703.25,845.6"/>
<polygon class="l71d20" points="796.95,106.4 812.95,106.4 812.95,851.2 796.95,851.2"/>
<polygon class="l0d0" points="0.0,0.0 0.0,968.45 861.25,968.45 861.25,0.0"/>
</g>
</svg>