<?xml version="1.0" encoding="UTF-8"?>
<svg xmlns="http://www.w3.org/2000/svg" xmlns:xlink="http://www.w3.org/1999/xlink"
     width="958.095" height="1065.295" viewBox="-48.4225 -1016.8725000000001 958.095 1065.295">
<defs>
<style type="text/css">
.l0d0 {fill: none;}
.l71d44 {stroke: rgb(128, 32, 128); fill: rgb(128, 32, 128); fill-opacity: 0.5;}
</style>
</defs>
<rect x="-48.4225" y="-1016.8725000000001" width="958.095" height="1065.295" fill="white" stroke="none"/>
<g id="via4" transform="scale(1 -1)">
<polygon class="l71d44" points="238.6,839.2 246.6,839.2 246.6,847.2 238.6,847.2"/>
<polygon class="l71d44" points="426.05000000000007,839.2 434.05,839.2 434.05,847.2 426.05000000000007,847.2"/>
<polygon class="l71d44" points="613.5,839.2 621.5,839.2 621.5,847.2 613.5,847.2"/>
<polygon class="l71d44" points="800.95,839.2 808.9499999999999,839.2 808.9499999999999,847.2 800.95,847.2"/>
<polygon class="l71d44" points="144.9,747.4 152.9,747.4 152.9,755.4000000000001 144.9,755.4000000000001"/>
<polygon class="l71d44" points="332.35,747.4 340.35,747.4 340.35,755.4000000000001 332.35,755.4000000000001"/>
<polygon class="l71d44" points="519.8000000000001,747.4 527.8,747.4 527.8,755.4000000000001 519.8000000000001,755.4000000000001"/>
<polygon class="l71d44" points="707.2500000000001,747.4 715.25,747.4 715.25,755.4000000000001 707.2500000000001,755.4000000000001"/>
<polygon class="l71d44" points="238.6,655.6 246.6,655.6 246.6,663.6 238.6,663.6"/>
<polygon class="l71d44" points="426.05000000000007,655.6 434.05,655.6 434.05,663.6 426.05000000000007,663.6"/>
<polygon class="l71d44" points="613.5,655.6 621.5,655.6 621.5,663.6 613.5,663.6"/>
<polygon class="l71d44" points="800.95,655.6 808.9499999999999,655.6 808.9499999999999,663.6 800.95,663.6"/>
<polygon class="l71d44" points="144.9,563.8000000000001 152.9,563.8000000000001 152.9,571.8 144.9,571.8"/>
<polygon class="l71d44" points="332.35,563.8000000000001 340.35,563.8000000000001 340.35,571.8 332.35,571.8"/>
<polygon class="l71d44" points="519.8000000000001,563.8000000000001 527.8,563.8000000000001 527.8,571.8 519.8000000000001,571.8"/>
<polygon class="l71d44" points="707.2500000000001,563.8000000000001 715.25,563.8000000000001 715.25,571.8 707.2500000000001,571.8"/>
<polygon class="l71d44" points="238.6,472.0 246.6,472.0 246.6,480.0 238.6,480.0"/>
<polygon class="l71d44" points="426.05000000000007,472.0 434.05,472.0 434.05,480.0 426.05000000000007,480.0"/>
<polygon class="l71d44" points="613.5,472.0 621.5,472.0 621.5,480.0 613.5,480.0"/>
<polygon class="l71d44" points="800.95,472.0 808.9499999999999,472.0 808.9499999999999,480.0 800.95,480.0"/>
<polygon class="l71d44" points="144.9,380.20000000000005 152.9,380.20000000000005 152.9,388.2 144.9,388.2"/>
<polygon class="l71d44" points="332.35,380.20000000000005 340.35,380.20000000000005 340.35,388.2 332.35,388.2"/>
<polygon class="l71d44" points="519.8000000000001,380.20000000000005 527.8,380.20000000000005 527.8,388.2 519.8000000000001,388.2"/>
<polygon class="l71d44" points="707.2500000000001,380.20000000000005 715.25,380.20000000000005 715.25,388.2 707.2500000000001,388.2"/>
<polygon class="l71d44" points="238.6,288.4 246.6,288.4 246.6,296.4 238.6,296.4"/>
<polygon class="l71d44" points="426.05000000000007,288.4 434.05,288.4 434.05,296.4 426.05000000000007,296.4"/>
<polygon class="l71d44" points="613.5,288.4 621.5,288.4 621.5,296.4 613.5,296.4"/>
<polygon class="l71d44" points="800.95,288.4 808.9499999999999,288.4 808.9499999999999,296.4 800.95,296.4"/>
<polygon class="l71d44" points="144.9,196.6 152.9,196.6 152.9,204.60000000000002 144.9,204.60000000000002"/>
<polygon class="l71d44" points="332.35,196.6 340.35,196.6 340.35,204.60000000000002 332.35,204.60000000000002"/>
<polygon class="l71d44" points="519.8000000000001,196.6 527.8,196.6 527.8,204.60000000000002 519.8000000000001,204.60000000000002"/>
<polygon class="l71d44" points="707.2500000000001,196.6 715.25,196.6 715.25,204.60000000000002 707.2500000000001,204.60000000000002"/>
<polygon class="l0d0" points="0.0,0.0 0.0,968.45 861.25,968.45 861.25,0.0"/>
</g>
</svg>