<?xml version="1.0" encoding="UTF-8"?>
<svg xmlns="http://www.w3.org/2000/svg" xmlns:xlink="http://www.w3.org/1999/xlink"
     width="958.095" height="1065.295" viewBox="-48.4225 -1016.8725000000001 958.095 1065.295">
<defs>
<style type="text/css">
.l72d20 {stroke: rgb(128, 89, 42); fill: rgb(128, 89, 42); fill-opacity: 0.5;}
.l0d0 {fill: none;}
</style>
</defs>
<rect x="-48.4225" y="-1016.8725000000001" width="958.095" height="1065.295" fill="white" stroke="none"/>
<g id="met5" transform="scale(1 -1)">
<polygon class="l72d20" points="52.800000000000004,835.1999999999999 812.95,835.1999999999999 812.95,851.2 52.800000000000004,851.2"/>
<polygon class="l72d20" points="52.800000000000004,743.4000000000001 807.4,743.4000000000001 807.4,759.4 52.800000000000004,759.4"/>
<polygon class="l72d20" points="52.800000000000004,651.5999999999999 812.95,651.5999999999999 812.95,667.6 52.800000000000004,667.6"/>
<polygon class="l72d20" points="52.800000000000004,559.8000000000001 807.4,559.8000000000001 807.4,575.8 52.800000000000004,575.8"/>
<polygon class="l72d20" points="52.800000000000004,468.00000000000006 812.95,468.00000000000006 812.95,484.0 52.800000000000004,484.0"/>
<polygon class="l72d20" points="52.800000000000004,376.2 807.4,376.2 807.4,392.2 52.800000000000004,392.2"/>
<polygon class="l72d20" points="52.800000000000004,284.40000000000003 812.95,284.40000000000003 812.95,300.4 52.800000000000004,300.4"/>
<polygon class="l72d20" points="52.800000000000004,192.60000000000002 807.4,192.60000000000002 807.4,208.6 52.800000000000004,208.6"/>
<polygon class="l0d0" points="0.0,0.0 0.0,968.45 861.25,968.45 861.25,0.0"/>
</g>
</svg>