<svg xmlns="http://www.w3.org/2000/svg" viewBox="0 0 1129.45 357.99">
    <defs>
        <style>
            .cls-1{fill:#fff}
        </style>
    </defs>
    <path class="cls-1" d="M1110 239.56h-19.45a52.3 52.3 0 0 1-4.13 20.45 52.84 52.84 0 0 1-19.05 23.13 52.67 52.67 0 0 1-49.81 4.84 52.78 52.78 0 0 1-23.13-19.05 52.13 52.13 0 0 1-6.61-13.73 52.85 52.85 0 0 1-2.36-15.64 52.25 52.25 0 0 1 4.13-20.44 52.78 52.78 0 0 1 19-23.13 52.65 52.65 0 0 1 49.81-4.85 52.87 52.87 0 0 1 23.13 19.06 52.13 52.13 0 0 1 6.61 13.73 52.83 52.83 0 0 1 2.36 15.63h38.91a91 91 0 1 0-4.11 27.19 91.2 91.2 0 0 0 4.11-27.19ZM614.43 183.13h36.97v144.65h-36.97z"/>
    <rect class="cls-1" x="513.24" y="224.65" width="39.57" height="107.68" rx="19.78"/>
    <circle class="cls-1" cx="633.24" cy="131.24" r="27.24"/>
    <path class="cls-1" d="M708.48 183.13h36.97v144.65h-36.97zM1091.83 158.48h36.97v167.35h-36.97z"/>
    <circle class="cls-1" cx="727.29" cy="131.24" r="27.24"/>
    <path class="cls-1" d="M791.51 148.75h124.54v36.97H791.51zM485.99 224.65h66.81v36.97h-66.81z"/>
    <path class="cls-1" d="M916.05 292.1h-27.89a30.29 30.29 0 0 1-11.86-2.38 30.64 30.64 0 0 1-13.43-11.07 30.27 30.27 0 0 1-5.2-17V97.51h-38.92v164.11A69.35 69.35 0 0 0 888.16 331h27.89ZM512.46 237.62q-1.05 3.18-2.34 6.26a81.53 81.53 0 0 1-29.4 35.69 81.28 81.28 0 0 1-76.87 7.43 81.08 81.08 0 0 1-13.77-142 81.25 81.25 0 0 1 76.92-7.4 81.5 81.5 0 0 1 35.7 29.4l.36.56h43.75c-.26-.65-.52-1.31-.8-1.95A119.9 119.9 0 1 0 550 248q1.59-5.1 2.72-10.38Z"/>
    <path class="cls-1" d="M512.67 237q-1.12 3.53-2.55 6.91a81.53 81.53 0 0 1-29.4 35.69 81.28 81.28 0 0 1-76.87 7.4 81.08 81.08 0 0 1-13.77-142 81.25 81.25 0 0 1 76.92-7.4 81.26 81.26 0 0 1 45.89 50.6c.74 2.37 1.35 4.8 1.87 7.26h39.5a119.06 119.06 0 0 0-8.26-29.85 119.9 119.9 0 1 0 4 82.39q1.68-5.42 2.86-11ZM218.92 10.35 258.43 0 267 32.79l-26 6.82-51.29 87.72a84.63 84.63 0 0 0-29.17-17.06l58.43-99.92M116 124.91a67.76 67.76 0 0 1 50.19 124.72l.56 2.13a84.73 84.73 0 1 1-103.47-60.49l2.13-.56a67.67 67.67 0 0 1 50.59-65.8m10.74 41a25.42 25.42 0 1 0 31 18.15 25.42 25.42 0 0 0-31-18.15m-66.89 83-8.64 14.53 58.55 34.24 8.56-14.68Z"/>
</svg>
