<?xml version="1.0" encoding="utf-8"?>
<!-- Generator: Adobe Illustrator 24.1.0, SVG Export Plug-In . SVG Version: 6.00 Build 0)  -->
<svg version="1.1"
	 id="svg2" xmlns:cc="http://creativecommons.org/ns#" xmlns:dc="http://purl.org/dc/elements/1.1/" xmlns:rdf="http://www.w3.org/1999/02/22-rdf-syntax-ns#" xmlns:svg="http://www.w3.org/2000/svg"
	 xmlns="http://www.w3.org/2000/svg" xmlns:xlink="http://www.w3.org/1999/xlink" x="0px" y="0px" viewBox="0 0 503.9 377.1"
	 style="enable-background:new 0 0 503.9 377.1;" xml:space="preserve">
<style type="text/css">
	.st0{fill:#CF171E;}
</style>
<path id="path2988" class="st0" d="M416.7,279.3L349.2,267l28.3,66.7L300.3,285l-8,38.8l-36.9-25.4l-34.9,32.4l-12.9-45.9
	l-56.1,28.9l15.6-46.4l-90.4,37.8l56.9-66.2l-70.7-0.4l75.1-36.8l-82.7-11.2l61.9-17L86,145.2l60.5-3.8L96.5,82.6l84.2,35.9
	l-10-57.8l49.2,44.4l33.1-35.3l24.6,41.3l44.8-37.7l1.8,48.3l62.5-18.7l-9.6,36.4l78.1-12.2l-62.2,45.6l61.7,15L391,207.9l57.9,28
	l-67.5,2.4L416.7,279.3z"/>
<path d="M383.6,339.2l-88.4-55.7l-8.1,39.3l-41.2-28.5L206.4,331l-13.7-48.9l-64.4,33.2l16.2-48.2L40.1,310.8l67-78l-86.4-0.5
	l81.7-40L7.6,179.4l84.2-23.1l-34.3-31.1l63.3-4L60,49.6l100.7,42.9l-11.3-65.6l59.8,54l34.9-37.2L269.3,86l49.8-41.9l2.1,54
	l66.1-19.7l-10.1,38.2l97.2-15.2l-74,54.3l72.1,17.6l-71.5,22.6l68.1,33l-82.1,2.9l39,45.3l-74.6-13.6L383.6,339.2z M202.1,260.4
	l12.1,42.9l30.3-28.1l32.5,22.4l7.9-38.3l66.1,41.7l-24.4-57.4l60.3,11l-31.7-36.8l52.9-1.9l-47.6-23l56.2-17.8l-51.3-12.5
	l50.3-36.9l-59,9.2l9.1-34.5l-59,17.6l-1.6-42.6l-39.8,33.5l-24-40.3l-31.3,33.4l-38.6-34.8l8.6,50l-67.7-28.8l39,46l-57.6,3.6
	l28.3,25.6l-39.7,10.9l70.8,9.6l-68.6,33.6l55,0.3l-46.8,54.5l76.4-32l-15,44.5L202.1,260.4z"/>
</svg>
