<?xml version="1.0" encoding="UTF-8"?>
<svg xmlns="http://www.w3.org/2000/svg" xmlns:xlink="http://www.w3.org/1999/xlink"
     width="958.095" height="1065.295" viewBox="-48.4225 -1016.8725000000001 958.095 1065.295">
<defs>
<style type="text/css">
.l69d44 {stroke: rgb(128, 128, 11); fill: rgb(128, 128, 11); fill-opacity: 0.5;}
.l0d0 {fill: none;}
</style>
</defs>
<rect x="-48.4225" y="-1016.8725000000001" width="958.095" height="1065.295" fill="white" stroke="none"/>
<g id="via2" transform="scale(1 -1)">
<polygon class="l69d44" points="141.9,842.2 143.9,842.2 143.9,844.2 141.9,844.2"/>
<polygon class="l69d44" points="145.9,842.2 147.9,842.2 147.9,844.2 145.9,844.2"/>
<polygon class="l69d44" points="149.9,842.2 151.9,842.2 151.9,844.2 149.9,844.2"/>
<polygon class="l69d44" points="153.9,842.2 155.9,842.2 155.9,844.2 153.9,844.2"/>
<polygon class="l69d44" points="329.35,842.2 331.34999999999997,842.2 331.34999999999997,844.2 329.35,844.2"/>
<polygon class="l69d44" points="333.35,842.2 335.35,842.2 335.35,844.2 333.35,844.2"/>
<polygon class="l69d44" points="337.35,842.2 339.35,842.2 339.35,844.2 337.35,844.2"/>
<polygon class="l69d44" points="341.34999999999997,842.2 343.35,842.2 343.35,844.2 341.34999999999997,844.2"/>
<polygon class="l69d44" points="516.8,842.2 518.8000000000001,842.2 518.8000000000001,844.2 516.8,844.2"/>
<polygon class="l69d44" points="520.8,842.2 522.8,842.2 522.8,844.2 520.8,844.2"/>
<polygon class="l69d44" points="524.8000000000001,842.2 526.8,842.2 526.8,844.2 524.8000000000001,844.2"/>
<polygon class="l69d44" points="528.8000000000001,842.2 530.8,842.2 530.8,844.2 528.8000000000001,844.2"/>
<polygon class="l69d44" points="704.25,842.2 706.25,842.2 706.25,844.2 704.25,844.2"/>
<polygon class="l69d44" points="708.25,842.2 710.25,842.2 710.25,844.2 708.25,844.2"/>
<polygon class="l69d44" points="712.2500000000001,842.2 714.25,842.2 714.25,844.2 712.2500000000001,844.2"/>
<polygon class="l69d44" points="716.25,842.2 718.25,842.2 718.25,844.2 716.25,844.2"/>
<polygon class="l69d44" points="235.6,815.0 237.60000000000002,815.0 237.60000000000002,817.0 235.6,817.0"/>
<polygon class="l69d44" points="239.60000000000002,815.0 241.6,815.0 241.6,817.0 239.60000000000002,817.0"/>
<polygon class="l69d44" points="243.6,815.0 245.60000000000002,815.0 245.60000000000002,817.0 243.6,817.0"/>
<polygon class="l69d44" points="247.60000000000002,815.0 249.60000000000002,815.0 249.60000000000002,817.0 247.60000000000002,817.0"/>
<polygon class="l69d44" points="423.05,815.0 425.05,815.0 425.05,817.0 423.05,817.0"/>
<polygon class="l69d44" points="427.04999999999995,815.0 429.05,815.0 429.05,817.0 427.04999999999995,817.0"/>
<polygon class="l69d44" points="431.05000000000007,815.0 433.05,815.0 433.05,817.0 431.05000000000007,817.0"/>
<polygon class="l69d44" points="435.05,815.0 437.04999999999995,815.0 437.04999999999995,817.0 435.05,817.0"/>
<polygon class="l69d44" points="610.5,815.0 612.5,815.0 612.5,817.0 610.5,817.0"/>
<polygon class="l69d44" points="614.5,815.0 616.5,815.0 616.5,817.0 614.5,817.0"/>
<polygon class="l69d44" points="618.5,815.0 620.5,815.0 620.5,817.0 618.5,817.0"/>
<polygon class="l69d44" points="622.5,815.0 624.5,815.0 624.5,817.0 622.5,817.0"/>
<polygon class="l69d44" points="797.95,815.0 799.95,815.0 799.95,817.0 797.95,817.0"/>
<polygon class="l69d44" points="801.95,815.0 803.9499999999999,815.0 803.9499999999999,817.0 801.95,817.0"/>
<polygon class="l69d44" points="805.95,815.0 807.95,815.0 807.95,817.0 805.95,817.0"/>
<polygon class="l69d44" points="809.95,815.0 811.95,815.0 811.95,817.0 809.95,817.0"/>
<polygon class="l69d44" points="141.9,787.8 143.9,787.8 143.9,789.8000000000001 141.9,789.8000000000001"/>
<polygon class="l69d44" points="145.9,787.8 147.9,787.8 147.9,789.8000000000001 145.9,789.8000000000001"/>
<polygon class="l69d44" points="149.9,787.8 151.9,787.8 151.9,789.8000000000001 149.9,789.8000000000001"/>
<polygon class="l69d44" points="153.9,787.8 155.9,787.8 155.9,789.8000000000001 153.9,789.8000000000001"/>
<polygon class="l69d44" points="329.35,787.8 331.34999999999997,787.8 331.34999999999997,789.8000000000001 329.35,789.8000000000001"/>
<polygon class="l69d44" points="333.35,787.8 335.35,787.8 335.35,789.8000000000001 333.35,789.8000000000001"/>
<polygon class="l69d44" points="337.35,787.8 339.35,787.8 339.35,789.8000000000001 337.35,789.8000000000001"/>
<polygon class="l69d44" points="341.34999999999997,787.8 343.35,787.8 343.35,789.8000000000001 341.34999999999997,789.8000000000001"/>
<polygon class="l69d44" points="516.8,787.8 518.8000000000001,787.8 518.8000000000001,789.8000000000001 516.8,789.8000000000001"/>
<polygon class="l69d44" points="520.8,787.8 522.8,787.8 522.8,789.8000000000001 520.8,789.8000000000001"/>
<polygon class="l69d44" points="524.8000000000001,787.8 526.8,787.8 526.8,789.8000000000001 524.8000000000001,789.8000000000001"/>
<polygon class="l69d44" points="528.8000000000001,787.8 530.8,787.8 530.8,789.8000000000001 528.8000000000001,789.8000000000001"/>
<polygon class="l69d44" points="704.25,787.8 706.25,787.8 706.25,789.8000000000001 704.25,789.8000000000001"/>
<polygon class="l69d44" points="708.25,787.8 710.25,787.8 710.25,789.8000000000001 708.25,789.8000000000001"/>
<polygon class="l69d44" points="712.2500000000001,787.8 714.25,787.8 714.25,789.8000000000001 712.2500000000001,789.8000000000001"/>
<polygon class="l69d44" points="716.25,787.8 718.25,787.8 718.25,789.8000000000001 716.25,789.8000000000001"/>
<polygon class="l69d44" points="235.6,760.6 237.60000000000002,760.6 237.60000000000002,762.6 235.6,762.6"/>
<polygon class="l69d44" points="239.60000000000002,760.6 241.6,760.6 241.6,762.6 239.60000000000002,762.6"/>
<polygon class="l69d44" points="243.6,760.6 245.60000000000002,760.6 245.60000000000002,762.6 243.6,762.6"/>
<polygon class="l69d44" points="247.60000000000002,760.6 249.60000000000002,760.6 249.60000000000002,762.6 247.60000000000002,762.6"/>
<polygon class="l69d44" points="423.05,760.6 425.05,760.6 425.05,762.6 423.05,762.6"/>
<polygon class="l69d44" points="427.04999999999995,760.6 429.05,760.6 429.05,762.6 427.04999999999995,762.6"/>
<polygon class="l69d44" points="431.05000000000007,760.6 433.05,760.6 433.05,762.6 431.05000000000007,762.6"/>
<polygon class="l69d44" points="435.05,760.6 437.04999999999995,760.6 437.04999999999995,762.6 435.05,762.6"/>
<polygon class="l69d44" points="610.5,760.6 612.5,760.6 612.5,762.6 610.5,762.6"/>
<polygon class="l69d44" points="614.5,760.6 616.5,760.6 616.5,762.6 614.5,762.6"/>
<polygon class="l69d44" points="618.5,760.6 620.5,760.6 620.5,762.6 618.5,762.6"/>
<polygon class="l69d44" points="622.5,760.6 624.5,760.6 624.5,762.6 622.5,762.6"/>
<polygon class="l69d44" points="797.95,760.6 799.95,760.6 799.95,762.6 797.95,762.6"/>
<polygon class="l69d44" points="801.95,760.6 803.9499999999999,760.6 803.9499999999999,762.6 801.95,762.6"/>
<polygon class="l69d44" points="805.95,760.6 807.95,760.6 807.95,762.6 805.95,762.6"/>
<polygon class="l69d44" points="809.95,760.6 811.95,760.6 811.95,762.6 809.95,762.6"/>
<polygon class="l69d44" points="194.5,750.4000000000001 196.50000000000003,750.4000000000001 196.50000000000003,752.4 194.5,752.4"/>
<polygon class="l69d44" points="141.9,733.4000000000001 143.9,733.4000000000001 143.9,735.4000000000001 141.9,735.4000000000001"/>
<polygon class="l69d44" points="145.9,733.4000000000001 147.9,733.4000000000001 147.9,735.4000000000001 145.9,735.4000000000001"/>
<polygon class="l69d44" points="149.9,733.4000000000001 151.9,733.4000000000001 151.9,735.4000000000001 149.9,735.4000000000001"/>
<polygon class="l69d44" points="153.9,733.4000000000001 155.9,733.4000000000001 155.9,735.4000000000001 153.9,735.4000000000001"/>
<polygon class="l69d44" points="329.35,733.4000000000001 331.34999999999997,733.4000000000001 331.34999999999997,735.4000000000001 329.35,735.4000000000001"/>
<polygon class="l69d44" points="333.35,733.4000000000001 335.35,733.4000000000001 335.35,735.4000000000001 333.35,735.4000000000001"/>
<polygon class="l69d44" points="337.35,733.4000000000001 339.35,733.4000000000001 339.35,735.4000000000001 337.35,735.4000000000001"/>
<polygon class="l69d44" points="341.34999999999997,733.4000000000001 343.35,733.4000000000001 343.35,735.4000000000001 341.34999999999997,735.4000000000001"/>
<polygon class="l69d44" points="516.8,733.4000000000001 518.8000000000001,733.4000000000001 518.8000000000001,735.4000000000001 516.8,735.4000000000001"/>
<polygon class="l69d44" points="520.8,733.4000000000001 522.8,733.4000000000001 522.8,735.4000000000001 520.8,735.4000000000001"/>
<polygon class="l69d44" points="524.8000000000001,733.4000000000001 526.8,733.4000000000001 526.8,735.4000000000001 524.8000000000001,735.4000000000001"/>
<polygon class="l69d44" points="528.8000000000001,733.4000000000001 530.8,733.4000000000001 530.8,735.4000000000001 528.8000000000001,735.4000000000001"/>
<polygon class="l69d44" points="704.25,733.4000000000001 706.25,733.4000000000001 706.25,735.4000000000001 704.25,735.4000000000001"/>
<polygon class="l69d44" points="708.25,733.4000000000001 710.25,733.4000000000001 710.25,735.4000000000001 708.25,735.4000000000001"/>
<polygon class="l69d44" points="712.2500000000001,733.4000000000001 714.25,733.4000000000001 714.25,735.4000000000001 712.2500000000001,735.4000000000001"/>
<polygon class="l69d44" points="716.25,733.4000000000001 718.25,733.4000000000001 718.25,735.4000000000001 716.25,735.4000000000001"/>
<polygon class="l69d44" points="235.6,706.2 237.60000000000002,706.2 237.60000000000002,708.2 235.6,708.2"/>
<polygon class="l69d44" points="239.60000000000002,706.2 241.6,706.2 241.6,708.2 239.60000000000002,708.2"/>
<polygon class="l69d44" points="243.6,706.2 245.60000000000002,706.2 245.60000000000002,708.2 243.6,708.2"/>
<polygon class="l69d44" points="247.60000000000002,706.2 249.60000000000002,706.2 249.60000000000002,708.2 247.60000000000002,708.2"/>
<polygon class="l69d44" points="423.05,706.2 425.05,706.2 425.05,708.2 423.05,708.2"/>
<polygon class="l69d44" points="427.04999999999995,706.2 429.05,706.2 429.05,708.2 427.04999999999995,708.2"/>
<polygon class="l69d44" points="431.05000000000007,706.2 433.05,706.2 433.05,708.2 431.05000000000007,708.2"/>
<polygon class="l69d44" points="435.05,706.2 437.04999999999995,706.2 437.04999999999995,708.2 435.05,708.2"/>
<polygon class="l69d44" points="610.5,706.2 612.5,706.2 612.5,708.2 610.5,708.2"/>
<polygon class="l69d44" points="614.5,706.2 616.5,706.2 616.5,708.2 614.5,708.2"/>
<polygon class="l69d44" points="618.5,706.2 620.5,706.2 620.5,708.2 618.5,708.2"/>
<polygon class="l69d44" points="622.5,706.2 624.5,706.2 624.5,708.2 622.5,708.2"/>
<polygon class="l69d44" points="797.95,706.2 799.95,706.2 799.95,708.2 797.95,708.2"/>
<polygon class="l69d44" points="801.95,706.2 803.9499999999999,706.2 803.9499999999999,708.2 801.95,708.2"/>
<polygon class="l69d44" points="805.95,706.2 807.95,706.2 807.95,708.2 805.95,708.2"/>
<polygon class="l69d44" points="809.95,706.2 811.95,706.2 811.95,708.2 809.95,708.2"/>
<polygon class="l69d44" points="141.9,679.0 143.9,679.0 143.9,681.0 141.9,681.0"/>
<polygon class="l69d44" points="145.9,679.0 147.9,679.0 147.9,681.0 145.9,681.0"/>
<polygon class="l69d44" points="149.9,679.0 151.9,679.0 151.9,681.0 149.9,681.0"/>
<polygon class="l69d44" points="153.9,679.0 155.9,679.0 155.9,681.0 153.9,681.0"/>
<polygon class="l69d44" points="329.35,679.0 331.34999999999997,679.0 331.34999999999997,681.0 329.35,681.0"/>
<polygon class="l69d44" points="333.35,679.0 335.35,679.0 335.35,681.0 333.35,681.0"/>
<polygon class="l69d44" points="337.35,679.0 339.35,679.0 339.35,681.0 337.35,681.0"/>
<polygon class="l69d44" points="341.34999999999997,679.0 343.35,679.0 343.35,681.0 341.34999999999997,681.0"/>
<polygon class="l69d44" points="516.8,679.0 518.8000000000001,679.0 518.8000000000001,681.0 516.8,681.0"/>
<polygon class="l69d44" points="520.8,679.0 522.8,679.0 522.8,681.0 520.8,681.0"/>
<polygon class="l69d44" points="524.8000000000001,679.0 526.8,679.0 526.8,681.0 524.8000000000001,681.0"/>
<polygon class="l69d44" points="528.8000000000001,679.0 530.8,679.0 530.8,681.0 528.8000000000001,681.0"/>
<polygon class="l69d44" points="704.25,679.0 706.25,679.0 706.25,681.0 704.25,681.0"/>
<polygon class="l69d44" points="708.25,679.0 710.25,679.0 710.25,681.0 708.25,681.0"/>
<polygon class="l69d44" points="712.2500000000001,679.0 714.25,679.0 714.25,681.0 712.2500000000001,681.0"/>
<polygon class="l69d44" points="716.25,679.0 718.25,679.0 718.25,681.0 716.25,681.0"/>
<polygon class="l69d44" points="235.6,651.8000000000001 237.60000000000002,651.8000000000001 237.60000000000002,653.8 235.6,653.8"/>
<polygon class="l69d44" points="239.60000000000002,651.8000000000001 241.6,651.8000000000001 241.6,653.8 239.60000000000002,653.8"/>
<polygon class="l69d44" points="243.6,651.8000000000001 245.60000000000002,651.8000000000001 245.60000000000002,653.8 243.6,653.8"/>
<polygon class="l69d44" points="247.60000000000002,651.8000000000001 249.60000000000002,651.8000000000001 249.60000000000002,653.8 247.60000000000002,653.8"/>
<polygon class="l69d44" points="423.05,651.8000000000001 425.05,651.8000000000001 425.05,653.8 423.05,653.8"/>
<polygon class="l69d44" points="427.04999999999995,651.8000000000001 429.05,651.8000000000001 429.05,653.8 427.04999999999995,653.8"/>
<polygon class="l69d44" points="431.05000000000007,651.8000000000001 433.05,651.8000000000001 433.05,653.8 431.05000000000007,653.8"/>
<polygon class="l69d44" points="435.05,651.8000000000001 437.04999999999995,651.8000000000001 437.04999999999995,653.8 435.05,653.8"/>
<polygon class="l69d44" points="610.5,651.8000000000001 612.5,651.8000000000001 612.5,653.8 610.5,653.8"/>
<polygon class="l69d44" points="614.5,651.8000000000001 616.5,651.8000000000001 616.5,653.8 614.5,653.8"/>
<polygon class="l69d44" points="618.5,651.8000000000001 620.5,651.8000000000001 620.5,653.8 618.5,653.8"/>
<polygon class="l69d44" points="622.5,651.8000000000001 624.5,651.8000000000001 624.5,653.8 622.5,653.8"/>
<polygon class="l69d44" points="797.95,651.8000000000001 799.95,651.8000000000001 799.95,653.8 797.95,653.8"/>
<polygon class="l69d44" points="801.95,651.8000000000001 803.9499999999999,651.8000000000001 803.9499999999999,653.8 801.95,653.8"/>
<polygon class="l69d44" points="805.95,651.8000000000001 807.95,651.8000000000001 807.95,653.8 805.95,653.8"/>
<polygon class="l69d44" points="809.95,651.8000000000001 811.95,651.8000000000001 811.95,653.8 809.95,653.8"/>
<polygon class="l69d44" points="141.9,624.6 143.9,624.6 143.9,626.6 141.9,626.6"/>
<polygon class="l69d44" points="145.9,624.6 147.9,624.6 147.9,626.6 145.9,626.6"/>
<polygon class="l69d44" points="149.9,624.6 151.9,624.6 151.9,626.6 149.9,626.6"/>
<polygon class="l69d44" points="153.9,624.6 155.9,624.6 155.9,626.6 153.9,626.6"/>
<polygon class="l69d44" points="329.35,624.6 331.34999999999997,624.6 331.34999999999997,626.6 329.35,626.6"/>
<polygon class="l69d44" points="333.35,624.6 335.35,624.6 335.35,626.6 333.35,626.6"/>
<polygon class="l69d44" points="337.35,624.6 339.35,624.6 339.35,626.6 337.35,626.6"/>
<polygon class="l69d44" points="341.34999999999997,624.6 343.35,624.6 343.35,626.6 341.34999999999997,626.6"/>
<polygon class="l69d44" points="516.8,624.6 518.8000000000001,624.6 518.8000000000001,626.6 516.8,626.6"/>
<polygon class="l69d44" points="520.8,624.6 522.8,624.6 522.8,626.6 520.8,626.6"/>
<polygon class="l69d44" points="524.8000000000001,624.6 526.8,624.6 526.8,626.6 524.8000000000001,626.6"/>
<polygon class="l69d44" points="528.8000000000001,624.6 530.8,624.6 530.8,626.6 528.8000000000001,626.6"/>
<polygon class="l69d44" points="704.25,624.6 706.25,624.6 706.25,626.6 704.25,626.6"/>
<polygon class="l69d44" points="708.25,624.6 710.25,624.6 710.25,626.6 708.25,626.6"/>
<polygon class="l69d44" points="712.2500000000001,624.6 714.25,624.6 714.25,626.6 712.2500000000001,626.6"/>
<polygon class="l69d44" points="716.25,624.6 718.25,624.6 718.25,626.6 716.25,626.6"/>
<polygon class="l69d44" points="235.6,597.4 237.60000000000002,597.4 237.60000000000002,599.4 235.6,599.4"/>
<polygon class="l69d44" points="239.60000000000002,597.4 241.6,597.4 241.6,599.4 239.60000000000002,599.4"/>
<polygon class="l69d44" points="243.6,597.4 245.60000000000002,597.4 245.60000000000002,599.4 243.6,599.4"/>
<polygon class="l69d44" points="247.60000000000002,597.4 249.60000000000002,597.4 249.60000000000002,599.4 247.60000000000002,599.4"/>
<polygon class="l69d44" points="423.05,597.4 425.05,597.4 425.05,599.4 423.05,599.4"/>
<polygon class="l69d44" points="427.04999999999995,597.4 429.05,597.4 429.05,599.4 427.04999999999995,599.4"/>
<polygon class="l69d44" points="431.05000000000007,597.4 433.05,597.4 433.05,599.4 431.05000000000007,599.4"/>
<polygon class="l69d44" points="435.05,597.4 437.04999999999995,597.4 437.04999999999995,599.4 435.05,599.4"/>
<polygon class="l69d44" points="610.5,597.4 612.5,597.4 612.5,599.4 610.5,599.4"/>
<polygon class="l69d44" points="614.5,597.4 616.5,597.4 616.5,599.4 614.5,599.4"/>
<polygon class="l69d44" points="618.5,597.4 620.5,597.4 620.5,599.4 618.5,599.4"/>
<polygon class="l69d44" points="622.5,597.4 624.5,597.4 624.5,599.4 622.5,599.4"/>
<polygon class="l69d44" points="797.95,597.4 799.95,597.4 799.95,599.4 797.95,599.4"/>
<polygon class="l69d44" points="801.95,597.4 803.9499999999999,597.4 803.9499999999999,599.4 801.95,599.4"/>
<polygon class="l69d44" points="805.95,597.4 807.95,597.4 807.95,599.4 805.95,599.4"/>
<polygon class="l69d44" points="809.95,597.4 811.95,597.4 811.95,599.4 809.95,599.4"/>
<polygon class="l69d44" points="778.7,580.4 780.7,580.4 780.7,582.4 778.7,582.4"/>
<polygon class="l69d44" points="141.9,570.2 143.9,570.2 143.9,572.2 141.9,572.2"/>
<polygon class="l69d44" points="145.9,570.2 147.9,570.2 147.9,572.2 145.9,572.2"/>
<polygon class="l69d44" points="149.9,570.2 151.9,570.2 151.9,572.2 149.9,572.2"/>
<polygon class="l69d44" points="153.9,570.2 155.9,570.2 155.9,572.2 153.9,572.2"/>
<polygon class="l69d44" points="329.35,570.2 331.34999999999997,570.2 331.34999999999997,572.2 329.35,572.2"/>
<polygon class="l69d44" points="333.35,570.2 335.35,570.2 335.35,572.2 333.35,572.2"/>
<polygon class="l69d44" points="337.35,570.2 339.35,570.2 339.35,572.2 337.35,572.2"/>
<polygon class="l69d44" points="341.34999999999997,570.2 343.35,570.2 343.35,572.2 341.34999999999997,572.2"/>
<polygon class="l69d44" points="516.8,570.2 518.8000000000001,570.2 518.8000000000001,572.2 516.8,572.2"/>
<polygon class="l69d44" points="520.8,570.2 522.8,570.2 522.8,572.2 520.8,572.2"/>
<polygon class="l69d44" points="524.8000000000001,570.2 526.8,570.2 526.8,572.2 524.8000000000001,572.2"/>
<polygon class="l69d44" points="528.8000000000001,570.2 530.8,570.2 530.8,572.2 528.8000000000001,572.2"/>
<polygon class="l69d44" points="704.25,570.2 706.25,570.2 706.25,572.2 704.25,572.2"/>
<polygon class="l69d44" points="708.25,570.2 710.25,570.2 710.25,572.2 708.25,572.2"/>
<polygon class="l69d44" points="712.2500000000001,570.2 714.25,570.2 714.25,572.2 712.2500000000001,572.2"/>
<polygon class="l69d44" points="716.25,570.2 718.25,570.2 718.25,572.2 716.25,572.2"/>
<polygon class="l69d44" points="235.6,543.0 237.60000000000002,543.0 237.60000000000002,545.0 235.6,545.0"/>
<polygon class="l69d44" points="239.60000000000002,543.0 241.6,543.0 241.6,545.0 239.60000000000002,545.0"/>
<polygon class="l69d44" points="243.6,543.0 245.60000000000002,543.0 245.60000000000002,545.0 243.6,545.0"/>
<polygon class="l69d44" points="247.60000000000002,543.0 249.60000000000002,543.0 249.60000000000002,545.0 247.60000000000002,545.0"/>
<polygon class="l69d44" points="423.05,543.0 425.05,543.0 425.05,545.0 423.05,545.0"/>
<polygon class="l69d44" points="427.04999999999995,543.0 429.05,543.0 429.05,545.0 427.04999999999995,545.0"/>
<polygon class="l69d44" points="431.05000000000007,543.0 433.05,543.0 433.05,545.0 431.05000000000007,545.0"/>
<polygon class="l69d44" points="435.05,543.0 437.04999999999995,543.0 437.04999999999995,545.0 435.05,545.0"/>
<polygon class="l69d44" points="610.5,543.0 612.5,543.0 612.5,545.0 610.5,545.0"/>
<polygon class="l69d44" points="614.5,543.0 616.5,543.0 616.5,545.0 614.5,545.0"/>
<polygon class="l69d44" points="618.5,543.0 620.5,543.0 620.5,545.0 618.5,545.0"/>
<polygon class="l69d44" points="622.5,543.0 624.5,543.0 624.5,545.0 622.5,545.0"/>
<polygon class="l69d44" points="797.95,543.0 799.95,543.0 799.95,545.0 797.95,545.0"/>
<polygon class="l69d44" points="801.95,543.0 803.9499999999999,543.0 803.9499999999999,545.0 801.95,545.0"/>
<polygon class="l69d44" points="805.95,543.0 807.95,543.0 807.95,545.0 805.95,545.0"/>
<polygon class="l69d44" points="809.95,543.0 811.95,543.0 811.95,545.0 809.95,545.0"/>
<polygon class="l69d44" points="141.9,515.8 143.9,515.8 143.9,517.8 141.9,517.8"/>
<polygon class="l69d44" points="145.9,515.8 147.9,515.8 147.9,517.8 145.9,517.8"/>
<polygon class="l69d44" points="149.9,515.8 151.9,515.8 151.9,517.8 149.9,517.8"/>
<polygon class="l69d44" points="153.9,515.8 155.9,515.8 155.9,517.8 153.9,517.8"/>
<polygon class="l69d44" points="329.35,515.8 331.34999999999997,515.8 331.34999999999997,517.8 329.35,517.8"/>
<polygon class="l69d44" points="333.35,515.8 335.35,515.8 335.35,517.8 333.35,517.8"/>
<polygon class="l69d44" points="337.35,515.8 339.35,515.8 339.35,517.8 337.35,517.8"/>
<polygon class="l69d44" points="341.34999999999997,515.8 343.35,515.8 343.35,517.8 341.34999999999997,517.8"/>
<polygon class="l69d44" points="516.8,515.8 518.8000000000001,515.8 518.8000000000001,517.8 516.8,517.8"/>
<polygon class="l69d44" points="520.8,515.8 522.8,515.8 522.8,517.8 520.8,517.8"/>
<polygon class="l69d44" points="524.8000000000001,515.8 526.8,515.8 526.8,517.8 524.8000000000001,517.8"/>
<polygon class="l69d44" points="528.8000000000001,515.8 530.8,515.8 530.8,517.8 528.8000000000001,517.8"/>
<polygon class="l69d44" points="704.25,515.8 706.25,515.8 706.25,517.8 704.25,517.8"/>
<polygon class="l69d44" points="708.25,515.8 710.25,515.8 710.25,517.8 708.25,517.8"/>
<polygon class="l69d44" points="712.2500000000001,515.8 714.25,515.8 714.25,517.8 712.2500000000001,517.8"/>
<polygon class="l69d44" points="716.25,515.8 718.25,515.8 718.25,517.8 716.25,517.8"/>
<polygon class="l69d44" points="235.6,488.6 237.60000000000002,488.6 237.60000000000002,490.6 235.6,490.6"/>
<polygon class="l69d44" points="239.60000000000002,488.6 241.6,488.6 241.6,490.6 239.60000000000002,490.6"/>
<polygon class="l69d44" points="243.6,488.6 245.60000000000002,488.6 245.60000000000002,490.6 243.6,490.6"/>
<polygon class="l69d44" points="247.60000000000002,488.6 249.60000000000002,488.6 249.60000000000002,490.6 247.60000000000002,490.6"/>
<polygon class="l69d44" points="423.05,488.6 425.05,488.6 425.05,490.6 423.05,490.6"/>
<polygon class="l69d44" points="427.04999999999995,488.6 429.05,488.6 429.05,490.6 427.04999999999995,490.6"/>
<polygon class="l69d44" points="431.05000000000007,488.6 433.05,488.6 433.05,490.6 431.05000000000007,490.6"/>
<polygon class="l69d44" points="435.05,488.6 437.04999999999995,488.6 437.04999999999995,490.6 435.05,490.6"/>
<polygon class="l69d44" points="610.5,488.6 612.5,488.6 612.5,490.6 610.5,490.6"/>
<polygon class="l69d44" points="614.5,488.6 616.5,488.6 616.5,490.6 614.5,490.6"/>
<polygon class="l69d44" points="618.5,488.6 620.5,488.6 620.5,490.6 618.5,490.6"/>
<polygon class="l69d44" points="622.5,488.6 624.5,488.6 624.5,490.6 622.5,490.6"/>
<polygon class="l69d44" points="797.95,488.6 799.95,488.6 799.95,490.6 797.95,490.6"/>
<polygon class="l69d44" points="801.95,488.6 803.9499999999999,488.6 803.9499999999999,490.6 801.95,490.6"/>
<polygon class="l69d44" points="805.95,488.6 807.95,488.6 807.95,490.6 805.95,490.6"/>
<polygon class="l69d44" points="809.95,488.6 811.95,488.6 811.95,490.6 809.95,490.6"/>
<polygon class="l69d44" points="141.9,461.4 143.9,461.4 143.9,463.40000000000003 141.9,463.40000000000003"/>
<polygon class="l69d44" points="145.9,461.4 147.9,461.4 147.9,463.40000000000003 145.9,463.40000000000003"/>
<polygon class="l69d44" points="149.9,461.4 151.9,461.4 151.9,463.40000000000003 149.9,463.40000000000003"/>
<polygon class="l69d44" points="153.9,461.4 155.9,461.4 155.9,463.40000000000003 153.9,463.40000000000003"/>
<polygon class="l69d44" points="329.35,461.4 331.34999999999997,461.4 331.34999999999997,463.40000000000003 329.35,463.40000000000003"/>
<polygon class="l69d44" points="333.35,461.4 335.35,461.4 335.35,463.40000000000003 333.35,463.40000000000003"/>
<polygon class="l69d44" points="337.35,461.4 339.35,461.4 339.35,463.40000000000003 337.35,463.40000000000003"/>
<polygon class="l69d44" points="341.34999999999997,461.4 343.35,461.4 343.35,463.40000000000003 341.34999999999997,463.40000000000003"/>
<polygon class="l69d44" points="516.8,461.4 518.8000000000001,461.4 518.8000000000001,463.40000000000003 516.8,463.40000000000003"/>
<polygon class="l69d44" points="520.8,461.4 522.8,461.4 522.8,463.40000000000003 520.8,463.40000000000003"/>
<polygon class="l69d44" points="524.8000000000001,461.4 526.8,461.4 526.8,463.40000000000003 524.8000000000001,463.40000000000003"/>
<polygon class="l69d44" points="528.8000000000001,461.4 530.8,461.4 530.8,463.40000000000003 528.8000000000001,463.40000000000003"/>
<polygon class="l69d44" points="704.25,461.4 706.25,461.4 706.25,463.40000000000003 704.25,463.40000000000003"/>
<polygon class="l69d44" points="708.25,461.4 710.25,461.4 710.25,463.40000000000003 708.25,463.40000000000003"/>
<polygon class="l69d44" points="712.2500000000001,461.4 714.25,461.4 714.25,463.40000000000003 712.2500000000001,463.40000000000003"/>
<polygon class="l69d44" points="716.25,461.4 718.25,461.4 718.25,463.40000000000003 716.25,463.40000000000003"/>
<polygon class="l69d44" points="235.6,434.20000000000005 237.60000000000002,434.20000000000005 237.60000000000002,436.2 235.6,436.2"/>
<polygon class="l69d44" points="239.60000000000002,434.20000000000005 241.6,434.20000000000005 241.6,436.2 239.60000000000002,436.2"/>
<polygon class="l69d44" points="243.6,434.20000000000005 245.60000000000002,434.20000000000005 245.60000000000002,436.2 243.6,436.2"/>
<polygon class="l69d44" points="247.60000000000002,434.20000000000005 249.60000000000002,434.20000000000005 249.60000000000002,436.2 247.60000000000002,436.2"/>
<polygon class="l69d44" points="423.05,434.20000000000005 425.05,434.20000000000005 425.05,436.2 423.05,436.2"/>
<polygon class="l69d44" points="427.04999999999995,434.20000000000005 429.05,434.20000000000005 429.05,436.2 427.04999999999995,436.2"/>
<polygon class="l69d44" points="431.05000000000007,434.20000000000005 433.05,434.20000000000005 433.05,436.2 431.05000000000007,436.2"/>
<polygon class="l69d44" points="435.05,434.20000000000005 437.04999999999995,434.20000000000005 437.04999999999995,436.2 435.05,436.2"/>
<polygon class="l69d44" points="610.5,434.20000000000005 612.5,434.20000000000005 612.5,436.2 610.5,436.2"/>
<polygon class="l69d44" points="614.5,434.20000000000005 616.5,434.20000000000005 616.5,436.2 614.5,436.2"/>
<polygon class="l69d44" points="618.5,434.20000000000005 620.5,434.20000000000005 620.5,436.2 618.5,436.2"/>
<polygon class="l69d44" points="622.5,434.20000000000005 624.5,434.20000000000005 624.5,436.2 622.5,436.2"/>
<polygon class="l69d44" points="797.95,434.20000000000005 799.95,434.20000000000005 799.95,436.2 797.95,436.2"/>
<polygon class="l69d44" points="801.95,434.20000000000005 803.9499999999999,434.20000000000005 803.9499999999999,436.2 801.95,436.2"/>
<polygon class="l69d44" points="805.95,434.20000000000005 807.95,434.20000000000005 807.95,436.2 805.95,436.2"/>
<polygon class="l69d44" points="809.95,434.20000000000005 811.95,434.20000000000005 811.95,436.2 809.95,436.2"/>
<polygon class="l69d44" points="141.9,407.0 143.9,407.0 143.9,409.0 141.9,409.0"/>
<polygon class="l69d44" points="145.9,407.0 147.9,407.0 147.9,409.0 145.9,409.0"/>
<polygon class="l69d44" points="149.9,407.0 151.9,407.0 151.9,409.0 149.9,409.0"/>
<polygon class="l69d44" points="153.9,407.0 155.9,407.0 155.9,409.0 153.9,409.0"/>
<polygon class="l69d44" points="329.35,407.0 331.34999999999997,407.0 331.34999999999997,409.0 329.35,409.0"/>
<polygon class="l69d44" points="333.35,407.0 335.35,407.0 335.35,409.0 333.35,409.0"/>
<polygon class="l69d44" points="337.35,407.0 339.35,407.0 339.35,409.0 337.35,409.0"/>
<polygon class="l69d44" points="341.34999999999997,407.0 343.35,407.0 343.35,409.0 341.34999999999997,409.0"/>
<polygon class="l69d44" points="516.8,407.0 518.8000000000001,407.0 518.8000000000001,409.0 516.8,409.0"/>
<polygon class="l69d44" points="520.8,407.0 522.8,407.0 522.8,409.0 520.8,409.0"/>
<polygon class="l69d44" points="524.8000000000001,407.0 526.8,407.0 526.8,409.0 524.8000000000001,409.0"/>
<polygon class="l69d44" points="528.8000000000001,407.0 530.8,407.0 530.8,409.0 528.8000000000001,409.0"/>
<polygon class="l69d44" points="704.25,407.0 706.25,407.0 706.25,409.0 704.25,409.0"/>
<polygon class="l69d44" points="708.25,407.0 710.25,407.0 710.25,409.0 708.25,409.0"/>
<polygon class="l69d44" points="712.2500000000001,407.0 714.25,407.0 714.25,409.0 712.2500000000001,409.0"/>
<polygon class="l69d44" points="716.25,407.0 718.25,407.0 718.25,409.0 716.25,409.0"/>
<polygon class="l69d44" points="235.6,379.80000000000007 237.60000000000002,379.80000000000007 237.60000000000002,381.8 235.6,381.8"/>
<polygon class="l69d44" points="239.60000000000002,379.80000000000007 241.6,379.80000000000007 241.6,381.8 239.60000000000002,381.8"/>
<polygon class="l69d44" points="243.6,379.80000000000007 245.60000000000002,379.80000000000007 245.60000000000002,381.8 243.6,381.8"/>
<polygon class="l69d44" points="247.60000000000002,379.80000000000007 249.60000000000002,379.80000000000007 249.60000000000002,381.8 247.60000000000002,381.8"/>
<polygon class="l69d44" points="423.05,379.80000000000007 425.05,379.80000000000007 425.05,381.8 423.05,381.8"/>
<polygon class="l69d44" points="427.04999999999995,379.80000000000007 429.05,379.80000000000007 429.05,381.8 427.04999999999995,381.8"/>
<polygon class="l69d44" points="431.05000000000007,379.80000000000007 433.05,379.80000000000007 433.05,381.8 431.05000000000007,381.8"/>
<polygon class="l69d44" points="435.05,379.80000000000007 437.04999999999995,379.80000000000007 437.04999999999995,381.8 435.05,381.8"/>
<polygon class="l69d44" points="610.5,379.80000000000007 612.5,379.80000000000007 612.5,381.8 610.5,381.8"/>
<polygon class="l69d44" points="614.5,379.80000000000007 616.5,379.80000000000007 616.5,381.8 614.5,381.8"/>
<polygon class="l69d44" points="618.5,379.80000000000007 620.5,379.80000000000007 620.5,381.8 618.5,381.8"/>
<polygon class="l69d44" points="622.5,379.80000000000007 624.5,379.80000000000007 624.5,381.8 622.5,381.8"/>
<polygon class="l69d44" points="797.95,379.80000000000007 799.95,379.80000000000007 799.95,381.8 797.95,381.8"/>
<polygon class="l69d44" points="801.95,379.80000000000007 803.9499999999999,379.80000000000007 803.9499999999999,381.8 801.95,381.8"/>
<polygon class="l69d44" points="805.95,379.80000000000007 807.95,379.80000000000007 807.95,381.8 805.95,381.8"/>
<polygon class="l69d44" points="809.95,379.80000000000007 811.95,379.80000000000007 811.95,381.8 809.95,381.8"/>
<polygon class="l69d44" points="141.9,352.59999999999997 143.9,352.59999999999997 143.9,354.6 141.9,354.6"/>
<polygon class="l69d44" points="145.9,352.59999999999997 147.9,352.59999999999997 147.9,354.6 145.9,354.6"/>
<polygon class="l69d44" points="149.9,352.59999999999997 151.9,352.59999999999997 151.9,354.6 149.9,354.6"/>
<polygon class="l69d44" points="153.9,352.59999999999997 155.9,352.59999999999997 155.9,354.6 153.9,354.6"/>
<polygon class="l69d44" points="329.35,352.59999999999997 331.34999999999997,352.59999999999997 331.34999999999997,354.6 329.35,354.6"/>
<polygon class="l69d44" points="333.35,352.59999999999997 335.35,352.59999999999997 335.35,354.6 333.35,354.6"/>
<polygon class="l69d44" points="337.35,352.59999999999997 339.35,352.59999999999997 339.35,354.6 337.35,354.6"/>
<polygon class="l69d44" points="341.34999999999997,352.59999999999997 343.35,352.59999999999997 343.35,354.6 341.34999999999997,354.6"/>
<polygon class="l69d44" points="516.8,352.59999999999997 518.8000000000001,352.59999999999997 518.8000000000001,354.6 516.8,354.6"/>
<polygon class="l69d44" points="520.8,352.59999999999997 522.8,352.59999999999997 522.8,354.6 520.8,354.6"/>
<polygon class="l69d44" points="524.8000000000001,352.59999999999997 526.8,352.59999999999997 526.8,354.6 524.8000000000001,354.6"/>
<polygon class="l69d44" points="528.8000000000001,352.59999999999997 530.8,352.59999999999997 530.8,354.6 528.8000000000001,354.6"/>
<polygon class="l69d44" points="704.25,352.59999999999997 706.25,352.59999999999997 706.25,354.6 704.25,354.6"/>
<polygon class="l69d44" points="708.25,352.59999999999997 710.25,352.59999999999997 710.25,354.6 708.25,354.6"/>
<polygon class="l69d44" points="712.2500000000001,352.59999999999997 714.25,352.59999999999997 714.25,354.6 712.2500000000001,354.6"/>
<polygon class="l69d44" points="716.25,352.59999999999997 718.25,352.59999999999997 718.25,354.6 716.25,354.6"/>
<polygon class="l69d44" points="235.6,325.4 237.60000000000002,325.4 237.60000000000002,327.40000000000003 235.6,327.40000000000003"/>
<polygon class="l69d44" points="239.60000000000002,325.4 241.6,325.4 241.6,327.40000000000003 239.60000000000002,327.40000000000003"/>
<polygon class="l69d44" points="243.6,325.4 245.60000000000002,325.4 245.60000000000002,327.40000000000003 243.6,327.40000000000003"/>
<polygon class="l69d44" points="247.60000000000002,325.4 249.60000000000002,325.4 249.60000000000002,327.40000000000003 247.60000000000002,327.40000000000003"/>
<polygon class="l69d44" points="423.05,325.4 425.05,325.4 425.05,327.40000000000003 423.05,327.40000000000003"/>
<polygon class="l69d44" points="427.04999999999995,325.4 429.05,325.4 429.05,327.40000000000003 427.04999999999995,327.40000000000003"/>
<polygon class="l69d44" points="431.05000000000007,325.4 433.05,325.4 433.05,327.40000000000003 431.05000000000007,327.40000000000003"/>
<polygon class="l69d44" points="435.05,325.4 437.04999999999995,325.4 437.04999999999995,327.40000000000003 435.05,327.40000000000003"/>
<polygon class="l69d44" points="610.5,325.4 612.5,325.4 612.5,327.40000000000003 610.5,327.40000000000003"/>
<polygon class="l69d44" points="614.5,325.4 616.5,325.4 616.5,327.40000000000003 614.5,327.40000000000003"/>
<polygon class="l69d44" points="618.5,325.4 620.5,325.4 620.5,327.40000000000003 618.5,327.40000000000003"/>
<polygon class="l69d44" points="622.5,325.4 624.5,325.4 624.5,327.40000000000003 622.5,327.40000000000003"/>
<polygon class="l69d44" points="797.95,325.4 799.95,325.4 799.95,327.40000000000003 797.95,327.40000000000003"/>
<polygon class="l69d44" points="801.95,325.4 803.9499999999999,325.4 803.9499999999999,327.40000000000003 801.95,327.40000000000003"/>
<polygon class="l69d44" points="805.95,325.4 807.95,325.4 807.95,327.40000000000003 805.95,327.40000000000003"/>
<polygon class="l69d44" points="809.95,325.4 811.95,325.4 811.95,327.40000000000003 809.95,327.40000000000003"/>
<polygon class="l69d44" points="141.9,298.2 143.9,298.2 143.9,300.2 141.9,300.2"/>
<polygon class="l69d44" points="145.9,298.2 147.9,298.2 147.9,300.2 145.9,300.2"/>
<polygon class="l69d44" points="149.9,298.2 151.9,298.2 151.9,300.2 149.9,300.2"/>
<polygon class="l69d44" points="153.9,298.2 155.9,298.2 155.9,300.2 153.9,300.2"/>
<polygon class="l69d44" points="329.35,298.2 331.34999999999997,298.2 331.34999999999997,300.2 329.35,300.2"/>
<polygon class="l69d44" points="333.35,298.2 335.35,298.2 335.35,300.2 333.35,300.2"/>
<polygon class="l69d44" points="337.35,298.2 339.35,298.2 339.35,300.2 337.35,300.2"/>
<polygon class="l69d44" points="341.34999999999997,298.2 343.35,298.2 343.35,300.2 341.34999999999997,300.2"/>
<polygon class="l69d44" points="516.8,298.2 518.8000000000001,298.2 518.8000000000001,300.2 516.8,300.2"/>
<polygon class="l69d44" points="520.8,298.2 522.8,298.2 522.8,300.2 520.8,300.2"/>
<polygon class="l69d44" points="524.8000000000001,298.2 526.8,298.2 526.8,300.2 524.8000000000001,300.2"/>
<polygon class="l69d44" points="528.8000000000001,298.2 530.8,298.2 530.8,300.2 528.8000000000001,300.2"/>
<polygon class="l69d44" points="704.25,298.2 706.25,298.2 706.25,300.2 704.25,300.2"/>
<polygon class="l69d44" points="708.25,298.2 710.25,298.2 710.25,300.2 708.25,300.2"/>
<polygon class="l69d44" points="712.2500000000001,298.2 714.25,298.2 714.25,300.2 712.2500000000001,300.2"/>
<polygon class="l69d44" points="716.25,298.2 718.25,298.2 718.25,300.2 716.25,300.2"/>
<polygon class="l69d44" points="235.6,271.0 237.60000000000002,271.0 237.60000000000002,273.0 235.6,273.0"/>
<polygon class="l69d44" points="239.60000000000002,271.0 241.6,271.0 241.6,273.0 239.60000000000002,273.0"/>
<polygon class="l69d44" points="243.6,271.0 245.60000000000002,271.0 245.60000000000002,273.0 243.6,273.0"/>
<polygon class="l69d44" points="247.60000000000002,271.0 249.60000000000002,271.0 249.60000000000002,273.0 247.60000000000002,273.0"/>
<polygon class="l69d44" points="423.05,271.0 425.05,271.0 425.05,273.0 423.05,273.0"/>
<polygon class="l69d44" points="427.04999999999995,271.0 429.05,271.0 429.05,273.0 427.04999999999995,273.0"/>
<polygon class="l69d44" points="431.05000000000007,271.0 433.05,271.0 433.05,273.0 431.05000000000007,273.0"/>
<polygon class="l69d44" points="435.05,271.0 437.04999999999995,271.0 437.04999999999995,273.0 435.05,273.0"/>
<polygon class="l69d44" points="610.5,271.0 612.5,271.0 612.5,273.0 610.5,273.0"/>
<polygon class="l69d44" points="614.5,271.0 616.5,271.0 616.5,273.0 614.5,273.0"/>
<polygon class="l69d44" points="618.5,271.0 620.5,271.0 620.5,273.0 618.5,273.0"/>
<polygon class="l69d44" points="622.5,271.0 624.5,271.0 624.5,273.0 622.5,273.0"/>
<polygon class="l69d44" points="797.95,271.0 799.95,271.0 799.95,273.0 797.95,273.0"/>
<polygon class="l69d44" points="801.95,271.0 803.9499999999999,271.0 803.9499999999999,273.0 801.95,273.0"/>
<polygon class="l69d44" points="805.95,271.0 807.95,271.0 807.95,273.0 805.95,273.0"/>
<polygon class="l69d44" points="809.95,271.0 811.95,271.0 811.95,273.0 809.95,273.0"/>
<polygon class="l69d44" points="141.9,243.79999999999998 143.9,243.79999999999998 143.9,245.8 141.9,245.8"/>
<polygon class="l69d44" points="145.9,243.79999999999998 147.9,243.79999999999998 147.9,245.8 145.9,245.8"/>
<polygon class="l69d44" points="149.9,243.79999999999998 151.9,243.79999999999998 151.9,245.8 149.9,245.8"/>
<polygon class="l69d44" points="153.9,243.79999999999998 155.9,243.79999999999998 155.9,245.8 153.9,245.8"/>
<polygon class="l69d44" points="329.35,243.79999999999998 331.34999999999997,243.79999999999998 331.34999999999997,245.8 329.35,245.8"/>
<polygon class="l69d44" points="333.35,243.79999999999998 335.35,243.79999999999998 335.35,245.8 333.35,245.8"/>
<polygon class="l69d44" points="337.35,243.79999999999998 339.35,243.79999999999998 339.35,245.8 337.35,245.8"/>
<polygon class="l69d44" points="341.34999999999997,243.79999999999998 343.35,243.79999999999998 343.35,245.8 341.34999999999997,245.8"/>
<polygon class="l69d44" points="516.8,243.79999999999998 518.8000000000001,243.79999999999998 518.8000000000001,245.8 516.8,245.8"/>
<polygon class="l69d44" points="520.8,243.79999999999998 522.8,243.79999999999998 522.8,245.8 520.8,245.8"/>
<polygon class="l69d44" points="524.8000000000001,243.79999999999998 526.8,243.79999999999998 526.8,245.8 524.8000000000001,245.8"/>
<polygon class="l69d44" points="528.8000000000001,243.79999999999998 530.8,243.79999999999998 530.8,245.8 528.8000000000001,245.8"/>
<polygon class="l69d44" points="704.25,243.79999999999998 706.25,243.79999999999998 706.25,245.8 704.25,245.8"/>
<polygon class="l69d44" points="708.25,243.79999999999998 710.25,243.79999999999998 710.25,245.8 708.25,245.8"/>
<polygon class="l69d44" points="712.2500000000001,243.79999999999998 714.25,243.79999999999998 714.25,245.8 712.2500000000001,245.8"/>
<polygon class="l69d44" points="716.25,243.79999999999998 718.25,243.79999999999998 718.25,245.8 716.25,245.8"/>
<polygon class="l69d44" points="235.6,216.6 237.60000000000002,216.6 237.60000000000002,218.6 235.6,218.6"/>
<polygon class="l69d44" points="239.60000000000002,216.6 241.6,216.6 241.6,218.6 239.60000000000002,218.6"/>
<polygon class="l69d44" points="243.6,216.6 245.60000000000002,216.6 245.60000000000002,218.6 243.6,218.6"/>
<polygon class="l69d44" points="247.60000000000002,216.6 249.60000000000002,216.6 249.60000000000002,218.6 247.60000000000002,218.6"/>
<polygon class="l69d44" points="423.05,216.6 425.05,216.6 425.05,218.6 423.05,218.6"/>
<polygon class="l69d44" points="427.04999999999995,216.6 429.05,216.6 429.05,218.6 427.04999999999995,218.6"/>
<polygon class="l69d44" points="431.05000000000007,216.6 433.05,216.6 433.05,218.6 431.05000000000007,218.6"/>
<polygon class="l69d44" points="435.05,216.6 437.04999999999995,216.6 437.04999999999995,218.6 435.05,218.6"/>
<polygon class="l69d44" points="610.5,216.6 612.5,216.6 612.5,218.6 610.5,218.6"/>
<polygon class="l69d44" points="614.5,216.6 616.5,216.6 616.5,218.6 614.5,218.6"/>
<polygon class="l69d44" points="618.5,216.6 620.5,216.6 620.5,218.6 618.5,218.6"/>
<polygon class="l69d44" points="622.5,216.6 624.5,216.6 624.5,218.6 622.5,218.6"/>
<polygon class="l69d44" points="797.95,216.6 799.95,216.6 799.95,218.6 797.95,218.6"/>
<polygon class="l69d44" points="801.95,216.6 803.9499999999999,216.6 803.9499999999999,218.6 801.95,218.6"/>
<polygon class="l69d44" points="805.95,216.6 807.95,216.6 807.95,218.6 805.95,218.6"/>
<polygon class="l69d44" points="809.95,216.6 811.95,216.6 811.95,218.6 809.95,218.6"/>
<polygon class="l69d44" points="141.9,189.4 143.9,189.4 143.9,191.4 141.9,191.4"/>
<polygon class="l69d44" points="145.9,189.4 147.9,189.4 147.9,191.4 145.9,191.4"/>
<polygon class="l69d44" points="149.9,189.4 151.9,189.4 151.9,191.4 149.9,191.4"/>
<polygon class="l69d44" points="153.9,189.4 155.9,189.4 155.9,191.4 153.9,191.4"/>
<polygon class="l69d44" points="329.35,189.4 331.34999999999997,189.4 331.34999999999997,191.4 329.35,191.4"/>
<polygon class="l69d44" points="333.35,189.4 335.35,189.4 335.35,191.4 333.35,191.4"/>
<polygon class="l69d44" points="337.35,189.4 339.35,189.4 339.35,191.4 337.35,191.4"/>
<polygon class="l69d44" points="341.34999999999997,189.4 343.35,189.4 343.35,191.4 341.34999999999997,191.4"/>
<polygon class="l69d44" points="516.8,189.4 518.8000000000001,189.4 518.8000000000001,191.4 516.8,191.4"/>
<polygon class="l69d44" points="520.8,189.4 522.8,189.4 522.8,191.4 520.8,191.4"/>
<polygon class="l69d44" points="524.8000000000001,189.4 526.8,189.4 526.8,191.4 524.8000000000001,191.4"/>
<polygon class="l69d44" points="528.8000000000001,189.4 530.8,189.4 530.8,191.4 528.8000000000001,191.4"/>
<polygon class="l69d44" points="704.25,189.4 706.25,189.4 706.25,191.4 704.25,191.4"/>
<polygon class="l69d44" points="708.25,189.4 710.25,189.4 710.25,191.4 708.25,191.4"/>
<polygon class="l69d44" points="712.2500000000001,189.4 714.25,189.4 714.25,191.4 712.2500000000001,191.4"/>
<polygon class="l69d44" points="716.25,189.4 718.25,189.4 718.25,191.4 716.25,191.4"/>
<polygon class="l69d44" points="235.6,162.2 237.60000000000002,162.2 237.60000000000002,164.20000000000002 235.6,164.20000000000002"/>
<polygon class="l69d44" points="239.60000000000002,162.2 241.6,162.2 241.6,164.20000000000002 239.60000000000002,164.20000000000002"/>
<polygon class="l69d44" points="243.6,162.2 245.60000000000002,162.2 245.60000000000002,164.20000000000002 243.6,164.20000000000002"/>
<polygon class="l69d44" points="247.60000000000002,162.2 249.60000000000002,162.2 249.60000000000002,164.20000000000002 247.60000000000002,164.20000000000002"/>
<polygon class="l69d44" points="423.05,162.2 425.05,162.2 425.05,164.20000000000002 423.05,164.20000000000002"/>
<polygon class="l69d44" points="427.04999999999995,162.2 429.05,162.2 429.05,164.20000000000002 427.04999999999995,164.20000000000002"/>
<polygon class="l69d44" points="431.05000000000007,162.2 433.05,162.2 433.05,164.20000000000002 431.05000000000007,164.20000000000002"/>
<polygon class="l69d44" points="435.05,162.2 437.04999999999995,162.2 437.04999999999995,164.20000000000002 435.05,164.20000000000002"/>
<polygon class="l69d44" points="610.5,162.2 612.5,162.2 612.5,164.20000000000002 610.5,164.20000000000002"/>
<polygon class="l69d44" points="614.5,162.2 616.5,162.2 616.5,164.20000000000002 614.5,164.20000000000002"/>
<polygon class="l69d44" points="618.5,162.2 620.5,162.2 620.5,164.20000000000002 618.5,164.20000000000002"/>
<polygon class="l69d44" points="622.5,162.2 624.5,162.2 624.5,164.20000000000002 622.5,164.20000000000002"/>
<polygon class="l69d44" points="797.95,162.2 799.95,162.2 799.95,164.20000000000002 797.95,164.20000000000002"/>
<polygon class="l69d44" points="801.95,162.2 803.9499999999999,162.2 803.9499999999999,164.20000000000002 801.95,164.20000000000002"/>
<polygon class="l69d44" points="805.95,162.2 807.95,162.2 807.95,164.20000000000002 805.95,164.20000000000002"/>
<polygon class="l69d44" points="809.95,162.2 811.95,162.2 811.95,164.20000000000002 809.95,164.20000000000002"/>
<polygon class="l69d44" points="141.9,135.0 143.9,135.0 143.9,137.0 141.9,137.0"/>
<polygon class="l69d44" points="145.9,135.0 147.9,135.0 147.9,137.0 145.9,137.0"/>
<polygon class="l69d44" points="149.9,135.0 151.9,135.0 151.9,137.0 149.9,137.0"/>
<polygon class="l69d44" points="153.9,135.0 155.9,135.0 155.9,137.0 153.9,137.0"/>
<polygon class="l69d44" points="329.35,135.0 331.34999999999997,135.0 331.34999999999997,137.0 329.35,137.0"/>
<polygon class="l69d44" points="333.35,135.0 335.35,135.0 335.35,137.0 333.35,137.0"/>
<polygon class="l69d44" points="337.35,135.0 339.35,135.0 339.35,137.0 337.35,137.0"/>
<polygon class="l69d44" points="341.34999999999997,135.0 343.35,135.0 343.35,137.0 341.34999999999997,137.0"/>
<polygon class="l69d44" points="516.8,135.0 518.8000000000001,135.0 518.8000000000001,137.0 516.8,137.0"/>
<polygon class="l69d44" points="520.8,135.0 522.8,135.0 522.8,137.0 520.8,137.0"/>
<polygon class="l69d44" points="524.8000000000001,135.0 526.8,135.0 526.8,137.0 524.8000000000001,137.0"/>
<polygon class="l69d44" points="528.8000000000001,135.0 530.8,135.0 530.8,137.0 528.8000000000001,137.0"/>
<polygon class="l69d44" points="704.25,135.0 706.25,135.0 706.25,137.0 704.25,137.0"/>
<polygon class="l69d44" points="708.25,135.0 710.25,135.0 710.25,137.0 708.25,137.0"/>
<polygon class="l69d44" points="712.2500000000001,135.0 714.25,135.0 714.25,137.0 712.2500000000001,137.0"/>
<polygon class="l69d44" points="716.25,135.0 718.25,135.0 718.25,137.0 716.25,137.0"/>
<polygon class="l69d44" points="235.6,107.8 237.60000000000002,107.8 237.60000000000002,109.80000000000001 235.6,109.80000000000001"/>
<polygon class="l69d44" points="239.60000000000002,107.8 241.6,107.8 241.6,109.80000000000001 239.60000000000002,109.80000000000001"/>
<polygon class="l69d44" points="243.6,107.8 245.60000000000002,107.8 245.60000000000002,109.80000000000001 243.6,109.80000000000001"/>
<polygon class="l69d44" points="247.60000000000002,107.8 249.60000000000002,107.8 249.60000000000002,109.80000000000001 247.60000000000002,109.80000000000001"/>
<polygon class="l69d44" points="423.05,107.8 425.05,107.8 425.05,109.80000000000001 423.05,109.80000000000001"/>
<polygon class="l69d44" points="427.04999999999995,107.8 429.05,107.8 429.05,109.80000000000001 427.04999999999995,109.80000000000001"/>
<polygon class="l69d44" points="431.05000000000007,107.8 433.05,107.8 433.05,109.80000000000001 431.05000000000007,109.80000000000001"/>
<polygon class="l69d44" points="435.05,107.8 437.04999999999995,107.8 437.04999999999995,109.80000000000001 435.05,109.80000000000001"/>
<polygon class="l69d44" points="610.5,107.8 612.5,107.8 612.5,109.80000000000001 610.5,109.80000000000001"/>
<polygon class="l69d44" points="614.5,107.8 616.5,107.8 616.5,109.80000000000001 614.5,109.80000000000001"/>
<polygon class="l69d44" points="618.5,107.8 620.5,107.8 620.5,109.80000000000001 618.5,109.80000000000001"/>
<polygon class="l69d44" points="622.5,107.8 624.5,107.8 624.5,109.80000000000001 622.5,109.80000000000001"/>
<polygon class="l69d44" points="797.95,107.8 799.95,107.8 799.95,109.80000000000001 797.95,109.80000000000001"/>
<polygon class="l69d44" points="801.95,107.8 803.9499999999999,107.8 803.9499999999999,109.80000000000001 801.95,109.80000000000001"/>
<polygon class="l69d44" points="805.95,107.8 807.95,107.8 807.95,109.80000000000001 805.95,109.80000000000001"/>
<polygon class="l69d44" points="809.95,107.8 811.95,107.8 811.95,109.80000000000001 809.95,109.80000000000001"/>
<polygon class="l0d0" points="0.0,0.0 0.0,968.45 861.25,968.45 861.25,0.0"/>
</g>
</svg>