<?xml version="1.0" encoding="UTF-8"?>
<svg xmlns="http://www.w3.org/2000/svg" xmlns:xlink="http://www.w3.org/1999/xlink"
     width="958.095" height="1065.295" viewBox="-48.4225 -1016.8725000000001 958.095 1065.295">
<defs>
<style type="text/css">
.l70d20 {stroke: rgb(21, 128, 128); fill: rgb(21, 128, 128); fill-opacity: 0.5;}
.l0d0 {fill: none;}
</style>
</defs>
<rect x="-48.4225" y="-1016.8725000000001" width="958.095" height="1065.295" fill="white" stroke="none"/>
<g id="met3" transform="scale(1 -1)">
<polygon class="l70d20" points="141.0,841.55 156.8,841.55 156.8,844.85 141.0,844.85"/>
<polygon class="l70d20" points="328.45,841.55 344.25000000000006,841.55 344.25000000000006,844.85 328.45,844.85"/>
<polygon class="l70d20" points="515.9000000000001,841.55 531.7,841.55 531.7,844.85 515.9000000000001,844.85"/>
<polygon class="l70d20" points="703.3500000000001,841.55 719.1500000000001,841.55 719.1500000000001,844.85 703.3500000000001,844.85"/>
<polygon class="l70d20" points="234.7,814.35 250.5,814.35 250.5,817.65 234.7,817.65"/>
<polygon class="l70d20" points="422.15000000000003,814.35 437.95000000000005,814.35 437.95000000000005,817.65 422.15000000000003,817.65"/>
<polygon class="l70d20" points="609.6,814.35 625.4,814.35 625.4,817.65 609.6,817.65"/>
<polygon class="l70d20" points="797.05,814.35 812.8499999999999,814.35 812.8499999999999,817.65 797.05,817.65"/>
<polygon class="l70d20" points="141.0,787.1500000000001 156.8,787.1500000000001 156.8,790.45 141.0,790.45"/>
<polygon class="l70d20" points="328.45,787.1500000000001 344.25000000000006,787.1500000000001 344.25000000000006,790.45 328.45,790.45"/>
<polygon class="l70d20" points="515.9000000000001,787.1500000000001 531.7,787.1500000000001 531.7,790.45 515.9000000000001,790.45"/>
<polygon class="l70d20" points="703.3500000000001,787.1500000000001 719.1500000000001,787.1500000000001 719.1500000000001,790.45 703.3500000000001,790.45"/>
<polygon class="l70d20" points="234.7,759.95 250.5,759.95 250.5,763.25 234.7,763.25"/>
<polygon class="l70d20" points="422.15000000000003,759.95 437.95000000000005,759.95 437.95000000000005,763.25 422.15000000000003,763.25"/>
<polygon class="l70d20" points="609.6,759.95 625.4,759.95 625.4,763.25 609.6,763.25"/>
<polygon class="l70d20" points="797.05,759.95 812.8499999999999,759.95 812.8499999999999,763.25 797.05,763.25"/>
<polygon class="l70d20" points="0.0,752.9000000000001 40.0,752.9000000000001 40.0,754.4 0.0,754.4"/>
<polygon class="l70d20" points="193.85000000000002,752.9000000000001 197.15,752.9000000000001 197.15,753.0500000000001 193.85000000000002,753.0500000000001"/>
<polygon class="l70d20" points="0.0,749.9 197.15,749.9 197.15,752.9000000000001 0.0,752.9000000000001"/>
<polygon class="l70d20" points="0.0,748.4000000000001 40.0,748.4000000000001 40.0,749.9 0.0,749.9"/>
<polygon class="l70d20" points="193.85000000000002,749.7500000000001 197.15,749.7500000000001 197.15,749.9 193.85000000000002,749.9"/>
<polygon class="l70d20" points="141.0,732.75 156.8,732.75 156.8,736.0500000000001 141.0,736.0500000000001"/>
<polygon class="l70d20" points="328.45,732.75 344.25000000000006,732.75 344.25000000000006,736.0500000000001 328.45,736.0500000000001"/>
<polygon class="l70d20" points="515.9000000000001,732.75 531.7,732.75 531.7,736.0500000000001 515.9000000000001,736.0500000000001"/>
<polygon class="l70d20" points="703.3500000000001,732.75 719.1500000000001,732.75 719.1500000000001,736.0500000000001 703.3500000000001,736.0500000000001"/>
<polygon class="l70d20" points="234.7,705.5500000000001 250.5,705.5500000000001 250.5,708.85 234.7,708.85"/>
<polygon class="l70d20" points="422.15000000000003,705.5500000000001 437.95000000000005,705.5500000000001 437.95000000000005,708.85 422.15000000000003,708.85"/>
<polygon class="l70d20" points="609.6,705.5500000000001 625.4,705.5500000000001 625.4,708.85 609.6,708.85"/>
<polygon class="l70d20" points="797.05,705.5500000000001 812.8499999999999,705.5500000000001 812.8499999999999,708.85 797.05,708.85"/>
<polygon class="l70d20" points="141.0,678.3500000000001 156.8,678.3500000000001 156.8,681.6500000000001 141.0,681.6500000000001"/>
<polygon class="l70d20" points="328.45,678.3500000000001 344.25000000000006,678.3500000000001 344.25000000000006,681.6500000000001 328.45,681.6500000000001"/>
<polygon class="l70d20" points="515.9000000000001,678.3500000000001 531.7,678.3500000000001 531.7,681.6500000000001 515.9000000000001,681.6500000000001"/>
<polygon class="l70d20" points="703.3500000000001,678.3500000000001 719.1500000000001,678.3500000000001 719.1500000000001,681.6500000000001 703.3500000000001,681.6500000000001"/>
<polygon class="l70d20" points="234.7,651.15 250.5,651.15 250.5,654.45 234.7,654.45"/>
<polygon class="l70d20" points="422.15000000000003,651.15 437.95000000000005,651.15 437.95000000000005,654.45 422.15000000000003,654.45"/>
<polygon class="l70d20" points="609.6,651.15 625.4,651.15 625.4,654.45 609.6,654.45"/>
<polygon class="l70d20" points="797.05,651.15 812.8499999999999,651.15 812.8499999999999,654.45 797.05,654.45"/>
<polygon class="l70d20" points="141.0,623.95 156.8,623.95 156.8,627.25 141.0,627.25"/>
<polygon class="l70d20" points="328.45,623.95 344.25000000000006,623.95 344.25000000000006,627.25 328.45,627.25"/>
<polygon class="l70d20" points="515.9000000000001,623.95 531.7,623.95 531.7,627.25 515.9000000000001,627.25"/>
<polygon class="l70d20" points="703.3500000000001,623.95 719.1500000000001,623.95 719.1500000000001,627.25 703.3500000000001,627.25"/>
<polygon class="l70d20" points="234.7,596.75 250.5,596.75 250.5,600.0500000000001 234.7,600.0500000000001"/>
<polygon class="l70d20" points="422.15000000000003,596.75 437.95000000000005,596.75 437.95000000000005,600.0500000000001 422.15000000000003,600.0500000000001"/>
<polygon class="l70d20" points="609.6,596.75 625.4,596.75 625.4,600.0500000000001 609.6,600.0500000000001"/>
<polygon class="l70d20" points="797.05,596.75 812.8499999999999,596.75 812.8499999999999,600.0500000000001 797.05,600.0500000000001"/>
<polygon class="l70d20" points="778.0500000000001,582.9 781.35,582.9 781.35,583.05 778.0500000000001,583.05"/>
<polygon class="l70d20" points="821.25,582.9 861.25,582.9 861.25,584.4 821.25,584.4"/>
<polygon class="l70d20" points="778.0500000000001,579.9 861.25,579.9 861.25,582.9 778.0500000000001,582.9"/>
<polygon class="l70d20" points="778.0500000000001,579.75 781.35,579.75 781.35,579.9 778.0500000000001,579.9"/>
<polygon class="l70d20" points="821.25,578.4000000000001 861.25,578.4000000000001 861.25,579.9 821.25,579.9"/>
<polygon class="l70d20" points="141.0,569.55 156.8,569.55 156.8,572.85 141.0,572.85"/>
<polygon class="l70d20" points="328.45,569.55 344.25000000000006,569.55 344.25000000000006,572.85 328.45,572.85"/>
<polygon class="l70d20" points="515.9000000000001,569.55 531.7,569.55 531.7,572.85 515.9000000000001,572.85"/>
<polygon class="l70d20" points="703.3500000000001,569.55 719.1500000000001,569.55 719.1500000000001,572.85 703.3500000000001,572.85"/>
<polygon class="l70d20" points="234.7,542.35 250.5,542.35 250.5,545.65 234.7,545.65"/>
<polygon class="l70d20" points="422.15000000000003,542.35 437.95000000000005,542.35 437.95000000000005,545.65 422.15000000000003,545.65"/>
<polygon class="l70d20" points="609.6,542.35 625.4,542.35 625.4,545.65 609.6,545.65"/>
<polygon class="l70d20" points="797.05,542.35 812.8499999999999,542.35 812.8499999999999,545.65 797.05,545.65"/>
<polygon class="l70d20" points="141.0,515.15 156.8,515.15 156.8,518.45 141.0,518.45"/>
<polygon class="l70d20" points="328.45,515.15 344.25000000000006,515.15 344.25000000000006,518.45 328.45,518.45"/>
<polygon class="l70d20" points="515.9000000000001,515.15 531.7,515.15 531.7,518.45 515.9000000000001,518.45"/>
<polygon class="l70d20" points="703.3500000000001,515.15 719.1500000000001,515.15 719.1500000000001,518.45 703.3500000000001,518.45"/>
<polygon class="l70d20" points="234.7,487.95000000000005 250.5,487.95000000000005 250.5,491.25 234.7,491.25"/>
<polygon class="l70d20" points="422.15000000000003,487.95000000000005 437.95000000000005,487.95000000000005 437.95000000000005,491.25 422.15000000000003,491.25"/>
<polygon class="l70d20" points="609.6,487.95000000000005 625.4,487.95000000000005 625.4,491.25 609.6,491.25"/>
<polygon class="l70d20" points="797.05,487.95000000000005 812.8499999999999,487.95000000000005 812.8499999999999,491.25 797.05,491.25"/>
<polygon class="l70d20" points="141.0,460.75 156.8,460.75 156.8,464.05 141.0,464.05"/>
<polygon class="l70d20" points="328.45,460.75 344.25000000000006,460.75 344.25000000000006,464.05 328.45,464.05"/>
<polygon class="l70d20" points="515.9000000000001,460.75 531.7,460.75 531.7,464.05 515.9000000000001,464.05"/>
<polygon class="l70d20" points="703.3500000000001,460.75 719.1500000000001,460.75 719.1500000000001,464.05 703.3500000000001,464.05"/>
<polygon class="l70d20" points="234.7,433.55000000000007 250.5,433.55000000000007 250.5,436.85 234.7,436.85"/>
<polygon class="l70d20" points="422.15000000000003,433.55000000000007 437.95000000000005,433.55000000000007 437.95000000000005,436.85 422.15000000000003,436.85"/>
<polygon class="l70d20" points="609.6,433.55000000000007 625.4,433.55000000000007 625.4,436.85 609.6,436.85"/>
<polygon class="l70d20" points="797.05,433.55000000000007 812.8499999999999,433.55000000000007 812.8499999999999,436.85 797.05,436.85"/>
<polygon class="l70d20" points="141.0,406.34999999999997 156.8,406.34999999999997 156.8,409.65000000000003 141.0,409.65000000000003"/>
<polygon class="l70d20" points="328.45,406.34999999999997 344.25000000000006,406.34999999999997 344.25000000000006,409.65000000000003 328.45,409.65000000000003"/>
<polygon class="l70d20" points="515.9000000000001,406.34999999999997 531.7,406.34999999999997 531.7,409.65000000000003 515.9000000000001,409.65000000000003"/>
<polygon class="l70d20" points="703.3500000000001,406.34999999999997 719.1500000000001,406.34999999999997 719.1500000000001,409.65000000000003 703.3500000000001,409.65000000000003"/>
<polygon class="l70d20" points="234.7,379.15 250.5,379.15 250.5,382.45 234.7,382.45"/>
<polygon class="l70d20" points="422.15000000000003,379.15 437.95000000000005,379.15 437.95000000000005,382.45 422.15000000000003,382.45"/>
<polygon class="l70d20" points="609.6,379.15 625.4,379.15 625.4,382.45 609.6,382.45"/>
<polygon class="l70d20" points="797.05,379.15 812.8499999999999,379.15 812.8499999999999,382.45 797.05,382.45"/>
<polygon class="l70d20" points="141.0,351.95 156.8,351.95 156.8,355.25 141.0,355.25"/>
<polygon class="l70d20" points="328.45,351.95 344.25000000000006,351.95 344.25000000000006,355.25 328.45,355.25"/>
<polygon class="l70d20" points="515.9000000000001,351.95 531.7,351.95 531.7,355.25 515.9000000000001,355.25"/>
<polygon class="l70d20" points="703.3500000000001,351.95 719.1500000000001,351.95 719.1500000000001,355.25 703.3500000000001,355.25"/>
<polygon class="l70d20" points="234.7,324.75 250.5,324.75 250.5,328.05 234.7,328.05"/>
<polygon class="l70d20" points="422.15000000000003,324.75 437.95000000000005,324.75 437.95000000000005,328.05 422.15000000000003,328.05"/>
<polygon class="l70d20" points="609.6,324.75 625.4,324.75 625.4,328.05 609.6,328.05"/>
<polygon class="l70d20" points="797.05,324.75 812.8499999999999,324.75 812.8499999999999,328.05 797.05,328.05"/>
<polygon class="l70d20" points="141.0,297.55 156.8,297.55 156.8,300.85 141.0,300.85"/>
<polygon class="l70d20" points="328.45,297.55 344.25000000000006,297.55 344.25000000000006,300.85 328.45,300.85"/>
<polygon class="l70d20" points="515.9000000000001,297.55 531.7,297.55 531.7,300.85 515.9000000000001,300.85"/>
<polygon class="l70d20" points="703.3500000000001,297.55 719.1500000000001,297.55 719.1500000000001,300.85 703.3500000000001,300.85"/>
<polygon class="l70d20" points="234.7,270.35 250.5,270.35 250.5,273.65000000000003 234.7,273.65000000000003"/>
<polygon class="l70d20" points="422.15000000000003,270.35 437.95000000000005,270.35 437.95000000000005,273.65000000000003 422.15000000000003,273.65000000000003"/>
<polygon class="l70d20" points="609.6,270.35 625.4,270.35 625.4,273.65000000000003 609.6,273.65000000000003"/>
<polygon class="l70d20" points="797.05,270.35 812.8499999999999,270.35 812.8499999999999,273.65000000000003 797.05,273.65000000000003"/>
<polygon class="l70d20" points="141.0,243.15 156.8,243.15 156.8,246.45 141.0,246.45"/>
<polygon class="l70d20" points="328.45,243.15 344.25000000000006,243.15 344.25000000000006,246.45 328.45,246.45"/>
<polygon class="l70d20" points="515.9000000000001,243.15 531.7,243.15 531.7,246.45 515.9000000000001,246.45"/>
<polygon class="l70d20" points="703.3500000000001,243.15 719.1500000000001,243.15 719.1500000000001,246.45 703.3500000000001,246.45"/>
<polygon class="l70d20" points="234.7,215.95 250.5,215.95 250.5,219.25 234.7,219.25"/>
<polygon class="l70d20" points="422.15000000000003,215.95 437.95000000000005,215.95 437.95000000000005,219.25 422.15000000000003,219.25"/>
<polygon class="l70d20" points="609.6,215.95 625.4,215.95 625.4,219.25 609.6,219.25"/>
<polygon class="l70d20" points="797.05,215.95 812.8499999999999,215.95 812.8499999999999,219.25 797.05,219.25"/>
<polygon class="l70d20" points="141.0,188.75 156.8,188.75 156.8,192.05 141.0,192.05"/>
<polygon class="l70d20" points="328.45,188.75 344.25000000000006,188.75 344.25000000000006,192.05 328.45,192.05"/>
<polygon class="l70d20" points="515.9000000000001,188.75 531.7,188.75 531.7,192.05 515.9000000000001,192.05"/>
<polygon class="l70d20" points="703.3500000000001,188.75 719.1500000000001,188.75 719.1500000000001,192.05 703.3500000000001,192.05"/>
<polygon class="l70d20" points="234.7,161.55 250.5,161.55 250.5,164.85 234.7,164.85"/>
<polygon class="l70d20" points="422.15000000000003,161.55 437.95000000000005,161.55 437.95000000000005,164.85 422.15000000000003,164.85"/>
<polygon class="l70d20" points="609.6,161.55 625.4,161.55 625.4,164.85 609.6,164.85"/>
<polygon class="l70d20" points="797.05,161.55 812.8499999999999,161.55 812.8499999999999,164.85 797.05,164.85"/>
<polygon class="l70d20" points="141.0,134.35 156.8,134.35 156.8,137.65 141.0,137.65"/>
<polygon class="l70d20" points="328.45,134.35 344.25000000000006,134.35 344.25000000000006,137.65 328.45,137.65"/>
<polygon class="l70d20" points="515.9000000000001,134.35 531.7,134.35 531.7,137.65 515.9000000000001,137.65"/>
<polygon class="l70d20" points="703.3500000000001,134.35 719.1500000000001,134.35 719.1500000000001,137.65 703.3500000000001,137.65"/>
<polygon class="l70d20" points="234.7,107.15 250.5,107.15 250.5,110.45 234.7,110.45"/>
<polygon class="l70d20" points="422.15000000000003,107.15 437.95000000000005,107.15 437.95000000000005,110.45 422.15000000000003,110.45"/>
<polygon class="l70d20" points="609.6,107.15 625.4,107.15 625.4,110.45 609.6,110.45"/>
<polygon class="l70d20" points="797.05,107.15 812.8499999999999,107.15 812.8499999999999,110.45 797.05,110.45"/>
<polygon class="l0d0" points="0.0,0.0 0.0,968.45 861.25,968.45 861.25,0.0"/>
</g>
</svg>