<svg id="Livello_1" data-name="Livello 1" xmlns="http://www.w3.org/2000/svg" viewBox="0 0 1002.62 769"><defs><style>.cls-1{fill:#fff;}.cls-2{fill:none;stroke:#f5f5f5;stroke-width:0.27px;}</style></defs><path id="path1612" class="cls-1" d="M238.8,84.88V119H182.28V377.12H133.83V119H77.31V84.88Z"/><path id="path1614" class="cls-1" d="M293.53,343H391v34.08H244.55V84.88H387.2V119H293.53v90.1h77.52v34.08H293.53Z"/><path id="path1616" class="cls-1" d="M540.78,84.88l-13.46,67.69H456.27L443.89,84.88H395.44l59.75,292.24h70.52L589.77,84.88ZM462.19,186.65h58.68l-30.69,154Z"/><path id="path1618" class="cls-1" d="M649.59,377.12H598.86V84.88h63.57L731.14,266l68.7-181.13h63.57V377.12H812.69V163.31L747.35,332.48l-42.54-18.85L649.59,163.78Z"/><path id="path1620" class="cls-1" d="M133.64,398.38h48.45V690.62H133.64Z"/><path id="path1622" class="cls-1" d="M390,398.38v34.08H336.52V690.62H288.07V432.46H244.5V398.38Z"/><path id="path1624" class="cls-1" d="M540.84,690.62l-13.45-67.69H456.33L444,690.62H395.5l59.76-292.24h70.51l64.06,292.24ZM462.25,588.85h58.67l-30.68-154Z"/><path id="path1626" class="cls-1" d="M648.67,656.54h86.64v34.08H598.21V398.38h50.46Z"/><g id="g1641"><path id="path1628" class="cls-1" d="M858.37,690.62h-49V598.19L649.59,163.78,731.14,266,833.6,559.44l44.14-161.06h49.53l-68.9,199.81Z"/></g><g id="layer2"><path id="path1688" class="cls-2" d="M371.11,110.26,308,47.18H181.86L150.32,15.64"/><path id="path1690" class="cls-2" d="M623.44,659.08l63.08,94.63H749.6"/><circle id="path1695" class="cls-1" cx="752.67" cy="753.23" r="15.77"/><path id="path1684" class="cls-2" d="M844.23,173.35l63.08-63.09h63.08"/><circle id="circle1697" class="cls-1" cx="972.52" cy="111.36" r="15.77"/><circle id="circle1746" class="cls-1" cx="986.85" cy="453.87" r="15.77"/><circle id="circle1699" class="cls-1" cx="148.89" cy="15.77" r="15.77"/><path id="path1686" class="cls-2" d="M150.32,640H87.24L55.7,671.55"/><circle id="circle1701" class="cls-1" cx="54.25" cy="671.71" r="15.77"/><path id="path1684-1" class="cls-2" d="M150.32,299.51H61.11L16.5,254.9"/><path id="circle1697-6" class="cls-1" d="M4.62,263.79a15.77,15.77,0,1,1,22.3,0A15.78,15.78,0,0,1,4.62,263.79Z"/><path id="path1744" class="cls-2" d="M888.39,488.76h63.08L983,457.22"/><path id="path1748" class="cls-2" d="M844.23,204.89,907.31,268v63.08"/><circle id="circle1752" class="cls-1" cx="907.2" cy="334.38" r="15.77"/></g><path class="cls-1" d="M153.43,723.63H146.6v-5.77a1.71,1.71,0,0,0-.35-1.26,1.85,1.85,0,0,0-1.29-.33h-2.77a1.88,1.88,0,0,0-1.3.33,1.71,1.71,0,0,0-.35,1.26V742a1.79,1.79,0,0,0,.35,1.27,2,2,0,0,0,1.3.32H145a2,2,0,0,0,1.29-.32,1.79,1.79,0,0,0,.35-1.27v-5.66h6.83v6.37q0,5.82-6.42,5.82h-6.88q-6.42,0-6.42-5.82V717.15q0-5.82,6.42-5.83H147q6.42,0,6.42,5.83Z"/><path class="cls-1" d="M171,748.47H164.2V736.69l-8.65-25.37h6.89l5.06,19.07,4.77-19.07h6.89L171,736.52Z"/><path class="cls-1" d="M182.16,711.32H196.3q6.4,0,6.41,5.83v8c0,2.48-.82,4-2.47,4.54q2.47.82,2.47,4.24v8.71q0,5.83-6.41,5.83H182.16ZM196,725.63v-7.77a1.71,1.71,0,0,0-.35-1.26,2,2,0,0,0-1.36-.33h-5.35v11h5.35a2.12,2.12,0,0,0,1.36-.32A1.77,1.77,0,0,0,196,725.63Zm0,16.31v-8.19a1.72,1.72,0,0,0-.35-1.26,2.12,2.12,0,0,0-1.36-.33h-5.35v11.37h5.35a2.06,2.06,0,0,0,1.36-.33A1.71,1.71,0,0,0,196,741.94Z"/><path class="cls-1" d="M214.9,743.29h11.3v5.18H208.07V711.32h17.66v5.19H214.9v10.3H224v5.24H214.9Z"/><path class="cls-1" d="M236.86,734v14.48h-6.77V711.32h13.66q6.42,0,6.42,5.83v11c0,3.22-1.44,5.1-4.3,5.65l6.18,14.66h-7.3L239.1,734Zm0-17.48V729h4.89a1.91,1.91,0,0,0,1.29-.32,1.68,1.68,0,0,0,.36-1.26v-9.31a1.74,1.74,0,0,0-.36-1.27,2,2,0,0,0-1.29-.31Z"/><path class="cls-1" d="M255.7,711.32h14.13q6.42,0,6.42,5.83v25.49q0,5.83-6.42,5.83H255.7Zm13.72,30.62V717.86a1.66,1.66,0,0,0-.36-1.26,1.85,1.85,0,0,0-1.29-.33h-5.3v27.26h5.3a1.91,1.91,0,0,0,1.29-.33A1.66,1.66,0,0,0,269.42,741.94Z"/><path class="cls-1" d="M288.49,743.29H299.8v5.18H281.66V711.32h17.67v5.19H288.49v10.3h9.13v5.24h-9.13Z"/><path class="cls-1" d="M321.7,716.51H310.51v11.3h9.13v4.94h-9.13v15.72h-6.83V711.32h18Z"/><path class="cls-1" d="M331.89,743.29h11.3v5.18H325.06V711.32h17.66v5.19H331.89v10.3H341v5.24h-9.12Z"/><path class="cls-1" d="M361.44,711.32h6.18v37.15h-6.36l-7.94-24.61v24.61h-6.25V711.32h6.54l7.83,24.26Z"/><path class="cls-1" d="M373.63,711.32h14.13q6.42,0,6.42,5.83v25.49q0,5.83-6.42,5.83H373.63Zm13.72,30.62V717.86a1.66,1.66,0,0,0-.36-1.26,1.85,1.85,0,0,0-1.29-.33h-5.3v27.26h5.3a1.91,1.91,0,0,0,1.29-.33A1.66,1.66,0,0,0,387.35,741.94Z"/><path class="cls-1" d="M406.42,743.29h11.31v5.18H399.59V711.32h17.67v5.19H406.42v10.3h9.13v5.24h-9.13Z"/><path class="cls-1" d="M428.38,734v14.48h-6.77V711.32h13.66q6.42,0,6.42,5.83v11q0,4.83-4.3,5.65l6.18,14.66h-7.3L430.62,734Zm0-17.48V729h4.89a1.89,1.89,0,0,0,1.29-.32,1.68,1.68,0,0,0,.36-1.26v-9.31a1.74,1.74,0,0,0-.36-1.27,2,2,0,0,0-1.29-.31Z"/></svg>