<?xml version="1.0" encoding="UTF-8"?>
<!-- Created with Inkscape (http://www.inkscape.org/) -->
<svg width="64mm" height="64mm" version="1.1" viewBox="0 0 64 64" xml:space="preserve" xmlns="http://www.w3.org/2000/svg"><g transform="translate(-38.362 -121.81)"><rect x="38.465" y="121.92" width="63.795" height="63.795" ry="5.8488e-8" display="none" fill="#fff" stop-color="#000000" stroke="#000" stroke-linecap="round" stroke-linejoin="round" stroke-miterlimit="0" stroke-width=".20521" style="paint-order:markers stroke fill"/><g transform="translate(35.647 124.08)"><g transform="matrix(.15118 0 0 .15118 10.228 -4.8305)"><g><path d="m176.59 51.803c-0.0233-0.02327-0.43578 0.3367-0.91674 0.79995-2.7963 2.6933-6.8655 6.0548-10.39 8.5824-6.4559 4.6305-14.262 8.881-19.808 10.786-5.1568 1.7716-11.263 2.3599-16.26 1.5668-2.1144-0.33555-3.6848-0.77646-6.4348-1.8076-2.8953-1.0857-4.8062-1.5691-6.936-1.7539l-1.1364-0.0987-1.1922 0.10129c-3.0007 0.25531-6.416 0.88878-9.3689 1.7374-1.9987 0.57437-7.8606 2.4745-7.9788 2.5864-0.03807 0.03601 2.4505 7.9857 5.5299 17.666 6.821 21.443 6.7696 21.284 6.828 21.284 0.0259 0 0.52919-0.26188 1.1183-0.58187 4.074-2.2131 7.3809-3.3196 11.274-3.7719 3.5804-0.41591 5.518-0.26594 13.631 1.0526 6.4475 1.0479 7.5966 1.1824 10.13 1.1834 4.0501 2e-3 6.0625-0.51133 11.909-3.0406 8.2855-3.5842 16.433-8.9578 24.104-15.897 1.6512-1.4936 2.0066-1.8793 2.0769-2.2541l0.0553-0.29507-0.3545-1.0036c-1.1473-3.2475-1.4986-4.2935-1.9156-5.7025-1.7962-6.0687-2.8566-12.239-3.3316-19.388-0.048-0.72178-0.18059-3.3507-0.29507-5.842-0.23306-5.0719-0.27768-5.8484-0.33848-5.9092z" fill="#fff" stroke-width=".084667"/><path d="m179.99 42.3-0.13022 0.10697c-0.0717 0.05886-1.1991 1.2881-2.5053 2.7316-1.3062 1.4436-2.969 3.2154-3.6954 3.9372-5.7263 5.6905-12.739 10.916-19.936 14.856-1.9298 1.0564-6.0909 3.1081-7.3592 3.6287-3.0424 1.2489-5.5423 1.8819-8.9819 2.2743-1.206 0.13754-5.1692 0.13793-6.2229 5.16e-4 -2.532-0.33021-3.9145-0.66111-6.7732-1.6216-4.8752-1.638-7.4636-2.1626-10.626-2.1539-4.5344 0.01242-7.6271 0.83294-21.505 5.7051-5.6693 1.9903-6.5345 2.3369-10.499 4.2096-2.6855 1.2687-8.2298 4.1679-8.3592 4.3713-0.24512 0.38533-0.04527 0.77559 4.3796 8.5659 4.3757 7.7038 6.0756 10.741 9.525 17.018 1.6891 3.0734 5.6891 10.274 8.8883 16.002 3.1992 5.7277 7.5052 13.443 9.5689 17.145 2.0637 3.702 5.3712 9.6075 7.3505 13.123 5.6522 10.04 8.2462 14.677 12.372 22.119l3.8375 6.921h0.73122l-0.11059-0.35967c-0.0607-0.19791-4.617-14.521-10.125-31.83l-10.015-31.47 0.10542-0.25476 0.10542-0.25528 0.90176-0.58395c2.5417-1.647 5.1528-2.7853 7.7168-3.3636 3.8578-0.87011 7.7536-0.60563 18.627 1.264 0.67522 0.1161 1.7799 0.27884 2.4552 0.36174l1.2278 0.15089 2.7094 3e-3c2.8503 3e-3 3.6487-0.0561 5.7862-0.42478 3.7383-0.64471 6.3757-1.5966 11.608-4.1904 5.4947-2.7239 9.7605-5.3476 14.906-9.1679 3.7561-2.7887 6.4407-5.0766 9.5539-8.1416 1.7384-1.7114 2.0454-2.0682 2.0454-2.3797 0-0.07862-0.27066-0.73755-0.601-1.4645-2.7674-6.0899-4.6287-13.441-5.4482-21.515-0.25586-2.5206-0.48681-6.5659-0.89297-15.663-0.22731-5.0911-0.40593-8.0225-0.56379-9.2511zm-3.4034 9.5028c0.0608 0.0608 0.10542 0.83724 0.33848 5.9092 0.11448 2.4913 0.24707 5.1202 0.29507 5.842 0.475 7.1498 1.5354 13.32 3.3316 19.388 0.41702 1.409 0.76835 2.455 1.9156 5.7025l0.3545 1.0036-0.0553 0.29507c-0.0703 0.37488-0.42573 0.76055-2.0769 2.2541-7.6714 6.9394-15.819 12.313-24.104 15.897-5.8469 2.5293-7.8592 3.0426-11.909 3.0406-2.533-1e-3 -3.6821-0.13552-10.13-1.1834-8.1132-1.3186-10.051-1.4686-13.631-1.0526-3.8929 0.45227-7.1998 1.5588-11.274 3.7719-0.58908 0.31999-1.0924 0.58187-1.1183 0.58187-0.0584 0-7e-3 0.15862-6.828-21.284-3.0794-9.6804-5.568-17.63-5.5299-17.666 0.11828-0.11187 5.9802-2.012 7.9788-2.5864 2.9529-0.84858 6.3682-1.4821 9.3689-1.7374l1.1922-0.10129 1.1364 0.0987c2.1298 0.18481 4.0406 0.66817 6.936 1.7539 2.7499 1.0312 4.3204 1.4721 6.4348 1.8076 4.9971 0.79304 11.103 0.20472 16.26-1.5668 5.5464-1.9054 13.352-6.1559 19.808-10.786 3.5241-2.5277 7.5933-5.8891 10.39-8.5824 0.48096-0.46325 0.89344-0.82322 0.91674-0.79995z" stroke="#262626" stroke-linejoin="round" stroke-width="1.3229"/><path d="m116.89 101.83c-2.1-0.29901-4.1728-1.1669-5.557-2.3268-1.8349-1.5375-3.0648-4.4673-3.2568-7.7582-0.15921-2.729 0.80855-5.3309 2.6607-7.1534 1.3496-1.328 3.5597-2.4272 5.8925-2.9307l0.85918-0.18544 3.2173-5.08e-4 1.1007 0.23268c1.1397 0.24093 1.3957 0.34808 1.5993 0.66935 0.12123 0.1913 0.60927 3.2583 0.53096 3.3366-0.0233 0.02327-0.66449-0.07644-1.4249-0.22158-1.7866-0.34098-2.8278-0.4496-3.6686-0.38269-3.5379 0.28156-5.5457 2.3749-5.5457 5.7819 0 2.257 0.77104 4.4208 2.0304 5.6979l0.63661 0.6456 0.61353 0.30781c0.78603 0.39435 1.4871 0.55716 2.4058 0.55873 1.7532 3e-3 3.5451-0.62535 5.4718-1.9187 0.5257-0.35289 0.96836-0.62724 0.98366-0.60967 0.0338 0.03884 0.55818 3.3887 0.55818 3.5661 0 0.25498-0.49469 0.60526-1.6928 1.1986-2.1313 1.0555-3.6787 1.4729-5.6732 1.5302-0.67522 0.0194-1.4589 2e-3 -1.7416-0.0379zm27.152-1.2439c-0.0464-0.17852-0.87067-3.5631-1.8317-7.5212-0.96101-3.9582-1.7643-7.2576-1.7851-7.3321l-0.0378-0.13546-1.5647 0.3683c-0.86056 0.20256-2.2658 0.53333-3.1227 0.73503l-1.558 0.36673-0.46328-1.8272c-0.25482-1.005-0.45857-1.8329-0.45282-1.8399 0.0212-0.02556 17.452-4.2429 17.471-4.2269 0.0374 0.03205 0.8718 3.6308 0.84749 3.6551-0.0136 0.01357-1.3342 0.34988-2.9348 0.74736-2.7789 0.6901-3.2236 0.84364-3.2236 1.113 0 0.05863 0.68211 2.8816 1.5158 6.2734 0.83369 3.3917 1.6365 6.7002 1.7839 7.3521 0.14749 0.65193 0.28199 1.2295 0.2989 1.2834 0.0201 0.06403-0.78238 0.29563-2.3131 0.6676-1.2891 0.31324-2.3892 0.58663-2.4445 0.60752-0.0595 0.0225-0.13515-0.0946-0.18505-0.28659zm17.388-17.697c-2.2818-4.8247-4.1591-8.7979-4.1719-8.8293-0.0219-0.05381 11.964-5.771 12.221-5.8294 0.13863-0.0315 1.7756 3.2806 1.6676 3.3739-0.0358 0.0309-1.77 0.8677-3.8539 1.8596-2.0838 0.99186-3.7888 1.832-3.7888 1.867 0 0.03501 0.35243 0.78778 0.78317 1.6728l0.78316 1.6092 3.556-1.6822c1.9558-0.92524 3.5941-1.6817 3.6407-1.681 0.1358 0.0021 1.6957 3.2843 1.604 3.375-0.044 0.04346-1.6611 0.82996-3.5936 1.7478-1.9325 0.91782-3.5295 1.6821-3.5488 1.6983-0.0286 0.0241 0.71059 1.6179 3.4336 7.4033 0.0228 0.04832-4.4206 2.1973-4.5294 2.1906-0.03-0.0018-1.9214-3.9508-4.2032-8.7755z" fill="#bd1421" stroke-width=".084667"/></g><g transform="matrix(6.6146 0 0 6.6146 -861.21 -1045.4)" fill="none" stroke="#262626"><g stroke-width=".15"><path d="m146.6 175.16 0.1967 0.65759" stop-color="#000000" style="font-variation-settings:normal"/><path d="m144.74 169.28-0.18618-0.52537" stop-color="#000000" style="font-variation-settings:normal"/><path d="m146.8 175.82c-0.17795-0.0468-1.9673 0.83217-1.9252 0.89456" stop-color="#000000" style="font-variation-settings:normal"/></g><path d="m145.16 176.77c0.43634-0.2646 0.9266-0.4861 1.4709-0.66443" stop-color="#000000" stroke-dasharray="0.1, 0.4" stroke-width=".1" style="font-variation-settings:normal"/><path d="m146.53 175.66c-0.57447 0.1834-1.0908 0.43284-1.5696 0.72481" stop-color="#000000" stroke-dasharray="0.1, 0.4" stroke-width=".1" style="font-variation-settings:normal"/><path transform="matrix(.15118 0 0 .15118 130.2 158.04)" d="m107.22 115.98-30.686-34.22" stop-color="#000000" stroke-linecap="round" stroke-width=".66146" style="font-variation-settings:normal"/><path transform="matrix(.15118 0 0 .15118 130.2 158.04)" d="m93.519 73.572 4.0726 45.986" stop-color="#000000" stroke-linecap="round" stroke-width=".66146" style="font-variation-settings:normal"/></g></g><g stroke-width=".032"><path transform="translate(-129.61 -168.3)" d="m192.29 177.28c-9e-3 -9e-3 -0.1647 0.12726-0.34648 0.30235-1.0569 1.0179-2.5948 2.2884-3.9268 3.2437-2.44 1.7501-5.3902 3.3566-7.4865 4.0768-1.949 0.66956-4.2568 0.89191-6.1455 0.59218-0.79913-0.12682-1.3927-0.29346-2.432-0.6832-1.0943-0.41035-1.8165-0.59304-2.6215-0.66289l-0.42949-0.0373-0.45059 0.0383c-1.1341 0.0965-2.425 0.33591-3.541 0.65664-0.7554 0.21708-2.9709 0.93525-3.0156 0.97754-0.0144 0.0136 0.92619 3.0182 2.09 6.6769 2.578 8.1043 2.5586 8.0443 2.5807 8.0443 0.01 0 0.20001-0.099 0.42265-0.21992 1.5398-0.83644 2.7896-1.2546 4.2609-1.4256 1.3532-0.15719 2.0855-0.10051 5.1519 0.39785 2.4368 0.39605 2.8712 0.44689 3.8285 0.44727 1.5307 7.5e-4 2.2913-0.19326 4.5012-1.1492 3.1315-1.3547 6.2109-3.3856 9.1103-6.0084 0.62406-0.5645 0.7584-0.71027 0.78497-0.85195l0.0209-0.11153-0.13399-0.37929c-0.43362-1.2274-0.56641-1.6228-0.72402-2.1553-0.67886-2.2937-1.0796-4.6256-1.2592-7.3279-0.0181-0.27279-0.0683-1.2664-0.11152-2.208-0.0881-1.917-0.10495-2.2104-0.12793-2.2334z" fill="#fefefe"/><path d="m160.64 61.303-0.0492 0.04043c-0.0271 0.02225-0.4532 0.48682-0.94688 1.0324s-1.1222 1.2153-1.3967 1.4881c-2.1643 2.1507-4.8147 4.1258-7.5348 5.6148-0.72938 0.39928-2.3021 1.1747-2.7814 1.3715-1.1499 0.47201-2.0947 0.71127-3.3947 0.85957-0.4558 0.05199-1.9537 0.05213-2.352 1.95e-4 -0.95699-0.1248-1.4795-0.24987-2.56-0.61289-1.8426-0.61907-2.8209-0.81735-4.016-0.81406-1.7138 0.0047-2.8827 0.31481-8.1279 2.1562-2.1427 0.75225-2.4697 0.88324-3.968 1.591-1.015 0.47949-3.1105 1.5753-3.1594 1.6521-0.0926 0.14564-0.0171 0.29314 1.6553 3.2375 1.6538 2.9117 2.2963 4.0596 3.6 6.4318 0.63839 1.1616 2.1502 3.8832 3.3594 6.048 1.2092 2.1648 2.8366 5.0809 3.6166 6.4801 0.77998 1.3992 2.0301 3.6312 2.7781 4.96 2.1363 3.7948 3.1167 5.5473 4.6762 8.36l1.4504 2.6158h0.27636l-0.0418-0.13594c-0.023-0.0748-1.745-5.4884-3.827-12.03l-3.7854-11.894 0.0398-0.09629 0.0399-0.09648 0.34082-0.2207c0.96063-0.62248 1.9475-1.0527 2.9166-1.2713 1.4581-0.32886 2.9305-0.2289 7.04 0.47773 0.2552 0.04388 0.67273 0.10539 0.92793 0.13672l0.46406 0.05703 1.024 0.0011c1.0773 0.0011 1.379-0.0212 2.1869-0.16055 1.4129-0.24367 2.4097-0.60345 4.3873-1.5838 2.0768-1.0295 3.689-2.0211 5.6338-3.465 1.4196-1.054 2.4343-1.9187 3.6109-3.0771 0.65702-0.64684 0.77305-0.78169 0.77305-0.89941 0-0.02971-0.1023-0.27876-0.22715-0.55352-1.046-2.3017-1.7494-5.0802-2.0592-8.1316-0.0967-0.95268-0.18399-2.4816-0.3375-5.9199-0.0859-1.9242-0.15342-3.0321-0.21308-3.4965zm-1.2863 3.5916c0.023 0.02298 0.0398 0.31644 0.12793 2.2334 0.0433 0.9416 0.0934 1.9352 0.11152 2.208 0.17953 2.7023 0.58031 5.0342 1.2592 7.3279 0.15761 0.53252 0.2904 0.92787 0.72402 2.1553l0.13398 0.3793-0.0209 0.11152c-0.0266 0.14168-0.1609 0.28745-0.78496 0.85195-2.8994 2.6228-5.9788 4.6537-9.1103 6.0084-2.2098 0.95596-2.9704 1.15-4.5012 1.1492-0.95734-3.78e-4 -1.3917-0.05122-3.8285-0.44726-3.0664-0.49836-3.7987-0.55505-5.152-0.39785-1.4713 0.17094-2.7212 0.58915-4.2609 1.4256-0.22264 0.12094-0.41286 0.21992-0.42265 0.21992-0.0221 0-3e-3 0.05995-2.5807-8.0443-1.1638-3.6587-2.1044-6.6633-2.09-6.6769 0.0447-0.04228 2.2602-0.76045 3.0156-0.97754 1.1161-0.32072 2.4069-0.56014 3.541-0.65664l0.45059-0.03828 0.42949 0.0373c0.80497 0.06985 1.5272 0.25254 2.6215 0.66289 1.0393 0.38974 1.6329 0.55638 2.432 0.6832 1.8887 0.29973 4.1965 0.07738 6.1455-0.59219 2.0963-0.72016 5.0465-2.3266 7.4865-4.0768 1.3319-0.95533 2.8699-2.2258 3.9268-3.2437 0.18178-0.17509 0.33768-0.31114 0.34648-0.30234z" display="none" fill="#bd1421"/><path d="m159.35 64.895c-9e-3 -0.0088-0.16471 0.12726-0.34649 0.30234-1.0569 1.0179-2.5948 2.2884-3.9268 3.2437-2.44 1.7501-5.3902 3.3566-7.4865 4.0768-1.949 0.66956-4.2568 0.89192-6.1455 0.59219-0.79913-0.12682-1.3927-0.29347-2.432-0.6832-1.0943-0.41035-1.8165-0.59304-2.6215-0.66289l-0.42949-0.0373-0.45059 0.03828c-1.1341 0.09649-2.425 0.33592-3.541 0.65664-0.7554 0.21708-2.9709 0.93526-3.0156 0.97754-0.0144 0.01361 0.92619 3.0182 2.09 6.6769 2.578 8.1043 2.5586 8.0443 2.5807 8.0443 0.01 0 0.20001-0.09898 0.42265-0.21992 1.5398-0.83644 2.7896-1.2547 4.2609-1.4256 1.3532-0.1572 2.0855-0.10051 5.1519 0.39785 2.4368 0.39604 2.8712 0.44689 3.8285 0.44726 1.5307 7.56e-4 2.2913-0.19326 4.5012-1.1492 3.1315-1.3547 6.2109-3.3856 9.1103-6.0084 0.62405-0.5645 0.75839-0.71027 0.78496-0.85195l0.0209-0.11152-0.13399-0.3793c-0.43362-1.2274-0.56641-1.6227-0.72402-2.1553-0.67886-2.2937-1.0796-4.6256-1.2592-7.3279-0.0181-0.2728-0.0682-1.2664-0.11152-2.208-0.0881-1.917-0.10495-2.2104-0.12793-2.2334z" display="none" fill="#fefefe"/></g><g transform="matrix(1.0621 0 0 1.0621 8.1449 -41.479)" stroke-width=".26458" aria-label="GPN"><path d="m33.425 64.366q-0.53423 0.3897-1.1341 0.63018-0.59546 0.23988-1.2521 0.32993-1.4909 0.20445-2.4871-0.5992-0.99684-0.80809-1.2141-2.3921-0.21966-1.6018 0.53737-2.6414 0.76146-1.0402 2.3056-1.2519 0.59457-0.08154 1.1574-0.03214t1.0799 0.22711l0.18802 1.3711q-0.54459-0.24628-1.0584-0.33403-0.51381-0.08776-1.0108-0.01961-0.91848 0.12596-1.3369 0.76649-0.41907 0.6361-0.27364 1.6966 0.14421 1.0516 0.70191 1.5583 0.5577 0.50667 1.4407 0.38558 0.2396-0.03285 0.43945-0.09191 0.20368-0.0641 0.35368-0.157l-0.17646-1.2868-0.93623 0.12839-0.15699-1.1448 2.396-0.32858z"/><path d="m36.756 59.109 0.82521 3.1499 0.86934 3.3183 1.5037-0.39394-0.5879-2.244 0.98778-0.25882c0.74229-0.19445 1.2633-0.52541 1.5636-0.993 0.2996-0.47047 0.36086-1.045 0.18301-1.7238-0.17705-0.67586-0.51145-1.1438-1.0025-1.4041-0.49179-0.26314-1.1085-0.29774-1.8508-0.10327zm1.8204 0.8148 0.82731-0.21679c0.29172-0.07642 0.53743-0.05746 0.73715 0.05688 0.19972 0.11435 0.33762 0.31606 0.41329 0.60489 0.07568 0.28882 0.05468 0.53336-0.06256 0.73383-0.118 0.19758-0.32285 0.33459-0.61456 0.41102l-0.82731 0.21679z"/><path d="m44.075 55.974 1.5552-0.76514 3.9897 3.1482-2.0246-4.115 1.3181-0.64849 2.9518 5.9998-1.5552 0.76514-3.9856-3.1502 2.0246 4.115-1.3221 0.65047z"/></g><g transform="translate(-96.678 -55.912)" stroke="#262626"><path d="m104.57 113.71c-0.0249-0.0396-0.3009-0.54-0.61342-1.112-0.69497-1.272-2.924-5.291-3.8116-6.8723-0.35819-0.63818-0.65126-1.1764-0.65126-1.1962 0-0.046 1.7373-3.0658 1.7643-3.0668 0.0111-3.8e-4 0.6002 1.0685 1.309 2.3753s2.2228 4.0567 3.3643 6.1109c1.1416 2.0542 2.084 3.757 2.0944 3.784l0.0188 0.0491h-3.4294z" stroke-linejoin="round" stroke-width=".2"/><g fill="none"><g stroke-width=".15"><path d="m100.36 106.12 2.5657-1.6126"/><g><path d="m106.13 110.3-2.5997 1.5153" stop-color="#000000" style="font-variation-settings:normal"/><g stroke-linecap="round"><path d="m106.08 110.76 0.3218 2.6425" stop-color="#000000" style="font-variation-settings:normal"/><path d="m105.66 110.13-4.8818-3.8988" stop-color="#000000" style="font-variation-settings:normal"/><path d="m100.47 105.56 0.78642-3.4624" stop-color="#000000" style="font-variation-settings:normal"/></g></g></g><g stroke-dasharray="0.1, 0.4" stroke-width=".1"><path d="m100.51 105.6 1.8416-1.175" stop-color="#000000" style="font-variation-settings:normal"/><path d="m100.88 106.19 1.8351-1.1857" stop-color="#000000" style="font-variation-settings:normal"/><path d="m103.64 111.33 2.0044-1.1633" stop-color="#000000" style="font-variation-settings:normal"/><path d="m106 110.75-1.9571 1.1594" stop-color="#000000" style="font-variation-settings:normal"/></g></g><path d="m113.18 113.46c-0.72716-0.53062-6.1719-4.3512-7.2216-5.0674-0.5368-0.36625-0.99953-0.68954-1.0283-0.71841l-0.0523-0.0525-0.11706-2.304c-0.1398-2.7515-0.40586-6.9123-0.51451-8.0462-0.0429-0.44784-0.0748-0.81702-0.0709-0.8204 4e-3 -0.0034 0.36708-0.21067 0.80708-0.46063 0.44-0.24997 1.1143-0.64889 1.4984-0.88649 0.38414-0.2376 0.70336-0.42709 0.70937-0.42107 6e-3 6e-3 0.0847 2.2141 0.1749 4.9069 0.16708 4.989 0.22666 6.3442 0.28049 6.3799 0.0166 0.011 0.31002 0.21684 0.65195 0.45735 0.74752 0.52578 3.1042 2.0736 6.9728 4.5796 1.5752 1.0204 2.8674 1.858 2.8715 1.8614 4e-3 3e-3 -0.35197 0.21033-0.79137 0.45992l-0.7989 0.45381h-2.9308z" stroke-linejoin="round" stroke-width=".2"/><g fill="none"><g stroke-width=".15"><g><path d="m107.63 105.93-2.7528 1.6968" stop-color="#000000" style="font-variation-settings:normal"/><path d="m112.29 109.07-1.8741 2.435" stop-color="#000000" style="font-variation-settings:normal"/><path d="m104.51 101.46 2.9041-0.23437" stop-color="#000000" style="font-variation-settings:normal"/></g><g stroke-linecap="round"><path d="m107.6 106.37 2.6021 4.5631" stop-color="#000000" style="font-variation-settings:normal"/><path d="m111 111.44 6.3747 1.3812" stop-color="#000000" style="font-variation-settings:normal"/><path d="m107.17 105.58-2.3126-3.7638" stop-color="#000000" style="font-variation-settings:normal"/><path d="m104.88 100.97 1.9809-5.5793" stop-color="#000000" style="font-variation-settings:normal"/></g></g><g stroke-dasharray="0.1, 0.4" stroke-width=".1"><path d="m112.34 109.48-1.4207 1.9232" stop-color="#000000" style="font-variation-settings:normal"/><path d="m110.34 110.97 1.4113-1.7882" stop-color="#000000" style="font-variation-settings:normal"/><path d="m105.45 107.66 2.107-1.3134" stop-color="#000000" style="font-variation-settings:normal"/><path d="m107.16 105.81-2.016 1.2363" stop-color="#000000" style="font-variation-settings:normal"/><path d="m104.87 101.8 2.2501-0.1943" stop-color="#000000" style="font-variation-settings:normal"/><path d="m104.79 101.09 2.2637-0.16832" stop-color="#000000" style="font-variation-settings:normal"/></g></g><path d="m121.91 113.58c-3.798-6.8752-10.427-18.566-13.274-23.408-0.26112-0.44417-0.47476-0.82267-0.47476-0.84112 0-0.01844 0.47007-0.84764 1.0446-1.8427l1.0446-1.8091 0.038 0.04224c0.0209 0.02324 0.2228 0.38064 0.44869 0.79424 3.1051 5.6855 8.6996 15.523 14.39 25.305 0.59672 1.0257 1.0931 1.8861 1.103 1.912l0.018 0.047h-4.2277z" stroke-linejoin="round" stroke-width=".2"/><g fill="none"><g stroke-width=".15"><g><path d="m122.93 108.03-3.105 1.7961" stop-color="#000000" style="font-variation-settings:normal"/><path d="m114.44 93.176-2.996 1.8478" stop-color="#000000" style="font-variation-settings:normal"/><path d="m118.44 100.22-2.99 1.8317" stop-color="#000000" style="font-variation-settings:normal"/></g><g stroke-linecap="round"><path d="m110.29 86.644 1.2442 7.7981" stop-color="#000000" style="font-variation-settings:normal"/><path d="m111.99 95.115 5.8667 4.9921" stop-color="#000000" style="font-variation-settings:normal"/><path d="m118.37 100.92 1.5605 8.1956" stop-color="#000000" style="font-variation-settings:normal"/><path d="m120.46 109.99 3.3985 3.4473" stop-color="#000000" style="font-variation-settings:normal"/></g></g><g stroke-dasharray="0.1, 0.4" stroke-width=".1"><path d="m111.58 94.479 2.3926-1.4052" stop-color="#000000" style="font-variation-settings:normal"/><path d="m114.28 93.667-2.3704 1.4796" stop-color="#000000" style="font-variation-settings:normal"/><path d="m117.89 100.08-2.2512 1.4264" stop-color="#000000" style="font-variation-settings:normal"/><path d="m116.02 102.17 2.264-1.4021" stop-color="#000000" style="font-variation-settings:normal"/><path d="m119.95 109.3 2.3493-1.3663" stop-color="#000000" style="font-variation-settings:normal"/><path d="m122.71 108.62-2.3251 1.3996" stop-color="#000000" style="font-variation-settings:normal"/></g></g><path d="m117.91 79.843-2.675 1.5444 18.508 32.364 3.6726-0.0166-19.505-33.892" stroke-linejoin="round" stroke-width=".2"/><g fill="none"><g stroke-width=".15"><g><path d="m134 107.81-2.7557 1.582" stop-color="#000000" style="font-variation-settings:normal"/><path d="m129.95 100.76-2.7044 1.6266" stop-color="#000000" style="font-variation-settings:normal"/><path d="m126.09 94.068-2.7369 1.527" stop-color="#000000" style="font-variation-settings:normal"/><path d="m122.2 87.31-2.6786 1.5858" stop-color="#000000" style="font-variation-settings:normal"/></g><g stroke-linecap="round"><path d="m115.84 81.575 5.6844 5.5549" stop-color="#000000" style="font-variation-settings:normal"/><path d="m122.1 87.895 1.3307 7.1159" stop-color="#000000" style="font-variation-settings:normal"/><path d="m123.91 95.747 5.4513 4.8947" stop-color="#000000" style="font-variation-settings:normal"/><path d="m129.85 101.28 1.5188 7.5258" stop-color="#000000" style="font-variation-settings:normal"/><path d="m131.81 109.52 3.5627 3.7989" stop-color="#000000" style="font-variation-settings:normal"/></g></g><g stroke-dasharray="0.1, 0.4" stroke-width=".1"><path d="m131.83 109.5 2.0756-1.118" stop-color="#000000" style="font-variation-settings:normal"/><path d="m131.4 108.82 2.0515-1.135" stop-color="#000000" style="font-variation-settings:normal"/><path d="m127.74 102.53 2.1096-1.3068" stop-color="#000000" style="font-variation-settings:normal"/><path d="m127.38 101.84 2.0465-1.2733" stop-color="#000000" style="font-variation-settings:normal"/><path d="m125.6 93.936-2.0646 1.0818" stop-color="#000000" style="font-variation-settings:normal"/><path d="m123.94 95.769 2.084-1.1507" stop-color="#000000" style="font-variation-settings:normal"/><path d="m120.09 89.085 1.9468-1.1489" stop-color="#000000" style="font-variation-settings:normal"/><path d="m119.7 88.291 2.0002-1.1985" stop-color="#000000" style="font-variation-settings:normal"/></g></g><path d="m111.53 83.611 2.23-3.8869c2.3993-1.4762 3.8391-2.2754 5.2968-3.0872l2.2561 4.0933c-5.4221 2.9513-6.363 3.8183-8.4335 5.2345-0.43053-0.67217-0.87266-1.412-1.3494-2.3536z" stroke-linejoin="round" stroke-width=".2"/><g fill="none"><g stroke-width=".15"><path d="m113.76 79.725 2.3699 4.0114" stop-color="#000000" style="font-variation-settings:normal"/><g stroke-linecap="round"><path d="m116.35 82.82 2.4098-5.2773" stop-color="#000000" style="font-variation-settings:normal"/><path d="m114.78 80.019 5.3594 0.54526" stop-color="#000000" style="font-variation-settings:normal"/><path d="m113.77 80.86-0.65817 4.2206" stop-color="#000000" style="font-variation-settings:normal"/></g></g><path d="m114.26 79.876 1.9072 3.2621" stop-color="#000000" stroke-dasharray="0.1, 0.4" stroke-width=".1" style="font-variation-settings:normal"/><path d="m113.74 80.313 1.8439 3.1722" stop-color="#000000" stroke-dasharray="0.1, 0.4" stroke-width=".1" style="font-variation-settings:normal"/></g></g><g transform="translate(-119.97 -185.61)" stroke="#701017"><path d="m183.93 191.01-0.0492 0.0404c-0.0271 0.0223-0.4532 0.48682-0.94688 1.0324s-1.1222 1.2153-1.3967 1.4881c-2.1643 2.1507-4.8147 4.1258-7.5348 5.6148-0.72938 0.39928-2.3021 1.1747-2.7814 1.3715-1.1499 0.47201-2.0947 0.71127-3.3947 0.85957-0.4558 0.052-1.9537 0.0521-2.352 1.9e-4 -0.95699-0.1248-1.4795-0.24987-2.56-0.61289-1.8426-0.61907-2.8209-0.81735-4.016-0.81406-1.7138 5e-3 -2.8827 0.31481-8.1279 2.1562-2.1427 0.75224-2.4697 0.88324-3.968 1.591-1.015 0.47949-3.1105 1.5753-3.1594 1.6522-0.0926 0.14563-0.0171 0.29313 1.6553 3.2375 1.6538 2.9117 2.2963 4.0596 3.6 6.4318 0.63839 1.1616 2.1502 3.8832 3.3594 6.048s2.8366 5.0809 3.6166 6.4801c0.77998 1.3992 2.0301 3.6312 2.7781 4.96 2.1363 3.7948 3.1167 5.5473 4.6762 8.36l1.4504 2.6158h0.27636l-0.0418-0.13594c-0.023-0.0748-1.745-5.4884-3.827-12.03l-3.7854-11.894 0.0398-0.0963 0.0399-0.0965 0.34082-0.22071c0.96063-0.62247 1.9475-1.0527 2.9166-1.2713 1.4581-0.32886 2.9305-0.2289 7.04 0.47773 0.2552 0.0439 0.67273 0.10539 0.92793 0.13672l0.46406 0.057 1.024 1e-3c1.0773 1e-3 1.379-0.0212 2.1869-0.16055 1.4129-0.24367 2.4097-0.60345 4.3873-1.5838 2.0768-1.0295 3.689-2.0211 5.6338-3.465 1.4196-1.054 2.4343-1.9187 3.6109-3.0771 0.65702-0.64685 0.77305-0.78169 0.77305-0.89942 0-0.0297-0.1023-0.27875-0.22715-0.55351-1.046-2.3017-1.7494-5.0802-2.0592-8.1316-0.0967-0.95269-0.18399-2.4816-0.3375-5.9199-0.0859-1.9242-0.15342-3.0321-0.21308-3.4965zm-1.2863 3.5916c0.023 0.023 0.0398 0.31643 0.12793 2.2334 0.0433 0.9416 0.0934 1.9352 0.11152 2.208 0.17953 2.7023 0.58031 5.0342 1.2592 7.3279 0.15761 0.53253 0.2904 0.92787 0.72402 2.1553l0.13398 0.3793-0.0209 0.11152c-0.0266 0.14169-0.1609 0.28745-0.78496 0.85195-2.8994 2.6228-5.9788 4.6537-9.1103 6.0084-2.2098 0.95596-2.9704 1.15-4.5012 1.1492-0.95734-3.8e-4 -1.3917-0.0512-3.8285-0.44726-3.0664-0.49837-3.7987-0.55506-5.152-0.39785-1.4713 0.17093-2.7212 0.58914-4.2609 1.4256-0.22264 0.12094-0.41286 0.21992-0.42265 0.21992-0.0221 0-3e-3 0.0599-2.5807-8.0443-1.1638-3.6587-2.1044-6.6633-2.09-6.677 0.0447-0.0423 2.2602-0.76045 3.0156-0.97754 1.1161-0.32072 2.4069-0.56014 3.541-0.65664l0.45059-0.0383 0.42949 0.0373c0.80497 0.0699 1.5272 0.25254 2.6215 0.66289 1.0393 0.38974 1.6329 0.55638 2.432 0.68321 1.8887 0.29973 4.1965 0.0774 6.1455-0.59219 2.0963-0.72016 5.0465-2.3266 7.4865-4.0768 1.3319-0.95533 2.8699-2.2258 3.9268-3.2437 0.18178-0.17509 0.33768-0.31114 0.34648-0.30235z" fill="#bd1421" stroke-linejoin="round" stroke-width=".2"/><g fill="none"><g transform="translate(23.293 129.7)"><g stroke-width=".15"><path d="m159.35 64.895 1.448-1.4304" stop-color="#000000" style="font-variation-settings:normal"/><path d="m161.7 79.255 1.2602-0.96917" stop-color="#000000" style="font-variation-settings:normal"/><path d="m159.9 72.294 1.4498-0.2566" stop-color="#000000" style="font-variation-settings:normal"/><path d="m156.22 83.779 0.74039 1.2503" stop-color="#000000" style="font-variation-settings:normal"/><path d="m151.3 69.145 0.75773 1.2391" stop-color="#000000" style="font-variation-settings:normal"/><path d="m139.2 70.959-0.3357 1.4131" stop-color="#000000" style="font-variation-settings:normal"/><path d="m143.39 86.86-0.25676 1.4619" stop-color="#000000" style="font-variation-settings:normal"/></g><g stroke-dasharray="0.1, 0.4" stroke-width=".1"><path d="m138.92 71.067-0.26211 0.97226" stop-color="#000000" style="font-variation-settings:normal"/><path d="m139.45 71.285-0.22634 0.93587" stop-color="#000000" style="font-variation-settings:normal"/><path d="m151.66 69.146 0.51616 0.86527" stop-color="#000000" style="font-variation-settings:normal"/><path d="m151.2 69.46 0.5094 0.84754" stop-color="#000000" style="font-variation-settings:normal"/><path d="m160.51 63.282-1.1903 1.1857" stop-color="#000000" style="font-variation-settings:normal"/><path d="m159.63 65.013 0.96592-0.9404" stop-color="#000000" style="font-variation-settings:normal"/><path d="m160.09 71.962 1.0285-0.16309" stop-color="#000000" style="font-variation-settings:normal"/><path d="m160.12 72.519 1.0242-0.21538" stop-color="#000000" style="font-variation-settings:normal"/><path d="m161.74 78.82 0.88693-0.69606" stop-color="#000000" style="font-variation-settings:normal"/><path d="m161.88 79.515 1.0203-0.77789" stop-color="#000000" style="font-variation-settings:normal"/><path d="m156.64 83.818 0.43923 0.79821z" stop-color="#000000" style="font-variation-settings:normal"/><path d="m156.12 84.168 0.44698 0.81606" stop-color="#000000" style="font-variation-settings:normal"/><path d="m142.99 87.078-0.15478 0.8714" stop-color="#000000" style="font-variation-settings:normal"/><path d="m143.67 87.179-0.13488 0.89724" stop-color="#000000" style="font-variation-settings:normal"/></g><g stroke-width=".15"><g><path d="m133.26 99.101c1.1007-0.57413 2.2363-1.0345 3.4064-1.3828" stop-color="#000000" style="font-variation-settings:normal"/><path d="m126.53 87.021c1.878-1.0191 3.8954-1.7894 5.9922-2.4182" stop-color="#000000" style="font-variation-settings:normal"/><path d="m124.42 73.605 4.9871 12.073" stop-color="#000000" style="font-variation-settings:normal"/></g><g stroke-linecap="round"><path d="m132.16 85.486 1.188 12.623" stop-color="#000000" style="font-variation-settings:normal"/><path d="m127.41 87.297 8.5376 10.056" stop-color="#000000" style="font-variation-settings:normal"/><path d="m129.71 84.774-1.5304-11.765" stop-color="#000000" style="font-variation-settings:normal"/><path d="m121.38 76.068 7.0423 9.2122" stop-color="#000000" style="font-variation-settings:normal"/></g></g><g stroke-dasharray="0.1, 0.4" stroke-width=".1"><path d="m124.96 73.883 4.5509 11.229" stop-color="#000000" style="font-variation-settings:normal"/><path d="m124.25 74.095 4.7684 11.277" stop-color="#000000" style="font-variation-settings:normal"/><path d="m129.68 85.143c0.73706-0.27499 1.5106-0.53178 2.3715-0.74504" stop-color="#000000" style="font-variation-settings:normal"/><path d="m128.91 85.479c-0.7938 0.34179-1.5283 0.71384-2.2172 1.1091" stop-color="#000000" style="font-variation-settings:normal"/><path d="m126.98 87.127c1.6486-0.86315 3.4173-1.5867 5.2862-2.1935" stop-color="#000000" style="font-variation-settings:normal"/><path d="m133.4 98.679c0.87536-0.4656 1.7764-0.8716 2.7329-1.1494" stop-color="#000000" style="font-variation-settings:normal"/><path d="m133.74 99.249c0.9028-0.45658 1.7684-0.80899 2.6077-1.0878" stop-color="#000000" style="font-variation-settings:normal"/></g></g><path d="m156.92 217.82 0.48216 1.6352" stop-color="#000000" stroke-width=".15" style="font-variation-settings:normal"/><path d="m152.26 203.14-0.43512-1.3702" stop-color="#000000" stroke-width=".15" style="font-variation-settings:normal"/></g></g></g></g></svg>
