%TF.GenerationSoftware,KiCad,Pcbnew,(5.1.10)-1*%
%TF.CreationDate,2021-09-04T18:59:30+09:00*%
%TF.ProjectId,TsukCTF,5473756b-4354-4462-9e6b-696361645f70,rev?*%
%TF.SameCoordinates,Original*%
%TF.FileFunction,Soldermask,Bot*%
%TF.FilePolarity,Negative*%
%FSLAX46Y46*%
G04 Gerber Fmt 4.6, Leading zero omitted, Abs format (unit mm)*
G04 Created by KiCad (PCBNEW (5.1.10)-1) date 2021-09-04 18:59:30*
%MOMM*%
%LPD*%
G01*
G04 APERTURE LIST*
%ADD10R,1.800000X1.800000*%
%ADD11C,1.800000*%
%ADD12R,1.700000X1.700000*%
%ADD13O,1.700000X1.700000*%
G04 APERTURE END LIST*
D10*
%TO.C,D3*%
X149000000Y-115000000D03*
D11*
X149000000Y-117540000D03*
%TD*%
D10*
%TO.C,D4*%
X154940000Y-129540000D03*
D11*
X157480000Y-129540000D03*
%TD*%
%TO.C,D5*%
X146000000Y-141460000D03*
D10*
X146000000Y-144000000D03*
%TD*%
D11*
%TO.C,D6*%
X167460000Y-120000000D03*
D10*
X170000000Y-120000000D03*
%TD*%
%TO.C,D7*%
X195580000Y-154940000D03*
D11*
X193040000Y-154940000D03*
%TD*%
%TO.C,D8*%
X134540000Y-148000000D03*
D10*
X132000000Y-148000000D03*
%TD*%
D11*
%TO.C,D9*%
X171000000Y-108000000D03*
D10*
X173540000Y-108000000D03*
%TD*%
D11*
%TO.C,D10*%
X177000000Y-102540000D03*
D10*
X177000000Y-100000000D03*
%TD*%
%TO.C,D11*%
X190000000Y-96000000D03*
D11*
X187460000Y-96000000D03*
%TD*%
D10*
%TO.C,D12*%
X168000000Y-140000000D03*
D11*
X168000000Y-137460000D03*
%TD*%
%TO.C,D13*%
X175260000Y-144780000D03*
D10*
X172720000Y-144780000D03*
%TD*%
D12*
%TO.C,J1*%
X134620000Y-116840000D03*
D13*
X134620000Y-119380000D03*
%TD*%
%TO.C,R3*%
G36*
G01*
X151725000Y-121250000D02*
X152275000Y-121250000D01*
G75*
G02*
X152475000Y-121450000I0J-200000D01*
G01*
X152475000Y-121850000D01*
G75*
G02*
X152275000Y-122050000I-200000J0D01*
G01*
X151725000Y-122050000D01*
G75*
G02*
X151525000Y-121850000I0J200000D01*
G01*
X151525000Y-121450000D01*
G75*
G02*
X151725000Y-121250000I200000J0D01*
G01*
G37*
G36*
G01*
X151725000Y-119600000D02*
X152275000Y-119600000D01*
G75*
G02*
X152475000Y-119800000I0J-200000D01*
G01*
X152475000Y-120200000D01*
G75*
G02*
X152275000Y-120400000I-200000J0D01*
G01*
X151725000Y-120400000D01*
G75*
G02*
X151525000Y-120200000I0J200000D01*
G01*
X151525000Y-119800000D01*
G75*
G02*
X151725000Y-119600000I200000J0D01*
G01*
G37*
%TD*%
%TO.C,R4*%
G36*
G01*
X154275000Y-126050000D02*
X153725000Y-126050000D01*
G75*
G02*
X153525000Y-125850000I0J200000D01*
G01*
X153525000Y-125450000D01*
G75*
G02*
X153725000Y-125250000I200000J0D01*
G01*
X154275000Y-125250000D01*
G75*
G02*
X154475000Y-125450000I0J-200000D01*
G01*
X154475000Y-125850000D01*
G75*
G02*
X154275000Y-126050000I-200000J0D01*
G01*
G37*
G36*
G01*
X154275000Y-124400000D02*
X153725000Y-124400000D01*
G75*
G02*
X153525000Y-124200000I0J200000D01*
G01*
X153525000Y-123800000D01*
G75*
G02*
X153725000Y-123600000I200000J0D01*
G01*
X154275000Y-123600000D01*
G75*
G02*
X154475000Y-123800000I0J-200000D01*
G01*
X154475000Y-124200000D01*
G75*
G02*
X154275000Y-124400000I-200000J0D01*
G01*
G37*
%TD*%
%TO.C,R5*%
G36*
G01*
X152275000Y-136400000D02*
X151725000Y-136400000D01*
G75*
G02*
X151525000Y-136200000I0J200000D01*
G01*
X151525000Y-135800000D01*
G75*
G02*
X151725000Y-135600000I200000J0D01*
G01*
X152275000Y-135600000D01*
G75*
G02*
X152475000Y-135800000I0J-200000D01*
G01*
X152475000Y-136200000D01*
G75*
G02*
X152275000Y-136400000I-200000J0D01*
G01*
G37*
G36*
G01*
X152275000Y-138050000D02*
X151725000Y-138050000D01*
G75*
G02*
X151525000Y-137850000I0J200000D01*
G01*
X151525000Y-137450000D01*
G75*
G02*
X151725000Y-137250000I200000J0D01*
G01*
X152275000Y-137250000D01*
G75*
G02*
X152475000Y-137450000I0J-200000D01*
G01*
X152475000Y-137850000D01*
G75*
G02*
X152275000Y-138050000I-200000J0D01*
G01*
G37*
%TD*%
%TO.C,R6*%
G36*
G01*
X170275000Y-116050000D02*
X169725000Y-116050000D01*
G75*
G02*
X169525000Y-115850000I0J200000D01*
G01*
X169525000Y-115450000D01*
G75*
G02*
X169725000Y-115250000I200000J0D01*
G01*
X170275000Y-115250000D01*
G75*
G02*
X170475000Y-115450000I0J-200000D01*
G01*
X170475000Y-115850000D01*
G75*
G02*
X170275000Y-116050000I-200000J0D01*
G01*
G37*
G36*
G01*
X170275000Y-114400000D02*
X169725000Y-114400000D01*
G75*
G02*
X169525000Y-114200000I0J200000D01*
G01*
X169525000Y-113800000D01*
G75*
G02*
X169725000Y-113600000I200000J0D01*
G01*
X170275000Y-113600000D01*
G75*
G02*
X170475000Y-113800000I0J-200000D01*
G01*
X170475000Y-114200000D01*
G75*
G02*
X170275000Y-114400000I-200000J0D01*
G01*
G37*
%TD*%
%TO.C,R7*%
G36*
G01*
X183950000Y-150275000D02*
X183950000Y-149725000D01*
G75*
G02*
X184150000Y-149525000I200000J0D01*
G01*
X184550000Y-149525000D01*
G75*
G02*
X184750000Y-149725000I0J-200000D01*
G01*
X184750000Y-150275000D01*
G75*
G02*
X184550000Y-150475000I-200000J0D01*
G01*
X184150000Y-150475000D01*
G75*
G02*
X183950000Y-150275000I0J200000D01*
G01*
G37*
G36*
G01*
X185600000Y-150275000D02*
X185600000Y-149725000D01*
G75*
G02*
X185800000Y-149525000I200000J0D01*
G01*
X186200000Y-149525000D01*
G75*
G02*
X186400000Y-149725000I0J-200000D01*
G01*
X186400000Y-150275000D01*
G75*
G02*
X186200000Y-150475000I-200000J0D01*
G01*
X185800000Y-150475000D01*
G75*
G02*
X185600000Y-150275000I0J200000D01*
G01*
G37*
%TD*%
%TO.C,R8*%
G36*
G01*
X140250000Y-146275000D02*
X140250000Y-145725000D01*
G75*
G02*
X140450000Y-145525000I200000J0D01*
G01*
X140850000Y-145525000D01*
G75*
G02*
X141050000Y-145725000I0J-200000D01*
G01*
X141050000Y-146275000D01*
G75*
G02*
X140850000Y-146475000I-200000J0D01*
G01*
X140450000Y-146475000D01*
G75*
G02*
X140250000Y-146275000I0J200000D01*
G01*
G37*
G36*
G01*
X138600000Y-146275000D02*
X138600000Y-145725000D01*
G75*
G02*
X138800000Y-145525000I200000J0D01*
G01*
X139200000Y-145525000D01*
G75*
G02*
X139400000Y-145725000I0J-200000D01*
G01*
X139400000Y-146275000D01*
G75*
G02*
X139200000Y-146475000I-200000J0D01*
G01*
X138800000Y-146475000D01*
G75*
G02*
X138600000Y-146275000I0J200000D01*
G01*
G37*
%TD*%
%TO.C,R9*%
G36*
G01*
X173225000Y-111725000D02*
X173225000Y-112275000D01*
G75*
G02*
X173025000Y-112475000I-200000J0D01*
G01*
X172625000Y-112475000D01*
G75*
G02*
X172425000Y-112275000I0J200000D01*
G01*
X172425000Y-111725000D01*
G75*
G02*
X172625000Y-111525000I200000J0D01*
G01*
X173025000Y-111525000D01*
G75*
G02*
X173225000Y-111725000I0J-200000D01*
G01*
G37*
G36*
G01*
X171575000Y-111725000D02*
X171575000Y-112275000D01*
G75*
G02*
X171375000Y-112475000I-200000J0D01*
G01*
X170975000Y-112475000D01*
G75*
G02*
X170775000Y-112275000I0J200000D01*
G01*
X170775000Y-111725000D01*
G75*
G02*
X170975000Y-111525000I200000J0D01*
G01*
X171375000Y-111525000D01*
G75*
G02*
X171575000Y-111725000I0J-200000D01*
G01*
G37*
%TD*%
%TO.C,R10*%
G36*
G01*
X171725000Y-101600000D02*
X172275000Y-101600000D01*
G75*
G02*
X172475000Y-101800000I0J-200000D01*
G01*
X172475000Y-102200000D01*
G75*
G02*
X172275000Y-102400000I-200000J0D01*
G01*
X171725000Y-102400000D01*
G75*
G02*
X171525000Y-102200000I0J200000D01*
G01*
X171525000Y-101800000D01*
G75*
G02*
X171725000Y-101600000I200000J0D01*
G01*
G37*
G36*
G01*
X171725000Y-103250000D02*
X172275000Y-103250000D01*
G75*
G02*
X172475000Y-103450000I0J-200000D01*
G01*
X172475000Y-103850000D01*
G75*
G02*
X172275000Y-104050000I-200000J0D01*
G01*
X171725000Y-104050000D01*
G75*
G02*
X171525000Y-103850000I0J200000D01*
G01*
X171525000Y-103450000D01*
G75*
G02*
X171725000Y-103250000I200000J0D01*
G01*
G37*
%TD*%
%TO.C,R11*%
G36*
G01*
X182750000Y-98725000D02*
X182750000Y-99275000D01*
G75*
G02*
X182550000Y-99475000I-200000J0D01*
G01*
X182150000Y-99475000D01*
G75*
G02*
X181950000Y-99275000I0J200000D01*
G01*
X181950000Y-98725000D01*
G75*
G02*
X182150000Y-98525000I200000J0D01*
G01*
X182550000Y-98525000D01*
G75*
G02*
X182750000Y-98725000I0J-200000D01*
G01*
G37*
G36*
G01*
X184400000Y-98725000D02*
X184400000Y-99275000D01*
G75*
G02*
X184200000Y-99475000I-200000J0D01*
G01*
X183800000Y-99475000D01*
G75*
G02*
X183600000Y-99275000I0J200000D01*
G01*
X183600000Y-98725000D01*
G75*
G02*
X183800000Y-98525000I200000J0D01*
G01*
X184200000Y-98525000D01*
G75*
G02*
X184400000Y-98725000I0J-200000D01*
G01*
G37*
%TD*%
%TO.C,R12*%
G36*
G01*
X163750000Y-134550000D02*
X163750000Y-135100000D01*
G75*
G02*
X163550000Y-135300000I-200000J0D01*
G01*
X163150000Y-135300000D01*
G75*
G02*
X162950000Y-135100000I0J200000D01*
G01*
X162950000Y-134550000D01*
G75*
G02*
X163150000Y-134350000I200000J0D01*
G01*
X163550000Y-134350000D01*
G75*
G02*
X163750000Y-134550000I0J-200000D01*
G01*
G37*
G36*
G01*
X165400000Y-134550000D02*
X165400000Y-135100000D01*
G75*
G02*
X165200000Y-135300000I-200000J0D01*
G01*
X164800000Y-135300000D01*
G75*
G02*
X164600000Y-135100000I0J200000D01*
G01*
X164600000Y-134550000D01*
G75*
G02*
X164800000Y-134350000I200000J0D01*
G01*
X165200000Y-134350000D01*
G75*
G02*
X165400000Y-134550000I0J-200000D01*
G01*
G37*
%TD*%
%TO.C,R13*%
G36*
G01*
X178950000Y-148275000D02*
X178950000Y-147725000D01*
G75*
G02*
X179150000Y-147525000I200000J0D01*
G01*
X179550000Y-147525000D01*
G75*
G02*
X179750000Y-147725000I0J-200000D01*
G01*
X179750000Y-148275000D01*
G75*
G02*
X179550000Y-148475000I-200000J0D01*
G01*
X179150000Y-148475000D01*
G75*
G02*
X178950000Y-148275000I0J200000D01*
G01*
G37*
G36*
G01*
X180600000Y-148275000D02*
X180600000Y-147725000D01*
G75*
G02*
X180800000Y-147525000I200000J0D01*
G01*
X181200000Y-147525000D01*
G75*
G02*
X181400000Y-147725000I0J-200000D01*
G01*
X181400000Y-148275000D01*
G75*
G02*
X181200000Y-148475000I-200000J0D01*
G01*
X180800000Y-148475000D01*
G75*
G02*
X180600000Y-148275000I0J200000D01*
G01*
G37*
%TD*%
M02*
