<?xml version="1.0" encoding="UTF-8" standalone="no"?>
<svg version="1.1" id="svg2" x="0px" y="0px" viewBox="18.5 18.2 162.9 163.7" enable-background="new 18.5 18.2 162.9 163.7" xml:space="preserve" xmlns="http://www.w3.org/2000/svg" xmlns:svg="http://www.w3.org/2000/svg"><defs id="defs14"/>
	<g id="g2434" transform="rotate(90,100.03756,100.04308)"><path id="path3022" fill="#ffffff" d="m 71,70.9 49.6,-49.6 c 3.7,-3.7 7.9,-4.4 12.4,0 l 46.1,46.1 c 3.3,3.3 3,8.3 0,11.3 L 78.8,178.9 c -3.6,3.6 -8.3,4.2 -12.5,0 L 21.2,133.8 c -3.6,-3.6 -3.3,-9.3 0,-12.6 z"/>
		<g id="g2448"><path id="path3002" fill="#e31837" d="M 127,124.8 75.1,72.9 122.3,25.7 c 2.9,-2.9 5.9,-3 8.9,0 l 43.2,43.2 c 2.7,2.7 2.5,5.7 0,8.2 z" style="fill:#00b2ff;fill-opacity:1"/><circle fill="#ffffff" cx="126.7" cy="73" r="12.8" id="circle5"/></g>
		<g id="g2444"><path id="path3000" fill="#006491" d="m 71.8,76 51.9,51.9 -47.2,47.2 c -2.9,2.9 -5.9,3 -8.9,0 L 24.4,131.9 c -2.7,-2.7 -2.5,-5.7 0,-8.2 z" style="fill:#ffd900;fill-opacity:1"/>
			<g id="g2438" transform="rotate(90,72.100002,127.9)"><circle fill="#ffffff" cx="90.800003" cy="127.9" r="12.8" id="circle7"/><circle fill="#ffffff" cx="53.400002" cy="127.9" r="12.8" id="circle9"/></g>
		</g>
	</g>
</svg>
