<?xml version="1.0" encoding="UTF-8" standalone="no"?>
<!--

LICENSE
=======

License: Attribution-ShareAlike 3.0 Unported (CC BY-SA 3.0)
https://creativecommons.org/licenses/by-sa/3.0/


-->

<svg
   width="40px"
   height="40px"
   viewBox="0 0 40 40"
   version="1.1"
   xmlns="http://www.w3.org/2000/svg">
  <title
     id="title47">cm-chessbord arrowheads</title>
  <desc
     id="desc49">Arrowheads for cm-chessboard (https://shaack.com/projekte/cm-chessboard/).</desc>
  <g id="arrowDefault" transform="matrix(5.1931792,0,0,5.1931792,3.5980168,-0.83225447)">
    <path
       d="M 0.535156,0.398438 C 0.398438,0.507812 0.316406,0.671875 0.3125,0.847656 0.316406,1.02344 0.398438,1.1875 0.535156,1.29688 L 3.01172,3.35938 3.72266,4.01563 3.01172,4.64453 0.535156,6.67969 C 0.394531,6.79297 0.3125,6.96094 0.3125,7.13672 c 0,0.17578 0.082031,0.34375 0.222656,0.45703 0.328125,0.25781 0.792974,0.25781 1.117184,0 L 5.45703,4.46094 C 5.59766,4.34766 5.68359,4.17969 5.69141,4 5.69141,3.82031 5.60547,3.65234 5.45703,3.54297 L 1.64453,0.394531 C 1.31641,0.148438 0.859375,0.148438 0.535156,0.398438 Z m 0,0"
       class="head-fill" />
  </g>
  <g id="arrowPointy">
    <path d="M 20,20 5,5 35,20 5,35 Z" class="head-fill"/>
  </g>
</svg>
