<?xml version="1.0" encoding="utf-8"?>
<!-- Generator: Adobe Illustrator 27.3.1, SVG Export Plug-In . SVG Version: 6.00 Build 0)  -->
<svg version="1.1" id="Layer_1" xmlns="http://www.w3.org/2000/svg" xmlns:xlink="http://www.w3.org/1999/xlink" x="0px" y="0px"
	 viewBox="0 0 21 17.8" style="enable-background:new 0 0 21 17.8;" xml:space="preserve">
<style type="text/css">
	.st0{fill:#7F52FF;}
	.st1{fill:#FFFFFF;}
	.st2{fill:#FE2857;}
</style>
<g>
	<g>
		<path class="st0" d="M2.3,17.8l16.4,0c1.3,0,2.3-1,2.3-2.3l0-12.9c0-2.1-2.4-3.3-4-2l-5.9,3.2c-0.3,0.2-0.8,0.2-1.1,0L4.1,0.5
			c-1.7-1.2-4-0.1-4,2l0,12.9C0,16.7,1,17.8,2.3,17.8z"/>
		<g>
			<g>
				<path d="M17.2,16.1l-13.5,0c-1.1,0-2.1-0.9-2.1-2.1l0-5.8c0-1.1,0.9-2.1,2.1-2.1l13.5,0c1.1,0,2.1,0.9,2.1,2.1l0,5.8
					C19.3,15.2,18.4,16.1,17.2,16.1z"/>
			</g>
			<g>
				<g>
					<path class="st1" d="M6.3,7l0,1.3c0.6,0,1.2,0.2,1.6,0.7s0.7,1,0.7,1.6c0,1.3-1,2.3-2.3,2.3c-1.3,0-2.3-1-2.3-2.3
						c0-1.3,1-2.3,2.3-2.3L6.3,7 M6.3,7c-2,0-3.5,1.6-3.6,3.5c0,2,1.6,3.6,3.5,3.6c0,0,0,0,0,0c2,0,3.5-1.6,3.6-3.5
						C9.9,8.5,8.3,7,6.3,7C6.3,7,6.3,7,6.3,7L6.3,7z"/>
				</g>
				<g>
					<path class="st1" d="M14.7,7l0,1.3c1.3,0,2.3,1,2.3,2.3c0,1.3-1,2.3-2.3,2.3c-1.3,0-2.3-1-2.3-2.3c0-1.3,1-2.3,2.3-2.3L14.7,7
						 M14.7,7c-2,0-3.5,1.6-3.6,3.5c0,2,1.6,3.6,3.5,3.6c0,0,0,0,0,0c2,0,3.5-1.6,3.6-3.5C18.3,8.6,16.7,7,14.7,7
						C14.7,7,14.7,7,14.7,7L14.7,7z"/>
				</g>
			</g>
		</g>
	</g>
</g>
</svg>
