<?xml version="1.0" encoding="utf-8"?>
<!-- Generator: Adobe Illustrator 27.3.1, SVG Export Plug-In . SVG Version: 6.00 Build 0)  -->
<svg version="1.1" id="Layer_1" xmlns="http://www.w3.org/2000/svg" xmlns:xlink="http://www.w3.org/1999/xlink" x="0px" y="0px"
	 viewBox="0 0 800 800" style="enable-background:new 0 0 800 800;" xml:space="preserve">
<style type="text/css">
	.st0{fill:#7F52FF;}
	.st1{fill:#FFFFFF;}
	.st2{fill:#FE2857;}
</style>
<g>
	<g>
		<g>
			<path class="st0" d="M145.9,552c-1.3,0-2.7-0.1-4-0.4c-10.3-2.2-16.8-12.3-14.6-22.6c0.8-4,21.8-97.5,120.3-149.4
				c9.3-4.9,20.8-1.3,25.7,8c4.9,9.3,1.3,20.8-8,25.7c-34.4,18.1-61.8,44.3-81.4,77.8c-14.9,25.4-19.5,45.7-19.5,45.9
				C162.5,545.9,154.6,552,145.9,552z"/>
		</g>
		<g>
			<path class="st0" d="M545.8,385.8c-6.8,0-13.4-3.7-16.8-10.2c-4.9-9.3-1.3-20.8,8-25.7c34.5-18.2,63.1-46.1,85-82.8
				c16.6-28,22.9-50.9,23-51.1c2.7-10.1,13.1-16.2,23.2-13.5c10.1,2.7,16.2,13,13.5,23.2c-1.1,4.3-29,106.3-127,157.9
				C551.8,385.1,548.8,385.8,545.8,385.8z"/>
		</g>
		<g>
			<path class="st0" d="M378.7,663.1h-35.4c-10.5,0-19-8.5-19-19s8.5-19,19-19h9.6c-12.5-46.3-30.3-143.6,22.1-198.2
				c7.3-7.6,19.3-7.8,26.9-0.5c7.6,7.3,7.8,19.3,0.5,26.9c-26.5,27.5-27.1,74.9-23,109.8c4.8,40.4,17,74.1,17.1,74.4
				c2.1,5.8,1.3,12.3-2.3,17.4C390.7,660.1,384.9,663.1,378.7,663.1z"/>
		</g>
		<g>
			<path class="st0" d="M561.4,603.4c-5,0-9.9-2-13.6-5.7L404.2,451.4c-7.4-7.5-7.2-19.5,0.2-26.9c7.5-7.4,19.5-7.2,26.9,0.2
				l133.6,136.1l18.7-10c9.2-5,20.8-1.5,25.7,7.7c5,9.2,1.5,20.8-7.7,25.7l-31.2,16.8C567.5,602.7,564.4,603.4,561.4,603.4z"/>
		</g>
	</g>
	<g>
		<g>
			<path class="st0" d="M277.9,467.5l256.9-18c20-1.4,35.1-18.8,33.7-38.8l-14.2-203.1c-2.3-32.5-40.7-48.5-65.4-27.3L401,256.1
				c-5,4.3-12.2,4.8-17.7,1.2l-97.4-62.7c-27.4-17.7-63.3,3.5-61,36.1l14.2,203.1C240.5,453.8,257.8,468.9,277.9,467.5z"/>
		</g>
		<g>
			<g>
				<path d="M522.2,430.9L288,447.1c-15.4,1.1-28.8-10.6-29.9-26L251,317.4c-1.1-15.4,10.6-28.8,26-29.9l234.2-16.3
					c15.4-1.1,28.8,10.6,29.9,26l7.2,103.7C549.3,416.4,537.6,429.8,522.2,430.9z"/>
			</g>
		</g>
		<g>
			<path class="st1" d="M384.7,353.9c-2.9-25.7-24.8-44.7-50.1-44.7c-1.9,0-3.8,0.1-5.8,0.3c-27.7,3.2-47.6,28.2-44.4,55.8
				c2.9,25.7,24.8,44.7,50.1,44.7c1.9,0,3.8-0.1,5.8-0.3C367.9,406.6,387.8,381.6,384.7,353.9z M359.9,379.8
				c-5.4,6.8-13.1,11.1-21.7,12c-1.2,0.1-2.5,0.2-3.7,0.2c-16.5,0-30.3-12.4-32.2-28.8c-2-17.8,10.8-33.9,28.6-35.9
				c1.2-0.1,2.5-0.2,3.7-0.2v0l0,0c16.5,0,30.3,12.4,32.2,28.8C367.8,364.5,365.3,373,359.9,379.8z"/>
			<g>
				<g>
					<g>
						<path class="st1" d="M389.5,408.8c11.1,5.7,26.4,3.4,35-5.7c2.6-2.8,4.6-6.2,5.6-9.9c0.6-2.3-0.8-5-3.1-5.5
							c-2.4-0.5-4.8,0.7-5.5,3.1c-0.2,0.6-0.4,1.2-0.6,1.9c-0.2,0.5,0.1-0.4,0.2-0.4c0,0-0.2,0.4-0.2,0.4c-0.2,0.3-0.3,0.6-0.5,0.9
							c-0.3,0.6-0.6,1.1-1,1.6c-0.1,0.1-0.2,0.2-0.2,0.4c-0.2,0.3-0.1,0.3,0,0c0.1-0.3,0.2-0.3,0,0c-0.1,0.1-0.2,0.3-0.4,0.4
							c-0.2,0.2-2.5,2.8-2.7,2.6c0,0,0.7-0.5,0.3-0.3c-0.1,0.1-0.2,0.2-0.4,0.3c-0.3,0.2-0.6,0.4-0.8,0.6c-0.5,0.3-1.1,0.7-1.6,1
							c-0.6,0.3-1.1,0.6-1.7,0.9c-0.1,0-0.4,0.2-0.4,0.2c0,0,0.9-0.3,0.4-0.2c-0.3,0.1-0.6,0.2-1,0.4c-1.2,0.4-2.5,0.8-3.7,1
							c-0.3,0.1-0.7,0.1-1,0.2c-0.2,0-1.1,0.3-0.4,0.1c0.6-0.2-0.2,0-0.4,0c-0.4,0-0.8,0.1-1.2,0.1c-1.3,0.1-2.5,0-3.8-0.1
							c-0.3,0-0.7-0.2-1-0.1c0,0,1,0.2,0.5,0.1c-0.2,0-0.4-0.1-0.6-0.1c-0.7-0.1-1.4-0.3-2.1-0.5c-0.6-0.2-1.3-0.4-1.9-0.6
							c-0.1,0-0.4-0.2-0.5-0.2c0.1,0,0.9,0.4,0.3,0.1c-0.3-0.2-0.7-0.3-1-0.5c-2.1-1.1-5-0.6-6.2,1.6
							C386.8,404.7,387.2,407.6,389.5,408.8L389.5,408.8z"/>
					</g>
				</g>
			</g>
			<g>
				<path class="st1" d="M429.6,372.7c-5.3,0-10.9-1.7-16.4-6.5c0,0,0,0,0,0c-7-6.1-9.6-15.6-6.9-25.4c4.6-16.6,22-29.1,46.6-33.4
					c13.2-2.3,25.1-1.6,35.4,2.2c9.1,3.3,16.7,9.1,21.4,16.2c6,9.1,6.7,19.5,1.7,27.2c-11.1,17-29.1,12.7-39.8,10.2
					c-3.9-0.9-8-1.9-10.2-1.7c-3.1,0.4-7,2.4-11.1,4.6C444.8,368.8,437.6,372.7,429.6,372.7z M425,352.5c4,3.5,7.1,2.7,16.9-2.5
					c5.2-2.7,11-5.8,17.5-6.6c5.4-0.6,11,0.7,16.4,2c12.5,3,16.9,3,20.5-2.5c0.8-1.2,0.5-4.2-1.7-7.4c-4.9-7.5-17.7-14.2-38.7-10.5
					c-20.7,3.6-30.4,13.3-32.4,20.5C423.2,347.3,422.7,350.5,425,352.5L425,352.5z"/>
			</g>
		</g>
	</g>
</g>
</svg>
