<?xml version="1.0" encoding="utf-8"?>
<!-- Generator: Adobe Illustrator 27.3.1, SVG Export Plug-In . SVG Version: 6.00 Build 0)  -->
<svg version="1.1" id="Layer_1" xmlns="http://www.w3.org/2000/svg" xmlns:xlink="http://www.w3.org/1999/xlink" x="0px" y="0px"
	 viewBox="0 0 150 150" style="enable-background:new 0 0 150 150;" xml:space="preserve">
<style type="text/css">
	.st0{fill:#7F52FF;}
	.st1{fill:#FFFFFF;}
	.st2{fill:#FE2857;}
</style>
<g>
	<g>
		<g>
			<path class="st0" d="M108.4,70.2c-2.1,0-4-1.4-4.5-3.6c-0.6-2.5,1-5,3.4-5.5c0.3-0.1,16-3.9,24.3-12.6c8.1-8.6,8.2-22.2,8.2-22.3
				c0-2.5,2.1-4.6,4.6-4.6c0,0,0,0,0,0c2.5,0,4.6,2,4.6,4.6c0,0.7,0,17.4-10.8,28.7c-10.2,10.7-28.1,15-28.8,15.2
				C109.1,70.2,108.7,70.2,108.4,70.2z"/>
		</g>
		<g>
			<path class="st0" d="M5.6,110.4c-0.3,0-0.5,0-0.8-0.1c-2.5-0.4-4.2-2.8-3.8-5.3c0.1-0.4,1.9-11,9.6-22.3
				c8.4-12.3,20-20.9,20.5-21.3c2.1-1.5,4.9-1.1,6.4,1c1.5,2.1,1.1,4.9-1,6.4c-0.1,0.1-10.9,8-18.3,19c-6.5,9.6-8.1,18.6-8.1,18.7
				C9.7,108.8,7.8,110.4,5.6,110.4z"/>
		</g>
		<g>
			<path class="st0" d="M39,89.8l68.2-4.8c5.3-0.4,9.3-5,9-10.3l-3.8-54c-0.6-8.6-10.8-12.9-17.4-7.2L71.7,33.9
				c-1.3,1.1-3.2,1.3-4.7,0.3l-25.9-17c-7.3-4.7-16.8,0.9-16.2,9.6l3.8,53.9C29.1,86.1,33.7,90.1,39,89.8z"/>
		</g>
		<g>
			<g>
				<path class="st0" d="M52.5,139.1h-8.7c-2.5,0-4.6-2.1-4.6-4.6s2.1-4.6,4.6-4.6h5.1l11.5-45.6c0.6-2.5,3.1-4,5.6-3.3
					c2.5,0.6,4,3.1,3.3,5.6L57,135.6C56.5,137.6,54.6,139.1,52.5,139.1z"/>
			</g>
			<g>
				<path class="st0" d="M97.2,139.1h-8.7c-2.1,0-4-1.4-4.5-3.5L71.7,86.5c-0.6-2.5,0.9-5,3.3-5.6c2.5-0.6,5,0.9,5.6,3.3l11.5,45.6
					h5.1c2.5,0,4.6,2.1,4.6,4.6S99.8,139.1,97.2,139.1z"/>
			</g>
		</g>
		<g>
			<g>
				<g>
					<path d="M105.6,80.3l-65.7,4.6c-3.3,0.2-6.2-2.3-6.5-5.6l-2.1-30.7c-0.2-3.3,2.3-6.2,5.6-6.5l65.7-4.6c3.3-0.2,6.2,2.3,6.5,5.6
						l2.1,30.7C111.5,77.1,109,80,105.6,80.3z"/>
				</g>
			</g>
			<g>
				<g>
					<path class="st1" d="M55.4,51.9c4.5,0,8.2,3.5,8.5,8c0.2,2.3-0.6,4.5-2.1,6.2s-3.6,2.8-5.9,2.9c-0.2,0-0.4,0-0.6,0
						c-4.5,0-8.2-3.5-8.5-8c-0.2-2.3,0.6-4.5,2.1-6.2c1.5-1.7,3.6-2.8,5.9-2.9C55,51.9,55.2,51.9,55.4,51.9 M55.4,47.1
						c-0.3,0-0.6,0-0.9,0c-7.4,0.5-13,6.9-12.4,14.3c0.5,7.1,6.4,12.5,13.4,12.5c0.3,0,0.6,0,0.9,0c7.4-0.5,13-6.9,12.4-14.3
						C68.3,52.5,62.4,47.1,55.4,47.1L55.4,47.1z"/>
				</g>
				<g>
					<path class="st1" d="M86.9,49.8c4.5,0,8.2,3.5,8.5,8c0.2,2.3-0.6,4.5-2.1,6.2s-3.6,2.8-5.9,2.9c-0.2,0-0.4,0-0.6,0
						c-4.5,0-8.2-3.5-8.5-8c-0.2-2.3,0.6-4.5,2.1-6.2c1.5-1.7,3.6-2.8,5.9-2.9C86.5,49.8,86.7,49.8,86.9,49.8 M86.9,44.9
						c-0.3,0-0.6,0-0.9,0c-7.4,0.5-13,6.9-12.4,14.3c0.5,7.1,6.4,12.5,13.4,12.5c0.3,0,0.6,0,0.9,0c7.4-0.5,13-6.9,12.4-14.3
						C99.8,50.4,93.9,44.9,86.9,44.9L86.9,44.9z"/>
				</g>
			</g>
			<g>
				<g>
					<g>
						<path class="st1" d="M66.4,74.9c1.9,0.7,4,0.9,5.9,0.7c2-0.2,4-0.7,5.8-1.7c1.1-0.7,0.1-2.4-1-1.7c-2.9,1.8-7.1,2.1-10.2,0.8
							c-0.5-0.2-1.1,0.2-1.2,0.7C65.5,74.2,65.9,74.7,66.4,74.9L66.4,74.9z"/>
					</g>
				</g>
			</g>
		</g>
	</g>
</g>
</svg>
