<?xml version="1.0" encoding="utf-8"?>
<!-- Generator: Adobe Illustrator 27.3.1, SVG Export Plug-In . SVG Version: 6.00 Build 0)  -->
<svg version="1.1" id="Layer_1" xmlns="http://www.w3.org/2000/svg" xmlns:xlink="http://www.w3.org/1999/xlink" x="0px" y="0px"
	 viewBox="0 0 800 800" style="enable-background:new 0 0 800 800;" xml:space="preserve">
<style type="text/css">
	.st0{fill:#7F52FF;}
	.st1{fill:#FFFFFF;}
	.st2{fill:#FE2857;}
</style>
<g>
	<g>
		<g>
			<path class="st0" d="M481.1,627.6c-10.5,0-19-8.5-19-19v-14.3c-28.3-4.1-61.7-17.6-85.9-45.8c-17.1-20-35.8-55.1-27.5-109
				c1.6-10.4,11.3-17.5,21.7-15.9c10.4,1.6,17.5,11.3,15.9,21.7c-4.9,31.8,1.4,58.2,18.8,78.5c21.5,25.1,54.4,33.9,76,33.9
				c0,0,0.1,0,0.1,0c5,0,9.9,2,13.4,5.6c3.6,3.6,5.6,8.4,5.6,13.4v31.9C500.1,619.1,491.6,627.6,481.1,627.6z"/>
		</g>
		<g>
			<path class="st0" d="M378.5,654.1c-2.2,0-4.5-0.4-6.6-1.2l-33.1-12.3c-9.8-3.7-14.8-14.6-11.2-24.4c3.7-9.8,14.6-14.8,24.4-11.2
				l12.3,4.6l34.3-167.5c2.1-10.3,12.1-16.9,22.4-14.8c10.3,2.1,16.9,12.1,14.8,22.4l-38.7,189.2c-1.1,5.4-4.5,10.1-9.4,12.8
				C384.8,653.3,381.6,654.1,378.5,654.1z"/>
		</g>
		<g>
			<g>
				<path class="st0" d="M609.9,536.5c-5.8,0-11.5-2.6-15.3-7.7c-6.3-8.4-4.5-20.3,3.9-26.6c12.7-9.5,14.6-31,11-42.9
					c-6.6-22.1-31.6-35.6-70.3-37.8c-10.5-0.6-18.5-9.6-17.9-20.1c0.6-10.5,9.6-18.5,20.1-17.9c28.9,1.7,52.7,8.6,70.8,20.6
					c16.7,11,28.3,26.3,33.7,44.3c9.2,30.7-1.5,67-24.8,84.3C617.8,535.3,613.8,536.5,609.9,536.5z"/>
			</g>
			<g>
				<path class="st0" d="M251,391.5c-0.3,0-0.6,0-0.9,0c-55.6-2.7-94.6-20.9-115.9-54c-17.4-27.2-17.4-56.3-17.4-70.2
					c0-10.5,8.5-19,19-19c0,0,0,0,0,0c10.5,0,19,8.5,19,19v0c0,11.2,0,31.9,11.4,49.8c14.2,22.2,43.1,34.5,85.7,36.6
					c10.5,0.5,18.6,9.4,18.1,19.9C269.5,383.6,261.1,391.5,251,391.5z"/>
			</g>
		</g>
	</g>
	<g>
		<g>
			<path class="st0" d="M261.7,454.6l256.9,18c20,1.4,37.4-13.7,38.8-33.7l14.2-203.1c2.3-32.5-33.5-53.7-61-36.1l-97.6,62.8
				c-5.5,3.6-12.8,3.1-17.7-1.2l-87.7-75.7c-24.7-21.3-63.1-5.3-65.4,27.2L228,415.9C226.6,435.9,241.7,453.2,261.7,454.6z"/>
		</g>
		<g>
			<g>
				<path d="M508.8,452.4l-234.1-16.5c-15.4-1.1-27.1-14.5-26-29.9l7.3-103.7c1.1-15.4,14.5-27.1,29.9-26L520,292.8
					c15.4,1.1,27.1,14.5,26,29.9l-7.3,103.7C537.6,441.8,524.2,453.4,508.8,452.4z"/>
			</g>
		</g>
		<g>
			<path class="st1" d="M342.1,302.8c-1.2-0.1-2.4-0.1-3.6-0.1l0,0h0c0,0,0,0,0,0c-26.2,0-48.4,20.3-50.3,46.9
				c-2,27.8,19,51.9,46.8,53.9c1.2,0.1,2.4,0.1,3.6,0.1c26.2,0,48.4-20.3,50.3-46.9C390.8,328.9,369.8,304.8,342.1,302.8z
				 M370.9,355.4c-1.2,16.9-15.4,30.2-32.3,30.2c-0.8,0-1.6,0-2.3-0.1c-17.8-1.3-31.3-16.8-30.1-34.7c1.2-16.9,15.4-30.2,32.3-30.2
				v0l0,0c0.8,0,1.6,0,2.3,0.1C358.6,322,372.1,337.6,370.9,355.4z"/>
			<path class="st1" d="M460.7,311.2c-1.2-0.1-2.4-0.1-3.6-0.1l0,0h0c0,0,0,0,0,0c-26.2,0-48.4,20.3-50.3,46.9
				c-2,27.8,19,51.9,46.8,53.9c1.2,0.1,2.4,0.1,3.6,0.1c26.2,0,48.4-20.3,50.3-46.9C509.4,337.3,488.5,313.2,460.7,311.2z
				 M489.5,363.8c-1.2,16.9-15.4,30.2-32.3,30.2c-0.8,0-1.6,0-2.3-0.1c-8.6-0.6-16.5-4.6-22.2-11.1s-8.5-14.9-7.9-23.6
				c1.2-16.9,15.4-30.2,32.3-30.2v0l0,0c0.8,0,1.6,0,2.3,0.1c8.6,0.6,16.5,4.6,22.2,11.1S490.1,355.2,489.5,363.8z"/>
		</g>
		<g>
			<g>
				<g>
					<path class="st1" d="M371.2,412.8c6.9,4,14.9,5.7,22.7,6.2c7.9,0.5,15.9-0.7,23.2-3.8c2.2-0.9,2.8-4.3,1.6-6.2
						c-1.4-2.2-3.8-2.6-6.2-1.6c-0.5,0.2-0.4,0.2,0.2-0.1c-0.2,0.1-0.4,0.2-0.6,0.2c-0.4,0.1-0.7,0.3-1.1,0.4
						c-0.8,0.3-1.5,0.5-2.3,0.7c-1.7,0.5-3.4,0.8-5.1,1c0.8-0.1,0.2,0-0.3,0c-0.5,0.1-1,0.1-1.5,0.1c-0.9,0.1-1.7,0.1-2.6,0.2
						c-1.8,0.1-3.5,0-5.3-0.1c-0.9-0.1-1.8-0.1-2.7-0.2c-0.1,0-1.5-0.2-0.9-0.1c0.6,0.1-0.8-0.1-0.9-0.1c-1.7-0.3-3.4-0.6-5.1-1.1
						c-1.6-0.4-3.2-0.9-4.8-1.5c-0.2-0.1-0.4-0.2-0.6-0.3c0.5,0.2,0.6,0.2,0.1,0c-0.3-0.1-0.6-0.3-0.9-0.4c-0.8-0.4-1.6-0.8-2.4-1.2
						c-2-1.2-5-0.5-6.2,1.6C368.4,408.8,369,411.6,371.2,412.8L371.2,412.8z"/>
				</g>
			</g>
		</g>
	</g>
</g>
</svg>
