<?xml version="1.0" encoding="utf-8"?>
<!-- Generator: Adobe Illustrator 27.3.1, SVG Export Plug-In . SVG Version: 6.00 Build 0)  -->
<svg version="1.1" id="Layer_1" xmlns="http://www.w3.org/2000/svg" xmlns:xlink="http://www.w3.org/1999/xlink" x="0px" y="0px"
	 viewBox="0 0 800 800" style="enable-background:new 0 0 800 800;" xml:space="preserve">
<style type="text/css">
	.st0{fill:#7F52FF;}
	.st1{fill:#FFFFFF;}
	.st2{fill:#FE2857;}
</style>
<g>
	<g>
		<path class="st0" d="M222.1,408.3c-88.1,0-150.3-47-153.2-49.2c-8.3-6.4-9.9-18.3-3.5-26.6c6.4-8.3,18.3-9.9,26.6-3.5
			c0.4,0.3,17.7,13.3,45.7,24.5c37.2,14.9,74.9,20,112,15c10.4-1.4,20,5.9,21.4,16.3c1.4,10.4-5.9,20-16.3,21.4
			C243.6,407.7,232.6,408.3,222.1,408.3z"/>
	</g>
	<g>
		<path class="st0" d="M548.5,383.5c-2.3,0-4.7,0-7-0.1c-10.5-0.3-18.7-9.1-18.4-19.6c0.3-10.5,9.2-18.7,19.6-18.4
			c67.9,2.2,117.6-34,139.7-65.7c6-8.6,17.8-10.8,26.4-4.8c8.6,6,10.8,17.8,4.8,26.4c-16.9,24.4-41.2,45-70.1,59.6
			C614.2,375.8,581.5,383.5,548.5,383.5z"/>
	</g>
	<g>
		<path class="st0" d="M343.1,636.9c-10.4,0-18.9-8.4-19-18.8c-0.1-10.5,8.3-19.1,18.8-19.2l7.2-0.1c-8.2-25.8-12.5-57.5-12.2-91.2
			c0.2-20.8,2.3-40.6,5.9-57.3c4.2-19.4,10.5-33.8,18.6-42.8c7-7.8,19-8.4,26.8-1.4c7.8,7,8.4,19,1.4,26.8
			c-5.5,6.1-14.3,31.8-14.8,75c-0.4,40.3,6.8,77.8,19.2,100.4c3.2,5.9,3.1,13-0.2,18.8c-3.4,5.8-9.5,9.3-16.2,9.4l-35.4,0.3
			C343.2,636.9,343.2,636.9,343.1,636.9z"/>
	</g>
	<g>
		<path class="st0" d="M552.8,562.9c-0.9,0-1.8-0.1-2.7-0.2c-10.4-1.5-17.6-11.1-16.2-21.4l1.6-11.4c-11.7-1.5-27-4.4-43.6-10.3
			c-47.1-16.7-82.6-49.1-102.5-93.6c-4.3-9.6,0-20.8,9.6-25.1c9.6-4.3,20.8,0,25.1,9.6c37.8,84.4,131.6,82.9,132.6,82.9
			c5.5-0.1,11,2.2,14.7,6.3c3.7,4.2,5.4,9.8,4.7,15.3l-4.4,31.5C570.2,556.1,562.1,562.9,552.8,562.9z"/>
	</g>
	<g>
		<g>
			<g>
				<path class="st0" d="M273.3,450l257-17.4c20-1.4,35.1-18.7,33.8-38.7l-13.7-203.2c-2.2-32.5-40.6-48.6-65.3-27.4l-88.1,75.5
					c-5,4.3-12.2,4.8-17.7,1.2L282,177.1c-27.4-17.7-63.3,3.4-61.1,35.9l13.7,203.1C236,436.2,253.3,451.3,273.3,450z"/>
			</g>
			<g>
				<g>
					<path d="M517.2,410.9L283,426.6c-15.4,1-28.8-10.6-29.8-26.1l-7-103.7c-1-15.4,10.6-28.8,26.1-29.8l234.2-15.7
						c15.4-1,28.8,10.6,29.8,26.1l7,103.7C544.3,396.5,532.6,409.8,517.2,410.9z"/>
				</g>
			</g>
			<g>
				<g>
					<path class="st1" d="M335,303.4c17,0,31.2,13.3,32.3,30.3c1.2,17.9-12.4,33.3-30.2,34.5c-0.7,0-1.5,0.1-2.2,0.1
						c-17,0-31.2-13.3-32.3-30.3c-1.2-17.9,12.4-33.3,30.2-34.5C333.5,303.4,334.2,303.4,335,303.4L335,303.4 M335,285.4
						c-1.1,0-2.3,0-3.4,0.1c-27.8,1.9-48.8,25.9-47,53.7c1.8,26.7,24,47.1,50.3,47.1c1.1,0,2.3,0,3.4-0.1
						c27.8-1.9,48.8-25.9,47-53.7C383.5,305.9,361.3,285.4,335,285.4L335,285.4z"/>
				</g>
				<g>
					<path class="st1" d="M453.6,295.5c17,0,31.2,13.3,32.3,30.3c1.2,17.9-12.4,33.3-30.2,34.5c-0.7,0-1.5,0.1-2.2,0.1
						c-17,0-31.2-13.3-32.3-30.3c-0.6-8.6,2.2-17,8-23.5c5.7-6.5,13.6-10.4,22.3-11C452.2,295.5,452.9,295.5,453.6,295.5
						L453.6,295.5 M453.6,277.5c-1.1,0-2.3,0-3.4,0.1c-27.8,1.9-48.8,25.9-47,53.7c1.8,26.7,24,47.1,50.3,47.1c1.1,0,2.3,0,3.4-0.1
						c27.8-1.9,48.8-25.9,47-53.7C502.2,298,480,277.5,453.6,277.5L453.6,277.5z"/>
				</g>
			</g>
		</g>
		<g>
			<path class="st1" d="M391.4,395.5c2.4,0.3,4.8,0.3,7.3,0c5.3-0.6,10.3-2.8,14.5-6c1.3-0.9,2.2-2.3,2.8-3.7c-1.5-0.6-3-1-4.6-1.2
				C403,383.6,395,388.2,391.4,395.5z"/>
			<path class="st1" d="M411.8,381.7c1.7,0.2,3.3,0.6,4.9,1.2c0.1-2.1-0.4-4.3-1.8-6c-3.2-3.8-8.3-4.2-12.6-1.6
				c-3,1.8-7.2,3.2-13.2,1.4c-2.3-0.7-4.7-0.9-7,0c-2,0.8-4,2.7-4.8,4.8c-0.8,2.2-1,4.8,0,7c1,2,2,3.5,4.8,4.8
				c2,0.9,4.1,1.3,6.3,1.7C392.3,386.1,401.8,380.4,411.8,381.7z"/>
		</g>
	</g>
</g>
</svg>
