<?xml version="1.0" encoding="UTF-8" standalone="no"?>
<!-- Generator: Adobe Illustrator 27.3.1, SVG Export Plug-In . SVG Version: 6.00 Build 0)  -->

<svg
   version="1.1"
   id="Layer_1"
   x="0px"
   y="0px"
   viewBox="0 0 800 800"
   style="enable-background:new 0 0 800 800;"
   xml:space="preserve"
   sodipodi:docname="Kodee_flag.svg"
   inkscape:version="1.2.2 (b0a8486541, 2022-12-01)"
   xmlns:inkscape="http://www.inkscape.org/namespaces/inkscape"
   xmlns:sodipodi="http://sodipodi.sourceforge.net/DTD/sodipodi-0.dtd"
   xmlns="http://www.w3.org/2000/svg"
   xmlns:svg="http://www.w3.org/2000/svg"><defs
   id="defs55" /><sodipodi:namedview
   id="namedview53"
   pagecolor="#ffffff"
   bordercolor="#000000"
   borderopacity="0.25"
   inkscape:showpageshadow="2"
   inkscape:pageopacity="0.0"
   inkscape:pagecheckerboard="0"
   inkscape:deskcolor="#d1d1d1"
   showgrid="false"
   inkscape:zoom="1.4533584"
   inkscape:cx="402.17196"
   inkscape:cy="80.159168"
   inkscape:window-width="1796"
   inkscape:window-height="1083"
   inkscape:window-x="0"
   inkscape:window-y="0"
   inkscape:window-maximized="1"
   inkscape:current-layer="g50" />
<style
   type="text/css"
   id="style2">
	.st0{fill:#7F52FF;}
	.st1{fill:#FFFFFF;}
	.st2{fill:#FE2857;}
</style>
<g
   id="g50">
	<path
   style="fill:none;fill-opacity:1;stroke:#7f52ff;stroke-width:35.7;stroke-linecap:round;stroke-dasharray:none;stroke-opacity:1"
   d="M 213.16797,365.66741 C 159.64805,351.28117 119.98584,302.02536 118.58042,240.80801"
   id="path374"
   sodipodi:nodetypes="cc" />
	
	<g
   id="g14"
   transform="matrix(-1,0,0,1,767.05876,0)">
		<path
   class="st0"
   d="m 343.1,636.9 c -10.4,0 -18.9,-8.4 -19,-18.8 -0.1,-10.5 8.3,-19.1 18.8,-19.2 l 7.2,-0.1 c -8.2,-25.8 -12.5,-57.5 -12.2,-91.2 0.2,-20.8 2.3,-40.6 5.9,-57.3 4.2,-19.4 10.5,-33.8 18.6,-42.8 7,-7.8 19,-8.4 26.8,-1.4 7.8,7 8.4,19 1.4,26.8 -5.5,6.1 -14.3,31.8 -14.8,75 -0.4,40.3 6.8,77.8 19.2,100.4 3.2,5.9 3.1,13 -0.2,18.8 -3.4,5.8 -9.5,9.3 -16.2,9.4 l -35.4,0.3 c 0,0.1 0,0.1 -0.1,0.1 z"
   id="path12" />
	</g>
	<g
   id="g18"
   transform="matrix(-1,0,0,1,767.05876,0)">
		<path
   class="st0"
   d="m 552.8,562.9 c -0.9,0 -1.8,-0.1 -2.7,-0.2 -10.4,-1.5 -17.6,-11.1 -16.2,-21.4 l 1.6,-11.4 c -11.7,-1.5 -27,-4.4 -43.6,-10.3 -47.1,-16.7 -82.6,-49.1 -102.5,-93.6 -4.3,-9.6 0,-20.8 9.6,-25.1 9.6,-4.3 20.8,0 25.1,9.6 37.8,84.4 131.6,82.9 132.6,82.9 5.5,-0.1 11,2.2 14.7,6.3 3.7,4.2 5.4,9.8 4.7,15.3 l -4.4,31.5 c -1.5,9.6 -9.6,16.4 -18.9,16.4 z"
   id="path16" />
	</g>
	<g
   id="g48"
   transform="matrix(-1,0,0,1,767.05876,0)">
		<g
   id="g40">
			<g
   id="g22">
				<path
   class="st0"
   d="m 273.3,450 257,-17.4 c 20,-1.4 35.1,-18.7 33.8,-38.7 L 550.4,190.7 c -2.2,-32.5 -40.6,-48.6 -65.3,-27.4 L 397,238.8 c -5,4.3 -12.2,4.8 -17.7,1.2 L 282,177.1 c -27.4,-17.7 -63.3,3.4 -61.1,35.9 l 13.7,203.1 c 1.4,20.1 18.7,35.2 38.7,33.9 z"
   id="path20" />
			</g>
			<g
   id="g28">
				<g
   id="g26">
					<path
   d="M 517.2,410.9 283,426.6 c -15.4,1 -28.8,-10.6 -29.8,-26.1 l -7,-103.7 c -1,-15.4 10.6,-28.8 26.1,-29.8 l 234.2,-15.7 c 15.4,-1 28.8,10.6 29.8,26.1 l 7,103.7 c 1,15.4 -10.7,28.7 -26.1,29.8 z"
   id="path24" />
				</g>
			</g>
			<g
   id="g38">
				<g
   id="g32">
					<path
   class="st1"
   d="m 335,303.4 c 17,0 31.2,13.3 32.3,30.3 1.2,17.9 -12.4,33.3 -30.2,34.5 -0.7,0 -1.5,0.1 -2.2,0.1 -17,0 -31.2,-13.3 -32.3,-30.3 -1.2,-17.9 12.4,-33.3 30.2,-34.5 0.7,-0.1 1.4,-0.1 2.2,-0.1 v 0 m 0,-18 c -1.1,0 -2.3,0 -3.4,0.1 -27.8,1.9 -48.8,25.9 -47,53.7 1.8,26.7 24,47.1 50.3,47.1 1.1,0 2.3,0 3.4,-0.1 27.8,-1.9 48.8,-25.9 47,-53.7 -1.8,-26.6 -24,-47.1 -50.3,-47.1 z"
   id="path30" />
				</g>
				<g
   id="g36">
					<path
   class="st1"
   d="m 453.6,295.5 c 17,0 31.2,13.3 32.3,30.3 1.2,17.9 -12.4,33.3 -30.2,34.5 -0.7,0 -1.5,0.1 -2.2,0.1 -17,0 -31.2,-13.3 -32.3,-30.3 -0.6,-8.6 2.2,-17 8,-23.5 5.7,-6.5 13.6,-10.4 22.3,-11 0.7,-0.1 1.4,-0.1 2.1,-0.1 v 0 m 0,-18 c -1.1,0 -2.3,0 -3.4,0.1 -27.8,1.9 -48.8,25.9 -47,53.7 1.8,26.7 24,47.1 50.3,47.1 1.1,0 2.3,0 3.4,-0.1 27.8,-1.9 48.8,-25.9 47,-53.7 C 502.2,298 480,277.5 453.6,277.5 Z"
   id="path34" />
				</g>
			</g>
		</g>
		<g
   id="g46">
			<path
   class="st1"
   d="m 391.4,395.5 c 2.4,0.3 4.8,0.3 7.3,0 5.3,-0.6 10.3,-2.8 14.5,-6 1.3,-0.9 2.2,-2.3 2.8,-3.7 -1.5,-0.6 -3,-1 -4.6,-1.2 -8.4,-1 -16.4,3.6 -20,10.9 z"
   id="path42" />
			<path
   class="st1"
   d="m 411.8,381.7 c 1.7,0.2 3.3,0.6 4.9,1.2 0.1,-2.1 -0.4,-4.3 -1.8,-6 -3.2,-3.8 -8.3,-4.2 -12.6,-1.6 -3,1.8 -7.2,3.2 -13.2,1.4 -2.3,-0.7 -4.7,-0.9 -7,0 -2,0.8 -4,2.7 -4.8,4.8 -0.8,2.2 -1,4.8 0,7 1,2 2,3.5 4.8,4.8 2,0.9 4.1,1.3 6.3,1.7 3.9,-8.9 13.4,-14.6 23.4,-13.3 z"
   id="path44" />
		</g>
	</g>
<path
   style="fill:none;fill-opacity:1;stroke:#7f52ff;stroke-width:35.7;stroke-linecap:round;stroke-dasharray:none;stroke-opacity:1"
   d="m 533.61776,389.45089 c 59.19909,-10.6869 125.75208,-50.46628 144.90952,-119.90816"
   id="path1455"
   sodipodi:nodetypes="cc" /><path
   style="fill:none;fill-opacity:1;stroke:#cccccc;stroke-width:35.7;stroke-linecap:round;stroke-dasharray:none;stroke-opacity:1"
   d="M 708.31903,314.95748 508.33771,84.674572"
   id="path1520" /><path
   style="fill:#ff0000;fill-opacity:1;stroke:#ff0000;stroke-width:8;stroke-linecap:round;stroke-linejoin:round;stroke-miterlimit:3;stroke-dasharray:none;stroke-opacity:1"
   d="M 608.32837,199.81603 676.84291,39.687174 508.33771,84.674572 Z"
   id="path1717"
   sodipodi:nodetypes="cccc" /></g>
</svg>
