%TF.GenerationSoftware,KiCad,Pcbnew,(5.1.10)-1*%
%TF.CreationDate,2021-09-04T18:59:30+09:00*%
%TF.ProjectId,TsukCTF,5473756b-4354-4462-9e6b-696361645f70,rev?*%
%TF.SameCoordinates,Original*%
%TF.FileFunction,Legend,Top*%
%TF.FilePolarity,Positive*%
%FSLAX46Y46*%
G04 Gerber Fmt 4.6, Leading zero omitted, Abs format (unit mm)*
G04 Created by KiCad (PCBNEW (5.1.10)-1) date 2021-09-04 18:59:30*
%MOMM*%
%LPD*%
G01*
G04 APERTURE LIST*
%ADD10C,0.500000*%
%ADD11C,0.300000*%
%ADD12C,0.120000*%
%ADD13C,0.150000*%
G04 APERTURE END LIST*
D10*
X133285714Y-88357142D02*
X134000000Y-91357142D01*
X134571428Y-89214285D01*
X135142857Y-91357142D01*
X135857142Y-88357142D01*
X137000000Y-91357142D02*
X137000000Y-88357142D01*
X138285714Y-91357142D02*
X138285714Y-89785714D01*
X138142857Y-89500000D01*
X137857142Y-89357142D01*
X137428571Y-89357142D01*
X137142857Y-89500000D01*
X137000000Y-89642857D01*
X141000000Y-91357142D02*
X141000000Y-89785714D01*
X140857142Y-89500000D01*
X140571428Y-89357142D01*
X140000000Y-89357142D01*
X139714285Y-89500000D01*
X141000000Y-91214285D02*
X140714285Y-91357142D01*
X140000000Y-91357142D01*
X139714285Y-91214285D01*
X139571428Y-90928571D01*
X139571428Y-90642857D01*
X139714285Y-90357142D01*
X140000000Y-90214285D01*
X140714285Y-90214285D01*
X141000000Y-90071428D01*
X142000000Y-89357142D02*
X143142857Y-89357142D01*
X142428571Y-88357142D02*
X142428571Y-90928571D01*
X142571428Y-91214285D01*
X142857142Y-91357142D01*
X143142857Y-91357142D01*
X147714285Y-91214285D02*
X147428571Y-91357142D01*
X146857142Y-91357142D01*
X146571428Y-91214285D01*
X146428571Y-91071428D01*
X146285714Y-90785714D01*
X146285714Y-89928571D01*
X146428571Y-89642857D01*
X146571428Y-89500000D01*
X146857142Y-89357142D01*
X147428571Y-89357142D01*
X147714285Y-89500000D01*
X149428571Y-91357142D02*
X149142857Y-91214285D01*
X149000000Y-91071428D01*
X148857142Y-90785714D01*
X148857142Y-89928571D01*
X149000000Y-89642857D01*
X149142857Y-89500000D01*
X149428571Y-89357142D01*
X149857142Y-89357142D01*
X150142857Y-89500000D01*
X150285714Y-89642857D01*
X150428571Y-89928571D01*
X150428571Y-90785714D01*
X150285714Y-91071428D01*
X150142857Y-91214285D01*
X149857142Y-91357142D01*
X149428571Y-91357142D01*
X151714285Y-89357142D02*
X151714285Y-91357142D01*
X151714285Y-89642857D02*
X151857142Y-89500000D01*
X152142857Y-89357142D01*
X152571428Y-89357142D01*
X152857142Y-89500000D01*
X153000000Y-89785714D01*
X153000000Y-91357142D01*
X154285714Y-91214285D02*
X154571428Y-91357142D01*
X155142857Y-91357142D01*
X155428571Y-91214285D01*
X155571428Y-90928571D01*
X155571428Y-90785714D01*
X155428571Y-90500000D01*
X155142857Y-90357142D01*
X154714285Y-90357142D01*
X154428571Y-90214285D01*
X154285714Y-89928571D01*
X154285714Y-89785714D01*
X154428571Y-89500000D01*
X154714285Y-89357142D01*
X155142857Y-89357142D01*
X155428571Y-89500000D01*
X156428571Y-89357142D02*
X157571428Y-89357142D01*
X156857142Y-88357142D02*
X156857142Y-90928571D01*
X157000000Y-91214285D01*
X157285714Y-91357142D01*
X157571428Y-91357142D01*
X159714285Y-91214285D02*
X159428571Y-91357142D01*
X158857142Y-91357142D01*
X158571428Y-91214285D01*
X158428571Y-90928571D01*
X158428571Y-89785714D01*
X158571428Y-89500000D01*
X158857142Y-89357142D01*
X159428571Y-89357142D01*
X159714285Y-89500000D01*
X159857142Y-89785714D01*
X159857142Y-90071428D01*
X158428571Y-90357142D01*
X161571428Y-91357142D02*
X161285714Y-91214285D01*
X161142857Y-90928571D01*
X161142857Y-88357142D01*
X163142857Y-91357142D02*
X162857142Y-91214285D01*
X162714285Y-90928571D01*
X162714285Y-88357142D01*
X165571428Y-91357142D02*
X165571428Y-89785714D01*
X165428571Y-89500000D01*
X165142857Y-89357142D01*
X164571428Y-89357142D01*
X164285714Y-89500000D01*
X165571428Y-91214285D02*
X165285714Y-91357142D01*
X164571428Y-91357142D01*
X164285714Y-91214285D01*
X164142857Y-90928571D01*
X164142857Y-90642857D01*
X164285714Y-90357142D01*
X164571428Y-90214285D01*
X165285714Y-90214285D01*
X165571428Y-90071428D01*
X166571428Y-89357142D02*
X167714285Y-89357142D01*
X167000000Y-88357142D02*
X167000000Y-90928571D01*
X167142857Y-91214285D01*
X167428571Y-91357142D01*
X167714285Y-91357142D01*
X168714285Y-91357142D02*
X168714285Y-89357142D01*
X168714285Y-88357142D02*
X168571428Y-88500000D01*
X168714285Y-88642857D01*
X168857142Y-88500000D01*
X168714285Y-88357142D01*
X168714285Y-88642857D01*
X170571428Y-91357142D02*
X170285714Y-91214285D01*
X170142857Y-91071428D01*
X170000000Y-90785714D01*
X170000000Y-89928571D01*
X170142857Y-89642857D01*
X170285714Y-89500000D01*
X170571428Y-89357142D01*
X171000000Y-89357142D01*
X171285714Y-89500000D01*
X171428571Y-89642857D01*
X171571428Y-89928571D01*
X171571428Y-90785714D01*
X171428571Y-91071428D01*
X171285714Y-91214285D01*
X171000000Y-91357142D01*
X170571428Y-91357142D01*
X172857142Y-89357142D02*
X172857142Y-91357142D01*
X172857142Y-89642857D02*
X173000000Y-89500000D01*
X173285714Y-89357142D01*
X173714285Y-89357142D01*
X174000000Y-89500000D01*
X174142857Y-89785714D01*
X174142857Y-91357142D01*
X177857142Y-91357142D02*
X177857142Y-89357142D01*
X177857142Y-88357142D02*
X177714285Y-88500000D01*
X177857142Y-88642857D01*
X178000000Y-88500000D01*
X177857142Y-88357142D01*
X177857142Y-88642857D01*
X179142857Y-91214285D02*
X179428571Y-91357142D01*
X179999999Y-91357142D01*
X180285714Y-91214285D01*
X180428571Y-90928571D01*
X180428571Y-90785714D01*
X180285714Y-90500000D01*
X179999999Y-90357142D01*
X179571428Y-90357142D01*
X179285714Y-90214285D01*
X179142857Y-89928571D01*
X179142857Y-89785714D01*
X179285714Y-89500000D01*
X179571428Y-89357142D01*
X179999999Y-89357142D01*
X180285714Y-89500000D01*
X183999999Y-91357142D02*
X183999999Y-89357142D01*
X183999999Y-88357142D02*
X183857142Y-88500000D01*
X183999999Y-88642857D01*
X184142857Y-88500000D01*
X183999999Y-88357142D01*
X183999999Y-88642857D01*
X184999999Y-89357142D02*
X186142857Y-89357142D01*
X185428571Y-88357142D02*
X185428571Y-90928571D01*
X185571428Y-91214285D01*
X185857142Y-91357142D01*
X186142857Y-91357142D01*
X189285714Y-91214285D02*
X189571428Y-91357142D01*
X190142857Y-91357142D01*
X190428571Y-91214285D01*
X190571428Y-90928571D01*
X190571428Y-90785714D01*
X190428571Y-90500000D01*
X190142857Y-90357142D01*
X189714285Y-90357142D01*
X189428571Y-90214285D01*
X189285714Y-89928571D01*
X189285714Y-89785714D01*
X189428571Y-89500000D01*
X189714285Y-89357142D01*
X190142857Y-89357142D01*
X190428571Y-89500000D01*
X191857142Y-91357142D02*
X191857142Y-88357142D01*
X193142857Y-91357142D02*
X193142857Y-89785714D01*
X192999999Y-89500000D01*
X192714285Y-89357142D01*
X192285714Y-89357142D01*
X191999999Y-89500000D01*
X191857142Y-89642857D01*
X194999999Y-91357142D02*
X194714285Y-91214285D01*
X194571428Y-91071428D01*
X194428571Y-90785714D01*
X194428571Y-89928571D01*
X194571428Y-89642857D01*
X194714285Y-89500000D01*
X194999999Y-89357142D01*
X195428571Y-89357142D01*
X195714285Y-89500000D01*
X195857142Y-89642857D01*
X195999999Y-89928571D01*
X195999999Y-90785714D01*
X195857142Y-91071428D01*
X195714285Y-91214285D01*
X195428571Y-91357142D01*
X194999999Y-91357142D01*
X196999999Y-89357142D02*
X197571428Y-91357142D01*
X198142857Y-89928571D01*
X198714285Y-91357142D01*
X199285714Y-89357142D01*
X200428571Y-91357142D02*
X200428571Y-89357142D01*
X200428571Y-88357142D02*
X200285714Y-88500000D01*
X200428571Y-88642857D01*
X200571428Y-88500000D01*
X200428571Y-88357142D01*
X200428571Y-88642857D01*
X201857142Y-89357142D02*
X201857142Y-91357142D01*
X201857142Y-89642857D02*
X201999999Y-89500000D01*
X202285714Y-89357142D01*
X202714285Y-89357142D01*
X202999999Y-89500000D01*
X203142857Y-89785714D01*
X203142857Y-91357142D01*
X205857142Y-89357142D02*
X205857142Y-91785714D01*
X205714285Y-92071428D01*
X205571428Y-92214285D01*
X205285714Y-92357142D01*
X204857142Y-92357142D01*
X204571428Y-92214285D01*
X205857142Y-91214285D02*
X205571428Y-91357142D01*
X205000000Y-91357142D01*
X204714285Y-91214285D01*
X204571428Y-91071428D01*
X204428571Y-90785714D01*
X204428571Y-89928571D01*
X204571428Y-89642857D01*
X204714285Y-89500000D01*
X205000000Y-89357142D01*
X205571428Y-89357142D01*
X205857142Y-89500000D01*
X207714285Y-91071428D02*
X207857142Y-91214285D01*
X207714285Y-91357142D01*
X207571428Y-91214285D01*
X207714285Y-91071428D01*
X207714285Y-91357142D01*
X207142857Y-88500000D02*
X207428571Y-88357142D01*
X208142857Y-88357142D01*
X208428571Y-88500000D01*
X208571428Y-88785714D01*
X208571428Y-89071428D01*
X208428571Y-89357142D01*
X208285714Y-89500000D01*
X208000000Y-89642857D01*
X207857142Y-89785714D01*
X207714285Y-90071428D01*
X207714285Y-90214285D01*
D11*
X132035714Y-113678571D02*
X132035714Y-112178571D01*
X132607142Y-112178571D01*
X132750000Y-112250000D01*
X132821428Y-112321428D01*
X132892857Y-112464285D01*
X132892857Y-112678571D01*
X132821428Y-112821428D01*
X132750000Y-112892857D01*
X132607142Y-112964285D01*
X132035714Y-112964285D01*
X133750000Y-113678571D02*
X133607142Y-113607142D01*
X133535714Y-113535714D01*
X133464285Y-113392857D01*
X133464285Y-112964285D01*
X133535714Y-112821428D01*
X133607142Y-112750000D01*
X133750000Y-112678571D01*
X133964285Y-112678571D01*
X134107142Y-112750000D01*
X134178571Y-112821428D01*
X134250000Y-112964285D01*
X134250000Y-113392857D01*
X134178571Y-113535714D01*
X134107142Y-113607142D01*
X133964285Y-113678571D01*
X133750000Y-113678571D01*
X134750000Y-112678571D02*
X135035714Y-113678571D01*
X135321428Y-112964285D01*
X135607142Y-113678571D01*
X135892857Y-112678571D01*
X137035714Y-113607142D02*
X136892857Y-113678571D01*
X136607142Y-113678571D01*
X136464285Y-113607142D01*
X136392857Y-113464285D01*
X136392857Y-112892857D01*
X136464285Y-112750000D01*
X136607142Y-112678571D01*
X136892857Y-112678571D01*
X137035714Y-112750000D01*
X137107142Y-112892857D01*
X137107142Y-113035714D01*
X136392857Y-113178571D01*
X137750000Y-113678571D02*
X137750000Y-112678571D01*
X137750000Y-112964285D02*
X137821428Y-112821428D01*
X137892857Y-112750000D01*
X138035714Y-112678571D01*
X138178571Y-112678571D01*
D12*
%TO.C,D3*%
X150236000Y-114710000D02*
X150080000Y-114710000D01*
X147920000Y-114710000D02*
X147764000Y-114710000D01*
X150078608Y-117942335D02*
G75*
G03*
X150235516Y-114710000I-1078608J1672335D01*
G01*
X147921392Y-117942335D02*
G75*
G02*
X147764484Y-114710000I1078608J1672335D01*
G01*
X150079837Y-117311130D02*
G75*
G03*
X150080000Y-115229039I-1079837J1041130D01*
G01*
X147920163Y-117311130D02*
G75*
G02*
X147920000Y-115229039I1079837J1041130D01*
G01*
%TO.C,D4*%
X154650000Y-128304000D02*
X154650000Y-128460000D01*
X154650000Y-130620000D02*
X154650000Y-130776000D01*
X157882335Y-128461392D02*
G75*
G03*
X154650000Y-128304484I-1672335J-1078608D01*
G01*
X157882335Y-130618608D02*
G75*
G02*
X154650000Y-130775516I-1672335J1078608D01*
G01*
X157251130Y-128460163D02*
G75*
G03*
X155169039Y-128460000I-1041130J-1079837D01*
G01*
X157251130Y-130619837D02*
G75*
G02*
X155169039Y-130620000I-1041130J1079837D01*
G01*
%TO.C,D5*%
X147080000Y-144290000D02*
X147236000Y-144290000D01*
X144764000Y-144290000D02*
X144920000Y-144290000D01*
X147079837Y-141688870D02*
G75*
G02*
X147080000Y-143770961I-1079837J-1041130D01*
G01*
X144920163Y-141688870D02*
G75*
G03*
X144920000Y-143770961I1079837J-1041130D01*
G01*
X147078608Y-141057665D02*
G75*
G02*
X147235516Y-144290000I-1078608J-1672335D01*
G01*
X144921392Y-141057665D02*
G75*
G03*
X144764484Y-144290000I1078608J-1672335D01*
G01*
%TO.C,D6*%
X170290000Y-118920000D02*
X170290000Y-118764000D01*
X170290000Y-121236000D02*
X170290000Y-121080000D01*
X167688870Y-118920163D02*
G75*
G02*
X169770961Y-118920000I1041130J-1079837D01*
G01*
X167688870Y-121079837D02*
G75*
G03*
X169770961Y-121080000I1041130J1079837D01*
G01*
X167057665Y-118921392D02*
G75*
G02*
X170290000Y-118764484I1672335J-1078608D01*
G01*
X167057665Y-121078608D02*
G75*
G03*
X170290000Y-121235516I1672335J1078608D01*
G01*
%TO.C,D7*%
X195870000Y-156176000D02*
X195870000Y-156020000D01*
X195870000Y-153860000D02*
X195870000Y-153704000D01*
X192637665Y-156018608D02*
G75*
G03*
X195870000Y-156175516I1672335J1078608D01*
G01*
X192637665Y-153861392D02*
G75*
G02*
X195870000Y-153704484I1672335J-1078608D01*
G01*
X193268870Y-156019837D02*
G75*
G03*
X195350961Y-156020000I1041130J1079837D01*
G01*
X193268870Y-153860163D02*
G75*
G02*
X195350961Y-153860000I1041130J-1079837D01*
G01*
%TO.C,D8*%
X131710000Y-149080000D02*
X131710000Y-149236000D01*
X131710000Y-146764000D02*
X131710000Y-146920000D01*
X134311130Y-149079837D02*
G75*
G02*
X132229039Y-149080000I-1041130J1079837D01*
G01*
X134311130Y-146920163D02*
G75*
G03*
X132229039Y-146920000I-1041130J-1079837D01*
G01*
X134942335Y-149078608D02*
G75*
G02*
X131710000Y-149235516I-1672335J1078608D01*
G01*
X134942335Y-146921392D02*
G75*
G03*
X131710000Y-146764484I-1672335J-1078608D01*
G01*
%TO.C,D9*%
X173830000Y-106920000D02*
X173830000Y-106764000D01*
X173830000Y-109236000D02*
X173830000Y-109080000D01*
X171228870Y-106920163D02*
G75*
G02*
X173310961Y-106920000I1041130J-1079837D01*
G01*
X171228870Y-109079837D02*
G75*
G03*
X173310961Y-109080000I1041130J1079837D01*
G01*
X170597665Y-106921392D02*
G75*
G02*
X173830000Y-106764484I1672335J-1078608D01*
G01*
X170597665Y-109078608D02*
G75*
G03*
X173830000Y-109235516I1672335J1078608D01*
G01*
%TO.C,D10*%
X175920000Y-99710000D02*
X175764000Y-99710000D01*
X178236000Y-99710000D02*
X178080000Y-99710000D01*
X175920163Y-102311130D02*
G75*
G02*
X175920000Y-100229039I1079837J1041130D01*
G01*
X178079837Y-102311130D02*
G75*
G03*
X178080000Y-100229039I-1079837J1041130D01*
G01*
X175921392Y-102942335D02*
G75*
G02*
X175764484Y-99710000I1078608J1672335D01*
G01*
X178078608Y-102942335D02*
G75*
G03*
X178235516Y-99710000I-1078608J1672335D01*
G01*
%TO.C,D11*%
X190290000Y-97236000D02*
X190290000Y-97080000D01*
X190290000Y-94920000D02*
X190290000Y-94764000D01*
X187057665Y-97078608D02*
G75*
G03*
X190290000Y-97235516I1672335J1078608D01*
G01*
X187057665Y-94921392D02*
G75*
G02*
X190290000Y-94764484I1672335J-1078608D01*
G01*
X187688870Y-97079837D02*
G75*
G03*
X189770961Y-97080000I1041130J1079837D01*
G01*
X187688870Y-94920163D02*
G75*
G02*
X189770961Y-94920000I1041130J-1079837D01*
G01*
%TO.C,D12*%
X166764000Y-140290000D02*
X166920000Y-140290000D01*
X169080000Y-140290000D02*
X169236000Y-140290000D01*
X166921392Y-137057665D02*
G75*
G03*
X166764484Y-140290000I1078608J-1672335D01*
G01*
X169078608Y-137057665D02*
G75*
G02*
X169235516Y-140290000I-1078608J-1672335D01*
G01*
X166920163Y-137688870D02*
G75*
G03*
X166920000Y-139770961I1079837J-1041130D01*
G01*
X169079837Y-137688870D02*
G75*
G02*
X169080000Y-139770961I-1079837J-1041130D01*
G01*
%TO.C,D13*%
X172430000Y-145860000D02*
X172430000Y-146016000D01*
X172430000Y-143544000D02*
X172430000Y-143700000D01*
X175031130Y-145859837D02*
G75*
G02*
X172949039Y-145860000I-1041130J1079837D01*
G01*
X175031130Y-143700163D02*
G75*
G03*
X172949039Y-143700000I-1041130J-1079837D01*
G01*
X175662335Y-145858608D02*
G75*
G02*
X172430000Y-146015516I-1672335J1078608D01*
G01*
X175662335Y-143701392D02*
G75*
G03*
X172430000Y-143544484I-1672335J-1078608D01*
G01*
%TO.C,J1*%
X133290000Y-120710000D02*
X135950000Y-120710000D01*
X133290000Y-118110000D02*
X133290000Y-120710000D01*
X135950000Y-118110000D02*
X135950000Y-120710000D01*
X133290000Y-118110000D02*
X135950000Y-118110000D01*
X133290000Y-116840000D02*
X133290000Y-115510000D01*
X133290000Y-115510000D02*
X134620000Y-115510000D01*
%TO.C,D3*%
D13*
X152412380Y-117008095D02*
X151412380Y-117008095D01*
X151412380Y-116770000D01*
X151460000Y-116627142D01*
X151555238Y-116531904D01*
X151650476Y-116484285D01*
X151840952Y-116436666D01*
X151983809Y-116436666D01*
X152174285Y-116484285D01*
X152269523Y-116531904D01*
X152364761Y-116627142D01*
X152412380Y-116770000D01*
X152412380Y-117008095D01*
X151412380Y-116103333D02*
X151412380Y-115484285D01*
X151793333Y-115817619D01*
X151793333Y-115674761D01*
X151840952Y-115579523D01*
X151888571Y-115531904D01*
X151983809Y-115484285D01*
X152221904Y-115484285D01*
X152317142Y-115531904D01*
X152364761Y-115579523D01*
X152412380Y-115674761D01*
X152412380Y-115960476D01*
X152364761Y-116055714D01*
X152317142Y-116103333D01*
%TO.C,D4*%
X155471904Y-127032380D02*
X155471904Y-126032380D01*
X155710000Y-126032380D01*
X155852857Y-126080000D01*
X155948095Y-126175238D01*
X155995714Y-126270476D01*
X156043333Y-126460952D01*
X156043333Y-126603809D01*
X155995714Y-126794285D01*
X155948095Y-126889523D01*
X155852857Y-126984761D01*
X155710000Y-127032380D01*
X155471904Y-127032380D01*
X156900476Y-126365714D02*
X156900476Y-127032380D01*
X156662380Y-125984761D02*
X156424285Y-126699047D01*
X157043333Y-126699047D01*
%TO.C,D5*%
X143492380Y-143468095D02*
X142492380Y-143468095D01*
X142492380Y-143230000D01*
X142540000Y-143087142D01*
X142635238Y-142991904D01*
X142730476Y-142944285D01*
X142920952Y-142896666D01*
X143063809Y-142896666D01*
X143254285Y-142944285D01*
X143349523Y-142991904D01*
X143444761Y-143087142D01*
X143492380Y-143230000D01*
X143492380Y-143468095D01*
X142492380Y-141991904D02*
X142492380Y-142468095D01*
X142968571Y-142515714D01*
X142920952Y-142468095D01*
X142873333Y-142372857D01*
X142873333Y-142134761D01*
X142920952Y-142039523D01*
X142968571Y-141991904D01*
X143063809Y-141944285D01*
X143301904Y-141944285D01*
X143397142Y-141991904D01*
X143444761Y-142039523D01*
X143492380Y-142134761D01*
X143492380Y-142372857D01*
X143444761Y-142468095D01*
X143397142Y-142515714D01*
%TO.C,D6*%
X167991904Y-123412380D02*
X167991904Y-122412380D01*
X168230000Y-122412380D01*
X168372857Y-122460000D01*
X168468095Y-122555238D01*
X168515714Y-122650476D01*
X168563333Y-122840952D01*
X168563333Y-122983809D01*
X168515714Y-123174285D01*
X168468095Y-123269523D01*
X168372857Y-123364761D01*
X168230000Y-123412380D01*
X167991904Y-123412380D01*
X169420476Y-122412380D02*
X169230000Y-122412380D01*
X169134761Y-122460000D01*
X169087142Y-122507619D01*
X168991904Y-122650476D01*
X168944285Y-122840952D01*
X168944285Y-123221904D01*
X168991904Y-123317142D01*
X169039523Y-123364761D01*
X169134761Y-123412380D01*
X169325238Y-123412380D01*
X169420476Y-123364761D01*
X169468095Y-123317142D01*
X169515714Y-123221904D01*
X169515714Y-122983809D01*
X169468095Y-122888571D01*
X169420476Y-122840952D01*
X169325238Y-122793333D01*
X169134761Y-122793333D01*
X169039523Y-122840952D01*
X168991904Y-122888571D01*
X168944285Y-122983809D01*
%TO.C,D7*%
X193571904Y-158352380D02*
X193571904Y-157352380D01*
X193810000Y-157352380D01*
X193952857Y-157400000D01*
X194048095Y-157495238D01*
X194095714Y-157590476D01*
X194143333Y-157780952D01*
X194143333Y-157923809D01*
X194095714Y-158114285D01*
X194048095Y-158209523D01*
X193952857Y-158304761D01*
X193810000Y-158352380D01*
X193571904Y-158352380D01*
X194476666Y-157352380D02*
X195143333Y-157352380D01*
X194714761Y-158352380D01*
%TO.C,D8*%
X132531904Y-145492380D02*
X132531904Y-144492380D01*
X132770000Y-144492380D01*
X132912857Y-144540000D01*
X133008095Y-144635238D01*
X133055714Y-144730476D01*
X133103333Y-144920952D01*
X133103333Y-145063809D01*
X133055714Y-145254285D01*
X133008095Y-145349523D01*
X132912857Y-145444761D01*
X132770000Y-145492380D01*
X132531904Y-145492380D01*
X133674761Y-144920952D02*
X133579523Y-144873333D01*
X133531904Y-144825714D01*
X133484285Y-144730476D01*
X133484285Y-144682857D01*
X133531904Y-144587619D01*
X133579523Y-144540000D01*
X133674761Y-144492380D01*
X133865238Y-144492380D01*
X133960476Y-144540000D01*
X134008095Y-144587619D01*
X134055714Y-144682857D01*
X134055714Y-144730476D01*
X134008095Y-144825714D01*
X133960476Y-144873333D01*
X133865238Y-144920952D01*
X133674761Y-144920952D01*
X133579523Y-144968571D01*
X133531904Y-145016190D01*
X133484285Y-145111428D01*
X133484285Y-145301904D01*
X133531904Y-145397142D01*
X133579523Y-145444761D01*
X133674761Y-145492380D01*
X133865238Y-145492380D01*
X133960476Y-145444761D01*
X134008095Y-145397142D01*
X134055714Y-145301904D01*
X134055714Y-145111428D01*
X134008095Y-145016190D01*
X133960476Y-144968571D01*
X133865238Y-144920952D01*
%TO.C,D9*%
X171531904Y-111412380D02*
X171531904Y-110412380D01*
X171770000Y-110412380D01*
X171912857Y-110460000D01*
X172008095Y-110555238D01*
X172055714Y-110650476D01*
X172103333Y-110840952D01*
X172103333Y-110983809D01*
X172055714Y-111174285D01*
X172008095Y-111269523D01*
X171912857Y-111364761D01*
X171770000Y-111412380D01*
X171531904Y-111412380D01*
X172579523Y-111412380D02*
X172770000Y-111412380D01*
X172865238Y-111364761D01*
X172912857Y-111317142D01*
X173008095Y-111174285D01*
X173055714Y-110983809D01*
X173055714Y-110602857D01*
X173008095Y-110507619D01*
X172960476Y-110460000D01*
X172865238Y-110412380D01*
X172674761Y-110412380D01*
X172579523Y-110460000D01*
X172531904Y-110507619D01*
X172484285Y-110602857D01*
X172484285Y-110840952D01*
X172531904Y-110936190D01*
X172579523Y-110983809D01*
X172674761Y-111031428D01*
X172865238Y-111031428D01*
X172960476Y-110983809D01*
X173008095Y-110936190D01*
X173055714Y-110840952D01*
%TO.C,D10*%
X180412380Y-102484285D02*
X179412380Y-102484285D01*
X179412380Y-102246190D01*
X179460000Y-102103333D01*
X179555238Y-102008095D01*
X179650476Y-101960476D01*
X179840952Y-101912857D01*
X179983809Y-101912857D01*
X180174285Y-101960476D01*
X180269523Y-102008095D01*
X180364761Y-102103333D01*
X180412380Y-102246190D01*
X180412380Y-102484285D01*
X180412380Y-100960476D02*
X180412380Y-101531904D01*
X180412380Y-101246190D02*
X179412380Y-101246190D01*
X179555238Y-101341428D01*
X179650476Y-101436666D01*
X179698095Y-101531904D01*
X179412380Y-100341428D02*
X179412380Y-100246190D01*
X179460000Y-100150952D01*
X179507619Y-100103333D01*
X179602857Y-100055714D01*
X179793333Y-100008095D01*
X180031428Y-100008095D01*
X180221904Y-100055714D01*
X180317142Y-100103333D01*
X180364761Y-100150952D01*
X180412380Y-100246190D01*
X180412380Y-100341428D01*
X180364761Y-100436666D01*
X180317142Y-100484285D01*
X180221904Y-100531904D01*
X180031428Y-100579523D01*
X179793333Y-100579523D01*
X179602857Y-100531904D01*
X179507619Y-100484285D01*
X179460000Y-100436666D01*
X179412380Y-100341428D01*
%TO.C,D11*%
X187515714Y-99412380D02*
X187515714Y-98412380D01*
X187753809Y-98412380D01*
X187896666Y-98460000D01*
X187991904Y-98555238D01*
X188039523Y-98650476D01*
X188087142Y-98840952D01*
X188087142Y-98983809D01*
X188039523Y-99174285D01*
X187991904Y-99269523D01*
X187896666Y-99364761D01*
X187753809Y-99412380D01*
X187515714Y-99412380D01*
X189039523Y-99412380D02*
X188468095Y-99412380D01*
X188753809Y-99412380D02*
X188753809Y-98412380D01*
X188658571Y-98555238D01*
X188563333Y-98650476D01*
X188468095Y-98698095D01*
X189991904Y-99412380D02*
X189420476Y-99412380D01*
X189706190Y-99412380D02*
X189706190Y-98412380D01*
X189610952Y-98555238D01*
X189515714Y-98650476D01*
X189420476Y-98698095D01*
%TO.C,D12*%
X165492380Y-139944285D02*
X164492380Y-139944285D01*
X164492380Y-139706190D01*
X164540000Y-139563333D01*
X164635238Y-139468095D01*
X164730476Y-139420476D01*
X164920952Y-139372857D01*
X165063809Y-139372857D01*
X165254285Y-139420476D01*
X165349523Y-139468095D01*
X165444761Y-139563333D01*
X165492380Y-139706190D01*
X165492380Y-139944285D01*
X165492380Y-138420476D02*
X165492380Y-138991904D01*
X165492380Y-138706190D02*
X164492380Y-138706190D01*
X164635238Y-138801428D01*
X164730476Y-138896666D01*
X164778095Y-138991904D01*
X164587619Y-138039523D02*
X164540000Y-137991904D01*
X164492380Y-137896666D01*
X164492380Y-137658571D01*
X164540000Y-137563333D01*
X164587619Y-137515714D01*
X164682857Y-137468095D01*
X164778095Y-137468095D01*
X164920952Y-137515714D01*
X165492380Y-138087142D01*
X165492380Y-137468095D01*
%TO.C,D13*%
X172775714Y-142272380D02*
X172775714Y-141272380D01*
X173013809Y-141272380D01*
X173156666Y-141320000D01*
X173251904Y-141415238D01*
X173299523Y-141510476D01*
X173347142Y-141700952D01*
X173347142Y-141843809D01*
X173299523Y-142034285D01*
X173251904Y-142129523D01*
X173156666Y-142224761D01*
X173013809Y-142272380D01*
X172775714Y-142272380D01*
X174299523Y-142272380D02*
X173728095Y-142272380D01*
X174013809Y-142272380D02*
X174013809Y-141272380D01*
X173918571Y-141415238D01*
X173823333Y-141510476D01*
X173728095Y-141558095D01*
X174632857Y-141272380D02*
X175251904Y-141272380D01*
X174918571Y-141653333D01*
X175061428Y-141653333D01*
X175156666Y-141700952D01*
X175204285Y-141748571D01*
X175251904Y-141843809D01*
X175251904Y-142081904D01*
X175204285Y-142177142D01*
X175156666Y-142224761D01*
X175061428Y-142272380D01*
X174775714Y-142272380D01*
X174680476Y-142224761D01*
X174632857Y-142177142D01*
%TO.C,J1*%
X134286666Y-113962380D02*
X134286666Y-114676666D01*
X134239047Y-114819523D01*
X134143809Y-114914761D01*
X134000952Y-114962380D01*
X133905714Y-114962380D01*
X135286666Y-114962380D02*
X134715238Y-114962380D01*
X135000952Y-114962380D02*
X135000952Y-113962380D01*
X134905714Y-114105238D01*
X134810476Y-114200476D01*
X134715238Y-114248095D01*
%TD*%
M02*
