<?xml version="1.0" standalone="no"?>
<!DOCTYPE svg PUBLIC "-//W3C//DTD SVG 20010904//EN"
 "http://www.w3.org/TR/2001/REC-SVG-20010904/DTD/svg10.dtd">
<svg version="1.0" xmlns="http://www.w3.org/2000/svg"
 width="321.000000pt" height="321.000000pt" viewBox="0 0 321.000000 321.000000"
 preserveAspectRatio="xMidYMid meet">

<g transform="translate(0.000000,321.000000) scale(0.100000,-0.100000)"
fill="#000000" stroke="none">
<path d="M1452 3200 c-135 -14 -382 -72 -382 -89 0 -3 14 -7 32 -8 51 -4 131
-49 192 -108 31 -30 56 -59 56 -63 0 -5 11 -15 25 -22 14 -7 25 -19 25 -27 0
-7 6 -13 14 -13 8 0 26 -15 40 -32 22 -28 28 -30 36 -18 5 8 10 10 10 4 0 -6
6 -11 13 -12 20 -1 59 -11 64 -16 3 -3 16 -1 30 5 16 6 31 5 45 -2 13 -7 24
-7 30 -1 6 6 19 5 36 -4 19 -9 30 -10 39 -2 9 7 13 7 13 -1 0 -19 32 -12 37 9
7 24 11 25 36 3 18 -16 20 -16 14 -2 -4 11 0 16 11 15 9 0 20 -5 23 -9 4 -5
10 4 13 19 4 16 12 32 18 35 6 4 4 16 -8 34 -10 15 -13 29 -8 33 5 4 9 34 9
67 0 33 3 80 6 105 4 25 3 52 -2 61 -17 32 -304 56 -467 39z"/>
<path d="M2031 3126 c-10 -12 -8 -13 8 -9 12 3 18 9 15 14 -7 12 -10 11 -23
-5z"/>
<path d="M1029 3082 c-33 -3 -37 -6 -43 -40 -4 -20 -9 -101 -12 -179 -5 -128
-4 -148 17 -207 12 -36 23 -66 25 -66 1 0 10 8 20 17 17 17 17 16 11 -19 -4
-26 0 -48 14 -74 23 -46 23 -45 4 -38 -10 4 -15 0 -15 -14 0 -11 -6 -23 -12
-26 -9 -3 -8 -8 5 -16 9 -6 17 -18 17 -27 0 -12 7 -14 32 -9 18 3 36 13 41 21
4 8 15 15 24 15 14 0 14 2 -2 20 -10 11 -13 20 -7 20 5 0 8 8 5 19 -4 15 0 18
21 16 13 -2 31 -7 38 -11 11 -6 11 -5 0 8 -20 25 6 40 49 28 45 -13 45 -13 18
10 l-24 19 28 1 c16 0 26 4 22 10 -3 6 1 10 9 10 9 0 16 7 16 16 0 9 -5 12
-12 8 -7 -4 -8 -3 -4 4 10 16 35 15 69 -2 30 -17 35 -11 12 15 -14 15 -14 18
1 33 9 10 23 15 31 12 7 -3 16 1 19 8 3 8 16 17 30 20 25 7 31 20 14 31 -5 3
-10 15 -10 26 0 22 -57 99 -73 99 -11 0 -47 39 -47 52 0 4 -5 8 -11 8 -8 0 -8
-4 -1 -12 5 -7 13 -24 17 -38 4 -15 -5 -6 -24 23 -17 26 -31 52 -31 57 0 16
-72 90 -81 84 -5 -3 1 -14 13 -24 28 -23 18 -25 -22 -5 -18 9 -31 11 -35 5 -3
-6 -1 -10 6 -10 33 0 89 -38 113 -77 14 -24 21 -43 16 -43 -5 0 -14 8 -19 18
-8 13 -11 14 -11 2 -1 -12 -3 -11 -14 3 -9 12 -16 14 -21 8 -3 -6 -1 -11 4
-11 6 0 11 -4 11 -9 0 -6 -9 -8 -19 -6 -11 2 -41 6 -68 9 -41 5 -44 4 -20 -5
15 -6 25 -15 21 -20 -3 -5 2 -9 10 -9 9 0 16 5 16 10 0 6 7 10 16 10 9 0 12
-5 8 -12 -5 -8 5 -9 34 -5 23 3 40 1 37 -3 -3 -5 1 -10 7 -12 7 -3 -16 -3 -52
-2 l-65 3 50 -14 c35 -10 41 -14 18 -12 -24 3 -30 0 -23 -8 7 -9 5 -12 -7 -12
-37 0 -44 -3 -37 -15 4 -7 4 -10 0 -6 -4 3 -21 2 -37 -4 -28 -10 -29 -11 -12
-23 10 -7 32 -17 48 -23 17 -6 23 -10 15 -11 -8 0 -24 4 -34 8 -11 4 -37 4
-58 1 -21 -4 -41 -3 -44 1 -3 5 -14 9 -25 9 -13 0 -18 4 -13 12 5 8 0 9 -14 6
-12 -4 -22 -2 -22 3 0 5 5 9 11 9 5 0 7 5 4 10 -3 6 -2 10 4 10 6 0 8 7 5 15
-4 8 -11 12 -17 8 -6 -4 -8 0 -4 10 3 9 2 40 -2 69 -6 33 -5 55 1 59 5 3 9 10
8 15 -1 5 4 25 10 46 10 28 19 37 41 42 17 3 29 12 29 21 0 16 20 20 36 6 13
-12 76 -23 69 -12 -13 21 -102 39 -166 33z m233 -346 c10 6 11 4 0 -7 -10 -11
-15 -10 -30 6 -15 17 -15 18 0 6 9 -7 23 -9 30 -5z"/>
<path d="M885 3034 c-177 -89 -309 -187 -445 -331 -401 -426 -540 -1041 -359
-1590 11 -35 25 -66 31 -69 6 -4 8 -3 5 3 -3 5 3 15 13 23 10 8 17 17 14 22
-3 4 0 8 7 8 7 0 9 3 6 6 -4 4 10 20 31 36 20 16 40 42 44 56 4 15 21 35 38
45 33 20 39 37 13 37 -13 0 -14 3 -6 11 6 6 9 17 6 24 -2 8 6 16 19 21 22 7
22 7 3 14 -19 7 -19 7 3 14 22 7 23 9 6 27 -16 18 -16 19 2 19 14 0 16 2 6 9
-11 7 -11 9 1 14 20 8 32 58 15 68 -9 6 -6 9 10 9 32 0 27 17 -8 25 -38 8 -29
27 10 20 24 -4 27 -2 23 15 -4 15 0 20 16 20 21 0 21 1 5 25 -16 24 -15 25 4
25 30 0 52 10 52 25 0 7 6 16 13 19 6 4 2 4 -10 2 -13 -2 -23 -1 -23 4 0 4 13
10 30 13 21 5 28 11 24 22 -4 11 0 15 16 15 17 0 20 4 15 20 -5 15 -2 20 10
20 11 0 15 5 12 14 -3 8 1 17 9 20 9 3 13 10 10 15 -3 5 1 12 10 15 8 3 13 10
9 15 -3 5 13 20 35 34 22 13 37 27 33 30 -3 4 4 7 16 7 12 0 19 4 16 10 -3 5
-1 10 4 10 6 0 10 3 10 8 -4 17 24 72 36 72 8 0 12 8 10 20 -3 13 2 20 12 20
9 0 13 6 9 15 -3 10 1 15 14 15 10 0 22 5 26 12 4 7 3 8 -4 4 -7 -4 -12 -3
-12 2 0 5 13 15 30 22 41 17 58 39 40 50 -11 7 -8 11 12 19 14 5 29 19 33 30
3 12 11 21 17 21 6 0 8 9 5 19 -3 11 1 22 9 25 7 3 11 12 8 21 -3 8 -1 15 6
15 6 0 8 5 5 10 -3 6 -3 10 2 10 4 0 9 10 9 23 1 12 6 45 11 73 6 34 6 73 -1
117 -16 93 -13 412 3 460 7 21 11 40 9 42 -2 2 -44 -16 -93 -41z"/>
<path d="M2329 2953 c-13 -16 -12 -17 4 -4 9 7 17 15 17 17 0 8 -8 3 -21 -13z"/>
<path d="M1206 2951 c5 -5 20 -12 34 -15 l25 -7 -25 15 c-28 17 -50 21 -34 7z"/>
<path d="M1101 2936 c-10 -12 -8 -13 9 -9 25 7 37 23 17 23 -8 0 -20 -6 -26
-14z"/>
<path d="M1158 2943 c6 -2 18 -2 25 0 6 3 1 5 -13 5 -14 0 -19 -2 -12 -5z"/>
<path d="M2170 2850 c-8 -5 -24 -10 -36 -10 -11 0 -38 -16 -60 -35 -46 -41
-40 -45 16 -10 22 14 40 21 40 15 0 -5 -14 -17 -31 -25 -24 -13 -28 -19 -19
-30 6 -7 20 -11 33 -7 26 6 68 52 60 65 -3 5 0 13 7 17 7 4 11 13 9 19 -3 7
-9 7 -19 1z"/>
<path d="M2236 2818 c-9 -12 -16 -19 -16 -14 0 5 -10 -3 -21 -18 -24 -30 -19
-47 6 -22 9 9 26 21 38 27 12 5 4 -6 -18 -25 -22 -20 -35 -36 -28 -36 7 0 10
-7 6 -17 -4 -10 -2 -14 4 -10 6 4 13 -2 16 -13 6 -24 49 -27 67 -5 9 11 9 15
1 15 -7 0 -9 4 -6 10 3 5 20 7 37 3 l31 -6 -22 22 c-12 12 -27 19 -33 15 -7
-5 -8 -3 -3 6 6 10 3 12 -13 8 -27 -7 -28 -1 -4 25 9 11 11 17 5 13 -8 -4 -13
-1 -13 8 0 9 -5 16 -11 16 -5 0 -7 5 -4 10 12 20 -4 9 -19 -12z"/>
<path d="M2642 2781 c-11 -7 -10 -9 3 -15 9 -3 14 -10 10 -15 -3 -6 3 -14 12
-20 10 -6 12 -11 6 -11 -7 0 -13 -5 -13 -11 0 -5 5 -7 11 -3 8 5 8 1 0 -14 -8
-15 -8 -23 0 -28 8 -4 7 -9 -2 -15 -7 -4 -11 -10 -9 -12 5 -5 120 30 129 38 8
9 -102 115 -119 115 -8 0 -21 -4 -28 -9z m48 -6 c0 -7 -30 -13 -34 -7 -3 4 4
9 15 9 10 1 19 0 19 -2z"/>
<path d="M1685 2669 c-4 -11 -4 -23 -1 -26 3 -4 6 2 6 13 1 19 1 19 15 0 8
-11 15 -16 15 -10 0 5 5 2 10 -6 5 -8 10 -10 10 -4 0 10 -36 54 -45 54 -2 0
-7 -9 -10 -21z"/>
<path d="M1549 2663 c-7 -10 -9 -15 -5 -11 11 9 35 -21 36 -44 0 -9 4 -20 10
-23 13 -8 1 54 -15 78 -12 17 -13 17 -26 0z"/>
<path d="M2765 2654 c-16 -8 -55 -25 -85 -39 -39 -18 -46 -24 -25 -21 30 5 30
5 5 -7 -32 -16 -35 -34 -7 -43 20 -7 19 -9 -13 -15 l-35 -6 36 -2 c37 -1 124
-34 134 -51 3 -5 -10 -3 -30 6 -19 8 -61 16 -93 18 -31 2 -47 2 -34 -1 17 -3
22 -11 22 -34 0 -17 -6 -32 -15 -35 -11 -5 -7 -12 16 -33 25 -24 30 -35 31
-77 0 -31 -8 -63 -21 -88 -21 -41 -20 -59 4 -49 18 6 20 -13 3 -21 -7 -3 -4
-4 6 -3 10 1 21 -4 23 -11 4 -9 -2 -11 -24 -6 -23 5 -26 4 -15 -7 6 -7 12 -21
12 -30 0 -10 -6 -20 -12 -22 -7 -3 3 -6 22 -7 32 -2 33 -3 10 -10 -27 -9 -20
-13 20 -11 25 1 25 1 2 -9 -12 -5 -29 -7 -37 -4 -8 4 -15 2 -15 -4 0 -10 81
-25 148 -26 23 -1 42 -4 42 -7 0 -9 -27 -19 -53 -20 -12 0 34 -14 103 -30 107
-26 136 -29 203 -23 l78 6 -7 32 c-47 219 -192 513 -326 658 -42 46 -43 47
-73 32z m-78 -100 c-3 -3 -12 -4 -19 -1 -8 3 -5 6 6 6 11 1 17 -2 13 -5z m-31
-362 c-15 -15 -15 -15 -4 10 7 15 15 23 17 17 2 -6 -4 -18 -13 -27z m48 -97
c3 -8 2 -15 -3 -15 -5 0 -14 7 -21 15 -10 12 -10 15 3 15 8 0 17 -7 21 -15z
m295 -125 c-11 -32 -23 -38 -35 -18 -4 7 -3 8 4 4 7 -4 14 3 18 19 3 14 10 25
15 25 4 0 3 -13 -2 -30z m61 -28 c0 -5 -13 -9 -30 -9 -16 0 -30 4 -30 9 0 4
14 8 30 8 17 0 30 -4 30 -8z"/>
<path d="M1935 2651 c-3 -5 -1 -12 5 -16 5 -3 10 1 10 9 0 18 -6 21 -15 7z"/>
<path d="M970 2620 c0 -8 5 -22 10 -30 9 -13 10 -13 10 0 0 8 -5 22 -10 30 -9
13 -10 13 -10 0z"/>
<path d="M1620 2608 c0 -9 5 -20 10 -23 13 -8 13 5 0 25 -8 13 -10 13 -10 -2z"/>
<path d="M1500 2602 c0 -5 7 -15 15 -22 8 -7 15 -8 15 -2 0 5 -7 15 -15 22 -8
7 -15 8 -15 2z"/>
<path d="M1780 2559 c0 -11 5 -17 10 -14 6 3 10 13 10 21 0 8 -4 14 -10 14 -5
0 -10 -9 -10 -21z"/>
<path d="M990 2543 c0 -5 5 -25 11 -45 14 -54 28 -47 16 7 -6 25 -14 45 -19
45 -4 0 -8 -3 -8 -7z"/>
<path d="M1797 2519 c-8 -31 4 -47 15 -19 5 13 5 27 0 32 -6 6 -12 0 -15 -13z"/>
<path d="M2074 2524 c3 -8 6 -18 6 -20 0 -2 5 -4 10 -4 16 0 11 27 -6 34 -12
5 -15 2 -10 -10z"/>
<path d="M1816 2488 c-3 -13 -1 -27 4 -32 7 -7 10 -4 10 6 0 9 3 23 6 32 3 9
2 16 -4 16 -5 0 -12 -10 -16 -22z"/>
<path d="M2095 2476 c-5 -11 -3 -21 5 -26 8 -5 11 -19 7 -38 -4 -20 -1 -34 8
-42 8 -7 13 -16 10 -20 -3 -5 -1 -11 5 -15 6 -4 8 -11 5 -16 -4 -5 0 -9 8 -9
8 0 17 6 19 13 7 17 -2 38 -13 32 -5 -4 -6 1 -3 9 3 9 10 14 14 11 5 -3 8 3 7
14 -1 20 -26 18 -28 -3 0 -6 -9 16 -19 49 -13 46 -19 56 -25 41z"/>
<path d="M1716 2434 c-4 -9 -4 -19 -1 -22 2 -3 7 3 11 12 4 9 4 19 1 22 -2 3
-7 -3 -11 -12z"/>
<path d="M2192 2428 c-6 -8 -10 -27 -8 -43 1 -17 -2 -38 -7 -49 -6 -12 -6 -16
1 -12 5 3 12 -1 16 -9 9 -24 39 -19 31 5 -7 23 7 27 24 6 14 -17 4 -46 -16
-46 -13 0 -13 -3 -2 -16 19 -23 78 -51 126 -59 22 -3 49 -12 59 -20 13 -9 24
-10 37 -3 10 5 22 7 25 3 3 -3 -4 -8 -16 -12 -12 -3 -22 -9 -22 -14 0 -14 9
-11 37 11 14 11 20 20 13 20 -10 0 -10 3 0 15 7 8 9 15 4 15 -5 0 -9 17 -8 38
0 37 0 38 -39 39 -22 1 -43 6 -46 11 -3 5 -19 8 -36 7 -39 -2 -55 11 -55 44 0
14 -9 40 -20 56 -11 17 -20 23 -20 15 0 -8 -5 -22 -10 -30 -9 -13 -14 -11 -34
13 -18 23 -25 26 -34 15z m188 -152 c0 -22 -54 -40 -80 -26 -25 13 -17 26 20
33 48 8 60 7 60 -7z"/>
<path d="M1830 2420 c0 -5 5 -10 10 -10 6 0 10 5 10 10 0 6 -4 10 -10 10 -5 0
-10 -4 -10 -10z"/>
<path d="M1980 2411 c0 -5 -12 -8 -26 -8 -15 0 -31 -8 -36 -17 -5 -9 -14 -14
-19 -11 -5 4 -6 12 -3 18 4 7 4 9 -1 5 -4 -4 -15 -2 -23 4 -16 14 -36 -6 -54
-54 -5 -16 -14 -26 -18 -23 -5 3 -18 1 -30 -3 -14 -5 -43 -3 -73 5 -83 21 -94
19 -92 -20 l1 -33 -66 -2 c-48 -2 -71 2 -79 12 -10 12 -6 13 27 9 32 -4 43 -1
67 21 15 14 25 29 22 32 -15 15 -126 -27 -162 -62 -42 -39 -40 -50 10 -45 39
3 102 -28 82 -41 -17 -11 -29 -10 -22 1 6 11 -6 20 -35 26 -11 2 -20 0 -20 -6
0 -5 10 -9 22 -9 28 0 15 -13 -17 -16 -13 -1 -24 2 -22 8 1 6 -13 15 -31 20
-27 7 -38 5 -61 -12 -16 -11 -34 -20 -40 -20 -6 0 -10 -5 -9 -11 2 -6 -5 -13
-15 -14 -10 -2 -26 -9 -35 -17 -30 -24 -61 -38 -84 -39 -13 0 -17 -3 -10 -6
21 -8 13 -17 -43 -47 -37 -21 -58 -39 -64 -58 -9 -26 -8 -28 17 -28 22 0 24
-2 12 -11 -10 -7 14 -8 80 -3 91 6 140 22 140 45 0 6 -5 7 -10 4 -5 -3 -10 -1
-10 4 0 6 7 11 16 11 8 0 13 4 10 9 -6 10 24 25 32 16 3 -2 -1 -11 -7 -19 -10
-11 -9 -15 5 -18 13 -2 9 -9 -19 -28 -35 -24 -36 -25 -14 -31 20 -6 19 -7 -10
-14 -18 -4 -30 -11 -27 -16 3 -5 -2 -9 -10 -9 -9 0 -16 -4 -16 -9 0 -6 -14 -5
-35 0 -19 6 -40 7 -45 4 -6 -4 -13 1 -16 9 -3 9 -15 16 -25 16 -12 0 -16 -5
-13 -14 4 -11 0 -14 -19 -10 -14 2 -29 0 -32 -6 -3 -5 -1 -10 5 -10 6 0 8 -4
5 -10 -3 -5 2 -10 12 -10 10 0 14 -3 8 -8 -6 -4 -16 -20 -23 -36 -11 -24 -11
-31 0 -37 10 -7 10 -9 1 -9 -7 0 -13 -7 -13 -15 0 -10 6 -12 18 -8 15 6 15 5
3 -10 -10 -13 -10 -17 -1 -17 9 0 11 -13 8 -44 -4 -33 -2 -46 9 -50 8 -3 11
-2 8 3 -3 5 0 13 6 17 8 5 10 -1 7 -20 -3 -15 -1 -26 5 -26 7 0 7 -4 -1 -12
-7 -7 -12 -15 -12 -18 0 -13 35 -7 53 8 20 17 24 0 4 -20 -7 -7 -21 -26 -31
-42 -18 -28 -18 -29 0 -22 17 6 17 6 1 -12 -18 -19 -23 -62 -8 -62 4 0 7 -12
5 -26 -1 -14 3 -27 11 -30 15 -6 9 -34 -7 -34 -5 0 -6 5 -2 12 5 8 2 9 -10 5
-14 -6 -16 -3 -11 13 4 11 2 20 -4 20 -16 0 -82 -70 -76 -81 5 -8 -24 -14 -48
-10 -4 1 -3 -7 2 -18 10 -18 6 -31 -10 -31 -5 0 -6 6 -3 14 3 8 1 17 -5 21 -6
3 -14 -1 -17 -9 -9 -24 -33 -19 -44 8 -6 18 -14 23 -29 19 -12 -3 -18 -9 -15
-14 3 -5 10 -7 15 -4 5 4 9 1 9 -4 0 -6 -15 -11 -32 -11 -26 0 -30 3 -18 11
12 8 10 9 -10 5 -14 -3 -28 -6 -32 -6 -5 0 -8 -6 -8 -14 0 -14 36 -32 54 -27
5 1 4 -5 -4 -13 -7 -9 -8 -16 -2 -16 5 0 8 -8 5 -18 -3 -15 2 -18 33 -18 21 0
39 -5 42 -12 2 -7 8 -10 12 -7 5 3 8 -4 7 -15 -1 -12 -12 -23 -29 -29 -18 -7
-26 -7 -23 -1 4 6 2 10 -2 10 -5 0 -14 -9 -21 -21 -10 -16 -10 -20 0 -18 25 3
35 -1 35 -16 0 -8 -3 -15 -7 -15 -3 0 -22 -13 -40 -30 -18 -16 -30 -30 -26
-30 5 0 2 -7 -5 -16 -12 -15 -9 -16 29 -10 24 3 47 8 51 10 4 3 8 -1 8 -10 0
-9 -7 -12 -19 -8 -10 3 -18 1 -18 -5 0 -5 8 -12 18 -14 15 -4 15 -5 0 -6 -10
-1 -19 -13 -23 -32 -8 -37 -3 -44 23 -30 14 7 24 6 39 -4 11 -8 23 -11 27 -8
3 3 6 -4 6 -16 0 -18 3 -20 19 -11 24 12 32 -4 17 -37 -7 -14 -20 -23 -34 -23
-13 0 -21 4 -18 9 7 10 -23 25 -43 22 -9 -2 -12 4 -8 18 7 30 -12 26 -23 -4
-5 -14 -13 -25 -18 -25 -5 0 -16 -16 -25 -35 -14 -30 -14 -33 -1 -28 9 3 20
16 24 29 6 15 15 22 24 18 8 -3 17 -1 21 5 3 6 11 11 17 11 6 0 3 -9 -7 -20
-10 -11 -22 -20 -27 -20 -16 0 -78 -74 -67 -81 6 -4 -3 -21 -25 -45 -20 -21
-32 -40 -26 -42 5 -2 6 -10 3 -19 -5 -13 -3 -14 15 -4 12 7 22 9 22 6 0 -3 13
9 29 27 17 19 25 36 19 39 -15 10 -14 15 7 39 l20 23 -22 -12 c-40 -21 -38
-11 9 34 49 46 75 58 64 28 -6 -15 -4 -15 14 2 36 33 21 -4 -20 -49 -22 -24
-40 -50 -40 -58 0 -8 -9 -23 -20 -33 -22 -20 -28 -44 -7 -26 8 6 16 8 20 5 3
-3 15 12 26 35 17 32 18 39 6 35 -25 -10 -17 3 15 26 l30 22 -5 -42 c-3 -26
-1 -39 5 -35 22 14 57 14 75 1 16 -12 17 -19 8 -57 -6 -25 -11 -34 -12 -21 -1
21 -21 33 -21 12 0 -5 -4 -10 -9 -10 -6 0 -6 12 -1 29 6 22 4 33 -6 42 -11 9
-14 7 -14 -12 0 -27 -9 -43 -27 -47 -8 -1 -13 10 -13 29 l0 32 -25 -27 c-14
-15 -30 -24 -35 -21 -14 9 -13 -8 2 -23 8 -8 8 -15 0 -25 -7 -8 -8 -17 -4 -21
4 -4 2 -6 -3 -5 -6 2 -20 -2 -32 -9 -14 -8 -24 -9 -28 -2 -3 5 0 10 8 10 20 0
61 46 48 55 -6 3 -11 3 -11 -2 0 -4 -4 -2 -9 5 -6 10 -16 8 -47 -10 -21 -12
-40 -26 -42 -30 -2 -4 -11 -8 -19 -8 -13 0 -13 3 -3 15 11 13 8 13 -21 3 -26
-9 -30 -13 -15 -16 15 -3 16 -6 5 -14 -10 -7 -4 -8 19 -4 22 4 31 2 26 -5 -4
-8 1 -9 15 -4 12 3 21 3 20 -2 -5 -27 1 -35 16 -23 14 11 14 10 6 -14 -11 -28
-3 -34 17 -14 10 10 10 6 1 -20 -6 -18 -15 -35 -20 -38 -5 -3 -7 -9 -5 -13 3
-3 -4 -7 -14 -7 -17 0 -18 2 -5 16 21 23 19 25 -20 25 -21 0 -40 -7 -45 -15
-13 -21 -12 -30 3 -30 6 0 22 -11 35 -25 14 -15 29 -22 39 -18 10 4 14 2 10
-4 -11 -17 4 -45 20 -39 8 3 11 1 8 -4 -3 -6 -2 -10 4 -10 6 0 8 -8 5 -17 -3
-10 2 -7 10 7 11 18 15 20 16 8 0 -11 6 -15 20 -11 11 3 20 9 20 14 0 5 4 9 9
9 14 0 23 -52 11 -64 -8 -8 -9 -6 -5 9 6 16 5 17 -4 5 -15 -21 -14 -25 13 -38
17 -8 27 -7 35 1 9 9 11 8 6 -4 -5 -14 13 -24 97 -56 169 -65 348 -104 460
-102 31 1 61 -2 67 -5 12 -8 14 2 11 49 l-2 30 21 -27 c12 -15 20 -33 19 -40
-2 -7 8 -14 21 -16 17 -3 21 0 15 10 -6 10 -5 11 7 2 13 -11 205 -1 217 11 3
2 -1 11 -8 20 -11 13 -10 14 4 9 12 -5 15 -2 10 10 -4 9 -1 16 6 16 8 0 10 -9
6 -26 -7 -26 -7 -27 36 -20 38 6 74 16 128 34 8 3 24 7 35 9 78 14 143 53 89
53 -8 0 -14 10 -15 23 0 12 -3 16 -6 10 -2 -7 -13 -13 -23 -13 -10 0 -22 -4
-25 -10 -3 -5 -15 -10 -26 -10 -10 0 -19 -5 -19 -11 0 -5 -4 -8 -10 -4 -19 12
3 34 46 46 24 7 44 17 44 21 0 4 11 8 25 8 14 0 25 5 25 11 0 5 5 7 10 4 22
-13 8 6 -14 20 -22 15 -27 15 -55 1 -35 -19 -45 -20 -36 -6 4 6 -7 13 -25 16
-30 7 -52 24 -29 24 8 0 8 4 -1 15 -8 9 -9 15 -2 15 6 0 9 9 7 20 -2 11 0 18
6 15 5 -4 9 0 9 8 0 15 57 47 84 47 31 0 15 18 -30 33 -34 11 -44 12 -40 2 3
-8 -4 -13 -18 -13 -16 0 -26 9 -34 30 -10 26 -9 28 9 23 10 -4 19 -2 19 3 0
11 -33 42 -46 42 -5 0 -21 7 -36 14 -16 8 -28 10 -28 5 0 -5 7 -12 15 -15 8
-4 15 -11 15 -16 0 -6 -11 -3 -25 6 -22 14 -25 15 -25 1 0 -8 5 -15 12 -15 6
0 9 -2 6 -5 -8 -8 -58 17 -58 29 0 5 -7 1 -15 -10 -8 -10 -15 -14 -15 -8 0 7
-7 15 -16 18 -12 5 -15 2 -10 -9 3 -9 2 -13 -3 -10 -6 3 -10 13 -10 23 0 38
-9 71 -25 87 -19 19 -21 29 -4 19 8 -5 9 -2 5 9 -3 9 -2 19 4 23 6 3 13 -3 16
-15 3 -12 10 -21 15 -21 5 0 7 4 3 9 -14 23 12 16 30 -8 14 -19 15 -22 3 -13
-24 19 -51 3 -34 -20 7 -9 19 -16 27 -16 34 2 49 -3 49 -16 0 -8 7 -16 15 -20
8 -3 15 -1 15 4 0 6 -3 10 -7 10 -5 0 -13 11 -20 25 -6 14 -7 22 -2 19 6 -3 7
5 3 22 -6 24 -5 26 12 21 18 -7 18 -6 0 8 -11 8 -26 15 -33 15 -7 0 -13 4 -13
10 0 6 10 6 27 -1 26 -10 49 4 37 23 -8 12 37 30 62 24 16 -4 24 -2 24 6 0 9
3 8 10 -2 8 -13 10 -12 10 3 0 10 8 17 20 17 11 0 20 4 20 10 0 5 15 13 32 18
21 5 38 19 48 38 8 16 20 32 25 36 9 7 8 9 -14 12 -5 0 -13 5 -18 10 -4 5 -3
7 2 3 6 -3 17 -2 25 4 10 6 11 9 3 9 -7 0 -13 7 -13 15 0 8 7 15 16 15 8 0 13
4 10 9 -9 14 -75 9 -70 -4 3 -8 -10 -11 -38 -11 -31 1 -42 -3 -40 -12 1 -8 -2
-11 -7 -7 -6 3 -8 12 -5 19 3 7 -2 19 -11 26 -8 7 -15 16 -15 20 0 10 39 22
65 21 11 0 14 2 8 5 -10 4 -9 9 3 21 12 13 13 18 3 24 -11 6 -10 9 1 14 8 3
16 17 17 32 0 15 6 29 12 31 5 2 8 9 5 17 -3 7 1 19 9 26 13 12 13 16 0 32
-12 12 -13 17 -3 17 10 0 10 3 0 15 -7 8 -22 15 -33 15 -20 0 -20 0 -1 -15 22
-17 15 -19 -19 -6 -21 8 -26 6 -30 -9 -3 -14 -11 -17 -28 -13 -18 3 -20 2 -10
-5 28 -20 1 -33 -32 -16 -21 11 -28 12 -19 3 15 -16 16 -43 0 -33 -6 4 -8 3
-4 -4 3 -6 1 -14 -5 -17 -7 -5 -3 -12 10 -22 12 -8 21 -20 21 -26 0 -8 -3 -7
-9 2 -5 8 -19 12 -35 9 -17 -3 -31 1 -42 13 -10 11 -22 19 -28 19 -6 0 -4 -5
4 -11 12 -8 12 -12 2 -16 -9 -3 -10 -9 -3 -17 8 -9 7 -13 -4 -13 -8 0 -16 6
-19 13 -3 7 -15 18 -28 25 -20 11 -21 10 -11 -3 7 -8 9 -19 5 -23 -4 -5 -2 -6
3 -4 6 3 22 -8 37 -23 19 -20 22 -28 12 -28 -9 0 -12 -5 -8 -12 4 -7 -9 -2
-29 10 -34 20 -37 20 -27 3 8 -16 7 -18 -10 -14 -11 3 -23 10 -27 16 -3 5 -2
7 4 4 5 -3 10 0 10 8 0 20 -3 19 -27 -7 l-20 -22 -25 24 c-19 18 -25 20 -25 8
0 -9 7 -21 15 -28 9 -7 13 -15 10 -18 -3 -3 -13 2 -24 12 -17 15 -19 15 -32 0
-11 -14 -10 -18 11 -34 14 -10 22 -21 20 -24 -11 -11 -72 28 -86 55 -8 16 -23
33 -34 39 -11 6 -20 16 -20 22 0 6 6 5 16 -3 15 -12 16 -10 10 21 -7 35 -7 35
8 10 9 -14 15 -19 16 -12 0 7 5 10 10 7 13 -8 13 1 -1 28 -9 18 -6 16 20 -7
36 -35 76 -44 58 -14 -11 16 -12 16 -17 2 -5 -14 -9 -12 -23 9 -20 30 -22 46
-5 29 17 -17 28 -15 21 5 -4 10 -2 14 4 10 6 -4 13 -1 16 5 3 9 10 7 21 -7
l16 -20 -7 20 c-6 20 -6 20 16 1 22 -20 22 -20 15 0 -6 16 -5 17 7 6 17 -15
29 -15 29 1 0 16 51 16 68 0 18 -17 41 -18 24 -1 -7 7 -12 16 -12 22 0 5 3 7
6 3 4 -3 13 1 21 9 8 8 19 12 24 9 5 -4 6 2 2 11 -4 12 -3 15 5 10 11 -6 17
11 13 36 0 4 8 12 18 17 14 8 22 7 31 -4 21 -25 33 -16 15 11 -16 25 -16 26 4
19 12 -4 21 -2 21 4 0 6 6 8 14 5 7 -3 16 2 19 10 4 9 13 16 20 16 17 0 18 30
2 50 -6 8 -15 24 -19 35 -5 14 1 11 18 -10 24 -29 28 -28 30 5 1 9 10 15 23
14 19 -1 21 1 12 18 -13 25 -6 34 11 14 10 -13 20 -8 71 36 48 43 56 54 46 67
-10 12 -9 14 6 8 14 -5 30 4 62 38 24 26 49 59 55 76 7 16 16 29 21 29 5 0 5
7 2 17 -4 9 -2 14 3 11 5 -3 19 -2 32 3 16 6 22 16 22 38 0 23 -11 38 -49 70
-54 46 -76 52 -68 20 4 -16 3 -18 -9 -8 -10 8 -14 8 -14 0 0 -8 -6 -8 -20 1
-25 16 -26 28 -2 28 9 1 2 7 -17 15 -24 11 -31 18 -24 28 16 19 24 65 13 72
-7 4 -7 12 0 25 6 11 10 23 9 27 -1 4 5 24 14 43 15 34 14 57 -2 31 -6 -9 -10
-7 -14 8 -3 15 -14 21 -34 22 -15 1 -45 3 -66 4 -22 1 -44 -4 -52 -11 -16 -16
-45 -8 -45 13 0 8 5 11 10 8 6 -3 10 -1 10 4 0 6 -7 11 -16 11 -11 0 -14 5
-10 17 4 9 -1 23 -13 34 -16 16 -20 16 -25 3 -3 -8 -2 -13 3 -10 5 3 14 -1 21
-9 10 -12 9 -15 -4 -15 -30 0 -16 -30 39 -85 30 -30 55 -58 55 -63 0 -5 11
-21 25 -36 14 -15 22 -33 18 -41 -5 -14 -7 -14 -17 1 -8 11 -22 14 -42 11 -24
-4 -38 2 -64 24 -18 16 -26 29 -19 29 9 1 7 6 -6 16 -14 10 -35 14 -68 11 -60
-6 -64 -10 -38 -38 19 -21 20 -46 0 -33 -5 3 -7 10 -4 15 4 5 -1 9 -9 9 -12 0
-16 -10 -15 -42 1 -35 2 -38 8 -18 6 22 8 23 14 7 4 -10 7 -45 7 -78 0 -111
51 -290 89 -314 6 -3 24 -27 41 -52 l32 -47 -37 28 c-30 23 -34 24 -24 8 7
-12 10 -24 7 -28 -13 -12 -28 7 -38 49 -22 83 -53 158 -60 146 -5 -6 -10 8
-13 32 -9 79 -41 239 -48 239 -4 0 -18 -33 -31 -72 -20 -64 -23 -93 -23 -236
0 -182 -14 -170 -18 15 -1 61 -5 103 -9 93 -15 -42 -30 -184 -27 -263 2 -47 1
-83 -3 -80 -14 8 -9 219 7 291 12 57 37 140 71 238 6 16 5 17 -7 7 -19 -18
-29 -16 -29 7 0 30 -16 25 -79 -25 -64 -50 -111 -110 -140 -178 -21 -49 -62
-189 -57 -194 1 -2 15 6 29 18 22 16 27 17 27 5 0 -8 -5 -18 -10 -21 -6 -4 -8
-24 -6 -45 3 -27 1 -40 -10 -44 -15 -6 -15 -27 1 -38 6 -4 2 -8 -9 -8 -12 0
-16 5 -13 14 4 10 -4 17 -24 21 -35 8 -30 19 8 20 31 0 45 25 15 25 -15 0 -19
5 -15 20 3 11 0 20 -6 20 -7 0 -9 10 -5 28 14 58 58 189 76 225 25 49 87 117
149 163 27 19 48 38 47 42 -3 19 16 72 26 72 6 0 28 5 49 11 36 10 51 29 22
29 -9 0 -12 6 -9 15 8 19 -10 20 -25 1 -9 -11 -9 -15 1 -19 7 -3 4 -6 -7 -6
-11 -1 -31 -4 -44 -8 -20 -5 -23 -3 -18 10 3 9 -1 18 -9 21 -23 9 -44 7 -44
-3 0 -5 9 -7 20 -4 14 4 20 0 20 -11 0 -9 -8 -16 -20 -16 -19 0 -21 4 -24 40
-1 8 -9 14 -18 14 -10 -1 -14 4 -11 12 4 10 10 11 23 4 21 -11 47 -13 36 -3
-3 4 6 12 21 19 25 11 26 12 6 13 -27 1 -41 21 -14 21 10 0 21 5 23 12 2 6 15
12 29 14 13 1 26 3 29 4 14 5 76 -3 85 -11 12 -12 45 -11 45 1 0 6 12 16 26
22 23 11 24 13 9 24 -19 14 -12 54 9 54 22 0 56 44 46 59 -4 8 -6 21 -3 30 4
14 3 14 -6 1 -9 -13 -12 -13 -20 -1 -5 8 -16 11 -25 8 -9 -4 -16 -2 -16 3 0 6
-4 10 -10 10 -5 0 -10 -4 -10 -9z m4 -86 c24 -18 12 -35 -24 -35 -34 0 -47 15
-30 35 15 18 30 18 54 0z m-134 -62 c7 -7 -24 -22 -40 -20 -21 3 -40 16 -40
27 0 8 69 2 80 -7z m-374 -98 c-3 -8 8 -15 27 -20 18 -4 26 -9 19 -12 -14 -5
-152 34 -152 44 0 3 14 3 30 1 17 -3 33 -1 35 3 8 12 46 -3 41 -16z m-66 -24
c0 -13 -27 -21 -45 -15 -8 4 -12 10 -9 15 7 12 54 12 54 0z m-35 -31 c3 -5 1
-10 -4 -10 -6 0 -11 5 -11 10 0 6 2 10 4 10 3 0 8 -4 11 -10z m55 0 c0 -5 -5
-10 -11 -10 -5 0 -7 5 -4 10 3 6 8 10 11 10 2 0 4 -4 4 -10z m-64 -49 c-8 -12
-46 -21 -46 -11 0 5 10 11 23 13 12 2 23 5 25 6 2 0 1 -3 -2 -8z m374 -15 c0
-3 -4 -8 -10 -11 -5 -3 -10 -1 -10 4 0 6 5 11 10 11 6 0 10 -2 10 -4z m354
-93 c55 -36 106 -70 111 -75 24 -22 -57 21 -139 74 -48 32 -92 58 -97 58 -5 0
-9 5 -9 11 0 17 23 5 134 -68z m-914 46 c-13 -6 -28 -15 -31 -21 -5 -8 -12 -6
-23 5 -19 19 -8 25 44 26 33 0 34 -1 10 -10z m187 5 c-3 -3 -12 -4 -19 -1 -8
3 -5 6 6 6 11 1 17 -2 13 -5z m-247 -28 c0 -2 -7 -7 -16 -10 -8 -3 -12 -2 -9
4 6 10 25 14 25 6z m912 -34 c3 7 12 -1 22 -21 26 -49 5 -62 -28 -18 -28 37
-34 56 -12 38 11 -9 15 -9 18 1z m-889 -63 c-6 -6 -17 -8 -24 -3 -9 5 -8 9 7
14 23 9 31 3 17 -11z m866 -21 c10 -30 9 -31 -4 -14 -8 11 -15 25 -15 30 -1 6
-7 0 -15 -14 -8 -14 -14 -19 -15 -12 0 17 22 52 31 46 4 -2 12 -19 18 -36z
m-18 -71 c-8 -8 -11 -5 -11 9 0 27 14 41 18 19 2 -9 -1 -22 -7 -28z m195 -70
c2 -36 -13 -60 -33 -53 -17 7 -17 1 4 -32 l17 -27 -32 29 c-29 27 -45 55 -23
41 6 -3 14 3 20 12 6 10 11 13 11 7 0 -12 30 -15 30 -4 0 4 -7 24 -15 43 -19
47 -19 55 2 34 10 -10 18 -32 19 -50z m-616 -128 c-7 -11 -14 -18 -17 -15 -3
3 0 12 7 21 18 21 23 19 10 -6z m520 -3 c0 -8 -5 -18 -10 -21 -8 -5 -7 -11 1
-21 9 -11 8 -14 -8 -14 -31 0 -34 11 -10 31 19 16 20 20 7 29 -13 8 -13 10 3
10 9 0 17 -6 17 -14z m-80 -137 c5 -17 4 -26 -4 -26 -6 -1 -26 -4 -43 -8 -21
-5 -33 -4 -33 3 0 12 24 38 41 44 8 3 6 20 -5 58 -9 29 -16 58 -16 64 0 12 46
-92 60 -135z m-837 6 c-3 -9 -8 -14 -10 -11 -3 3 -2 9 2 15 9 16 15 13 8 -4z
m664 -37 c-3 -7 -5 -2 -5 12 0 14 2 19 5 13 2 -7 2 -19 0 -25z m-686 -11 c-10
-9 -11 -8 -5 6 3 10 9 15 12 12 3 -3 0 -11 -7 -18z m211 1 c-7 -7 -12 -26 -12
-42 -1 -26 -2 -28 -11 -13 -7 13 -5 25 7 47 10 16 20 27 23 25 2 -3 -1 -11 -7
-17z m485 -40 c-3 -7 -5 -2 -5 12 0 14 2 19 5 13 2 -7 2 -19 0 -25z m-70 -30
c-3 -7 -5 -2 -5 12 0 14 2 19 5 13 2 -7 2 -19 0 -25z m-735 -18 c-2 -16 -10
-34 -18 -41 -11 -9 -12 -5 -4 20 5 17 6 31 4 31 -3 0 -2 5 1 10 12 20 21 9 17
-20z m858 -18 c0 -19 -45 -50 -56 -39 -12 12 8 46 29 50 12 2 23 5 25 6 1 0 2
-7 2 -17z m-198 -14 c-7 -7 -12 -8 -12 -2 0 6 3 14 7 17 3 4 9 5 12 2 2 -3 -1
-11 -7 -17z m111 -55 c7 3 20 8 30 12 26 11 21 -8 -10 -37 -23 -20 -40 -26
-88 -27 -66 -3 -67 8 -2 24 33 8 43 15 46 35 3 19 5 21 9 7 2 -10 9 -16 15
-14z m-810 -8 c-3 -9 -8 -14 -10 -11 -3 3 -2 9 2 15 9 16 15 13 8 -4z m-68
-115 c-3 -5 -16 -15 -28 -21 -22 -12 -22 -12 -3 10 19 21 43 30 31 11z m47
-12 c-7 -7 -12 -8 -12 -2 0 14 12 26 19 19 2 -3 -1 -11 -7 -17z m528 -48 c7
-22 10 -43 7 -47 -4 -3 -7 3 -7 15 0 27 -17 38 -23 15 -3 -10 -5 -1 -6 20 -1
49 12 47 29 -3z m-515 3 c0 -21 -8 -31 -29 -42 -23 -10 -31 -11 -34 -2 -3 9
-7 9 -18 0 -12 -10 -13 -9 -8 6 5 13 4 16 -4 11 -7 -4 -12 -3 -12 3 0 14 59
44 100 50 3 1 6 -11 5 -26z m535 12 c0 -8 -2 -15 -4 -15 -2 0 -6 7 -10 15 -3
8 -1 15 4 15 6 0 10 -7 10 -15z m-643 -20 c-7 -14 -18 -25 -26 -25 -10 0 -7 8
9 25 29 31 31 31 17 0z m129 -27 c-18 -26 -22 -17 -5 14 6 11 13 17 16 15 3
-3 -2 -16 -11 -29z m37 10 c-4 -7 -8 -16 -8 -20 0 -5 -3 -8 -7 -8 -5 0 -7 3
-7 8 4 19 12 32 21 32 5 0 6 -6 1 -12z m847 -89 c0 -5 12 -10 28 -10 23 -2 24
-2 5 -6 -13 -2 -23 -8 -23 -12 0 -3 -9 -7 -20 -7 -11 0 -20 4 -20 8 0 4 -7 5
-15 2 -8 -4 -15 -1 -15 6 0 7 8 10 20 7 17 -4 20 -2 15 14 -5 14 -3 17 9 13 9
-3 16 -10 16 -15z m-940 -4 c8 0 21 4 28 8 10 7 10 3 0 -17 -12 -27 -34 -37
-24 -11 4 12 0 12 -21 -2 -24 -16 -26 -16 -21 -1 6 14 4 15 -19 3 -28 -15 -48
-11 -37 6 9 16 47 27 64 20 8 -4 22 -6 30 -6z m60 -20 c-7 -9 -15 -13 -17 -11
-7 7 7 26 19 26 6 0 6 -6 -2 -15z m601 -2 c13 -16 12 -17 -3 -4 -17 13 -22 21
-14 21 2 0 10 -8 17 -17z m140 -40 c13 -16 12 -17 -3 -4 -17 13 -22 21 -14 21
2 0 10 -8 17 -17z m324 -11 c-3 -3 -11 0 -18 7 -9 10 -8 11 6 5 10 -3 15 -9
12 -12z m-350 -3 c11 -17 -1 -21 -15 -4 -8 9 -8 15 -2 15 6 0 14 -5 17 -11z
m-174 -16 c13 -16 12 -17 -3 -4 -17 13 -22 21 -14 21 2 0 10 -8 17 -17z m379
8 c0 -5 -7 -11 -14 -14 -10 -4 -13 -1 -9 9 6 15 23 19 23 5z m-950 -45 c0 -2
-8 -10 -17 -17 -16 -13 -17 -12 -4 4 13 16 21 21 21 13z m28 -38 c1 -39 -1
-41 -11 -21 -9 17 -16 19 -29 12 -10 -6 -18 -6 -18 -1 0 5 11 15 25 22 14 7
25 17 25 22 0 4 2 8 4 8 2 0 4 -19 4 -42z m-168 28 c0 -3 -4 -8 -10 -11 -5 -3
-10 -1 -10 4 0 6 5 11 10 11 6 0 10 -2 10 -4z m595 -36 c3 -5 1 -10 -4 -10 -6
0 -11 5 -11 10 0 6 2 10 4 10 3 0 8 -4 11 -10z m69 -16 c-7 17 -6 17 17 3 13
-9 27 -16 32 -17 4 0 7 -2 7 -5 0 -3 0 -10 0 -17 0 -9 -3 -9 -12 0 -7 7 -22
12 -35 12 -13 0 -27 9 -34 23 l-12 22 22 -19 c20 -18 21 -18 15 -2z m156 -16
c0 -12 -14 -10 -28 4 -19 19 -14 29 8 16 11 -7 20 -16 20 -20z m-617 16 c3 -3
3 -13 0 -21 -5 -12 -7 -12 -14 -1 -15 23 -4 40 14 22z m80 -31 c5 -7 18 -11
32 -9 18 3 26 -1 31 -17 3 -12 14 -30 23 -41 15 -17 15 -18 -4 -15 -13 3 -22
15 -26 34 -6 28 -7 27 -8 -10 l-2 -40 -15 28 c-8 15 -19 25 -24 22 -5 -3 -18
8 -30 25 -12 16 -24 29 -28 29 -19 -3 -23 2 -12 16 9 11 17 12 34 3 11 -6 25
-17 29 -25z m468 -6 c-1 -12 -15 -9 -19 4 -3 6 1 10 8 8 6 -3 11 -8 11 -12z
m-621 -21 c0 -3 -4 -8 -10 -11 -5 -3 -10 -1 -10 4 0 6 5 11 10 11 6 0 10 -2
10 -4z m265 -16 c4 -7 11 -7 18 -2 8 6 29 5 57 -4 34 -10 46 -18 46 -33 0 -13
-5 -17 -16 -13 -13 5 -13 4 -1 -12 13 -16 15 -16 24 -1 7 13 12 14 23 4 12
-10 13 -9 7 7 -6 17 -5 18 12 4 16 -14 17 -13 11 7 -9 29 11 25 60 -12 39 -30
86 -41 77 -19 -2 7 1 15 8 19 25 16 55 9 82 -20 18 -19 27 -23 23 -12 -9 27
15 20 52 -15 31 -30 33 -30 22 -8 -12 23 -12 24 4 11 11 -9 14 -21 10 -35 -4
-12 -7 -27 -7 -34 0 -8 -6 -7 -19 5 -17 15 -18 15 -18 0 0 -10 -5 -17 -10 -17
-6 0 -9 3 -8 8 4 9 -12 11 -31 4 -7 -3 -21 0 -30 7 -38 27 -84 43 -91 30 -12
-19 -96 -12 -147 13 -77 37 -83 42 -83 60 0 18 -8 21 -45 19 -11 0 -28 10 -38
24 -10 14 -13 25 -8 25 5 0 13 -5 16 -10z m-451 -39 c3 -4 -4 -17 -15 -27 -21
-19 -21 -18 -8 9 13 30 15 31 23 18z m241 -57 c-4 -22 -3 -34 3 -30 6 4 8 -3
4 -16 -5 -19 -7 -20 -10 -5 -2 9 -7 17 -12 17 -4 0 -3 16 3 35 14 46 21 45 12
-1z m49 -17 c4 -19 3 -26 -4 -22 -5 3 -10 18 -10 32 0 32 5 28 14 -10z m-334
-42 c-7 -9 -15 -13 -18 -10 -3 2 1 11 8 20 7 9 15 13 18 10 3 -2 -1 -11 -8
-20z m140 -19 c0 -3 -4 -8 -10 -11 -5 -3 -10 -1 -10 4 0 6 5 11 10 11 6 0 10
-2 10 -4z m722 -22 c35 -18 41 -18 34 1 -8 21 7 19 38 -6 15 -12 25 -15 24 -9
-2 7 3 15 10 17 6 3 12 0 12 -6 0 -6 6 -11 13 -11 8 0 21 -18 30 -40 8 -22 21
-40 27 -40 6 0 8 5 4 12 -4 7 -3 8 4 4 7 -4 12 -16 12 -27 0 -13 4 -18 12 -13
7 4 8 3 4 -4 -8 -14 -35 -3 -56 22 -7 9 -18 16 -26 16 -7 0 -18 9 -24 20 -6
11 -14 19 -18 18 -4 -1 -25 4 -46 10 -45 13 -61 8 -25 -8 22 -10 22 -10 -6 -4
-16 3 -37 12 -45 20 -8 8 -26 23 -40 34 l-25 20 30 -6 c17 -4 42 -13 57 -20z
m-779 9 c2 -5 -5 -17 -16 -27 -18 -17 -20 -17 -14 -2 4 10 7 22 7 27 0 11 17
12 23 2z m416 -43 c1 -12 -1 -12 -14 1 -10 10 -13 22 -9 34 7 18 8 18 15 -1 4
-10 8 -26 8 -34z m537 30 c0 -12 -4 -16 -9 -11 -5 5 -6 14 -3 20 10 15 12 14
12 -9z m-609 -22 c-3 -8 -6 -5 -6 6 -1 11 2 17 5 13 3 -3 4 -12 1 -19z m728
11 c11 -17 2 -18 -19 -3 -17 12 -17 14 -4 14 9 0 20 -5 23 -11z m-695 -9 c0
-5 -2 -10 -4 -10 -3 0 -8 5 -11 10 -3 6 -1 10 4 10 6 0 11 -4 11 -10z m669 -6
c2 -2 -3 -4 -11 -4 -9 0 -18 -5 -20 -10 -2 -6 -9 -1 -15 9 -11 18 -10 19 15
15 14 -3 29 -7 31 -10z m-444 -22 c-3 -3 -11 0 -18 7 -9 10 -8 11 6 5 10 -3
15 -9 12 -12z m-581 -36 c-3 -9 -10 -13 -15 -10 -5 3 -21 -4 -36 -16 -20 -16
-28 -18 -34 -8 -5 7 -2 20 7 29 7 8 14 21 14 27 0 16 10 15 31 -4 13 -12 19
-12 25 -3 4 8 3 10 -4 5 -8 -5 -10 -1 -5 10 5 14 7 14 15 1 4 -8 5 -22 2 -31z
m476 13 c0 -5 -7 -6 -15 -3 -8 4 -15 13 -15 21 0 13 3 13 15 3 8 -7 15 -16 15
-21z m185 21 c3 -5 2 -10 -4 -10 -5 0 -13 5 -16 10 -3 6 -2 10 4 10 5 0 13 -4
16 -10z m500 -30 c3 -5 1 -10 -4 -10 -6 0 -11 5 -11 10 0 6 2 10 4 10 3 0 8
-4 11 -10z m-125 -21 c0 -6 -4 -7 -10 -4 -5 3 -10 11 -10 16 0 6 5 7 10 4 6
-3 10 -11 10 -16z m-10 -30 c0 -6 -4 -7 -10 -4 -5 3 -10 11 -10 16 0 6 5 7 10
4 6 -3 10 -11 10 -16z m86 -6 c-4 -4 -12 -1 -19 7 -9 10 -9 11 1 6 7 -4 12 -2
13 6 0 11 2 11 6 0 3 -7 2 -16 -1 -19z m-1136 13 c0 -3 -4 -8 -10 -11 -5 -3
-10 -1 -10 4 0 6 5 11 10 11 6 0 10 -2 10 -4z m30 -6 c0 -5 -5 -10 -11 -10 -5
0 -7 5 -4 10 3 6 8 10 11 10 2 0 4 -4 4 -10z m230 -20 c0 -5 -2 -10 -4 -10 -3
0 -8 5 -11 10 -3 6 -1 10 4 10 6 0 11 -4 11 -10z m-170 -10 c0 -5 -4 -10 -10
-10 -5 0 -10 5 -10 10 0 6 5 10 10 10 6 0 10 -4 10 -10z m98 -11 c3 -12 2 -12
-6 0 -8 10 -10 11 -14 1 -2 -8 -12 -14 -22 -16 -10 -1 -15 3 -13 9 3 7 10 11
16 10 6 -2 11 2 11 8 0 15 23 6 28 -12z m-79 -83 c-9 -8 -10 -5 -5 14 3 14 7
39 8 55 1 20 3 16 5 -14 3 -26 -1 -48 -8 -55z m471 60 c0 -5 -7 -3 -15 4 -8 7
-12 17 -9 22 7 10 24 -9 24 -26z m50 14 c0 -5 -7 -10 -15 -10 -8 0 -15 5 -15
10 0 6 7 10 15 10 8 0 15 -4 15 -10z m70 -12 c0 -13 -23 -5 -28 10 -2 7 2 10
12 6 9 -3 16 -11 16 -16z m215 12 c3 -5 1 -10 -4 -10 -6 0 -11 5 -11 10 0 6 2
10 4 10 3 0 8 -4 11 -10z m125 -11 c0 -6 -4 -7 -10 -4 -5 3 -10 11 -10 16 0 6
5 7 10 4 6 -3 10 -11 10 -16z m-390 -30 c0 -6 -4 -7 -10 -4 -5 3 -10 11 -10
16 0 6 5 7 10 4 6 -3 10 -11 10 -16z m270 11 c0 -5 -2 -10 -4 -10 -3 0 -8 5
-11 10 -3 6 -1 10 4 10 6 0 11 -4 11 -10z m255 -10 c3 -5 -1 -10 -9 -10 -9 0
-16 5 -16 10 0 6 4 10 9 10 6 0 13 -4 16 -10z m-260 -20 c4 -6 10 -8 14 -6 4
3 8 -1 8 -9 0 -8 -5 -15 -12 -15 -13 0 -35 20 -35 32 0 11 18 10 25 -2z m204
-4 c9 -10 8 -15 -2 -19 -8 -3 -13 3 -14 14 -2 23 1 24 16 5z m-1033 -22 c-4
-9 -9 -15 -11 -12 -3 3 -3 13 1 22 4 9 9 15 11 12 3 -3 3 -13 -1 -22z m1152 6
c3 -9 -1 -11 -12 -7 -10 4 -24 7 -32 7 -8 0 -14 4 -14 8 0 13 54 6 58 -8z
m-564 -16 c3 -8 2 -12 -4 -9 -6 3 -10 10 -10 16 0 14 7 11 14 -7z m236 -10 c0
-8 -19 -13 -24 -6 -3 5 1 9 9 9 8 0 15 -2 15 -3z m-125 -105 c0 -32 -2 -36
-13 -25 -11 11 -11 18 -3 35 10 18 8 27 -15 59 l-26 37 29 -34 c20 -24 28 -45
28 -72z m-217 46 c-3 -3 -9 2 -12 12 -6 14 -5 15 5 6 7 -7 10 -15 7 -18z m167
5 c3 -6 -1 -7 -9 -4 -18 7 -21 14 -7 14 6 0 13 -4 16 -10z m370 -38 c3 -19 1
-21 -15 -12 -12 6 -16 17 -13 31 7 24 21 13 28 -19z m72 16 c-3 -8 -6 -5 -6 6
-1 11 2 17 5 13 3 -3 4 -12 1 -19z"/>
<path d="M2031 1925 c0 -5 6 -19 14 -29 8 -11 15 -15 15 -10 0 6 -7 19 -15 30
-8 10 -14 15 -14 9z"/>
<path d="M966 1035 c-3 -8 -1 -15 3 -15 5 0 11 7 15 15 3 8 1 15 -3 15 -5 0
-11 -7 -15 -15z"/>
<path d="M1482 590 c7 -11 17 -20 22 -20 5 0 1 9 -9 20 -10 11 -20 20 -22 20
-2 0 2 -9 9 -20z"/>
<path d="M1690 549 c0 -5 5 -7 10 -4 6 3 10 8 10 11 0 2 -4 4 -10 4 -5 0 -10
-5 -10 -11z"/>
<path d="M1730 440 c0 -5 5 -10 10 -10 6 0 10 5 10 10 0 6 -4 10 -10 10 -5 0
-10 -4 -10 -10z"/>
<path d="M2081 2393 c-1 -12 4 -25 9 -28 12 -7 12 2 0 30 -8 19 -9 19 -9 -2z"/>
<path d="M2630 2342 c0 -12 -4 -22 -9 -22 -5 0 -12 -8 -15 -17 -5 -12 3 -9 21
9 21 22 25 30 15 40 -9 9 -12 7 -12 -10z"/>
<path d="M1738 2333 c7 -3 16 -2 19 1 4 3 -2 6 -13 5 -11 0 -14 -3 -6 -6z"/>
<path d="M2440 2320 c0 -5 7 -10 15 -10 8 0 15 5 15 10 0 6 -7 10 -15 10 -8 0
-15 -4 -15 -10z"/>
<path d="M2646 2304 c-4 -9 -4 -19 -1 -22 2 -3 7 3 11 12 4 9 4 19 1 22 -2 3
-7 -3 -11 -12z"/>
<path d="M2241 2204 c5 -7 19 -12 29 -11 25 2 16 13 -15 19 -20 4 -23 2 -14
-8z"/>
<path d="M1968 2153 c0 -5 -2 -15 -2 -23 -1 -8 -10 -15 -21 -15 -11 0 -20 -7
-20 -15 0 -8 6 -14 14 -12 7 1 23 -3 35 -11 11 -8 27 -12 34 -10 20 8 14 30
-15 49 -16 10 -23 19 -15 22 6 2 12 8 12 13 0 11 -19 12 -22 2z"/>
<path d="M2270 2129 c0 -5 5 -7 10 -4 6 3 10 8 10 11 0 2 -4 4 -10 4 -5 0 -10
-5 -10 -11z"/>
<path d="M1895 2110 c3 -5 8 -10 11 -10 2 0 4 5 4 10 0 6 -5 10 -11 10 -5 0
-7 -4 -4 -10z"/>
<path d="M1865 2030 c-18 -8 -17 -9 8 -9 15 -1 27 4 27 9 0 12 -8 12 -35 0z"/>
<path d="M2358 2023 c7 -3 16 -2 19 1 4 3 -2 6 -13 5 -11 0 -14 -3 -6 -6z"/>
<path d="M1823 1960 c2 -23 22 -26 43 -6 20 21 18 26 -15 26 -24 0 -29 -4 -28
-20z"/>
<path d="M2343 1973 c-23 -9 -14 -18 16 -18 22 0 27 3 19 13 -11 13 -15 13
-35 5z"/>
<path d="M2490 1955 c14 -8 30 -14 35 -14 6 0 -1 6 -15 14 -14 8 -29 14 -35
14 -5 0 1 -6 15 -14z"/>
<path d="M2430 1955 c0 -3 27 -18 60 -35 62 -31 85 -34 28 -3 -47 25 -88 43
-88 38z"/>
<path d="M2651 1951 c-12 -8 -12 -12 -2 -24 10 -12 9 -18 -2 -28 -12 -11 9
-26 125 -92 107 -60 142 -76 152 -67 8 6 18 10 22 9 23 -4 26 2 8 16 -14 11
-15 14 -4 15 13 0 13 1 0 10 -13 8 -12 10 3 10 25 0 21 18 -5 23 -23 4 -23 4
1 6 20 1 21 3 11 16 -10 12 -9 15 6 15 18 1 18 1 0 15 -17 13 -16 14 13 13 17
-1 34 2 38 5 3 4 -8 7 -26 7 -18 0 -82 11 -143 25 -62 14 -120 22 -131 19 -13
-4 -17 -2 -13 5 9 13 -33 15 -53 2z m45 -36 c3 -19 -1 -19 -26 2 -14 13 -16
19 -7 25 14 8 30 -5 33 -27z m30 -11 c-3 -9 -6 -18 -6 -20 0 -3 -4 -3 -10 1
-11 7 -2 35 12 35 6 0 7 -7 4 -16z m-16 -42 c0 -9 -44 25 -48 37 -2 7 7 3 22
-10 14 -12 26 -25 26 -27z"/>
<path d="M1158 1933 c6 -2 18 -2 25 0 6 3 1 5 -13 5 -14 0 -19 -2 -12 -5z"/>
<path d="M2328 1913 c27 -39 62 -69 62 -54 0 6 -7 14 -15 17 -8 4 -15 15 -15
25 0 10 -7 19 -15 19 -8 0 -15 5 -15 10 0 6 -5 10 -11 10 -6 0 -2 -12 9 -27z"/>
<path d="M1005 1920 c-3 -5 -1 -10 4 -10 6 0 11 5 11 10 0 6 -2 10 -4 10 -3 0
-8 -4 -11 -10z"/>
<path d="M2440 1927 c0 -9 72 -57 85 -57 5 0 1 6 -10 13 -50 35 -75 49 -75 44z"/>
<path d="M2406 1858 c20 -29 45 -62 55 -72 17 -19 18 -19 25 8 6 24 0 34 -37
72 -24 24 -52 44 -62 44 -16 0 -13 -8 19 -52z"/>
<path d="M2445 1884 c42 -35 66 -48 60 -32 -6 14 -69 58 -82 58 -5 -1 6 -12
22 -26z"/>
<path d="M3143 1903 c9 -2 23 -2 30 0 6 3 -1 5 -18 5 -16 0 -22 -2 -12 -5z"/>
<path d="M3113 1873 c9 -2 23 -2 30 0 6 3 -1 5 -18 5 -16 0 -22 -2 -12 -5z"/>
<path d="M2610 1866 c0 -3 14 -13 30 -21 17 -9 28 -20 25 -25 -3 -6 1 -7 9 -4
10 4 16 1 16 -9 0 -17 107 -90 121 -82 5 4 8 1 7 -7 -2 -7 5 -12 15 -11 10 0
16 -2 13 -5 -3 -3 3 -11 14 -19 15 -11 24 -11 41 -2 12 6 19 7 15 1 -3 -6 8
-15 24 -21 17 -5 30 -8 30 -6 0 3 -33 26 -72 53 -77 52 -288 167 -288 158z
m126 -77 c19 -21 19 -21 -9 -8 -15 7 -27 16 -27 21 0 14 16 9 36 -13z"/>
<path d="M3175 1828 c1 -13 3 -29 4 -35 0 -7 5 -13 9 -13 4 0 6 16 4 35 -2 19
-8 35 -12 35 -4 0 -6 -10 -5 -22z"/>
<path d="M2745 1702 c43 -44 83 -78 89 -75 5 3 6 1 2 -5 -3 -5 5 -24 19 -40
14 -16 36 -49 50 -73 14 -24 25 -41 25 -38 0 14 -30 78 -40 84 -18 11 -11 23
10 18 11 -3 17 -10 13 -16 -3 -6 -1 -7 6 -3 6 4 9 11 6 16 -6 10 23 22 36 14
5 -3 9 -3 9 -1 0 11 -103 66 -112 61 -6 -4 -8 -2 -5 3 7 11 -80 73 -101 73 -7
0 -12 5 -12 11 0 5 -4 7 -10 4 -5 -3 -10 -2 -10 3 0 5 -12 18 -27 27 -16 10 8
-18 52 -63z m175 -109 c0 -7 -4 -13 -9 -13 -5 0 -13 6 -19 13 -8 10 -6 13 9
13 10 0 19 -6 19 -13z"/>
<path d="M3180 1756 c0 -8 5 -18 10 -21 6 -3 10 1 10 9 0 8 -4 18 -10 21 -5 3
-10 -1 -10 -9z"/>
<path d="M2925 1730 c-5 -7 7 -19 32 -34 8 -4 11 0 8 14 -4 23 5 26 25 8 12
-11 12 -10 2 3 -13 17 -59 23 -67 9z"/>
<path d="M2753 1656 c19 -15 23 -31 5 -20 -8 4 -10 3 -5 -2 5 -5 14 -9 20 -9
14 0 16 -32 5 -57 -6 -12 -3 -15 10 -13 9 2 21 4 25 4 5 1 5 6 2 11 -4 6 -11
8 -16 5 -5 -3 -6 1 -2 11 5 15 7 14 17 -2 11 -20 13 -25 15 -49 1 -9 7 -12 18
-8 13 5 15 2 10 -11 -4 -10 -7 -21 -7 -24 0 -4 -7 4 -16 16 -8 12 -20 20 -25
17 -5 -4 -9 -1 -9 4 0 6 5 11 12 11 6 0 9 2 6 5 -3 3 -12 3 -20 0 -13 -5 -10
-17 20 -71 20 -36 38 -60 40 -54 3 7 0 16 -6 22 -6 6 -8 17 -5 26 5 11 11 6
22 -18 9 -19 21 -35 28 -38 7 -2 1 17 -13 43 -15 25 -24 48 -21 51 3 3 17 -17
33 -45 15 -28 29 -49 32 -46 15 14 -157 255 -182 255 -6 0 -3 -7 7 -14z m76
-166 c11 -24 11 -24 -3 -6 -9 11 -16 24 -16 30 0 12 5 7 19 -24z"/>
<path d="M2890 1667 c0 -2 22 -18 50 -35 34 -21 46 -25 38 -13 -6 10 -25 24
-42 31 -17 7 -34 15 -38 18 -5 2 -8 2 -8 -1z"/>
<path d="M2730 1596 c0 -2 8 -10 18 -17 15 -13 16 -12 3 4 -13 16 -21 21 -21
13z"/>
<path d="M2735 1550 c10 -11 20 -20 23 -20 3 0 -3 9 -13 20 -10 11 -20 20 -23
20 -3 0 3 -9 13 -20z"/>
<path d="M2939 1553 c-13 -16 -12 -17 4 -4 9 7 17 15 17 17 0 8 -8 3 -21 -13z"/>
<path d="M2944 1502 c-1 -15 1 -22 3 -15 2 7 11 9 20 6 12 -5 12 -2 -3 15 -10
12 -19 22 -19 22 0 0 -1 -12 -1 -28z"/>
<path d="M950 1435 c-7 -8 -8 -15 -2 -15 5 0 15 7 22 15 7 8 8 15 2 15 -5 0
-15 -7 -22 -15z"/>
<path d="M2801 1445 c1 -19 18 -51 18 -35 0 8 -4 22 -9 30 -5 8 -9 11 -9 5z"/>
<path d="M2946 1442 c-2 -4 -1 -14 4 -22 7 -11 9 -9 7 8 -1 24 -3 26 -11 14z"/>
<path d="M865 1420 c4 -6 11 -8 16 -5 14 9 11 15 -7 15 -8 0 -12 -5 -9 -10z"/>
<path d="M988 1404 c-38 -20 -36 -28 2 -9 17 9 30 18 30 20 0 7 -1 6 -32 -11z"/>
<path d="M909 1389 c-23 -19 -23 -20 -2 -10 12 6 25 16 28 21 10 16 -1 12 -26
-11z"/>
<path d="M2831 1387 c-1 -11 -6 -15 -13 -11 -7 5 -8 3 -3 -5 10 -16 29 2 22
21 -4 8 -6 7 -6 -5z"/>
<path d="M2857 1393 c-4 -3 -7 -11 -7 -17 0 -6 5 -5 12 2 6 6 9 14 7 17 -3 3
-9 2 -12 -2z"/>
<path d="M774 1361 c-13 -13 1 -19 39 -14 60 6 70 22 12 20 -25 -1 -49 -4 -51
-6z"/>
<path d="M949 1343 c-13 -17 -13 -17 6 -3 11 8 22 16 24 17 2 2 0 3 -6 3 -6 0
-17 -8 -24 -17z"/>
<path d="M870 1330 c-9 -6 -10 -10 -3 -10 6 0 15 5 18 10 8 12 4 12 -15 0z"/>
<path d="M2952 1310 c0 -14 2 -19 5 -12 2 6 2 18 0 25 -3 6 -5 1 -5 -13z"/>
<path d="M610 1141 c0 -6 4 -13 10 -16 6 -3 7 1 4 9 -7 18 -14 21 -14 7z"/>
<path d="M630 1105 l-21 -22 29 -6 c18 -4 31 -14 35 -26 3 -12 11 -21 19 -21
11 0 10 2 -1 9 -7 5 -10 14 -7 20 4 6 2 11 -4 11 -17 0 -1 20 22 29 17 6 15 9
-15 18 -32 10 -38 8 -57 -12z"/>
<path d="M775 1100 c4 -6 11 -8 16 -5 14 9 11 15 -7 15 -8 0 -12 -5 -9 -10z"/>
<path d="M2895 1000 c-3 -5 -1 -10 4 -10 6 0 11 5 11 10 0 6 -2 10 -4 10 -3 0
-8 -4 -11 -10z"/>
<path d="M2920 981 c0 -5 -18 -8 -40 -6 -22 2 -42 -1 -45 -6 -4 -5 -1 -9 4 -9
6 0 11 -7 11 -15 0 -8 -4 -15 -10 -15 -5 0 -10 5 -10 10 0 6 -5 10 -11 10 -8
0 -8 -4 1 -15 6 -8 8 -20 4 -27 -5 -7 -9 -19 -11 -27 -3 -22 -25 -38 -30 -23
-7 19 -33 -5 -33 -30 0 -17 -3 -18 -15 -8 -16 13 -19 8 -15 -24 1 -14 -3 -18
-19 -13 -15 4 -21 0 -21 -12 0 -21 -36 -45 -46 -30 -4 7 -13 3 -25 -10 -11
-12 -24 -21 -29 -21 -6 0 -10 -6 -10 -14 0 -7 -6 -19 -14 -25 -8 -7 -12 -21
-8 -33 3 -15 1 -19 -9 -16 -8 2 -15 14 -17 26 -2 13 -8 19 -18 15 -10 -3 -12
0 -8 10 3 8 1 18 -5 22 -6 3 -11 -2 -11 -13 0 -10 -11 -24 -25 -30 -32 -15
-38 -15 -30 -2 9 15 0 12 -22 -7 -11 -10 -18 -24 -16 -30 3 -7 -1 -13 -8 -13
-10 0 -10 -3 -1 -12 10 -10 7 -15 -10 -25 -19 -10 -20 -12 -5 -13 20 0 22 -11
5 -28 -10 -10 -10 -15 1 -22 12 -7 11 -11 -3 -25 -21 -21 -15 -30 11 -17 16 9
18 7 17 -16 0 -17 -7 -28 -17 -30 -10 -2 -17 -8 -17 -13 0 -6 9 -7 21 -4 18 6
20 5 10 -14 -12 -22 -13 -22 49 -25 14 -1 25 -5 25 -11 0 -5 6 -19 13 -30 12
-18 13 -18 7 8 -6 28 9 38 19 12 3 -8 13 -15 21 -15 9 0 13 5 10 10 -4 7 2 9
17 5 19 -5 39 7 98 58 132 112 252 256 335 403 50 87 57 124 25 124 -16 0 -20
7 -21 33 -1 17 -3 24 -6 15 -4 -15 -6 -15 -24 3 -20 20 -39 25 -39 10z m-77
-101 c-3 -11 -7 -20 -9 -20 -2 0 -4 9 -4 20 0 11 4 20 9 20 5 0 7 -9 4 -20z
m-63 -40 c0 -5 -4 -10 -10 -10 -5 0 -10 5 -10 10 0 6 5 10 10 10 6 0 10 -4 10
-10z m-270 -210 c0 -5 -2 -10 -4 -10 -3 0 -8 5 -11 10 -3 6 -1 10 4 10 6 0 11
-4 11 -10z"/>
<path d="M763 921 c-38 -17 -43 -31 -10 -32 12 0 16 -3 10 -6 -7 -2 -13 -9
-13 -14 0 -16 37 9 60 40 19 27 19 30 3 28 -10 -1 -33 -8 -50 -16z"/>
<path d="M856 862 c-3 -5 1 -9 9 -9 8 0 12 4 9 9 -3 4 -7 8 -9 8 -2 0 -6 -4
-9 -8z"/>
<path d="M856 704 c-5 -14 -4 -15 9 -4 17 14 19 20 6 20 -5 0 -12 -7 -15 -16z"/>
<path d="M1966 635 c6 -14 22 -22 63 -30 12 -2 19 0 16 6 -4 5 -14 9 -24 9
-10 0 -24 7 -31 15 -16 19 -31 19 -24 0z"/>
<path d="M2342 616 c7 -8 15 -12 17 -11 5 6 -10 25 -20 25 -5 0 -4 -6 3 -14z"/>
<path d="M1980 586 c0 -2 8 -10 18 -17 15 -13 16 -12 3 4 -13 16 -21 21 -21
13z"/>
<path d="M1860 542 c6 -13 14 -21 18 -18 3 4 -2 14 -12 24 -18 16 -18 16 -6
-6z"/>
<path d="M2050 466 c0 -2 7 -9 15 -16 9 -7 15 -8 15 -2 0 5 -7 12 -15 16 -8 3
-15 4 -15 2z"/>
<path d="M680 421 c-19 -16 -32 -32 -29 -35 3 -3 21 10 39 29 41 42 37 45 -10
6z"/>
<path d="M2160 343 c-8 -3 -26 -14 -40 -23 -14 -9 -31 -15 -39 -12 -18 6 -34
-20 -18 -30 7 -4 23 -8 36 -8 16 0 22 4 17 15 -4 11 1 15 19 15 21 0 46 9 75
28 5 3 -22 22 -30 21 -3 0 -12 -3 -20 -6z"/>
<path d="M2395 330 c-11 -5 -15 -9 -8 -9 6 -1 19 -4 29 -8 13 -5 15 -3 9 8 -6
11 -5 11 5 2 16 -15 3 -36 -20 -30 -11 3 -21 -1 -24 -9 -4 -10 3 -14 24 -14
20 0 30 5 30 15 0 8 5 15 10 15 6 0 5 8 -2 20 -14 22 -22 23 -53 10z"/>
<path d="M2460 280 c0 -5 5 -10 10 -10 6 0 10 5 10 10 0 6 -4 10 -10 10 -5 0
-10 -4 -10 -10z"/>
<path d="M2430 246 c7 -7 13 -7 20 0 6 6 3 10 -10 10 -13 0 -16 -4 -10 -10z"/>
<path d="M820 216 c0 -2 7 -7 16 -10 8 -3 12 -2 9 4 -6 10 -25 14 -25 6z"/>
</g>
</svg>
