P2
30 7
19
0  0  0  0  0  0  0  0  0  0  0  0  0  0  0  0  0  0  0  0  0  0  0  0  0  0  0  0  0  0
0  3  0  0  3  0  0  7  7  7  7  0  0 11  0  0  0  0  0 15  0  0  0  0  0 19 19 19 19  0
0  3  0  0  3  0  0  7  0  0  0  0  0 11  0  0  0  0  0 15  0  0  0  0  0 19  0  0 19  0
0  3  3  3  3  0  0  7  7  7  0  0  0 11  0  0  0  0  0 15  0  0  0  0  0 19  0  0 19  0
0  3  0  0  3  0  0  7  0  0  0  0  0 11  0  0  0  0  0 15  0  0  0  0  0 19  0  0 19  0
0  3  0  0  3  0  0  7  7  7  7  0  0 11 11 11 11  0  0 15 15 15 15  0  0 19 19 19 19  0
0  0  0  0  0  0  0  0  0  0  0  0  0  0  0  0  0  0  0  0  0  0  0  0  0  0  0  0  0  0
